<?xml version="1.0" standalone="no"?>
<!DOCTYPE svg PUBLIC "-//W3C//DTD SVG 1.1//EN" "http://www.w3.org/Graphics/SVG/1.1/DTD/svg11.dtd" >
<svg xmlns="http://www.w3.org/2000/svg" xmlns:xlink="http://www.w3.org/1999/xlink" version="1.1">
<metadata>
Created by FontForge 20170910 at Thu Nov  9 15:49:31 2017
 By Jimmy Wärting
Copyright 2013 The Alegreya Sans Project Authors (https://github.com/huertatipografica/Alegreya-Sans)
</metadata>
<defs>
<font id="AlegreyaSans-Thin" horiz-adv-x="0" >
  <font-face 
    font-family="Alegreya Sans Thin"
    font-weight="250"
    font-stretch="normal"
    units-per-em="1000"
    panose-1="0 0 3 0 0 0 0 0 0 0"
    ascent="800"
    descent="-200"
    x-height="453"
    cap-height="637"
    bbox="-401 -265 1117 945"
    underline-thickness="42"
    underline-position="-190"
    unicode-range="U+000D-FB02"
  />
<missing-glyph horiz-adv-x="180" 
 />
    <glyph glyph-name="uni1EBC" unicode="&#x7e;E" horiz-adv-x="454" 
d="M425 16l-4 -16h-311v637h308l3 -4l-4 -16h-287v-277h238l3 -4l-4 -16h-237v-300h292zM405 805v-4l-52 -47l-6 -2q-20 2 -81 20q-6 2 -35 10t-40 8q-5 0 -13 -6t-17 -16l-21 -19h-4l-9 11v4l52 47l6 2q20 -2 81 -20q6 -2 35 -10t40 -8q5 0 13 6t17 16l21 19h4z" />
    <glyph glyph-name="Idieresis" unicode="&#xa8;I" horiz-adv-x="240" 
d="M130 0h-20v637h20v-637zM84.5 794.5q5.5 -5.5 5.5 -14.5t-5.5 -14.5t-14.5 -5.5t-14.5 5.5t-5.5 14.5t5.5 14.5t14.5 5.5t14.5 -5.5zM184.5 794.5q5.5 -5.5 5.5 -14.5t-5.5 -14.5t-14.5 -5.5t-14.5 5.5t-5.5 14.5t5.5 14.5t14.5 5.5t14.5 -5.5z" />
    <glyph glyph-name="Itilde" unicode="&#x7e;I" horiz-adv-x="240" 
d="M130 0h-20v637h20v-637zM244 802v-4l-47 -47l-6 -2q-16 2 -72 20q-54 18 -65 18q-5 0 -13 -7t-17 -17l-16 -16h-3l-9 11v4l47 47l6 2q16 -2 72 -20q54 -18 65 -18q5 0 12 6t15 15l19 19h3z" />
    <glyph glyph-name="Odieresis" unicode="&#xa8;O" horiz-adv-x="627" 
d="M511.5 561q67.5 -81 67.5 -232q0 -161 -70 -247.5t-201 -86.5q-125 0 -192.5 83.5t-67.5 238.5q0 157 70 241t200 84q126 0 193.5 -81zM132.5 543q-64.5 -79 -64.5 -226q0 -145 62 -223.5t178 -78.5q121 0 186 81.5t65 232.5q0 141 -62.5 217t-178.5 76
q-121 0 -185.5 -79zM258.5 794.5q5.5 -5.5 5.5 -14.5t-5.5 -14.5t-14.5 -5.5t-14.5 5.5t-5.5 14.5t5.5 14.5t14.5 5.5t14.5 -5.5zM398.5 794.5q5.5 -5.5 5.5 -14.5t-5.5 -14.5t-14.5 -5.5t-14.5 5.5t-5.5 14.5t5.5 14.5t14.5 5.5t14.5 -5.5z" />
    <glyph glyph-name="Utilde" unicode="&#x7e;U" horiz-adv-x="612" 
d="M526 229q3 -110 -55 -171.5t-165 -61.5t-163.5 60t-56.5 173v408h20v-408q-1 -103 51 -158t149 -55t148.5 55t51.5 158v408h20v-408zM449 805v-4l-52 -47l-6 -2q-20 2 -81 20q-6 2 -35 10t-40 8q-5 0 -13 -6t-17 -16l-21 -19h-4l-9 11v4l52 47l6 2q20 -2 81 -20
q6 -2 35 -10t40 -8q5 0 13 6t17 16l21 19h4z" />
    <glyph glyph-name="Yacute" unicode="&#xb4;Y" horiz-adv-x="495" 
d="M248 245v-245h-20v246l-202 391h26l11 -26l173 -334h5l188 334l11 26h26zM348 834l7 -12l-2 -5q-67 -38 -174 -93l-5 3l-7 15q91 44 176 94z" />
    <glyph glyph-name="uni1EF8" unicode="&#x7e;Y" horiz-adv-x="495" 
d="M248 245v-245h-20v246l-202 391h26l11 -26l173 -334h5l188 334l11 26h26zM378 805v-4l-52 -47l-6 -2q-20 2 -81 20q-6 2 -35 10t-40 8q-5 0 -13 -6t-17 -16l-21 -19h-4l-9 11v4l52 47l6 2q20 -2 81 -20q6 -2 35 -10t40 -8q5 0 13 6t17 16l21 19h4z" />
    <glyph glyph-name="uni1EBD" unicode="&#x7e;e" horiz-adv-x="446" 
d="M349.5 413.5q38.5 -43.5 38.5 -121.5q0 -20 -1 -30l-6 -7l-304 -4q-1 -10 -1 -30q0 -95 43.5 -150.5t118.5 -55.5q37 0 72 11.5t61 31.5l6 -2l-3 -20q-62 -41 -138 -41q-83 0 -131.5 61t-48.5 165q0 108 50.5 172t135.5 64q69 0 107.5 -43.5zM369 296q0 66 -34.5 103.5
t-93.5 37.5q-65 0 -108 -44.5t-54 -121.5l289 4zM369 620v-4l-52 -47l-6 -2q-20 2 -81 20q-6 2 -35 10t-40 8q-5 0 -13 -6t-17 -16l-21 -19h-4l-9 11v4l52 47l6 2q20 -2 81 -20q6 -2 35 -10t40 -8q5 0 13 6t17 16l21 19h4z" />
    <glyph glyph-name="idieresis" unicode="&#xa8;i" horiz-adv-x="222" 
d="M101 449l20 4v-453h-20v449zM75.5 609.5q5.5 -5.5 5.5 -14.5t-5.5 -14.5t-14.5 -5.5t-14.5 5.5t-5.5 14.5t5.5 14.5t14.5 5.5t14.5 -5.5zM175.5 609.5q5.5 -5.5 5.5 -14.5t-5.5 -14.5t-14.5 -5.5t-14.5 5.5t-5.5 14.5t5.5 14.5t14.5 5.5t14.5 -5.5z" />
    <glyph glyph-name="itilde" unicode="&#x7e;i" horiz-adv-x="222" 
d="M101 449l20 4v-453h-20v449zM235 617v-4l-47 -47l-6 -2q-16 2 -72 20q-54 18 -65 18q-5 0 -13 -7t-17 -17l-16 -16h-3l-9 11v4l47 47l6 2q16 -2 72 -20q54 -18 65 -18q5 0 12 6t15 15l19 19h3z" />
    <glyph glyph-name="odieresis" unicode="&#xa8;o" horiz-adv-x="487" 
d="M380 396.5q49 -60.5 49 -166.5q0 -109 -50.5 -172t-139.5 -63q-85 0 -134 60.5t-49 166.5q0 109 50.5 172t139.5 63q85 0 134 -60.5zM121.5 380q-45.5 -57 -45.5 -158q0 -97 43.5 -152t119.5 -55q79 0 124.5 57t45.5 158q0 97 -43.5 152t-119.5 55q-79 0 -124.5 -57z
M187.5 609.5q5.5 -5.5 5.5 -14.5t-5.5 -14.5t-14.5 -5.5t-14.5 5.5t-5.5 14.5t5.5 14.5t14.5 5.5t14.5 -5.5zM327.5 609.5q5.5 -5.5 5.5 -14.5t-5.5 -14.5t-14.5 -5.5t-14.5 5.5t-5.5 14.5t5.5 14.5t14.5 5.5t14.5 -5.5z" />
    <glyph glyph-name="utilde" unicode="&#x7e;u" horiz-adv-x="504" 
d="M475 29l-4 -18q-20 -14 -45 -14q-28 0 -41 20t-13 62h-4q-77 -83 -160 -83q-57 0 -87.5 35.5t-30.5 100.5v317l20 4v-320q0 -56 26 -86.5t75 -30.5q40 0 81 23.5t80 68.5v341l20 4v-374q0 -32 8.5 -47t27.5 -15q23 0 41 15zM393 620v-4l-52 -47l-6 -2q-20 2 -81 20
q-6 2 -35 10t-40 8q-5 0 -13 -6t-17 -16l-21 -19h-4l-9 11v4l52 47l6 2q20 -2 81 -20q6 -2 35 -10t40 -8q5 0 13 6t17 16l21 19h4z" />
    <glyph glyph-name="yacute" unicode="&#xb4;y" horiz-adv-x="405" 
d="M54 409l140 -373h5l146 373l15 43h24l-177 -452q-26 -67 -53 -104t-63 -55.5t-95 -30.5h-5q-4 4 -8 12v6q60 12 95 29.5t59.5 50t47.5 92.5l-166 450l21 4zM307 668l10 -10l-1 -5q-69 -69 -144 -135l-5 1l-11 13q69 58 146 137z" />
    <glyph glyph-name="uni1EF9" unicode="&#x7e;y" horiz-adv-x="405" 
d="M54 409l140 -373h5l146 373l15 43h24l-177 -452q-26 -67 -53 -104t-63 -55.5t-95 -30.5h-5q-4 4 -8 12v6q60 12 95 29.5t59.5 50t47.5 92.5l-166 450l21 4zM344 620v-4l-52 -47l-6 -2q-20 2 -81 20q-6 2 -35 10t-40 8q-5 0 -13 -6t-17 -16l-21 -19h-4l-9 11v4l52 47l6 2
q20 -2 81 -20q6 -2 35 -10t40 -8q5 0 13 6t17 16l21 19h4z" />
    <glyph glyph-name="f_j" unicode="fj" horiz-adv-x="509" 
d="M397 682l-6 -20h-6q-49 23 -112 23q-71 0 -103.5 -34.5t-32.5 -109.5v-89h256l19 2l3 -2v-440q0 -78 -19 -120.5t-71 -83.5l-11 11v6q47 38 64 76.5t17 106.5v424h-258v-432h-20v432h-67l-4 4l4 16h67v89q0 85 37.5 124.5t118.5 39.5q64 0 124 -23z" />
    <glyph glyph-name="fi" unicode="fi" horiz-adv-x="505" 
d="M397 682l-6 -20h-6q-49 23 -112 23q-71 0 -103.5 -34.5t-32.5 -109.5v-89h262l13 2l3 -2v-452h-20v432h-258v-432h-20v432h-67l-4 4l4 16h67v89q0 85 37.5 124.5t118.5 39.5q64 0 124 -23z" />
    <glyph glyph-name="fl" unicode="fl" horiz-adv-x="510" 
d="M396 696l-2 -19l-3 -2q-63 17 -112 17q-142 0 -142 -134v-106h125l3 -4l-3 -16h-125v-432h-20v432h-67l-4 4l3 16h68v106q0 77 40.5 115.5t119.5 38.5q49 0 119 -16zM405 0h-20v698l20 4v-702z" />
    <glyph glyph-name="Gtilde" unicode="&#x7e;G" horiz-adv-x="603" 
d="M432.5 627q46.5 -14 90.5 -40l-6 -18h-7q-87 52 -167 52q-132 0 -203.5 -80t-71.5 -229q0 -143 62 -220t177 -77q47 0 86.5 6.5t102.5 23.5v201l20 2v-218q-66 -19 -109.5 -26.5t-98.5 -8.5q-125 0 -192.5 82.5t-67.5 235.5q0 158 76.5 243t218.5 85q43 0 89.5 -14z
M464 805v-4l-52 -47l-6 -2q-20 2 -81 20q-6 2 -35 10t-40 8q-5 0 -13 -6t-17 -16l-21 -19h-4l-9 11v4l52 47l6 2q20 -2 81 -20q6 -2 35 -10t40 -8q5 0 13 6t17 16l21 19h4z" />
    <glyph glyph-name="gtilde" unicode="&#x7e;g" horiz-adv-x="472" 
d="M346 416l-2 -3q39 -41 39 -109q0 -71 -42 -112.5t-115 -41.5q-42 0 -75 14q-31 -20 -43 -33t-12 -24q0 -23 30.5 -33.5t97.5 -21.5q60 -9 98.5 -18.5t65.5 -31t27 -57.5t-27.5 -67.5t-73.5 -50.5t-98 -19q-71 0 -113.5 32.5t-42.5 82.5q5 34 29 60.5t73 54.5v5
q-42 9 -64.5 25t-22.5 43q5 25 57 60v3q-29 20 -45 52.5t-16 74.5q0 73 42 114t116 41q55 0 94 -25q74 14 128 29l4 -3v-18q-47 -12 -109 -23zM327 205.5q37 35.5 37 98.5q0 62 -36 97t-99 35q-65 0 -102 -36t-37 -99q0 -61 36 -96t100 -35t101 35.5zM372.5 -9
q-22.5 17 -55 25t-86.5 16q-13 1 -34 5q-55 -28 -86 -57t-31 -62q0 -37 37 -63.5t99 -26.5q48 0 89 17t65.5 44t24.5 56t-22.5 46zM376 610v-4l-52 -47l-6 -2q-20 2 -81 20q-6 2 -35 10t-40 8q-5 0 -13 -6t-17 -16l-21 -19h-4l-9 11v4l52 47l6 2q20 -2 81 -20q6 -2 35 -10
t40 -8q5 0 13 6t17 16l21 19h4z" />
    <glyph glyph-name=".notdef" horiz-adv-x="180" 
 />
    <glyph glyph-name="nonmarkingreturn" unicode="&#xd;" horiz-adv-x="180" 
 />
    <glyph glyph-name="space" unicode=" " horiz-adv-x="180" 
 />
    <glyph glyph-name="A" unicode="A" horiz-adv-x="554" 
d="M526 0h-23l-13 43l-63 170h-302l-68 -170l-14 -43h-24l254 637h20zM284 603h-4l-147 -370h287z" />
    <glyph glyph-name="Aacute" unicode="&#xc1;" horiz-adv-x="554" 
d="M526 0h-23l-13 43l-63 170h-302l-68 -170l-14 -43h-24l254 637h20zM284 603h-4l-147 -370h287zM386 834l7 -12l-2 -5q-67 -38 -174 -93l-5 3l-7 15q91 44 176 94z" />
    <glyph glyph-name="Abreve" unicode="&#x102;" horiz-adv-x="554" 
d="M526 0h-23l-13 43l-63 170h-302l-68 -170l-14 -43h-24l254 637h20zM284 603h-4l-147 -370h287zM378 802q-11 -36 -37.5 -55t-64.5 -19t-64 19t-36 55l13 11h5q8 -32 28.5 -48.5t53.5 -16.5t54.5 16.5t29.5 48.5h5z" />
    <glyph glyph-name="uni1EAE" unicode="&#x1eae;" horiz-adv-x="554" 
d="M526 0h-23l-13 43l-63 170h-302l-68 -170l-14 -43h-24l254 637h20zM284 603h-4l-147 -370h287zM347 886l-1 -5l-81 -88l-5 1l-12 12q26 27 83 90h5zM378 782q-11 -36 -37.5 -55t-64.5 -19t-64 19t-36 55l13 11h5q8 -32 28.5 -48.5t53.5 -16.5t54.5 16.5t29.5 48.5h5z" />
    <glyph glyph-name="uni1EB6" unicode="&#x1eb6;" horiz-adv-x="554" 
d="M526 0h-23l-13 43l-63 170h-302l-68 -170l-14 -43h-24l254 637h20zM284 603h-4l-147 -370h287zM291.5 -93.5q5.5 -5.5 5.5 -14.5t-5.5 -14.5t-14.5 -5.5t-14.5 5.5t-5.5 14.5t5.5 14.5t14.5 5.5t14.5 -5.5zM378 802q-11 -36 -37.5 -55t-64.5 -19t-64 19t-36 55l13 11h5
q8 -32 28.5 -48.5t53.5 -16.5t54.5 16.5t29.5 48.5h5z" />
    <glyph glyph-name="uni1EB0" unicode="&#x1eb0;" horiz-adv-x="554" 
d="M526 0h-23l-13 43l-63 170h-302l-68 -170l-14 -43h-24l254 637h20zM284 603h-4l-147 -370h287zM280 793l-81 88l-1 5l11 10h5q57 -63 83 -90l-12 -12zM378 782q-11 -36 -37.5 -55t-64.5 -19t-64 19t-36 55l13 11h5q8 -32 28.5 -48.5t53.5 -16.5t54.5 16.5t29.5 48.5h5z
" />
    <glyph glyph-name="uni1EB2" unicode="&#x1eb2;" horiz-adv-x="554" 
d="M526 0h-23l-13 43l-63 170h-302l-68 -170l-14 -43h-24l254 637h20zM284 603h-4l-147 -370h287zM378 782q-11 -36 -37.5 -55t-64.5 -19t-64 19t-36 55l13 11h5q8 -32 28.5 -48.5t53.5 -16.5t54.5 16.5t29.5 48.5h5zM257 829q25 16 38 31.5t13 26.5q0 9 -7 14.5t-19 5.5
q-26 0 -54 -23l-8 14q34 29 64 29q19 0 31.5 -11t12.5 -27q0 -29 -48 -65l16 -29l-17 -7z" />
    <glyph glyph-name="uni1EB4" unicode="&#x1eb4;" horiz-adv-x="554" 
d="M526 0h-23l-13 43l-63 170h-302l-68 -170l-14 -43h-24l254 637h20zM284 603h-4l-147 -370h287zM378 782q-11 -36 -37.5 -55t-64.5 -19t-64 19t-36 55l13 11h5q8 -32 28.5 -48.5t53.5 -16.5t54.5 16.5t29.5 48.5h5zM385.546 896v-4l-50.4541 -47l-5.71191 -2
q-22.8467 3 -77.1094 21q-59.0215 18 -70.4453 18q-4.75977 0 -12.375 -6q-7.61621 -6 -16.1836 -16l-19.9912 -19h-3.80859l-7.61523 11v4l50.4541 47l5.71191 2q19.0391 -2 75.2051 -20q58.0703 -19 72.3496 -19q4.75977 0 11.4238 6q6.66309 6 15.2314 15l20.9424 20
h3.80859z" />
    <glyph glyph-name="uni01CD" unicode="&#x1cd;" horiz-adv-x="554" 
d="M526 0h-23l-13 43l-63 170h-302l-68 -170l-14 -43h-24l254 637h20zM284 603h-4l-147 -370h287zM384 805q-47 -33 -98 -76h-16q-66 52 -100 76l7 14h5q46 -32 95 -70q49 38 95 70h5z" />
    <glyph glyph-name="Acircumflex" unicode="&#xc2;" horiz-adv-x="554" 
d="M526 0h-23l-13 43l-63 170h-302l-68 -170l-14 -43h-24l254 637h20zM284 603h-4l-147 -370h287zM170 752q47 33 98 76h16q66 -52 100 -76l-7 -14h-5q-46 32 -95 70q-49 -38 -95 -70h-5z" />
    <glyph glyph-name="uni1EA4" unicode="&#x1ea4;" horiz-adv-x="554" 
d="M526 0h-23l-13 43l-63 170h-302l-68 -170l-14 -43h-24l254 637h20zM284 603h-4l-147 -370h287zM413 895l-1 -5l-68 -76h-6l-11 11l70 80l5 -1zM170 732q47 33 98 76h16q66 -52 100 -76l-7 -14h-5q-46 32 -95 70q-49 -38 -95 -70h-5z" />
    <glyph glyph-name="uni1EAC" unicode="&#x1eac;" horiz-adv-x="554" 
d="M526 0h-23l-13 43l-63 170h-302l-68 -170l-14 -43h-24l254 637h20zM284 603h-4l-147 -370h287zM291.5 -93.5q5.5 -5.5 5.5 -14.5t-5.5 -14.5t-14.5 -5.5t-14.5 5.5t-5.5 14.5t5.5 14.5t14.5 5.5t14.5 -5.5zM170 752q47 33 98 76h16q66 -52 100 -76l-7 -14h-5
q-46 32 -95 70q-49 -38 -95 -70h-5z" />
    <glyph glyph-name="uni1EA6" unicode="&#x1ea6;" horiz-adv-x="554" 
d="M526 0h-23l-13 43l-63 170h-302l-68 -170l-14 -43h-24l254 637h20zM284 603h-4l-147 -370h287zM304 890l-1 5l11 9l5 1l70 -80l-11 -11h-6zM170 732q47 33 98 76h16q66 -52 100 -76l-7 -14h-5q-46 32 -95 70q-49 -38 -95 -70h-5z" />
    <glyph glyph-name="uni1EA8" unicode="&#x1ea8;" horiz-adv-x="554" 
d="M526 0h-23l-13 43l-63 170h-302l-68 -170l-14 -43h-24l254 637h20zM284 603h-4l-147 -370h287zM170 752q47 33 98 76h16q66 -52 100 -76l-7 -14h-5q-46 32 -95 70q-49 -38 -95 -70h-5zM334.14 840.585q23.7998 15.2314 36.1748 29.9873q12.376 14.7559 12.376 25.2275
q0 8.56738 -6.66406 13.8027q-6.66406 5.23633 -18.0869 5.23633q-24.752 0 -51.4062 -21.8955l-7.61621 13.3281q32.3672 27.6064 60.9258 27.6064q18.0879 0 29.9873 -10.4717t11.8994 -25.7031q0 -27.6064 -45.6943 -61.8779l15.2314 -27.6064l-16.1836 -6.66406z" />
    <glyph glyph-name="uni1EAA" unicode="&#x1eaa;" horiz-adv-x="554" 
d="M526 0h-23l-13 43l-63 170h-302l-68 -170l-14 -43h-24l254 637h20zM284 603h-4l-147 -370h287zM170 752q47 33 98 76h16q66 -52 100 -76l-7 -14h-5q-46 32 -95 70q-49 -38 -95 -70h-5zM416 916v-4l-53 -47l-6 -2q-24 3 -81 21q-62 18 -74 18q-5 0 -13 -6t-17 -16l-21 -19
h-4l-8 11v4l53 47l6 2q20 -2 79 -20q61 -19 76 -19q5 0 12 6t16 15l22 20h4z" />
    <glyph glyph-name="uni0200" unicode="&#x200;" horiz-adv-x="554" 
d="M526 0h-23l-13 43l-63 170h-302l-68 -170l-14 -43h-24l254 637h20zM284 603h-4l-147 -370h287zM226 721l-5 -1q-77 70 -112 105l-1 5l10 10l5 1q14 -14 89 -84l25 -23zM356 721l-5 -1q-77 70 -112 105l-1 5l10 10l5 1q14 -14 89 -84l25 -23z" />
    <glyph glyph-name="Adieresis" unicode="&#xc4;" horiz-adv-x="554" 
d="M526 0h-23l-13 43l-63 170h-302l-68 -170l-14 -43h-24l254 637h20zM284 603h-4l-147 -370h287zM221.5 794.5q5.5 -5.5 5.5 -14.5t-5.5 -14.5t-14.5 -5.5t-14.5 5.5t-5.5 14.5t5.5 14.5t14.5 5.5t14.5 -5.5zM361.5 794.5q5.5 -5.5 5.5 -14.5t-5.5 -14.5t-14.5 -5.5
t-14.5 5.5t-5.5 14.5t5.5 14.5t14.5 5.5t14.5 -5.5z" />
    <glyph glyph-name="uni1EA0" unicode="&#x1ea0;" horiz-adv-x="554" 
d="M526 0h-23l-13 43l-63 170h-302l-68 -170l-14 -43h-24l254 637h20zM284 603h-4l-147 -370h287zM291.5 -93.5q5.5 -5.5 5.5 -14.5t-5.5 -14.5t-14.5 -5.5t-14.5 5.5t-5.5 14.5t5.5 14.5t14.5 5.5t14.5 -5.5z" />
    <glyph glyph-name="Agrave" unicode="&#xc0;" horiz-adv-x="554" 
d="M526 0h-23l-13 43l-63 170h-302l-68 -170l-14 -43h-24l254 637h20zM284 603h-4l-147 -370h287zM369 742l-7 -15l-5 -3q-107 55 -174 93l-2 5l7 12l5 2q85 -50 176 -94z" />
    <glyph glyph-name="uni1EA2" unicode="&#x1ea2;" horiz-adv-x="554" 
d="M526 0h-23l-13 43l-63 170h-302l-68 -170l-14 -43h-24l254 637h20zM284 603h-4l-147 -370h287zM257 737q25 16 38 31.5t13 26.5q0 9 -7 14.5t-19 5.5q-26 0 -54 -23l-8 14q34 29 64 29q19 0 31.5 -11t12.5 -27q0 -29 -48 -65l16 -29l-17 -7z" />
    <glyph glyph-name="uni0202" unicode="&#x202;" horiz-adv-x="554" 
d="M526 0h-23l-13 43l-63 170h-302l-68 -170l-14 -43h-24l254 637h20zM284 603h-4l-147 -370h287zM176 730q10 54 34.5 79.5t66.5 25.5t66.5 -25.5t34.5 -79.5l-13 -13h-5q-7 50 -27 74t-56 24t-56 -24t-27 -74h-5z" />
    <glyph glyph-name="Amacron" unicode="&#x100;" horiz-adv-x="554" 
d="M526 0h-23l-13 43l-63 170h-302l-68 -170l-14 -43h-24l254 637h20zM284 603h-4l-147 -370h287zM423 789l-2 -17h-287l-3 3l2 17h287z" />
    <glyph glyph-name="Aogonek" unicode="&#x104;" horiz-adv-x="554" 
d="M526 0h-23l-13 43l-63 170h-302l-68 -170l-14 -43h-24l254 637h20zM284 603h-4l-147 -370h287zM461 -107.5q-14 -26.5 -14 -40.5q0 -13 7 -19.5t19 -6.5q28 0 44 42h2l15 -11q-11 -26 -26.5 -38t-36.5 -12q-20 0 -32 11.5t-12 31.5q0 19 15.5 47.5t65.5 102.5h18
q-51 -81 -65 -107.5z" />
    <glyph glyph-name="Aring" unicode="&#xc5;" horiz-adv-x="554" 
d="M526 0h-23l-13 43l-63 170h-302l-68 -170l-14 -43h-24l254 637h20zM284 603h-4l-147 -370h287zM327 832q19 -21 19 -49q0 -31 -21.5 -50t-49.5 -19t-49 19.5t-21 50.5q0 30 19.5 49.5t50.5 19.5q33 0 52 -21zM238.5 819.5q-13.5 -13.5 -13.5 -35.5q0 -23 14.5 -36.5
t35.5 -13.5t36 13t15 36q0 21 -13.5 35.5t-37.5 14.5q-23 0 -36.5 -13.5z" />
    <glyph glyph-name="Aringacute" unicode="&#x1fa;" horiz-adv-x="554" 
d="M210 777l-5 16q93 26 190 62l5 -3l4 -13l-2 -5q-74 -27 -188 -61zM526 0h-23l-13 43l-63 170h-302l-68 -170l-14 -43h-24l247 619q-22 6 -37.5 24t-15.5 44q0 30 19.5 49.5t50.5 19.5q33 0 52 -21t19 -49q0 -26 -15.5 -44t-38.5 -23zM247.5 650.5q14.5 -13.5 35.5 -13.5
t36 13t15 36q0 21 -13.5 35.5t-37.5 14.5q-23 0 -36.5 -13.5t-13.5 -35.5q0 -23 14.5 -36.5zM284 603h-4l-147 -370h287z" />
    <glyph glyph-name="Atilde" unicode="&#xc3;" horiz-adv-x="554" 
d="M526 0h-23l-13 43l-63 170h-302l-68 -170l-14 -43h-24l254 637h20zM284 603h-4l-147 -370h287zM416 805v-4l-52 -47l-6 -2q-20 2 -81 20q-6 2 -35 10t-40 8q-5 0 -13 -6t-17 -16l-21 -19h-4l-9 11v4l52 47l6 2q20 -2 81 -20q6 -2 35 -10t40 -8q5 0 13 6t17 16l21 19h4z
" />
    <glyph glyph-name="AE" unicode="&#xc6;" horiz-adv-x="791" 
d="M766 16l-4 -16h-304l-5 43l-42 247l-261 -43l-117 -204l-21 -43h-27l368 637h301l3 -4l-5 -16h-275l51 -304l236 39l3 -3l-3 -17l-233 -38l46 -274h287zM408 310l-50 292h-3l-191 -332z" />
    <glyph glyph-name="AEacute" unicode="&#x1fc;" horiz-adv-x="791" 
d="M766 16l-4 -16h-304l-5 43l-42 247l-261 -43l-117 -204l-21 -43h-27l368 637h301l3 -4l-5 -16h-275l51 -304l236 39l3 -3l-3 -17l-233 -38l46 -274h287zM408 310l-50 292h-3l-191 -332zM602 834l7 -12l-2 -5q-67 -38 -174 -93l-5 3l-7 15q91 44 176 94z" />
    <glyph glyph-name="B" unicode="B" horiz-adv-x="492" 
d="M408.5 284.5q38.5 -39.5 38.5 -108.5q0 -85 -59 -132t-169 -47q-58 0 -109 3v637l123 2q79 0 121.5 -38.5t42.5 -109.5q0 -60 -25 -99.5t-71 -57.5q69 -10 107.5 -49.5zM130 618v-275l130 -3q56 11 86 50t30 101q0 58 -37 92.5t-99 34.5h-110zM372 59q55 42 55 117
q0 64 -41 101t-117 43h-139v-300q39 -3 85 -3q102 0 157 42z" />
    <glyph glyph-name="C" unicode="C" horiz-adv-x="523" 
d="M406 625.5q46 -15.5 83 -43.5l-7 -17h-7q-34 27 -75.5 41.5t-86.5 14.5q-119 0 -182 -79t-63 -226q0 -145 60 -223t173 -78q48 0 95.5 17.5t87.5 49.5l7 -2l-2 -18q-42 -32 -91 -49.5t-96 -17.5q-123 0 -188.5 83.5t-65.5 238.5q0 156 68.5 240t196.5 84q47 0 93 -15.5z
" />
    <glyph glyph-name="Cacute" unicode="&#x106;" horiz-adv-x="523" 
d="M406 625.5q46 -15.5 83 -43.5l-7 -17h-7q-34 27 -75.5 41.5t-86.5 14.5q-119 0 -182 -79t-63 -226q0 -145 60 -223t173 -78q48 0 95.5 17.5t87.5 49.5l7 -2l-2 -18q-42 -32 -91 -49.5t-96 -17.5q-123 0 -188.5 83.5t-65.5 238.5q0 156 68.5 240t196.5 84q47 0 93 -15.5z
M422 834l7 -12l-2 -5q-67 -38 -174 -93l-5 3l-7 15q91 44 176 94z" />
    <glyph glyph-name="Ccaron" unicode="&#x10c;" horiz-adv-x="523" 
d="M406 625.5q46 -15.5 83 -43.5l-7 -17h-7q-34 27 -75.5 41.5t-86.5 14.5q-119 0 -182 -79t-63 -226q0 -145 60 -223t173 -78q48 0 95.5 17.5t87.5 49.5l7 -2l-2 -18q-42 -32 -91 -49.5t-96 -17.5q-123 0 -188.5 83.5t-65.5 238.5q0 156 68.5 240t196.5 84q47 0 93 -15.5z
M420 805q-47 -33 -98 -76h-16q-66 52 -100 76l7 14h5q46 -32 95 -70q49 38 95 70h5z" />
    <glyph glyph-name="Ccedilla" unicode="&#xc7;" horiz-adv-x="523" 
d="M406 625.5q46 -15.5 83 -43.5l-7 -17h-7q-34 27 -75.5 41.5t-86.5 14.5q-119 0 -182 -79t-63 -226q0 -145 60 -223t173 -78q48 0 95.5 17.5t87.5 49.5l7 -2l-2 -18q-42 -32 -91 -49.5t-96 -17.5q-123 0 -188.5 83.5t-65.5 238.5q0 156 68.5 240t196.5 84q47 0 93 -15.5z
M301 -55l31 -20q17 -11 25 -22.5t8 -27.5q0 -24 -17.5 -38.5t-42.5 -14.5q-37 0 -59 33l6 18h4q10 -16 21 -23.5t28 -7.5q18 0 29 8.5t11 24.5q0 11 -5.5 17.5t-18.5 15.5l-44 28l25 75h20z" />
    <glyph glyph-name="uni1E08" unicode="&#x1e08;" horiz-adv-x="523" 
d="M406 625.5q46 -15.5 83 -43.5l-7 -17h-7q-34 27 -75.5 41.5t-86.5 14.5q-119 0 -182 -79t-63 -226q0 -145 60 -223t173 -78q48 0 95.5 17.5t87.5 49.5l7 -2l-2 -18q-42 -32 -91 -49.5t-96 -17.5q-123 0 -188.5 83.5t-65.5 238.5q0 156 68.5 240t196.5 84q47 0 93 -15.5z
M301 -55l31 -20q17 -11 25 -22.5t8 -27.5q0 -24 -17.5 -38.5t-42.5 -14.5q-37 0 -59 33l6 18h4q10 -16 21 -23.5t28 -7.5q18 0 29 8.5t11 24.5q0 11 -5.5 17.5t-18.5 15.5l-44 28l25 75h20zM422 834l7 -12l-2 -5q-67 -38 -174 -93l-5 3l-7 15q91 44 176 94z" />
    <glyph glyph-name="Ccircumflex" unicode="&#x108;" horiz-adv-x="523" 
d="M406 625.5q46 -15.5 83 -43.5l-7 -17h-7q-34 27 -75.5 41.5t-86.5 14.5q-119 0 -182 -79t-63 -226q0 -145 60 -223t173 -78q48 0 95.5 17.5t87.5 49.5l7 -2l-2 -18q-42 -32 -91 -49.5t-96 -17.5q-123 0 -188.5 83.5t-65.5 238.5q0 156 68.5 240t196.5 84q47 0 93 -15.5z
M206 752q47 33 98 76h16q66 -52 100 -76l-7 -14h-5q-46 32 -95 70q-49 -38 -95 -70h-5z" />
    <glyph glyph-name="Cdotaccent" unicode="&#x10a;" horiz-adv-x="523" 
d="M406 625.5q46 -15.5 83 -43.5l-7 -17h-7q-34 27 -75.5 41.5t-86.5 14.5q-119 0 -182 -79t-63 -226q0 -145 60 -223t173 -78q48 0 95.5 17.5t87.5 49.5l7 -2l-2 -18q-42 -32 -91 -49.5t-96 -17.5q-123 0 -188.5 83.5t-65.5 238.5q0 156 68.5 240t196.5 84q47 0 93 -15.5z
M327.5 810.5q5.5 -5.5 5.5 -14.5t-5.5 -14.5t-14.5 -5.5t-14.5 5.5t-5.5 14.5t5.5 14.5t14.5 5.5t14.5 -5.5z" />
    <glyph glyph-name="D" unicode="D" horiz-adv-x="637" 
d="M517 563.5q72 -78.5 72 -224.5q0 -166 -74.5 -255t-213.5 -89q-34 0 -90 1.5t-101 3.5v637l201 5q134 0 206 -78.5zM499.5 99q69.5 84 69.5 240q0 137 -67 210t-191 73q-31 0 -84.5 -1.5t-96.5 -3.5v-597q42 -2 91.5 -3.5t79.5 -1.5q129 0 198.5 84z" />
    <glyph glyph-name="uni01C4" unicode="&#x1c4;" horiz-adv-x="1144" 
d="M517 563.5q72 -78.5 72 -224.5q0 -166 -74.5 -255t-213.5 -89q-34 0 -90 1.5t-101 3.5v637l201 5q134 0 206 -78.5zM499.5 99q69.5 84 69.5 240q0 137 -67 210t-191 73q-31 0 -84.5 -1.5t-96.5 -3.5v-597q42 -2 91.5 -3.5t79.5 -1.5q129 0 198.5 84zM1097 620l-401 -600
h331l68 1l4 -5l-3 -16h-391l-36 -1v18l401 600h-320l-58 -1l-4 5l3 17l65 -1h304l37 1v-18zM998 805q-47 -33 -98 -76h-16q-66 52 -100 76l7 14h5q46 -32 95 -70q49 38 95 70h5z" />
    <glyph glyph-name="Eth" unicode="&#xd0;" horiz-adv-x="654" 
d="M534 563.5q72 -78.5 72 -224.5q0 -166 -74.5 -255t-213.5 -89q-34 0 -90 1.5t-101 3.5v637l201 5q134 0 206 -78.5zM516.5 99q69.5 84 69.5 240q0 137 -67 210t-191 73q-31 0 -84.5 -1.5t-96.5 -3.5v-597q42 -2 91.5 -3.5t79.5 -1.5q129 0 198.5 84zM314.387 336
l-1.19922 -17h-310.188l-1.7998 3l1.2002 17h310.187z" />
    <glyph glyph-name="Dcaron" unicode="&#x10e;" horiz-adv-x="637" 
d="M517 563.5q72 -78.5 72 -224.5q0 -166 -74.5 -255t-213.5 -89q-34 0 -90 1.5t-101 3.5v637l201 5q134 0 206 -78.5zM499.5 99q69.5 84 69.5 240q0 137 -67 210t-191 73q-31 0 -84.5 -1.5t-96.5 -3.5v-597q42 -2 91.5 -3.5t79.5 -1.5q129 0 198.5 84zM426 805
q-47 -33 -98 -76h-16q-66 52 -100 76l7 14h5q46 -32 95 -70q49 38 95 70h5z" />
    <glyph glyph-name="Dcroat" unicode="&#x110;" horiz-adv-x="654" 
d="M534 563.5q72 -78.5 72 -224.5q0 -166 -74.5 -255t-213.5 -89q-34 0 -90 1.5t-101 3.5v637l201 5q134 0 206 -78.5zM516.5 99q69.5 84 69.5 240q0 137 -67 210t-191 73q-31 0 -84.5 -1.5t-96.5 -3.5v-597q42 -2 91.5 -3.5t79.5 -1.5q129 0 198.5 84zM314.387 336
l-1.19922 -17h-310.188l-1.7998 3l1.2002 17h310.187z" />
    <glyph glyph-name="uni1E0C" unicode="&#x1e0c;" horiz-adv-x="637" 
d="M517 563.5q72 -78.5 72 -224.5q0 -166 -74.5 -255t-213.5 -89q-34 0 -90 1.5t-101 3.5v637l201 5q134 0 206 -78.5zM499.5 99q69.5 84 69.5 240q0 137 -67 210t-191 73q-31 0 -84.5 -1.5t-96.5 -3.5v-597q42 -2 91.5 -3.5t79.5 -1.5q129 0 198.5 84zM333.5 -93.5
q5.5 -5.5 5.5 -14.5t-5.5 -14.5t-14.5 -5.5t-14.5 5.5t-5.5 14.5t5.5 14.5t14.5 5.5t14.5 -5.5z" />
    <glyph glyph-name="uni1E0E" unicode="&#x1e0e;" horiz-adv-x="637" 
d="M517 563.5q72 -78.5 72 -224.5q0 -166 -74.5 -255t-213.5 -89q-34 0 -90 1.5t-101 3.5v637l201 5q134 0 206 -78.5zM499.5 99q69.5 84 69.5 240q0 137 -67 210t-191 73q-31 0 -84.5 -1.5t-96.5 -3.5v-597q42 -2 91.5 -3.5t79.5 -1.5q129 0 198.5 84zM435 -131l-2 -17
h-227l-3 3l2 17h227z" />
    <glyph glyph-name="uni01C5" unicode="&#x1c5;" horiz-adv-x="1036" 
d="M517 563.5q72 -78.5 72 -224.5q0 -166 -74.5 -255t-213.5 -89q-34 0 -90 1.5t-101 3.5v637l201 5q134 0 206 -78.5zM499.5 99q69.5 84 69.5 240q0 137 -67 210t-191 73q-31 0 -84.5 -1.5t-96.5 -3.5v-597q42 -2 91.5 -3.5t79.5 -1.5q129 0 198.5 84zM744 452h224l25 1
l1 -17l-291 -416h237l53 1l3 -4l-4 -18l-57 1h-233l-27 -1v17l291 416h-228l-46 -1l-4 4l4 18zM947 646q-38 -43 -101 -126h-18q-63 83 -101 126l9 12h5q48 -53 96 -117q48 64 96 117h5z" />
    <glyph glyph-name="E" unicode="E" horiz-adv-x="454" 
d="M425 16l-4 -16h-311v637h308l3 -4l-4 -16h-287v-277h238l3 -4l-4 -16h-237v-300h292z" />
    <glyph glyph-name="Eacute" unicode="&#xc9;" horiz-adv-x="454" 
d="M425 16l-4 -16h-311v637h308l3 -4l-4 -16h-287v-277h238l3 -4l-4 -16h-237v-300h292zM375 834l7 -12l-2 -5q-67 -38 -174 -93l-5 3l-7 15q91 44 176 94z" />
    <glyph glyph-name="Ebreve" unicode="&#x114;" horiz-adv-x="454" 
d="M425 16l-4 -16h-311v637h308l3 -4l-4 -16h-287v-277h238l3 -4l-4 -16h-237v-300h292zM367 802q-11 -36 -37.5 -55t-64.5 -19t-64 19t-36 55l13 11h5q8 -32 28.5 -48.5t53.5 -16.5t54.5 16.5t29.5 48.5h5z" />
    <glyph glyph-name="Ecaron" unicode="&#x11a;" horiz-adv-x="454" 
d="M425 16l-4 -16h-311v637h308l3 -4l-4 -16h-287v-277h238l3 -4l-4 -16h-237v-300h292zM373 805q-47 -33 -98 -76h-16q-66 52 -100 76l7 14h5q46 -32 95 -70q49 38 95 70h5z" />
    <glyph glyph-name="uni1E1C" unicode="&#x1e1c;" horiz-adv-x="454" 
d="M425 16l-4 -16h-311v637h308l3 -4l-4 -16h-287v-277h238l3 -4l-4 -16h-237v-300h292zM266 -55l31 -20q17 -11 25 -22.5t8 -27.5q0 -24 -17.5 -38.5t-42.5 -14.5q-37 0 -59 33l6 18h4q10 -16 21 -23.5t28 -7.5q18 0 29 8.5t11 24.5q0 11 -5.5 17.5t-18.5 15.5l-44 28
l25 75h20zM367 802q-11 -36 -37.5 -55t-64.5 -19t-64 19t-36 55l13 11h5q8 -32 28.5 -48.5t53.5 -16.5t54.5 16.5t29.5 48.5h5z" />
    <glyph glyph-name="Ecircumflex" unicode="&#xca;" horiz-adv-x="454" 
d="M425 16l-4 -16h-311v637h308l3 -4l-4 -16h-287v-277h238l3 -4l-4 -16h-237v-300h292zM159 752q47 33 98 76h16q66 -52 100 -76l-7 -14h-5q-46 32 -95 70q-49 -38 -95 -70h-5z" />
    <glyph glyph-name="uni1EBE" unicode="&#x1ebe;" horiz-adv-x="454" 
d="M425 16l-4 -16h-311v637h308l3 -4l-4 -16h-287v-277h238l3 -4l-4 -16h-237v-300h292zM402 895l-1 -5l-68 -76h-6l-11 11l70 80l5 -1zM159 732q47 33 98 76h16q66 -52 100 -76l-7 -14h-5q-46 32 -95 70q-49 -38 -95 -70h-5z" />
    <glyph glyph-name="uni1EC6" unicode="&#x1ec6;" horiz-adv-x="454" 
d="M425 16l-4 -16h-311v637h308l3 -4l-4 -16h-287v-277h238l3 -4l-4 -16h-237v-300h292zM281.5 -93.5q5.5 -5.5 5.5 -14.5t-5.5 -14.5t-14.5 -5.5t-14.5 5.5t-5.5 14.5t5.5 14.5t14.5 5.5t14.5 -5.5zM159 752q47 33 98 76h16q66 -52 100 -76l-7 -14h-5q-46 32 -95 70
q-49 -38 -95 -70h-5z" />
    <glyph glyph-name="uni1EC0" unicode="&#x1ec0;" horiz-adv-x="454" 
d="M425 16l-4 -16h-311v637h308l3 -4l-4 -16h-287v-277h238l3 -4l-4 -16h-237v-300h292zM293 890l-1 5l11 9l5 1l70 -80l-11 -11h-6zM159 732q47 33 98 76h16q66 -52 100 -76l-7 -14h-5q-46 32 -95 70q-49 -38 -95 -70h-5z" />
    <glyph glyph-name="uni1EC2" unicode="&#x1ec2;" horiz-adv-x="454" 
d="M425 16l-4 -16h-311v637h308l3 -4l-4 -16h-287v-277h238l3 -4l-4 -16h-237v-300h292zM159 752q47 33 98 76h16q66 -52 100 -76l-7 -14h-5q-46 32 -95 70q-49 -38 -95 -70h-5zM323.668 840.585q23.7998 15.2314 36.1748 29.9873q12.376 14.7559 12.376 25.2275
q0 8.56738 -6.66406 13.8027q-6.66406 5.23633 -18.0869 5.23633q-24.752 0 -51.4062 -21.8955l-7.61621 13.3281q32.3672 27.6064 60.9258 27.6064q18.0879 0 29.9873 -10.4717t11.8994 -25.7031q0 -27.6064 -45.6943 -61.8779l15.2314 -27.6064l-16.1836 -6.66406z" />
    <glyph glyph-name="uni1EC4" unicode="&#x1ec4;" horiz-adv-x="454" 
d="M425 16l-4 -16h-311v637h308l3 -4l-4 -16h-287v-277h238l3 -4l-4 -16h-237v-300h292zM159 752q47 33 98 76h16q66 -52 100 -76l-7 -14h-5q-46 32 -95 70q-49 -38 -95 -70h-5zM404 916v-4l-53 -47l-6 -2q-24 3 -81 21q-62 18 -74 18q-5 0 -13 -6t-17 -16l-21 -19h-4l-8 11
v4l53 47l6 2q20 -2 79 -20q61 -19 76 -19q5 0 12 6t16 15l22 20h4z" />
    <glyph glyph-name="uni0204" unicode="&#x204;" horiz-adv-x="454" 
d="M425 16l-4 -16h-311v637h308l3 -4l-4 -16h-287v-277h238l3 -4l-4 -16h-237v-300h292zM215 721l-5 -1q-77 70 -112 105l-1 5l10 10l5 1q14 -14 89 -84l25 -23zM345 721l-5 -1q-77 70 -112 105l-1 5l10 10l5 1q14 -14 89 -84l25 -23z" />
    <glyph glyph-name="Edieresis" unicode="&#xcb;" horiz-adv-x="454" 
d="M425 16l-4 -16h-311v637h308l3 -4l-4 -16h-287v-277h238l3 -4l-4 -16h-237v-300h292zM210.5 794.5q5.5 -5.5 5.5 -14.5t-5.5 -14.5t-14.5 -5.5t-14.5 5.5t-5.5 14.5t5.5 14.5t14.5 5.5t14.5 -5.5zM350.5 794.5q5.5 -5.5 5.5 -14.5t-5.5 -14.5t-14.5 -5.5t-14.5 5.5
t-5.5 14.5t5.5 14.5t14.5 5.5t14.5 -5.5z" />
    <glyph glyph-name="Edotaccent" unicode="&#x116;" horiz-adv-x="454" 
d="M425 16l-4 -16h-311v637h308l3 -4l-4 -16h-287v-277h238l3 -4l-4 -16h-237v-300h292zM280.5 810.5q5.5 -5.5 5.5 -14.5t-5.5 -14.5t-14.5 -5.5t-14.5 5.5t-5.5 14.5t5.5 14.5t14.5 5.5t14.5 -5.5z" />
    <glyph glyph-name="uni1EB8" unicode="&#x1eb8;" horiz-adv-x="454" 
d="M425 16l-4 -16h-311v637h308l3 -4l-4 -16h-287v-277h238l3 -4l-4 -16h-237v-300h292zM281.5 -93.5q5.5 -5.5 5.5 -14.5t-5.5 -14.5t-14.5 -5.5t-14.5 5.5t-5.5 14.5t5.5 14.5t14.5 5.5t14.5 -5.5z" />
    <glyph glyph-name="Egrave" unicode="&#xc8;" horiz-adv-x="454" 
d="M425 16l-4 -16h-311v637h308l3 -4l-4 -16h-287v-277h238l3 -4l-4 -16h-237v-300h292zM358 742l-7 -15l-5 -3q-107 55 -174 93l-2 5l7 12l5 2q85 -50 176 -94z" />
    <glyph glyph-name="uni1EBA" unicode="&#x1eba;" horiz-adv-x="454" 
d="M425 16l-4 -16h-311v637h308l3 -4l-4 -16h-287v-277h238l3 -4l-4 -16h-237v-300h292zM246 737q25 16 38 31.5t13 26.5q0 9 -7 14.5t-19 5.5q-26 0 -54 -23l-8 14q34 29 64 29q19 0 31.5 -11t12.5 -27q0 -29 -48 -65l16 -29l-17 -7z" />
    <glyph glyph-name="uni0206" unicode="&#x206;" horiz-adv-x="454" 
d="M425 16l-4 -16h-311v637h308l3 -4l-4 -16h-287v-277h238l3 -4l-4 -16h-237v-300h292zM165 730q10 54 34.5 79.5t66.5 25.5t66.5 -25.5t34.5 -79.5l-13 -13h-5q-7 50 -27 74t-56 24t-56 -24t-27 -74h-5z" />
    <glyph glyph-name="Emacron" unicode="&#x112;" horiz-adv-x="454" 
d="M425 16l-4 -16h-311v637h308l3 -4l-4 -16h-287v-277h238l3 -4l-4 -16h-237v-300h292zM412 789l-2 -17h-287l-3 3l2 17h287z" />
    <glyph glyph-name="uni1E16" unicode="&#x1e16;" horiz-adv-x="454" 
d="M425 16l-4 -16h-311v637h308l3 -4l-4 -16h-287v-277h238l3 -4l-4 -16h-237v-300h292zM361 898l5 -13l-3 -5q-80 -29 -187 -61l-5 4l-4 16q93 26 190 62zM372 759l-2 -17h-207l-3 3l2 17h207z" />
    <glyph glyph-name="uni1E14" unicode="&#x1e14;" horiz-adv-x="454" 
d="M425 16l-4 -16h-311v637h308l3 -4l-4 -16h-287v-277h238l3 -4l-4 -16h-237v-300h292zM170 880l-3 5l5 13l4 3q97 -36 190 -62l-4 -16l-5 -4q-107 32 -187 61zM372 759l-2 -17h-207l-3 3l2 17h207z" />
    <glyph glyph-name="Eogonek" unicode="&#x118;" horiz-adv-x="454" 
d="M425 16l-4 -16h-311v637h308l3 -4l-4 -16h-287v-277h238l3 -4l-4 -16h-237v-300h292zM278 -182.5q-17 15.5 -17 42.5q0 17 6.5 32.5t27 44t50.5 67.5q14 18 13 16h24q-37 -47 -61 -79t-31.5 -47.5t-7.5 -30.5q0 -40 43 -40q41 0 77 52h2l11 -16q-42 -57 -92 -57
q-28 0 -45 15.5z" />
    <glyph glyph-name="F" unicode="F" horiz-adv-x="411" 
d="M130 330h227l3 -4l-4 -16h-226v-310h-20v637h297l3 -4l-4 -16h-276v-287z" />
    <glyph glyph-name="G" unicode="G" horiz-adv-x="603" 
d="M432.5 627q46.5 -14 90.5 -40l-6 -18h-7q-87 52 -167 52q-132 0 -203.5 -80t-71.5 -229q0 -143 62 -220t177 -77q47 0 86.5 6.5t102.5 23.5v201l20 2v-218q-66 -19 -109.5 -26.5t-98.5 -8.5q-125 0 -192.5 82.5t-67.5 235.5q0 158 76.5 243t218.5 85q43 0 89.5 -14z" />
    <glyph glyph-name="Gbreve" unicode="&#x11e;" horiz-adv-x="603" 
d="M432.5 627q46.5 -14 90.5 -40l-6 -18h-7q-87 52 -167 52q-132 0 -203.5 -80t-71.5 -229q0 -143 62 -220t177 -77q47 0 86.5 6.5t102.5 23.5v201l20 2v-218q-66 -19 -109.5 -26.5t-98.5 -8.5q-125 0 -192.5 82.5t-67.5 235.5q0 158 76.5 243t218.5 85q43 0 89.5 -14z
M426 802q-11 -36 -37.5 -55t-64.5 -19t-64 19t-36 55l13 11h5q8 -32 28.5 -48.5t53.5 -16.5t54.5 16.5t29.5 48.5h5z" />
    <glyph glyph-name="Gcaron" unicode="&#x1e6;" horiz-adv-x="603" 
d="M432.5 627q46.5 -14 90.5 -40l-6 -18h-7q-87 52 -167 52q-132 0 -203.5 -80t-71.5 -229q0 -143 62 -220t177 -77q47 0 86.5 6.5t102.5 23.5v201l20 2v-218q-66 -19 -109.5 -26.5t-98.5 -8.5q-125 0 -192.5 82.5t-67.5 235.5q0 158 76.5 243t218.5 85q43 0 89.5 -14z
M432 805q-47 -33 -98 -76h-16q-66 52 -100 76l7 14h5q46 -32 95 -70q49 38 95 70h5z" />
    <glyph glyph-name="Gcircumflex" unicode="&#x11c;" horiz-adv-x="603" 
d="M432.5 627q46.5 -14 90.5 -40l-6 -18h-7q-87 52 -167 52q-132 0 -203.5 -80t-71.5 -229q0 -143 62 -220t177 -77q47 0 86.5 6.5t102.5 23.5v201l20 2v-218q-66 -19 -109.5 -26.5t-98.5 -8.5q-125 0 -192.5 82.5t-67.5 235.5q0 158 76.5 243t218.5 85q43 0 89.5 -14z
M218 752q47 33 98 76h16q66 -52 100 -76l-7 -14h-5q-46 32 -95 70q-49 -38 -95 -70h-5z" />
    <glyph glyph-name="Gcommaaccent" unicode="&#x122;" horiz-adv-x="603" 
d="M432.5 627q46.5 -14 90.5 -40l-6 -18h-7q-87 52 -167 52q-132 0 -203.5 -80t-71.5 -229q0 -143 62 -220t177 -77q47 0 86.5 6.5t102.5 23.5v201l20 2v-218q-66 -19 -109.5 -26.5t-98.5 -8.5q-125 0 -192.5 82.5t-67.5 235.5q0 158 76.5 243t218.5 85q43 0 89.5 -14z
M350 -118q0 -20 -17 -44t-49 -49l-10 11l1 3q26 19 40 39.5t14 38.5q0 20 -30 34v4q5 7 13 11q38 -17 38 -48z" />
    <glyph glyph-name="Gdotaccent" unicode="&#x120;" horiz-adv-x="603" 
d="M432.5 627q46.5 -14 90.5 -40l-6 -18h-7q-87 52 -167 52q-132 0 -203.5 -80t-71.5 -229q0 -143 62 -220t177 -77q47 0 86.5 6.5t102.5 23.5v201l20 2v-218q-66 -19 -109.5 -26.5t-98.5 -8.5q-125 0 -192.5 82.5t-67.5 235.5q0 158 76.5 243t218.5 85q43 0 89.5 -14z
M339.5 810.5q5.5 -5.5 5.5 -14.5t-5.5 -14.5t-14.5 -5.5t-14.5 5.5t-5.5 14.5t5.5 14.5t14.5 5.5t14.5 -5.5z" />
    <glyph glyph-name="uni1E20" unicode="&#x1e20;" horiz-adv-x="603" 
d="M432.5 627q46.5 -14 90.5 -40l-6 -18h-7q-87 52 -167 52q-132 0 -203.5 -80t-71.5 -229q0 -143 62 -220t177 -77q47 0 86.5 6.5t102.5 23.5v201l20 2v-218q-66 -19 -109.5 -26.5t-98.5 -8.5q-125 0 -192.5 82.5t-67.5 235.5q0 158 76.5 243t218.5 85q43 0 89.5 -14z
M471 789l-2 -17h-287l-3 3l2 17h287z" />
    <glyph glyph-name="H" unicode="H" horiz-adv-x="670" 
d="M560 637v-637h-20v314h-410v-314h-20v637h20v-303h410v303h20z" />
    <glyph glyph-name="Hbar" unicode="&#x126;" horiz-adv-x="700" 
d="M643 484h-68v-484h-20v314h-410v-314h-20v484h-66l-4 3l2 17h68v133h20v-133h410v133h20v-133h66l4 -3zM555 484h-410v-150h410v150z" />
    <glyph glyph-name="uni1E2A" unicode="&#x1e2a;" horiz-adv-x="670" 
d="M560 637v-637h-20v314h-410v-314h-20v637h20v-303h410v303h20zM436 -75q-10 -54 -34.5 -79.5t-66.5 -25.5t-66.5 25.5t-34.5 79.5l13 13h5q7 -50 27 -74t56 -24t56 24t27 74h5z" />
    <glyph glyph-name="Hcircumflex" unicode="&#x124;" horiz-adv-x="670" 
d="M560 637v-637h-20v314h-410v-314h-20v637h20v-303h410v303h20zM228 752q47 33 98 76h16q66 -52 100 -76l-7 -14h-5q-46 32 -95 70q-49 -38 -95 -70h-5z" />
    <glyph glyph-name="uni1E24" unicode="&#x1e24;" horiz-adv-x="670" 
d="M560 637v-637h-20v314h-410v-314h-20v637h20v-303h410v303h20zM349.5 -93.5q5.5 -5.5 5.5 -14.5t-5.5 -14.5t-14.5 -5.5t-14.5 5.5t-5.5 14.5t5.5 14.5t14.5 5.5t14.5 -5.5z" />
    <glyph glyph-name="I" unicode="I" horiz-adv-x="240" 
d="M130 0h-20v637h20v-637z" />
    <glyph glyph-name="IJ" unicode="&#x132;" horiz-adv-x="508" 
d="M130 0h-20v637h20v-637zM400 115q0 -70 -29.5 -118.5t-99.5 -94.5l-11 11v6q64 42 92 87t28 107v504h-128l-4 4l3 16h149v-522z" />
    <glyph glyph-name="Iacute" unicode="&#xcd;" horiz-adv-x="240" 
d="M130 0h-20v637h20v-637zM229 834l7 -12l-2 -5q-67 -38 -174 -93l-5 3l-7 15q91 44 176 94z" />
    <glyph glyph-name="Ibreve" unicode="&#x12c;" horiz-adv-x="240" 
d="M130 0h-20v637h20v-637zM221 802q-11 -36 -37.5 -55t-64.5 -19t-64 19t-36 55l13 11h5q8 -32 28.5 -48.5t53.5 -16.5t54.5 16.5t29.5 48.5h5z" />
    <glyph glyph-name="uni01CF" unicode="&#x1cf;" horiz-adv-x="240" 
d="M130 0h-20v637h20v-637zM227 805q-47 -33 -98 -76h-16q-66 52 -100 76l7 14h5q46 -32 95 -70q49 38 95 70h5z" />
    <glyph glyph-name="Icircumflex" unicode="&#xce;" horiz-adv-x="240" 
d="M130 0h-20v637h20v-637zM13 752q47 33 98 76h16q66 -52 100 -76l-7 -14h-5q-46 32 -95 70q-49 -38 -95 -70h-5z" />
    <glyph glyph-name="uni0208" unicode="&#x208;" horiz-adv-x="240" 
d="M130 0h-20v637h20v-637zM69 721l-5 -1q-77 70 -112 105l-1 5l10 10l5 1q14 -14 89 -84l25 -23zM199 721l-5 -1q-77 70 -112 105l-1 5l10 10l5 1q14 -14 89 -84l25 -23z" />
    <glyph glyph-name="uni1E2E" unicode="&#x1e2e;" horiz-adv-x="240" 
d="M130 0h-20v637h20v-637zM216 908l5 -13l-3 -5q-80 -29 -187 -61l-5 4l-4 16q93 26 190 62zM63.5 774.5q5.5 -5.5 5.5 -14.5t-5.5 -14.5t-14.5 -5.5t-14.5 5.5t-5.5 14.5t5.5 14.5t14.5 5.5t14.5 -5.5zM203.5 774.5q5.5 -5.5 5.5 -14.5t-5.5 -14.5t-14.5 -5.5t-14.5 5.5
t-5.5 14.5t5.5 14.5t14.5 5.5t14.5 -5.5z" />
    <glyph glyph-name="Idotaccent" unicode="&#x130;" horiz-adv-x="240" 
d="M130 0h-20v637h20v-637zM134.5 810.5q5.5 -5.5 5.5 -14.5t-5.5 -14.5t-14.5 -5.5t-14.5 5.5t-5.5 14.5t5.5 14.5t14.5 5.5t14.5 -5.5z" />
    <glyph glyph-name="uni1ECA" unicode="&#x1eca;" horiz-adv-x="240" 
d="M130 0h-20v637h20v-637zM129.5 -93.5q5.5 -5.5 5.5 -14.5t-5.5 -14.5t-14.5 -5.5t-14.5 5.5t-5.5 14.5t5.5 14.5t14.5 5.5t14.5 -5.5z" />
    <glyph glyph-name="Igrave" unicode="&#xcc;" horiz-adv-x="240" 
d="M130 0h-20v637h20v-637zM212 742l-7 -15l-5 -3q-107 55 -174 93l-2 5l7 12l5 2q85 -50 176 -94z" />
    <glyph glyph-name="uni1EC8" unicode="&#x1ec8;" horiz-adv-x="240" 
d="M130 0h-20v637h20v-637zM100 737q25 16 38 31.5t13 26.5q0 9 -7 14.5t-19 5.5q-26 0 -54 -23l-8 14q34 29 64 29q19 0 31.5 -11t12.5 -27q0 -29 -48 -65l16 -29l-17 -7z" />
    <glyph glyph-name="uni020A" unicode="&#x20a;" horiz-adv-x="240" 
d="M130 0h-20v637h20v-637zM19 730q10 54 34.5 79.5t66.5 25.5t66.5 -25.5t34.5 -79.5l-13 -13h-5q-7 50 -27 74t-56 24t-56 -24t-27 -74h-5z" />
    <glyph glyph-name="Imacron" unicode="&#x12a;" horiz-adv-x="240" 
d="M130 0h-20v637h20v-637zM226 789l-2 -17h-207l-3 3l2 17h207z" />
    <glyph glyph-name="Iogonek" unicode="&#x12e;" horiz-adv-x="240" 
d="M130 0h-20v637h20v-637zM65 -107.5q-14 -26.5 -14 -40.5q0 -13 7 -19.5t19 -6.5q28 0 44 42h2l15 -11q-11 -26 -26.5 -38t-36.5 -12q-20 0 -32 11.5t-12 31.5q0 19 15.5 47.5t65.5 102.5h18q-51 -81 -65 -107.5z" />
    <glyph glyph-name="J" unicode="J" horiz-adv-x="268" 
d="M160 115q0 -70 -29.5 -118.5t-99.5 -94.5l-11 11v6q64 42 92 87t28 107v504h-128l-4 4l3 16h149v-522z" />
    <glyph glyph-name="Jcircumflex" unicode="&#x134;" horiz-adv-x="268" 
d="M160 115q0 -70 -29.5 -118.5t-99.5 -94.5l-11 11v6q64 42 92 87t28 107v504h-128l-4 4l3 16h149v-522zM1 752q47 33 98 76h16q66 -52 100 -76l-7 -14h-5q-46 32 -95 70q-49 -38 -95 -70h-5z" />
    <glyph glyph-name="K" unicode="K" horiz-adv-x="507" 
d="M130 0h-20v637h20v-637zM186 340q146 -176 312 -335v-4q-3 -3 -14 -8l-4 1q-183 178 -321 344v3l249 249l43 47h31z" />
    <glyph glyph-name="Kcommaaccent" unicode="&#x136;" horiz-adv-x="507" 
d="M130 0h-20v637h20v-637zM186 340q146 -176 312 -335v-4q-3 -3 -14 -8l-4 1q-183 178 -321 344v3l249 249l43 47h31zM312 -118q0 -20 -17 -44t-49 -49l-10 11l1 3q26 19 40 39.5t14 38.5q0 20 -30 34v4q5 7 13 11q38 -17 38 -48z" />
    <glyph glyph-name="L" unicode="L" horiz-adv-x="398" 
d="M393 16l-4 -16h-280v637h20v-617h261z" />
    <glyph glyph-name="uni01C7" unicode="&#x1c7;" horiz-adv-x="666" 
d="M393 16l-4 -16h-280v637h20v-617h261zM558 115q0 -70 -29.5 -118.5t-99.5 -94.5l-11 11v6q64 42 92 87t28 107v504h-128l-4 4l3 16h149v-522z" />
    <glyph glyph-name="Lacute" unicode="&#x139;" horiz-adv-x="398" 
d="M393 16l-4 -16h-280v637h20v-617h261zM228 834l7 -12l-2 -5q-67 -38 -174 -93l-5 3l-7 15q91 44 176 94z" />
    <glyph glyph-name="Lcaron" unicode="&#x13d;" horiz-adv-x="409" 
d="M393 16l-4 -16h-280v637h20v-617h261zM326 429l-3 4l12 144l17 2l3 -4l-12 -144z" />
    <glyph glyph-name="Lcommaaccent" unicode="&#x13b;" horiz-adv-x="398" 
d="M393 16l-4 -16h-280v637h20v-617h261zM274 -118q0 -20 -17 -44t-49 -49l-10 11l1 3q26 19 40 39.5t14 38.5q0 20 -30 34v4q5 7 13 11q38 -17 38 -48z" />
    <glyph glyph-name="Ldot" unicode="&#x13f;" horiz-adv-x="398" 
d="M393 16l-4 -16h-280v637h20v-617h261zM323.5 381.5q5.5 -5.5 5.5 -14.5t-5.5 -14.5t-14.5 -5.5t-14.5 5.5t-5.5 14.5t5.5 14.5t14.5 5.5t14.5 -5.5z" />
    <glyph glyph-name="uni1E36" unicode="&#x1e36;" horiz-adv-x="398" 
d="M393 16l-4 -16h-280v637h20v-617h261zM250.5 -93.5q5.5 -5.5 5.5 -14.5t-5.5 -14.5t-14.5 -5.5t-14.5 5.5t-5.5 14.5t5.5 14.5t14.5 5.5t14.5 -5.5z" />
    <glyph glyph-name="uni01C8" unicode="&#x1c8;" horiz-adv-x="620" 
d="M393 16l-4 -16h-280v637h20v-617h261zM526 451v-439q0 -78 -19.5 -120.5t-73.5 -83.5l-10 10v6q48 37 65.5 76.5t17.5 107.5v424h-84l-4 4l3 16h83l20 1zM515.5 625.5q5.5 -5.5 5.5 -14.5t-5.5 -14.5t-14.5 -5.5t-14.5 5.5t-5.5 14.5t5.5 14.5t14.5 5.5t14.5 -5.5z" />
    <glyph glyph-name="uni1E3A" unicode="&#x1e3a;" horiz-adv-x="398" 
d="M393 16l-4 -16h-280v637h20v-617h261zM352 -131l-2 -17h-227l-3 3l2 17h227z" />
    <glyph glyph-name="Lslash" unicode="&#x141;" horiz-adv-x="408" 
d="M403 16l-4 -16h-280v333l-86 -47l-5 3l-6 15l97 53v280h20v-270l160 87l5 -2l6 -15l-171 -93v-324h261z" />
    <glyph glyph-name="M" unicode="M" horiz-adv-x="781" 
d="M705 0h-21l-20 195l-44 394h-5l-214 -508h-25l-210 508h-5l-43 -394l-21 -195h-21l70 637h23l40 -99l177 -428h4l187 439l37 88h23z" />
    <glyph glyph-name="uni1E42" unicode="&#x1e42;" horiz-adv-x="781" 
d="M705 0h-21l-20 195l-44 394h-5l-214 -508h-25l-210 508h-5l-43 -394l-21 -195h-21l70 637h23l40 -99l177 -428h4l187 439l37 88h23zM405.5 -93.5q5.5 -5.5 5.5 -14.5t-5.5 -14.5t-14.5 -5.5t-14.5 5.5t-5.5 14.5t5.5 14.5t14.5 5.5t14.5 -5.5z" />
    <glyph glyph-name="N" unicode="N" horiz-adv-x="670" 
d="M559 176l-1 -176h-19l-404 595h-4l-1 -396v-199h-20v190l1 447h19l404 -595h4l2 594l20 2z" />
    <glyph glyph-name="uni01CA" unicode="&#x1ca;" horiz-adv-x="938" 
d="M559 176l-1 -176h-19l-404 595h-4l-1 -396v-199h-20v190l1 447h19l404 -595h4l2 594l20 2zM830 115q0 -70 -29.5 -118.5t-99.5 -94.5l-11 11v6q64 42 92 87t28 107v504h-128l-4 4l3 16h149v-522z" />
    <glyph glyph-name="Nacute" unicode="&#x143;" horiz-adv-x="670" 
d="M559 176l-1 -176h-19l-404 595h-4l-1 -396v-199h-20v190l1 447h19l404 -595h4l2 594l20 2zM440 834l7 -12l-2 -5q-67 -38 -174 -93l-5 3l-7 15q91 44 176 94z" />
    <glyph glyph-name="Ncaron" unicode="&#x147;" horiz-adv-x="670" 
d="M559 176l-1 -176h-19l-404 595h-4l-1 -396v-199h-20v190l1 447h19l404 -595h4l2 594l20 2zM438 805q-47 -33 -98 -76h-16q-66 52 -100 76l7 14h5q46 -32 95 -70q49 38 95 70h5z" />
    <glyph glyph-name="Ncommaaccent" unicode="&#x145;" horiz-adv-x="670" 
d="M559 176l-1 -176h-19l-404 595h-4l-1 -396v-199h-20v190l1 447h19l404 -595h4l2 594l20 2zM368 -118q0 -20 -17 -44t-49 -49l-10 11l1 3q26 19 40 39.5t14 38.5q0 20 -30 34v4q5 7 13 11q38 -17 38 -48z" />
    <glyph glyph-name="uni1E44" unicode="&#x1e44;" horiz-adv-x="670" 
d="M559 176l-1 -176h-19l-404 595h-4l-1 -396v-199h-20v190l1 447h19l404 -595h4l2 594l20 2zM345.5 810.5q5.5 -5.5 5.5 -14.5t-5.5 -14.5t-14.5 -5.5t-14.5 5.5t-5.5 14.5t5.5 14.5t14.5 5.5t14.5 -5.5z" />
    <glyph glyph-name="uni1E46" unicode="&#x1e46;" horiz-adv-x="670" 
d="M559 176l-1 -176h-19l-404 595h-4l-1 -396v-199h-20v190l1 447h19l404 -595h4l2 594l20 2zM344.5 -93.5q5.5 -5.5 5.5 -14.5t-5.5 -14.5t-14.5 -5.5t-14.5 5.5t-5.5 14.5t5.5 14.5t14.5 5.5t14.5 -5.5z" />
    <glyph glyph-name="Eng" unicode="&#x14a;" horiz-adv-x="670" 
d="M559 176l-1 -137q0 -59 -29 -100t-100 -83l-11 11v6q57 34 84 64t33 68l-400 590h-4l-1 -396v-199h-20v190l1 447h19l404 -595h4l2 594l20 2z" />
    <glyph glyph-name="uni01CB" unicode="&#x1cb;" horiz-adv-x="892" 
d="M559 176l-1 -176h-19l-404 595h-4l-1 -396v-199h-20v190l1 447h19l404 -595h4l2 594l20 2zM798 451v-439q0 -78 -19.5 -120.5t-73.5 -83.5l-10 10v6q48 37 65.5 76.5t17.5 107.5v424h-84l-4 4l3 16h83l20 1zM787.5 625.5q5.5 -5.5 5.5 -14.5t-5.5 -14.5t-14.5 -5.5
t-14.5 5.5t-5.5 14.5t5.5 14.5t14.5 5.5t14.5 -5.5z" />
    <glyph glyph-name="uni1E48" unicode="&#x1e48;" horiz-adv-x="670" 
d="M559 176l-1 -176h-19l-404 595h-4l-1 -396v-199h-20v190l1 447h19l404 -595h4l2 594l20 2zM446 -131l-2 -17h-227l-3 3l2 17h227z" />
    <glyph glyph-name="Ntilde" unicode="&#xd1;" horiz-adv-x="670" 
d="M559 176l-1 -176h-19l-404 595h-4l-1 -396v-199h-20v190l1 447h19l404 -595h4l2 594l20 2zM470 805v-4l-52 -47l-6 -2q-20 2 -81 20q-6 2 -35 10t-40 8q-5 0 -13 -6t-17 -16l-21 -19h-4l-9 11v4l52 47l6 2q20 -2 81 -20q6 -2 35 -10t40 -8q5 0 13 6t17 16l21 19h4z" />
    <glyph glyph-name="O" unicode="O" horiz-adv-x="627" 
d="M511.5 561q67.5 -81 67.5 -232q0 -161 -70 -247.5t-201 -86.5q-125 0 -192.5 83.5t-67.5 238.5q0 157 70 241t200 84q126 0 193.5 -81zM132.5 543q-64.5 -79 -64.5 -226q0 -145 62 -223.5t178 -78.5q121 0 186 81.5t65 232.5q0 141 -62.5 217t-178.5 76
q-121 0 -185.5 -79z" />
    <glyph glyph-name="Oacute" unicode="&#xd3;" horiz-adv-x="627" 
d="M511.5 561q67.5 -81 67.5 -232q0 -161 -70 -247.5t-201 -86.5q-125 0 -192.5 83.5t-67.5 238.5q0 157 70 241t200 84q126 0 193.5 -81zM132.5 543q-64.5 -79 -64.5 -226q0 -145 62 -223.5t178 -78.5q121 0 186 81.5t65 232.5q0 141 -62.5 217t-178.5 76
q-121 0 -185.5 -79zM423 834l7 -12l-2 -5q-67 -38 -174 -93l-5 3l-7 15q91 44 176 94z" />
    <glyph glyph-name="Obreve" unicode="&#x14e;" horiz-adv-x="627" 
d="M511.5 561q67.5 -81 67.5 -232q0 -161 -70 -247.5t-201 -86.5q-125 0 -192.5 83.5t-67.5 238.5q0 157 70 241t200 84q126 0 193.5 -81zM132.5 543q-64.5 -79 -64.5 -226q0 -145 62 -223.5t178 -78.5q121 0 186 81.5t65 232.5q0 141 -62.5 217t-178.5 76
q-121 0 -185.5 -79zM415 802q-11 -36 -37.5 -55t-64.5 -19t-64 19t-36 55l13 11h5q8 -32 28.5 -48.5t53.5 -16.5t54.5 16.5t29.5 48.5h5z" />
    <glyph glyph-name="uni01D1" unicode="&#x1d1;" horiz-adv-x="627" 
d="M511.5 561q67.5 -81 67.5 -232q0 -161 -70 -247.5t-201 -86.5q-125 0 -192.5 83.5t-67.5 238.5q0 157 70 241t200 84q126 0 193.5 -81zM132.5 543q-64.5 -79 -64.5 -226q0 -145 62 -223.5t178 -78.5q121 0 186 81.5t65 232.5q0 141 -62.5 217t-178.5 76
q-121 0 -185.5 -79zM421 805q-47 -33 -98 -76h-16q-66 52 -100 76l7 14h5q46 -32 95 -70q49 38 95 70h5z" />
    <glyph glyph-name="Ocircumflex" unicode="&#xd4;" horiz-adv-x="627" 
d="M511.5 561q67.5 -81 67.5 -232q0 -161 -70 -247.5t-201 -86.5q-125 0 -192.5 83.5t-67.5 238.5q0 157 70 241t200 84q126 0 193.5 -81zM132.5 543q-64.5 -79 -64.5 -226q0 -145 62 -223.5t178 -78.5q121 0 186 81.5t65 232.5q0 141 -62.5 217t-178.5 76
q-121 0 -185.5 -79zM207 752q47 33 98 76h16q66 -52 100 -76l-7 -14h-5q-46 32 -95 70q-49 -38 -95 -70h-5z" />
    <glyph glyph-name="uni1ED0" unicode="&#x1ed0;" horiz-adv-x="627" 
d="M511.5 561q67.5 -81 67.5 -232q0 -161 -70 -247.5t-201 -86.5q-125 0 -192.5 83.5t-67.5 238.5q0 157 70 241t200 84q126 0 193.5 -81zM132.5 543q-64.5 -79 -64.5 -226q0 -145 62 -223.5t178 -78.5q121 0 186 81.5t65 232.5q0 141 -62.5 217t-178.5 76
q-121 0 -185.5 -79zM450 895l-1 -5l-68 -76h-6l-11 11l70 80l5 -1zM207 732q47 33 98 76h16q66 -52 100 -76l-7 -14h-5q-46 32 -95 70q-49 -38 -95 -70h-5z" />
    <glyph glyph-name="uni1ED8" unicode="&#x1ed8;" horiz-adv-x="627" 
d="M222 742q47 33 98 76h16q66 -52 100 -76l-7 -14h-5q-46 32 -95 70q-49 -38 -95 -70h-5zM511.5 561q67.5 -81 67.5 -232q0 -161 -70 -247.5t-201 -86.5q-125 0 -192.5 83.5t-67.5 238.5q0 157 70 241t200 84q126 0 193.5 -81zM132.5 543q-64.5 -79 -64.5 -226
q0 -145 62 -223.5t178 -78.5q121 0 186 81.5t65 232.5q0 141 -62.5 217t-178.5 76q-121 0 -185.5 -79zM328.5 -93.5q5.5 -5.5 5.5 -14.5t-5.5 -14.5t-14.5 -5.5t-14.5 5.5t-5.5 14.5t5.5 14.5t14.5 5.5t14.5 -5.5z" />
    <glyph glyph-name="uni1ED2" unicode="&#x1ed2;" horiz-adv-x="627" 
d="M511.5 561q67.5 -81 67.5 -232q0 -161 -70 -247.5t-201 -86.5q-125 0 -192.5 83.5t-67.5 238.5q0 157 70 241t200 84q126 0 193.5 -81zM132.5 543q-64.5 -79 -64.5 -226q0 -145 62 -223.5t178 -78.5q121 0 186 81.5t65 232.5q0 141 -62.5 217t-178.5 76
q-121 0 -185.5 -79zM341 890l-1 5l11 9l5 1l70 -80l-11 -11h-6zM207 732q47 33 98 76h16q66 -52 100 -76l-7 -14h-5q-46 32 -95 70q-49 -38 -95 -70h-5z" />
    <glyph glyph-name="uni1ED4" unicode="&#x1ed4;" horiz-adv-x="627" 
d="M511.5 561q67.5 -81 67.5 -232q0 -161 -70 -247.5t-201 -86.5q-125 0 -192.5 83.5t-67.5 238.5q0 157 70 241t200 84q126 0 193.5 -81zM132.5 543q-64.5 -79 -64.5 -226q0 -145 62 -223.5t178 -78.5q121 0 186 81.5t65 232.5q0 141 -62.5 217t-178.5 76
q-121 0 -185.5 -79zM207 752q47 33 98 76h16q66 -52 100 -76l-7 -14h-5q-46 32 -95 70q-49 -38 -95 -70h-5zM369.362 840.585q23.7998 15.2314 36.1748 29.9873q12.376 14.7559 12.376 25.2275q0 8.56738 -6.66406 13.8027q-6.66406 5.23633 -18.0869 5.23633
q-24.752 0 -51.4062 -21.8955l-7.61621 13.3281q32.3672 27.6064 60.9258 27.6064q18.0879 0 29.9873 -10.4717t11.8994 -25.7031q0 -27.6064 -45.6943 -61.8779l15.2314 -27.6064l-16.1836 -6.66406z" />
    <glyph glyph-name="uni1ED6" unicode="&#x1ed6;" horiz-adv-x="627" 
d="M511.5 561q67.5 -81 67.5 -232q0 -161 -70 -247.5t-201 -86.5q-125 0 -192.5 83.5t-67.5 238.5q0 157 70 241t200 84q126 0 193.5 -81zM132.5 543q-64.5 -79 -64.5 -226q0 -145 62 -223.5t178 -78.5q121 0 186 81.5t65 232.5q0 141 -62.5 217t-178.5 76
q-121 0 -185.5 -79zM207 752q47 33 98 76h16q66 -52 100 -76l-7 -14h-5q-46 32 -95 70q-49 -38 -95 -70h-5zM453 916v-4l-53 -47l-6 -2q-24 3 -81 21q-62 18 -74 18q-5 0 -13 -6t-17 -16l-21 -19h-4l-8 11v4l53 47l6 2q20 -2 79 -20q61 -19 76 -19q5 0 12 6t16 15l22 20h4z
" />
    <glyph glyph-name="uni020C" unicode="&#x20c;" horiz-adv-x="627" 
d="M511.5 561q67.5 -81 67.5 -232q0 -161 -70 -247.5t-201 -86.5q-125 0 -192.5 83.5t-67.5 238.5q0 157 70 241t200 84q126 0 193.5 -81zM132.5 543q-64.5 -79 -64.5 -226q0 -145 62 -223.5t178 -78.5q121 0 186 81.5t65 232.5q0 141 -62.5 217t-178.5 76
q-121 0 -185.5 -79zM263 721l-5 -1q-77 70 -112 105l-1 5l10 10l5 1q14 -14 89 -84l25 -23zM393 721l-5 -1q-77 70 -112 105l-1 5l10 10l5 1q14 -14 89 -84l25 -23z" />
    <glyph glyph-name="uni022A" unicode="&#x22a;" horiz-adv-x="627" 
d="M511.5 561q67.5 -81 67.5 -232q0 -161 -70 -247.5t-201 -86.5q-125 0 -192.5 83.5t-67.5 238.5q0 157 70 241t200 84q126 0 193.5 -81zM132.5 543q-64.5 -79 -64.5 -226q0 -145 62 -223.5t178 -78.5q121 0 186 81.5t65 232.5q0 141 -62.5 217t-178.5 76
q-121 0 -185.5 -79zM418 873l-2 -17h-200l-3 3l2 17h200zM257.5 774.5q5.5 -5.5 5.5 -14.5t-5.5 -14.5t-14.5 -5.5t-14.5 5.5t-5.5 14.5t5.5 14.5t14.5 5.5t14.5 -5.5zM397.5 774.5q5.5 -5.5 5.5 -14.5t-5.5 -14.5t-14.5 -5.5t-14.5 5.5t-5.5 14.5t5.5 14.5t14.5 5.5
t14.5 -5.5z" />
    <glyph glyph-name="uni0230" unicode="&#x230;" horiz-adv-x="627" 
d="M511.5 561q67.5 -81 67.5 -232q0 -161 -70 -247.5t-201 -86.5q-125 0 -192.5 83.5t-67.5 238.5q0 157 70 241t200 84q126 0 193.5 -81zM132.5 543q-64.5 -79 -64.5 -226q0 -145 62 -223.5t178 -78.5q121 0 186 81.5t65 232.5q0 141 -62.5 217t-178.5 76
q-121 0 -185.5 -79zM328.5 774.5q5.5 -5.5 5.5 -14.5t-5.5 -14.5t-14.5 -5.5t-14.5 5.5t-5.5 14.5t5.5 14.5t14.5 5.5t14.5 -5.5zM420 852l-2 -17h-207l-3 3l2 17h207z" />
    <glyph glyph-name="uni1ECC" unicode="&#x1ecc;" horiz-adv-x="627" 
d="M511.5 561q67.5 -81 67.5 -232q0 -161 -70 -247.5t-201 -86.5q-125 0 -192.5 83.5t-67.5 238.5q0 157 70 241t200 84q126 0 193.5 -81zM132.5 543q-64.5 -79 -64.5 -226q0 -145 62 -223.5t178 -78.5q121 0 186 81.5t65 232.5q0 141 -62.5 217t-178.5 76
q-121 0 -185.5 -79zM328.5 -93.5q5.5 -5.5 5.5 -14.5t-5.5 -14.5t-14.5 -5.5t-14.5 5.5t-5.5 14.5t5.5 14.5t14.5 5.5t14.5 -5.5z" />
    <glyph glyph-name="Ograve" unicode="&#xd2;" horiz-adv-x="627" 
d="M511.5 561q67.5 -81 67.5 -232q0 -161 -70 -247.5t-201 -86.5q-125 0 -192.5 83.5t-67.5 238.5q0 157 70 241t200 84q126 0 193.5 -81zM132.5 543q-64.5 -79 -64.5 -226q0 -145 62 -223.5t178 -78.5q121 0 186 81.5t65 232.5q0 141 -62.5 217t-178.5 76
q-121 0 -185.5 -79zM406 742l-7 -15l-5 -3q-107 55 -174 93l-2 5l7 12l5 2q85 -50 176 -94z" />
    <glyph glyph-name="uni1ECE" unicode="&#x1ece;" horiz-adv-x="627" 
d="M511.5 561q67.5 -81 67.5 -232q0 -161 -70 -247.5t-201 -86.5q-125 0 -192.5 83.5t-67.5 238.5q0 157 70 241t200 84q126 0 193.5 -81zM132.5 543q-64.5 -79 -64.5 -226q0 -145 62 -223.5t178 -78.5q121 0 186 81.5t65 232.5q0 141 -62.5 217t-178.5 76
q-121 0 -185.5 -79zM294 737q25 16 38 31.5t13 26.5q0 9 -7 14.5t-19 5.5q-26 0 -54 -23l-8 14q34 29 64 29q19 0 31.5 -11t12.5 -27q0 -29 -48 -65l16 -29l-17 -7z" />
    <glyph glyph-name="Ohorn" unicode="&#x1a0;" horiz-adv-x="630" 
d="M554.5 484q24.5 -66 24.5 -158q0 -158 -70.5 -244.5t-199.5 -86.5q-126 0 -193.5 83t-67.5 237q0 156 69 241.5t195 85.5q37 0 63.5 -6t58.5 -17q4 -1 21.5 -6.5t32.5 -5.5q24 0 40.5 14t16.5 35q0 34 -32 69l2 5q8 5 12 5q13 0 25.5 -26t12.5 -52q0 -33 -22.5 -52
t-59.5 -18q47 -37 71.5 -103zM493.5 96.5q65.5 81.5 65.5 229.5q0 144 -62 220t-180 76q-120 0 -184.5 -79t-64.5 -227q0 -145 62.5 -223t178.5 -78q119 0 184.5 81.5z" />
    <glyph glyph-name="uni1EDA" unicode="&#x1eda;" horiz-adv-x="630" 
d="M554.5 484q24.5 -66 24.5 -158q0 -158 -70.5 -244.5t-199.5 -86.5q-126 0 -193.5 83t-67.5 237q0 156 69 241.5t195 85.5q37 0 63.5 -6t58.5 -17q4 -1 21.5 -6.5t32.5 -5.5q24 0 40.5 14t16.5 35q0 34 -32 69l2 5q8 5 12 5q13 0 25.5 -26t12.5 -52q0 -33 -22.5 -52
t-59.5 -18q47 -37 71.5 -103zM493.5 96.5q65.5 81.5 65.5 229.5q0 144 -62 220t-180 76q-120 0 -184.5 -79t-64.5 -227q0 -145 62.5 -223t178.5 -78q119 0 184.5 81.5zM423 834l7 -12l-2 -5q-67 -38 -174 -93l-5 3l-7 15q91 44 176 94z" />
    <glyph glyph-name="uni1EE2" unicode="&#x1ee2;" horiz-adv-x="630" 
d="M554.5 484q24.5 -66 24.5 -158q0 -158 -70.5 -244.5t-199.5 -86.5q-126 0 -193.5 83t-67.5 237q0 156 69 241.5t195 85.5q37 0 63.5 -6t58.5 -17q4 -1 21.5 -6.5t32.5 -5.5q24 0 40.5 14t16.5 35q0 34 -32 69l2 5q8 5 12 5q13 0 25.5 -26t12.5 -52q0 -33 -22.5 -52
t-59.5 -18q47 -37 71.5 -103zM493.5 96.5q65.5 81.5 65.5 229.5q0 144 -62 220t-180 76q-120 0 -184.5 -79t-64.5 -227q0 -145 62.5 -223t178.5 -78q119 0 184.5 81.5zM324.5 -93.5q5.5 -5.5 5.5 -14.5t-5.5 -14.5t-14.5 -5.5t-14.5 5.5t-5.5 14.5t5.5 14.5t14.5 5.5
t14.5 -5.5z" />
    <glyph glyph-name="uni1EDC" unicode="&#x1edc;" horiz-adv-x="630" 
d="M554.5 484q24.5 -66 24.5 -158q0 -158 -70.5 -244.5t-199.5 -86.5q-126 0 -193.5 83t-67.5 237q0 156 69 241.5t195 85.5q37 0 63.5 -6t58.5 -17q4 -1 21.5 -6.5t32.5 -5.5q24 0 40.5 14t16.5 35q0 34 -32 69l2 5q8 5 12 5q13 0 25.5 -26t12.5 -52q0 -33 -22.5 -52
t-59.5 -18q47 -37 71.5 -103zM493.5 96.5q65.5 81.5 65.5 229.5q0 144 -62 220t-180 76q-120 0 -184.5 -79t-64.5 -227q0 -145 62.5 -223t178.5 -78q119 0 184.5 81.5zM406 742l-7 -15l-5 -3q-107 55 -174 93l-2 5l7 12l5 2q85 -50 176 -94z" />
    <glyph glyph-name="uni1EDE" unicode="&#x1ede;" horiz-adv-x="630" 
d="M554.5 484q24.5 -66 24.5 -158q0 -158 -70.5 -244.5t-199.5 -86.5q-126 0 -193.5 83t-67.5 237q0 156 69 241.5t195 85.5q37 0 63.5 -6t58.5 -17q4 -1 21.5 -6.5t32.5 -5.5q24 0 40.5 14t16.5 35q0 34 -32 69l2 5q8 5 12 5q13 0 25.5 -26t12.5 -52q0 -33 -22.5 -52
t-59.5 -18q47 -37 71.5 -103zM493.5 96.5q65.5 81.5 65.5 229.5q0 144 -62 220t-180 76q-120 0 -184.5 -79t-64.5 -227q0 -145 62.5 -223t178.5 -78q119 0 184.5 81.5zM294 737q25 16 38 31.5t13 26.5q0 9 -7 14.5t-19 5.5q-26 0 -54 -23l-8 14q34 29 64 29q19 0 31.5 -11
t12.5 -27q0 -29 -48 -65l16 -29l-17 -7z" />
    <glyph glyph-name="uni1EE0" unicode="&#x1ee0;" horiz-adv-x="630" 
d="M554.5 484q24.5 -66 24.5 -158q0 -158 -70.5 -244.5t-199.5 -86.5q-126 0 -193.5 83t-67.5 237q0 156 69 241.5t195 85.5q37 0 63.5 -6t58.5 -17q4 -1 21.5 -6.5t32.5 -5.5q24 0 40.5 14t16.5 35q0 34 -32 69l2 5q8 5 12 5q13 0 25.5 -26t12.5 -52q0 -33 -22.5 -52
t-59.5 -18q47 -37 71.5 -103zM493.5 96.5q65.5 81.5 65.5 229.5q0 144 -62 220t-180 76q-120 0 -184.5 -79t-64.5 -227q0 -145 62.5 -223t178.5 -78q119 0 184.5 81.5zM453 805v-4l-52 -47l-6 -2q-20 2 -81 20q-6 2 -35 10t-40 8q-5 0 -13 -6t-17 -16l-21 -19h-4l-9 11v4
l52 47l6 2q20 -2 81 -20q6 -2 35 -10t40 -8q5 0 13 6t17 16l21 19h4z" />
    <glyph glyph-name="Ohungarumlaut" unicode="&#x150;" horiz-adv-x="627" 
d="M511.5 561q67.5 -81 67.5 -232q0 -161 -70 -247.5t-201 -86.5q-125 0 -192.5 83.5t-67.5 238.5q0 157 70 241t200 84q126 0 193.5 -81zM132.5 543q-64.5 -79 -64.5 -226q0 -145 62 -223.5t178 -78.5q121 0 186 81.5t65 232.5q0 141 -62.5 217t-178.5 76
q-121 0 -185.5 -79zM249 757q75 70 89 84l5 -1l10 -10l-1 -5q-35 -35 -112 -105l-5 1l-11 13zM379 757q75 70 89 84l5 -1l10 -10l-1 -5q-35 -35 -112 -105l-5 1l-11 13z" />
    <glyph glyph-name="uni020E" unicode="&#x20e;" horiz-adv-x="627" 
d="M511.5 561q67.5 -81 67.5 -232q0 -161 -70 -247.5t-201 -86.5q-125 0 -192.5 83.5t-67.5 238.5q0 157 70 241t200 84q126 0 193.5 -81zM132.5 543q-64.5 -79 -64.5 -226q0 -145 62 -223.5t178 -78.5q121 0 186 81.5t65 232.5q0 141 -62.5 217t-178.5 76
q-121 0 -185.5 -79zM213 730q10 54 34.5 79.5t66.5 25.5t66.5 -25.5t34.5 -79.5l-13 -13h-5q-7 50 -27 74t-56 24t-56 -24t-27 -74h-5z" />
    <glyph glyph-name="Omacron" unicode="&#x14c;" horiz-adv-x="627" 
d="M511.5 561q67.5 -81 67.5 -232q0 -161 -70 -247.5t-201 -86.5q-125 0 -192.5 83.5t-67.5 238.5q0 157 70 241t200 84q126 0 193.5 -81zM132.5 543q-64.5 -79 -64.5 -226q0 -145 62 -223.5t178 -78.5q121 0 186 81.5t65 232.5q0 141 -62.5 217t-178.5 76
q-121 0 -185.5 -79zM460 789l-2 -17h-287l-3 3l2 17h287z" />
    <glyph glyph-name="uni1E52" unicode="&#x1e52;" horiz-adv-x="627" 
d="M511.5 561q67.5 -81 67.5 -232q0 -161 -70 -247.5t-201 -86.5q-125 0 -192.5 83.5t-67.5 238.5q0 157 70 241t200 84q126 0 193.5 -81zM132.5 543q-64.5 -79 -64.5 -226q0 -145 62 -223.5t178 -78.5q121 0 186 81.5t65 232.5q0 141 -62.5 217t-178.5 76
q-121 0 -185.5 -79zM409 898l5 -13l-3 -5q-80 -29 -187 -61l-5 4l-4 16q93 26 190 62zM420 759l-2 -17h-207l-3 3l2 17h207z" />
    <glyph glyph-name="uni1E50" unicode="&#x1e50;" horiz-adv-x="627" 
d="M511.5 561q67.5 -81 67.5 -232q0 -161 -70 -247.5t-201 -86.5q-125 0 -192.5 83.5t-67.5 238.5q0 157 70 241t200 84q126 0 193.5 -81zM132.5 543q-64.5 -79 -64.5 -226q0 -145 62 -223.5t178 -78.5q121 0 186 81.5t65 232.5q0 141 -62.5 217t-178.5 76
q-121 0 -185.5 -79zM218 880l-3 5l5 13l4 3q97 -36 190 -62l-4 -16l-5 -4q-107 32 -187 61zM420 759l-2 -17h-207l-3 3l2 17h207z" />
    <glyph glyph-name="uni01EA" unicode="&#x1ea;" horiz-adv-x="627" 
d="M511.5 561q67.5 -81 67.5 -232q0 -161 -70 -247.5t-201 -86.5q-125 0 -192.5 83.5t-67.5 238.5q0 157 70 241t200 84q126 0 193.5 -81zM132.5 543q-64.5 -79 -64.5 -226q0 -145 62 -223.5t178 -78.5q121 0 186 81.5t65 232.5q0 141 -62.5 217t-178.5 76
q-121 0 -185.5 -79zM321 -182.5q-17 15.5 -17 42.5q0 17 6.5 32.5t27 44t50.5 67.5q14 18 13 16h24q-37 -47 -61 -79t-31.5 -47.5t-7.5 -30.5q0 -40 43 -40q41 0 77 52h2l11 -16q-42 -57 -92 -57q-28 0 -45 15.5z" />
    <glyph glyph-name="Oslash" unicode="&#xd8;" horiz-adv-x="627" 
d="M547 503.5q32 -71.5 32 -174.5q0 -161 -70 -247.5t-201 -86.5q-72 0 -126 28l-51 -110l-16 3l-2 4l52 113q-57 38 -87 110t-30 174q0 157 70 241t200 84q66 0 117 -23l42 90l16 -3l2 -5l-42 -91q62 -35 94 -106.5zM95 154.5q27 -67.5 79 -102.5l253 548q-45 22 -109 22
q-121 0 -185.5 -79t-64.5 -226q0 -95 27 -162.5zM494 96.5q65 81.5 65 232.5q0 96 -29.5 162.5t-85.5 99.5l-253 -549q50 -27 117 -27q121 0 186 81.5z" />
    <glyph glyph-name="Oslashacute" unicode="&#x1fe;" horiz-adv-x="627" 
d="M547 503.5q32 -71.5 32 -174.5q0 -161 -70 -247.5t-201 -86.5q-72 0 -126 28l-51 -110l-16 3l-2 4l52 113q-57 38 -87 110t-30 174q0 157 70 241t200 84q66 0 117 -23l42 90l16 -3l2 -5l-42 -91q62 -35 94 -106.5zM95 154.5q27 -67.5 79 -102.5l253 548q-45 22 -109 22
q-121 0 -185.5 -79t-64.5 -226q0 -95 27 -162.5zM494 96.5q65 81.5 65 232.5q0 96 -29.5 162.5t-85.5 99.5l-253 -549q50 -27 117 -27q121 0 186 81.5zM421 834l7 -12l-2 -5q-67 -38 -174 -93l-5 3l-7 15q91 44 176 94z" />
    <glyph glyph-name="Otilde" unicode="&#xd5;" horiz-adv-x="627" 
d="M511.5 561q67.5 -81 67.5 -232q0 -161 -70 -247.5t-201 -86.5q-125 0 -192.5 83.5t-67.5 238.5q0 157 70 241t200 84q126 0 193.5 -81zM132.5 543q-64.5 -79 -64.5 -226q0 -145 62 -223.5t178 -78.5q121 0 186 81.5t65 232.5q0 141 -62.5 217t-178.5 76
q-121 0 -185.5 -79zM453 805v-4l-52 -47l-6 -2q-20 2 -81 20q-6 2 -35 10t-40 8q-5 0 -13 -6t-17 -16l-21 -19h-4l-9 11v4l52 47l6 2q20 -2 81 -20q6 -2 35 -10t40 -8q5 0 13 6t17 16l21 19h4z" />
    <glyph glyph-name="uni1E4C" unicode="&#x1e4c;" horiz-adv-x="627" 
d="M511.5 561q67.5 -81 67.5 -232q0 -161 -70 -247.5t-201 -86.5q-125 0 -192.5 83.5t-67.5 238.5q0 157 70 241t200 84q126 0 193.5 -81zM132.5 543q-64.5 -79 -64.5 -226q0 -145 62 -223.5t178 -78.5q121 0 186 81.5t65 232.5q0 141 -62.5 217t-178.5 76
q-121 0 -185.5 -79zM406 909l5 -13l-3 -5q-80 -29 -187 -61l-5 4l-4 16q93 26 190 62zM438 782v-4l-47 -47l-6 -2q-16 2 -72 20q-54 18 -65 18q-5 0 -13 -7t-17 -17l-16 -16h-3l-9 11v4l47 47l6 2q16 -2 72 -20q54 -18 65 -18q5 0 12 6t15 15l19 19h3z" />
    <glyph glyph-name="uni1E4E" unicode="&#x1e4e;" horiz-adv-x="627" 
d="M511.5 561q67.5 -81 67.5 -232q0 -161 -70 -247.5t-201 -86.5q-125 0 -192.5 83.5t-67.5 238.5q0 157 70 241t200 84q126 0 193.5 -81zM132.5 543q-64.5 -79 -64.5 -226q0 -145 62 -223.5t178 -78.5q121 0 186 81.5t65 232.5q0 141 -62.5 217t-178.5 76
q-121 0 -185.5 -79zM438 782v-4l-47 -47l-6 -2q-16 2 -72 20q-54 18 -65 18q-5 0 -13 -7t-17 -17l-16 -16h-3l-9 11v4l47 47l6 2q16 -2 72 -20q54 -18 65 -18q5 0 12 6t15 15l19 19h3zM258.5 886.5q5.5 -5.5 5.5 -14.5t-5.5 -14.5t-14.5 -5.5t-14.5 5.5t-5.5 14.5t5.5 14.5
t14.5 5.5t14.5 -5.5zM398.5 886.5q5.5 -5.5 5.5 -14.5t-5.5 -14.5t-14.5 -5.5t-14.5 5.5t-5.5 14.5t5.5 14.5t14.5 5.5t14.5 -5.5z" />
    <glyph glyph-name="uni022C" unicode="&#x22c;" horiz-adv-x="627" 
d="M511.5 561q67.5 -81 67.5 -232q0 -161 -70 -247.5t-201 -86.5q-125 0 -192.5 83.5t-67.5 238.5q0 157 70 241t200 84q126 0 193.5 -81zM132.5 543q-64.5 -79 -64.5 -226q0 -145 62 -223.5t178 -78.5q121 0 186 81.5t65 232.5q0 141 -62.5 217t-178.5 76
q-121 0 -185.5 -79zM438 782v-4l-47 -47l-6 -2q-16 2 -72 20q-54 18 -65 18q-5 0 -13 -7t-17 -17l-16 -16h-3l-9 11v4l47 47l6 2q16 -2 72 -20q54 -18 65 -18q5 0 12 6t15 15l19 19h3zM420 881l-2 -17h-207l-3 3l2 17h207z" />
    <glyph glyph-name="OE" unicode="&#x152;" horiz-adv-x="833" 
d="M434 643q50 -6 77 -6h286l3 -4l-4 -16h-287v-277h238l3 -4l-4 -16h-237v-300h292l3 -4l-4 -16h-289q-31 0 -87 -6q-52 -6 -76 -6q-143 0 -221.5 86.5t-78.5 242.5q0 157 81 244.5t229 87.5q26 0 76 -6zM144 547q-76 -82 -76 -231q0 -146 73 -227t212 -81q45 0 108 10
q17 3 22.5 8t5.5 17l-2 543q0 18 -3 24t-11 8q-62 11 -115 11q-138 0 -214 -82z" />
    <glyph glyph-name="P" unicode="P" horiz-adv-x="484" 
d="M385 592.5q47 -46.5 47 -132.5q0 -102 -55 -156.5t-158 -54.5h-89v-249h-20v637l141 2q87 0 134 -46.5zM369.5 326.5q42.5 50.5 42.5 133.5q0 74 -40 115t-114 44l-128 -1v-349h119q78 7 120.5 57.5z" />
    <glyph glyph-name="Thorn" unicode="&#xde;" horiz-adv-x="487" 
d="M385 469.5q47 -46.5 47 -132.5q0 -102 -55 -156.5t-158 -54.5h-89v-126h-20v637h20v-123l121 2q87 0 134 -46.5zM370 205q42 49 42 132q0 74 -40 115t-114 44l-128 -1v-349h119q79 10 121 59z" />
    <glyph glyph-name="Q" unicode="Q" horiz-adv-x="628" 
d="M533.5 -109.5q94.5 -42.5 195.5 -54.5v-6l-8 -12h-5q-102 13 -200.5 59t-179.5 119q-9 -1 -28 -1q-125 0 -192.5 83.5t-67.5 238.5q0 157 70 241t200 84q126 0 193.5 -81t67.5 -232q0 -144 -56 -228.5t-161 -101.5q77 -66 171.5 -108.5zM130 93.5q62 -78.5 178 -78.5
q121 0 186 81.5t65 232.5q0 141 -62.5 217t-178.5 76q-121 0 -185.5 -79t-64.5 -226q0 -145 62 -223.5z" />
    <glyph glyph-name="R" unicode="R" horiz-adv-x="518" 
d="M466 5v-4q-5 -5 -12 -8l-6 2q-107 140 -184 268h-134v-263h-20v637l141 2q87 0 134 -45t47 -130q0 -74 -38 -124.5t-109 -72.5q78 -128 181 -262zM130 283h142q67 17 103.5 64t36.5 117q0 74 -40 114t-114 40h-128v-335z" />
    <glyph glyph-name="Racute" unicode="&#x154;" horiz-adv-x="518" 
d="M466 5v-4q-5 -5 -12 -8l-6 2q-107 140 -184 268h-134v-263h-20v637l141 2q87 0 134 -45t47 -130q0 -74 -38 -124.5t-109 -72.5q78 -128 181 -262zM130 283h142q67 17 103.5 64t36.5 117q0 74 -40 114t-114 40h-128v-335zM361 853l10 -10l-1 -5q-69 -69 -144 -135l-5 1
l-11 13q69 58 146 137z" />
    <glyph glyph-name="Rcaron" unicode="&#x158;" horiz-adv-x="518" 
d="M466 5v-4q-5 -5 -12 -8l-6 2q-107 140 -184 268h-134v-263h-20v637l141 2q87 0 134 -45t47 -130q0 -74 -38 -124.5t-109 -72.5q78 -128 181 -262zM130 283h142q67 17 103.5 64t36.5 117q0 74 -40 114t-114 40h-128v-335zM366 805q-47 -33 -98 -76h-16q-66 52 -100 76
l7 14h5q46 -32 95 -70q49 38 95 70h5z" />
    <glyph glyph-name="Rcommaaccent" unicode="&#x156;" horiz-adv-x="518" 
d="M466 5v-4q-5 -5 -12 -8l-6 2q-107 140 -184 268h-134v-263h-20v637l141 2q87 0 134 -45t47 -130q0 -74 -38 -124.5t-109 -72.5q78 -128 181 -262zM130 283h142q67 17 103.5 64t36.5 117q0 74 -40 114t-114 40h-128v-335zM297 -118q0 -20 -17 -44t-49 -49l-10 11l1 3
q26 19 40 39.5t14 38.5q0 20 -30 34v4q5 7 13 11q38 -17 38 -48z" />
    <glyph glyph-name="uni0210" unicode="&#x210;" horiz-adv-x="518" 
d="M466 5v-4q-5 -5 -12 -8l-6 2q-107 140 -184 268h-134v-263h-20v637l141 2q87 0 134 -45t47 -130q0 -74 -38 -124.5t-109 -72.5q78 -128 181 -262zM130 283h142q67 17 103.5 64t36.5 117q0 74 -40 114t-114 40h-128v-335zM208 721l-5 -1q-77 70 -112 105l-1 5l10 10l5 1
q14 -14 89 -84l25 -23zM338 721l-5 -1q-77 70 -112 105l-1 5l10 10l5 1q14 -14 89 -84l25 -23z" />
    <glyph glyph-name="uni1E5A" unicode="&#x1e5a;" horiz-adv-x="518" 
d="M466 5v-4q-5 -5 -12 -8l-6 2q-107 140 -184 268h-134v-263h-20v637l141 2q87 0 134 -45t47 -130q0 -74 -38 -124.5t-109 -72.5q78 -128 181 -262zM130 283h142q67 17 103.5 64t36.5 117q0 74 -40 114t-114 40h-128v-335zM273.5 -93.5q5.5 -5.5 5.5 -14.5t-5.5 -14.5
t-14.5 -5.5t-14.5 5.5t-5.5 14.5t5.5 14.5t14.5 5.5t14.5 -5.5z" />
    <glyph glyph-name="uni0212" unicode="&#x212;" horiz-adv-x="518" 
d="M466 5v-4q-5 -5 -12 -8l-6 2q-107 140 -184 268h-134v-263h-20v637l141 2q87 0 134 -45t47 -130q0 -74 -38 -124.5t-109 -72.5q78 -128 181 -262zM130 283h142q67 17 103.5 64t36.5 117q0 74 -40 114t-114 40h-128v-335zM158 730q10 54 34.5 79.5t66.5 25.5t66.5 -25.5
t34.5 -79.5l-13 -13h-5q-7 50 -27 74t-56 24t-56 -24t-27 -74h-5z" />
    <glyph glyph-name="uni1E5E" unicode="&#x1e5e;" horiz-adv-x="518" 
d="M466 5v-4q-5 -5 -12 -8l-6 2q-107 140 -184 268h-134v-263h-20v637l141 2q87 0 134 -45t47 -130q0 -74 -38 -124.5t-109 -72.5q78 -128 181 -262zM130 283h142q67 17 103.5 64t36.5 117q0 74 -40 114t-114 40h-128v-335zM375 -131l-2 -17h-227l-3 3l2 17h227z" />
    <glyph glyph-name="S" unicode="S" horiz-adv-x="445" 
d="M368 611l-4 -18l-7 -1q-28 14 -58 21t-55 7q-48 0 -84 -20.5t-55 -53t-19 -66.5q0 -35 19 -60.5t46.5 -42t76.5 -40.5q54 -27 85.5 -47t54 -51.5t22.5 -76.5q0 -44 -24 -82.5t-66.5 -61t-95.5 -22.5q-39 0 -80 12t-72 35l1 19l5 2q30 -24 69 -36t76 -12q49 0 87.5 21
t59 54.5t20.5 70.5q0 38 -20 65t-48.5 45t-78.5 42q-53 26 -83.5 45.5t-52 50t-21.5 73.5t23 79t64 57t93 21q60 0 122 -29z" />
    <glyph glyph-name="Sacute" unicode="&#x15a;" horiz-adv-x="445" 
d="M368 611l-4 -18l-7 -1q-28 14 -58 21t-55 7q-48 0 -84 -20.5t-55 -53t-19 -66.5q0 -35 19 -60.5t46.5 -42t76.5 -40.5q54 -27 85.5 -47t54 -51.5t22.5 -76.5q0 -44 -24 -82.5t-66.5 -61t-95.5 -22.5q-39 0 -80 12t-72 35l1 19l5 2q30 -24 69 -36t76 -12q49 0 87.5 21
t59 54.5t20.5 70.5q0 38 -20 65t-48.5 45t-78.5 42q-53 26 -83.5 45.5t-52 50t-21.5 73.5t23 79t64 57t93 21q60 0 122 -29zM335 853l10 -10l-1 -5q-69 -69 -144 -135l-5 1l-11 13q69 58 146 137z" />
    <glyph glyph-name="uni1E64" unicode="&#x1e64;" horiz-adv-x="445" 
d="M368 611l-4 -18l-7 -1q-28 14 -58 21t-55 7q-48 0 -84 -20.5t-55 -53t-19 -66.5q0 -35 19 -60.5t46.5 -42t76.5 -40.5q54 -27 85.5 -47t54 -51.5t22.5 -76.5q0 -44 -24 -82.5t-66.5 -61t-95.5 -22.5q-39 0 -80 12t-72 35l1 19l5 2q30 -24 69 -36t76 -12q49 0 87.5 21
t59 54.5t20.5 70.5q0 38 -20 65t-48.5 45t-78.5 42q-53 26 -83.5 45.5t-52 50t-21.5 73.5t23 79t64 57t93 21q60 0 122 -29zM342 834l7 -12l-2 -5q-67 -38 -174 -93l-5 3l-7 15q91 44 176 94zM246.5 907.5q5.5 -5.5 5.5 -14.5t-5.5 -14.5t-14.5 -5.5t-14.5 5.5t-5.5 14.5
t5.5 14.5t14.5 5.5t14.5 -5.5z" />
    <glyph glyph-name="uniA78B" unicode="&#xa78b;" horiz-adv-x="105" 
d="M67 600l-12 -223l-17 -3l-3 6l12 223l17 3z" />
    <glyph glyph-name="Scaron" unicode="&#x160;" horiz-adv-x="445" 
d="M368 611l-4 -18l-7 -1q-28 14 -58 21t-55 7q-48 0 -84 -20.5t-55 -53t-19 -66.5q0 -35 19 -60.5t46.5 -42t76.5 -40.5q54 -27 85.5 -47t54 -51.5t22.5 -76.5q0 -44 -24 -82.5t-66.5 -61t-95.5 -22.5q-39 0 -80 12t-72 35l1 19l5 2q30 -24 69 -36t76 -12q49 0 87.5 21
t59 54.5t20.5 70.5q0 38 -20 65t-48.5 45t-78.5 42q-53 26 -83.5 45.5t-52 50t-21.5 73.5t23 79t64 57t93 21q60 0 122 -29zM340 805q-47 -33 -98 -76h-16q-66 52 -100 76l7 14h5q46 -32 95 -70q49 38 95 70h5z" />
    <glyph glyph-name="uni1E66" unicode="&#x1e66;" horiz-adv-x="445" 
d="M368 611l-4 -18l-7 -1q-28 14 -58 21t-55 7q-48 0 -84 -20.5t-55 -53t-19 -66.5q0 -35 19 -60.5t46.5 -42t76.5 -40.5q54 -27 85.5 -47t54 -51.5t22.5 -76.5q0 -44 -24 -82.5t-66.5 -61t-95.5 -22.5q-39 0 -80 12t-72 35l1 19l5 2q30 -24 69 -36t76 -12q49 0 87.5 21
t59 54.5t20.5 70.5q0 38 -20 65t-48.5 45t-78.5 42q-53 26 -83.5 45.5t-52 50t-21.5 73.5t23 79t64 57t93 21q60 0 122 -29zM340 805q-47 -33 -98 -76h-16q-66 52 -100 76l7 14h5q46 -32 95 -70q49 38 95 70h5zM247.5 886.5q5.5 -5.5 5.5 -14.5t-5.5 -14.5t-14.5 -5.5
t-14.5 5.5t-5.5 14.5t5.5 14.5t14.5 5.5t14.5 -5.5z" />
    <glyph glyph-name="Scedilla" unicode="&#x15e;" horiz-adv-x="445" 
d="M368 611l-4 -18l-7 -1q-28 14 -58 21t-55 7q-48 0 -84 -20.5t-55 -53t-19 -66.5q0 -35 19 -60.5t46.5 -42t76.5 -40.5q54 -27 85.5 -47t54 -51.5t22.5 -76.5q0 -44 -24 -82.5t-66.5 -61t-95.5 -22.5q-39 0 -80 12t-72 35l1 19l5 2q30 -24 69 -36t76 -12q49 0 87.5 21
t59 54.5t20.5 70.5q0 38 -20 65t-48.5 45t-78.5 42q-53 26 -83.5 45.5t-52 50t-21.5 73.5t23 79t64 57t93 21q60 0 122 -29zM213 -55l31 -20q17 -11 25 -22.5t8 -27.5q0 -24 -17.5 -38.5t-42.5 -14.5q-37 0 -59 33l6 18h4q10 -16 21 -23.5t28 -7.5q18 0 29 8.5t11 24.5
q0 11 -5.5 17.5t-18.5 15.5l-44 28l25 75h20z" />
    <glyph glyph-name="Scircumflex" unicode="&#x15c;" horiz-adv-x="445" 
d="M368 611l-4 -18l-7 -1q-28 14 -58 21t-55 7q-48 0 -84 -20.5t-55 -53t-19 -66.5q0 -35 19 -60.5t46.5 -42t76.5 -40.5q54 -27 85.5 -47t54 -51.5t22.5 -76.5q0 -44 -24 -82.5t-66.5 -61t-95.5 -22.5q-39 0 -80 12t-72 35l1 19l5 2q30 -24 69 -36t76 -12q49 0 87.5 21
t59 54.5t20.5 70.5q0 38 -20 65t-48.5 45t-78.5 42q-53 26 -83.5 45.5t-52 50t-21.5 73.5t23 79t64 57t93 21q60 0 122 -29zM123 717q38 43 101 126h18q63 -83 101 -126l-9 -12h-5q-48 53 -96 117q-48 -64 -96 -117h-5z" />
    <glyph glyph-name="Scommaaccent" unicode="&#x218;" horiz-adv-x="445" 
d="M368 611l-4 -18l-7 -1q-28 14 -58 21t-55 7q-48 0 -84 -20.5t-55 -53t-19 -66.5q0 -35 19 -60.5t46.5 -42t76.5 -40.5q54 -27 85.5 -47t54 -51.5t22.5 -76.5q0 -44 -24 -82.5t-66.5 -61t-95.5 -22.5q-39 0 -80 12t-72 35l1 19l5 2q30 -24 69 -36t76 -12q49 0 87.5 21
t59 54.5t20.5 70.5q0 38 -20 65t-48.5 45t-78.5 42q-53 26 -83.5 45.5t-52 50t-21.5 73.5t23 79t64 57t93 21q60 0 122 -29zM252 -118q0 -20 -17 -44t-49 -49l-10 11l1 3q26 19 40 39.5t14 38.5q0 20 -30 34v4q5 7 13 11q38 -17 38 -48z" />
    <glyph glyph-name="uni1E60" unicode="&#x1e60;" horiz-adv-x="445" 
d="M368 611l-4 -18l-7 -1q-28 14 -58 21t-55 7q-48 0 -84 -20.5t-55 -53t-19 -66.5q0 -35 19 -60.5t46.5 -42t76.5 -40.5q54 -27 85.5 -47t54 -51.5t22.5 -76.5q0 -44 -24 -82.5t-66.5 -61t-95.5 -22.5q-39 0 -80 12t-72 35l1 19l5 2q30 -24 69 -36t76 -12q49 0 87.5 21
t59 54.5t20.5 70.5q0 38 -20 65t-48.5 45t-78.5 42q-53 26 -83.5 45.5t-52 50t-21.5 73.5t23 79t64 57t93 21q60 0 122 -29zM247.5 810.5q5.5 -5.5 5.5 -14.5t-5.5 -14.5t-14.5 -5.5t-14.5 5.5t-5.5 14.5t5.5 14.5t14.5 5.5t14.5 -5.5z" />
    <glyph glyph-name="uni1E62" unicode="&#x1e62;" horiz-adv-x="445" 
d="M368 611l-4 -18l-7 -1q-28 14 -58 21t-55 7q-48 0 -84 -20.5t-55 -53t-19 -66.5q0 -35 19 -60.5t46.5 -42t76.5 -40.5q54 -27 85.5 -47t54 -51.5t22.5 -76.5q0 -44 -24 -82.5t-66.5 -61t-95.5 -22.5q-39 0 -80 12t-72 35l1 19l5 2q30 -24 69 -36t76 -12q49 0 87.5 21
t59 54.5t20.5 70.5q0 38 -20 65t-48.5 45t-78.5 42q-53 26 -83.5 45.5t-52 50t-21.5 73.5t23 79t64 57t93 21q60 0 122 -29zM228.5 -93.5q5.5 -5.5 5.5 -14.5t-5.5 -14.5t-14.5 -5.5t-14.5 5.5t-5.5 14.5t5.5 14.5t14.5 5.5t14.5 -5.5z" />
    <glyph glyph-name="uni1E68" unicode="&#x1e68;" horiz-adv-x="445" 
d="M368 611l-4 -18l-7 -1q-28 14 -58 21t-55 7q-48 0 -84 -20.5t-55 -53t-19 -66.5q0 -35 19 -60.5t46.5 -42t76.5 -40.5q54 -27 85.5 -47t54 -51.5t22.5 -76.5q0 -44 -24 -82.5t-66.5 -61t-95.5 -22.5q-39 0 -80 12t-72 35l1 19l5 2q30 -24 69 -36t76 -12q49 0 87.5 21
t59 54.5t20.5 70.5q0 38 -20 65t-48.5 45t-78.5 42q-53 26 -83.5 45.5t-52 50t-21.5 73.5t23 79t64 57t93 21q60 0 122 -29zM228.5 -93.5q5.5 -5.5 5.5 -14.5t-5.5 -14.5t-14.5 -5.5t-14.5 5.5t-5.5 14.5t5.5 14.5t14.5 5.5t14.5 -5.5zM247.5 810.5q5.5 -5.5 5.5 -14.5
t-5.5 -14.5t-14.5 -5.5t-14.5 5.5t-5.5 14.5t5.5 14.5t14.5 5.5t14.5 -5.5z" />
    <glyph glyph-name="uni1E9E" unicode="&#x1e9e;" horiz-adv-x="592" 
d="M397.5 627q48.5 -13 105.5 -41l3 -11l-193 -231q114 -12 174.5 -57t60.5 -123q0 -49 -23 -87t-63 -59.5t-91 -21.5q-39 0 -82.5 12.5t-75.5 34.5l2 19l5 2q30 -23 71.5 -35.5t78.5 -12.5q46 0 82 19.5t56 54t20 75.5q0 72 -62.5 111.5t-177.5 48.5l-4 15l196 235
q-93 45 -177 45q-89 0 -143 -51t-54 -135v-434h-20v433q0 61 27.5 108t76.5 73t113 26q46 0 94.5 -13z" />
    <glyph glyph-name="uni018F" unicode="&#x18f;" horiz-adv-x="615" 
d="M497.5 558q69.5 -83 69.5 -234q0 -100 -32 -174t-91.5 -114.5t-139.5 -40.5q-70 0 -124 28.5t-84 79.5t-30 118q0 23 3 42l7 9l469 6q2 30 2 46q0 142 -64.5 219.5t-181.5 77.5q-54 0 -106.5 -16t-88.5 -43l-7 2l2 19q43 28 95.5 43t105.5 15q126 0 195.5 -83zM464.5 80
q63.5 64 78.5 177l-457 -5l-1 -32q0 -60 27.5 -106.5t77 -72t114.5 -25.5q97 0 160.5 64z" />
    <glyph glyph-name="T" unicode="T" horiz-adv-x="475" 
d="M447 633l-4 -16h-195v-617h-20v617h-197l-3 4l4 16h412z" />
    <glyph glyph-name="Tbar" unicode="&#x166;" horiz-adv-x="475" 
d="M248 350h104l3 -3l-2 -17h-105v-330h-20v330h-97l-3 3l2 17h98v267h-197l-3 4l4 16h412l3 -4l-4 -16h-195v-267z" />
    <glyph glyph-name="Tcaron" unicode="&#x164;" horiz-adv-x="475" 
d="M447 633l-4 -16h-195v-617h-20v617h-197l-3 4l4 16h412zM349 805q-47 -33 -98 -76h-16q-66 52 -100 76l7 14h5q46 -32 95 -70q49 38 95 70h5z" />
    <glyph glyph-name="uni0162" unicode="&#x162;" horiz-adv-x="475" 
d="M447 633l-4 -16h-195v-617l-19 -55l31 -20q17 -11 25 -22.5t8 -27.5q0 -24 -17.5 -38.5t-42.5 -14.5q-37 0 -59 33l6 18h4q10 -16 21 -23.5t28 -7.5q18 0 29 8.5t11 24.5q0 11 -5.5 17.5t-18.5 15.5l-44 28l23 64v617h-197l-3 4l4 16h412z" />
    <glyph glyph-name="uni021A" unicode="&#x21a;" horiz-adv-x="475" 
d="M447 633l-4 -16h-195v-617h-20v617h-197l-3 4l4 16h412zM268 -118q0 -20 -17 -44t-49 -49l-10 11l1 3q26 19 40 39.5t14 38.5q0 20 -30 34v4q5 7 13 11q38 -17 38 -48z" />
    <glyph glyph-name="uni1E6C" unicode="&#x1e6c;" horiz-adv-x="475" 
d="M447 633l-4 -16h-195v-617h-20v617h-197l-3 4l4 16h412zM244.5 -93.5q5.5 -5.5 5.5 -14.5t-5.5 -14.5t-14.5 -5.5t-14.5 5.5t-5.5 14.5t5.5 14.5t14.5 5.5t14.5 -5.5z" />
    <glyph glyph-name="uni1E6E" unicode="&#x1e6e;" horiz-adv-x="475" 
d="M447 633l-4 -16h-195v-617h-20v617h-197l-3 4l4 16h412zM346 -131l-2 -17h-227l-3 3l2 17h227z" />
    <glyph glyph-name="U" unicode="U" horiz-adv-x="612" 
d="M526 229q3 -110 -55 -171.5t-165 -61.5t-163.5 60t-56.5 173v408h20v-408q-1 -103 51 -158t149 -55t148.5 55t51.5 158v408h20v-408z" />
    <glyph glyph-name="Uacute" unicode="&#xda;" horiz-adv-x="612" 
d="M526 229q3 -110 -55 -171.5t-165 -61.5t-163.5 60t-56.5 173v408h20v-408q-1 -103 51 -158t149 -55t148.5 55t51.5 158v408h20v-408zM419 834l7 -12l-2 -5q-67 -38 -174 -93l-5 3l-7 15q91 44 176 94z" />
    <glyph glyph-name="Ubreve" unicode="&#x16c;" horiz-adv-x="612" 
d="M526 229q3 -110 -55 -171.5t-165 -61.5t-163.5 60t-56.5 173v408h20v-408q-1 -103 51 -158t149 -55t148.5 55t51.5 158v408h20v-408zM411 812q-10 -54 -34.5 -79.5t-66.5 -25.5t-66.5 25.5t-34.5 79.5l13 13h5q7 -50 27 -74t56 -24t56 24t27 74h5z" />
    <glyph glyph-name="uni01D3" unicode="&#x1d3;" horiz-adv-x="612" 
d="M526 229q3 -110 -55 -171.5t-165 -61.5t-163.5 60t-56.5 173v408h20v-408q-1 -103 51 -158t149 -55t148.5 55t51.5 158v408h20v-408zM417 805q-47 -33 -98 -76h-16q-66 52 -100 76l7 14h5q46 -32 95 -70q49 38 95 70h5z" />
    <glyph glyph-name="Ucircumflex" unicode="&#xdb;" horiz-adv-x="612" 
d="M526 229q3 -110 -55 -171.5t-165 -61.5t-163.5 60t-56.5 173v408h20v-408q-1 -103 51 -158t149 -55t148.5 55t51.5 158v408h20v-408zM203 752q47 33 98 76h16q66 -52 100 -76l-7 -14h-5q-46 32 -95 70q-49 -38 -95 -70h-5z" />
    <glyph glyph-name="uni0214" unicode="&#x214;" horiz-adv-x="612" 
d="M526 229q3 -110 -55 -171.5t-165 -61.5t-163.5 60t-56.5 173v408h20v-408q-1 -103 51 -158t149 -55t148.5 55t51.5 158v408h20v-408zM259 721l-5 -1q-77 70 -112 105l-1 5l10 10l5 1q14 -14 89 -84l25 -23zM389 721l-5 -1q-77 70 -112 105l-1 5l10 10l5 1q14 -14 89 -84
l25 -23z" />
    <glyph glyph-name="Udieresis" unicode="&#xdc;" horiz-adv-x="612" 
d="M526 229q3 -110 -55 -171.5t-165 -61.5t-163.5 60t-56.5 173v408h20v-408q-1 -103 51 -158t149 -55t148.5 55t51.5 158v408h20v-408zM254.5 794.5q5.5 -5.5 5.5 -14.5t-5.5 -14.5t-14.5 -5.5t-14.5 5.5t-5.5 14.5t5.5 14.5t14.5 5.5t14.5 -5.5zM394.5 794.5
q5.5 -5.5 5.5 -14.5t-5.5 -14.5t-14.5 -5.5t-14.5 5.5t-5.5 14.5t5.5 14.5t14.5 5.5t14.5 -5.5z" />
    <glyph glyph-name="uni01D7" unicode="&#x1d7;" horiz-adv-x="612" 
d="M526 229q3 -110 -55 -171.5t-165 -61.5t-163.5 60t-56.5 173v408h20v-408q-1 -103 51 -158t149 -55t148.5 55t51.5 158v408h20v-408zM406 908l5 -13l-3 -5q-80 -29 -187 -61l-5 4l-4 16q93 26 190 62zM253.5 774.5q5.5 -5.5 5.5 -14.5t-5.5 -14.5t-14.5 -5.5t-14.5 5.5
t-5.5 14.5t5.5 14.5t14.5 5.5t14.5 -5.5zM393.5 774.5q5.5 -5.5 5.5 -14.5t-5.5 -14.5t-14.5 -5.5t-14.5 5.5t-5.5 14.5t5.5 14.5t14.5 5.5t14.5 -5.5z" />
    <glyph glyph-name="uni01D9" unicode="&#x1d9;" horiz-adv-x="612" 
d="M526 229q3 -110 -55 -171.5t-165 -61.5t-163.5 60t-56.5 173v408h20v-408q-1 -103 51 -158t149 -55t148.5 55t51.5 158v408h20v-408zM417 889q-47 -33 -98 -76h-16q-66 52 -100 76l7 14h5q46 -32 95 -70q49 38 95 70h5zM253.5 774.5q5.5 -5.5 5.5 -14.5t-5.5 -14.5
t-14.5 -5.5t-14.5 5.5t-5.5 14.5t5.5 14.5t14.5 5.5t14.5 -5.5zM393.5 774.5q5.5 -5.5 5.5 -14.5t-5.5 -14.5t-14.5 -5.5t-14.5 5.5t-5.5 14.5t5.5 14.5t14.5 5.5t14.5 -5.5z" />
    <glyph glyph-name="uni01DB" unicode="&#x1db;" horiz-adv-x="612" 
d="M526 229q3 -110 -55 -171.5t-165 -61.5t-163.5 60t-56.5 173v408h20v-408q-1 -103 51 -158t149 -55t148.5 55t51.5 158v408h20v-408zM411 859l-4 -16l-5 -4q-107 32 -187 61l-3 5l5 13l4 3q97 -36 190 -62zM253.5 774.5q5.5 -5.5 5.5 -14.5t-5.5 -14.5t-14.5 -5.5
t-14.5 5.5t-5.5 14.5t5.5 14.5t14.5 5.5t14.5 -5.5zM393.5 774.5q5.5 -5.5 5.5 -14.5t-5.5 -14.5t-14.5 -5.5t-14.5 5.5t-5.5 14.5t5.5 14.5t14.5 5.5t14.5 -5.5z" />
    <glyph glyph-name="uni01D5" unicode="&#x1d5;" horiz-adv-x="612" 
d="M526 229q3 -110 -55 -171.5t-165 -61.5t-163.5 60t-56.5 173v408h20v-408q-1 -103 51 -158t149 -55t148.5 55t51.5 158v408h20v-408zM414 873l-2 -17h-200l-3 3l2 17h200zM253.5 774.5q5.5 -5.5 5.5 -14.5t-5.5 -14.5t-14.5 -5.5t-14.5 5.5t-5.5 14.5t5.5 14.5t14.5 5.5
t14.5 -5.5zM393.5 774.5q5.5 -5.5 5.5 -14.5t-5.5 -14.5t-14.5 -5.5t-14.5 5.5t-5.5 14.5t5.5 14.5t14.5 5.5t14.5 -5.5z" />
    <glyph glyph-name="uni1EE4" unicode="&#x1ee4;" horiz-adv-x="612" 
d="M526 229q3 -110 -55 -171.5t-165 -61.5t-163.5 60t-56.5 173v408h20v-408q-1 -103 51 -158t149 -55t148.5 55t51.5 158v408h20v-408zM317.5 -93.5q5.5 -5.5 5.5 -14.5t-5.5 -14.5t-14.5 -5.5t-14.5 5.5t-5.5 14.5t5.5 14.5t14.5 5.5t14.5 -5.5z" />
    <glyph glyph-name="Ugrave" unicode="&#xd9;" horiz-adv-x="612" 
d="M526 229q3 -110 -55 -171.5t-165 -61.5t-163.5 60t-56.5 173v408h20v-408q-1 -103 51 -158t149 -55t148.5 55t51.5 158v408h20v-408zM402 742l-7 -15l-5 -3q-107 55 -174 93l-2 5l7 12l5 2q85 -50 176 -94z" />
    <glyph glyph-name="uni1EE6" unicode="&#x1ee6;" horiz-adv-x="612" 
d="M526 229q3 -110 -55 -171.5t-165 -61.5t-163.5 60t-56.5 173v408h20v-408q-1 -103 51 -158t149 -55t148.5 55t51.5 158v408h20v-408zM290 737q25 16 38 31.5t13 26.5q0 9 -7 14.5t-19 5.5q-26 0 -54 -23l-8 14q34 29 64 29q19 0 31.5 -11t12.5 -27q0 -29 -48 -65l16 -29
l-17 -7z" />
    <glyph glyph-name="Uhorn" unicode="&#x1af;" horiz-adv-x="622" 
d="M526 229q3 -110 -55 -171.5t-165 -61.5t-163.5 60t-56.5 173v408h20v-408q-1 -103 51 -158t149 -55t148.5 55t51.5 158v408h10q31 0 50 14.5t19 38.5q0 28 -34 61l2 5q8 5 12 5q6 0 15.5 -10t17 -26.5t7.5 -34.5q0 -31 -21.5 -50.5t-57.5 -22.5v-388z" />
    <glyph glyph-name="uni1EE8" unicode="&#x1ee8;" horiz-adv-x="622" 
d="M526 229q3 -110 -55 -171.5t-165 -61.5t-163.5 60t-56.5 173v408h20v-408q-1 -103 51 -158t149 -55t148.5 55t51.5 158v408h10q31 0 50 14.5t19 38.5q0 28 -34 61l2 5q8 5 12 5q6 0 15.5 -10t17 -26.5t7.5 -34.5q0 -31 -21.5 -50.5t-57.5 -22.5v-388zM419 834l7 -12
l-2 -5q-67 -38 -174 -93l-5 3l-7 15q91 44 176 94z" />
    <glyph glyph-name="uni1EF0" unicode="&#x1ef0;" horiz-adv-x="622" 
d="M526 229q3 -110 -55 -171.5t-165 -61.5t-163.5 60t-56.5 173v408h20v-408q-1 -103 51 -158t149 -55t148.5 55t51.5 158v408h10q31 0 50 14.5t19 38.5q0 28 -34 61l2 5q8 5 12 5q6 0 15.5 -10t17 -26.5t7.5 -34.5q0 -31 -21.5 -50.5t-57.5 -22.5v-388zM320.5 -93.5
q5.5 -5.5 5.5 -14.5t-5.5 -14.5t-14.5 -5.5t-14.5 5.5t-5.5 14.5t5.5 14.5t14.5 5.5t14.5 -5.5z" />
    <glyph glyph-name="uni1EEA" unicode="&#x1eea;" horiz-adv-x="622" 
d="M526 229q3 -110 -55 -171.5t-165 -61.5t-163.5 60t-56.5 173v408h20v-408q-1 -103 51 -158t149 -55t148.5 55t51.5 158v408h10q31 0 50 14.5t19 38.5q0 28 -34 61l2 5q8 5 12 5q6 0 15.5 -10t17 -26.5t7.5 -34.5q0 -31 -21.5 -50.5t-57.5 -22.5v-388zM402 742l-7 -15
l-5 -3q-107 55 -174 93l-2 5l7 12l5 2q85 -50 176 -94z" />
    <glyph glyph-name="uni1EEC" unicode="&#x1eec;" horiz-adv-x="622" 
d="M526 229q3 -110 -55 -171.5t-165 -61.5t-163.5 60t-56.5 173v408h20v-408q-1 -103 51 -158t149 -55t148.5 55t51.5 158v408h10q31 0 50 14.5t19 38.5q0 28 -34 61l2 5q8 5 12 5q6 0 15.5 -10t17 -26.5t7.5 -34.5q0 -31 -21.5 -50.5t-57.5 -22.5v-388zM290 737
q25 16 38 31.5t13 26.5q0 9 -7 14.5t-19 5.5q-26 0 -54 -23l-8 14q34 29 64 29q19 0 31.5 -11t12.5 -27q0 -29 -48 -65l16 -29l-17 -7z" />
    <glyph glyph-name="uni1EEE" unicode="&#x1eee;" horiz-adv-x="622" 
d="M526 229q3 -110 -55 -171.5t-165 -61.5t-163.5 60t-56.5 173v408h20v-408q-1 -103 51 -158t149 -55t148.5 55t51.5 158v408h10q31 0 50 14.5t19 38.5q0 28 -34 61l2 5q8 5 12 5q6 0 15.5 -10t17 -26.5t7.5 -34.5q0 -31 -21.5 -50.5t-57.5 -22.5v-388zM449 805v-4l-52 -47
l-6 -2q-20 2 -81 20q-6 2 -35 10t-40 8q-5 0 -13 -6t-17 -16l-21 -19h-4l-9 11v4l52 47l6 2q20 -2 81 -20q6 -2 35 -10t40 -8q5 0 13 6t17 16l21 19h4z" />
    <glyph glyph-name="Uhungarumlaut" unicode="&#x170;" horiz-adv-x="612" 
d="M526 229q3 -110 -55 -171.5t-165 -61.5t-163.5 60t-56.5 173v408h20v-408q-1 -103 51 -158t149 -55t148.5 55t51.5 158v408h20v-408zM245 757q75 70 89 84l5 -1l10 -10l-1 -5q-35 -35 -112 -105l-5 1l-11 13zM375 757q75 70 89 84l5 -1l10 -10l-1 -5q-35 -35 -112 -105
l-5 1l-11 13z" />
    <glyph glyph-name="uni0216" unicode="&#x216;" horiz-adv-x="612" 
d="M526 229q3 -110 -55 -171.5t-165 -61.5t-163.5 60t-56.5 173v408h20v-408q-1 -103 51 -158t149 -55t148.5 55t51.5 158v408h20v-408zM209 730q10 54 34.5 79.5t66.5 25.5t66.5 -25.5t34.5 -79.5l-13 -13h-5q-7 50 -27 74t-56 24t-56 -24t-27 -74h-5z" />
    <glyph glyph-name="Umacron" unicode="&#x16a;" horiz-adv-x="612" 
d="M526 229q3 -110 -55 -171.5t-165 -61.5t-163.5 60t-56.5 173v408h20v-408q-1 -103 51 -158t149 -55t148.5 55t51.5 158v408h20v-408zM456 789l-2 -17h-287l-3 3l2 17h287z" />
    <glyph glyph-name="uni1E7A" unicode="&#x1e7a;" horiz-adv-x="612" 
d="M526 229q3 -110 -55 -171.5t-165 -61.5t-163.5 60t-56.5 173v408h20v-408q-1 -103 51 -158t149 -55t148.5 55t51.5 158v408h20v-408zM456 789l-2 -17h-287l-3 3l2 17h287zM254.5 939.5q5.5 -5.5 5.5 -14.5t-5.5 -14.5t-14.5 -5.5t-14.5 5.5t-5.5 14.5t5.5 14.5t14.5 5.5
t14.5 -5.5zM394.5 939.5q5.5 -5.5 5.5 -14.5t-5.5 -14.5t-14.5 -5.5t-14.5 5.5t-5.5 14.5t5.5 14.5t14.5 5.5t14.5 -5.5z" />
    <glyph glyph-name="Uogonek" unicode="&#x172;" horiz-adv-x="612" 
d="M526 229q3 -110 -55 -171.5t-165 -61.5t-163.5 60t-56.5 173v408h20v-408q-1 -103 51 -158t149 -55t148.5 55t51.5 158v408h20v-408zM323 -176.5q-17 15.5 -17 42.5q0 17 6.5 32.5t27 44t50.5 67.5q14 18 13 16h24q-37 -47 -61 -79t-31.5 -47.5t-7.5 -30.5q0 -40 43 -40
q41 0 77 52h2l11 -16q-42 -57 -92 -57q-28 0 -45 15.5z" />
    <glyph glyph-name="Uring" unicode="&#x16e;" horiz-adv-x="612" 
d="M526 229q3 -110 -55 -171.5t-165 -61.5t-163.5 60t-56.5 173v408h20v-408q-1 -103 51 -158t149 -55t148.5 55t51.5 158v408h20v-408zM360 832q19 -21 19 -49q0 -31 -21.5 -50t-49.5 -19t-49 19.5t-21 50.5q0 30 19.5 49.5t50.5 19.5q33 0 52 -21zM271.5 819.5
q-13.5 -13.5 -13.5 -35.5q0 -23 14.5 -36.5t35.5 -13.5t36 13t15 36q0 21 -13.5 35.5t-37.5 14.5q-23 0 -36.5 -13.5z" />
    <glyph glyph-name="uni1E78" unicode="&#x1e78;" horiz-adv-x="612" 
d="M526 229q3 -110 -55 -171.5t-165 -61.5t-163.5 60t-56.5 173v408h20v-408q-1 -103 51 -158t149 -55t148.5 55t51.5 158v408h20v-408zM402 909l5 -13l-3 -5q-80 -29 -187 -61l-5 4l-4 16q93 26 190 62zM434 782v-4l-47 -47l-6 -2q-16 2 -72 20q-54 18 -65 18q-5 0 -13 -7
t-17 -17l-16 -16h-3l-9 11v4l47 47l6 2q16 -2 72 -20q54 -18 65 -18q5 0 12 6t15 15l19 19h3z" />
    <glyph glyph-name="V" unicode="V" horiz-adv-x="538" 
d="M273 0h-20l-233 637h23l13 -43l206 -560h4l223 560l14 43h24z" />
    <glyph glyph-name="W" unicode="W" horiz-adv-x="884" 
d="M622 0h-20l-156 438h-4l-170 -438h-20l-229 637h23l13 -43l202 -560h4l169 437l-60 166h22l13 -43l202 -560h4l219 560l14 43h23z" />
    <glyph glyph-name="Wacute" unicode="&#x1e82;" horiz-adv-x="884" 
d="M622 0h-20l-156 438h-4l-170 -438h-20l-229 637h23l13 -43l202 -560h4l169 437l-60 166h22l13 -43l202 -560h4l219 560l14 43h23zM543 834l7 -12l-2 -5q-67 -38 -174 -93l-5 3l-7 15q91 44 176 94z" />
    <glyph glyph-name="Wcircumflex" unicode="&#x174;" horiz-adv-x="884" 
d="M622 0h-20l-156 438h-4l-170 -438h-20l-229 637h23l13 -43l202 -560h4l169 437l-60 166h22l13 -43l202 -560h4l219 560l14 43h23zM327 752q47 33 98 76h16q66 -52 100 -76l-7 -14h-5q-46 32 -95 70q-49 -38 -95 -70h-5z" />
    <glyph glyph-name="Wdieresis" unicode="&#x1e84;" horiz-adv-x="884" 
d="M622 0h-20l-156 438h-4l-170 -438h-20l-229 637h23l13 -43l202 -560h4l169 437l-60 166h22l13 -43l202 -560h4l219 560l14 43h23zM378.5 794.5q5.5 -5.5 5.5 -14.5t-5.5 -14.5t-14.5 -5.5t-14.5 5.5t-5.5 14.5t5.5 14.5t14.5 5.5t14.5 -5.5zM518.5 794.5
q5.5 -5.5 5.5 -14.5t-5.5 -14.5t-14.5 -5.5t-14.5 5.5t-5.5 14.5t5.5 14.5t14.5 5.5t14.5 -5.5z" />
    <glyph glyph-name="Wgrave" unicode="&#x1e80;" horiz-adv-x="884" 
d="M622 0h-20l-156 438h-4l-170 -438h-20l-229 637h23l13 -43l202 -560h4l169 437l-60 166h22l13 -43l202 -560h4l219 560l14 43h23zM526 742l-7 -15l-5 -3q-107 55 -174 93l-2 5l7 12l5 2q85 -50 176 -94z" />
    <glyph glyph-name="X" unicode="X" horiz-adv-x="570" 
d="M298 330l231 -330h-27l-24 38l-193 276l-193 -278l-22 -36h-27l229 330l-215 307h28l22 -35l178 -256l174 251l24 40h27z" />
    <glyph glyph-name="Y" unicode="Y" horiz-adv-x="495" 
d="M248 245v-245h-20v246l-202 391h26l11 -26l173 -334h5l188 334l11 26h26z" />
    <glyph glyph-name="Ycircumflex" unicode="&#x176;" horiz-adv-x="495" 
d="M248 245v-245h-20v246l-202 391h26l11 -26l173 -334h5l188 334l11 26h26zM132 752q47 33 98 76h16q66 -52 100 -76l-7 -14h-5q-46 32 -95 70q-49 -38 -95 -70h-5z" />
    <glyph glyph-name="Ydieresis" unicode="&#x178;" horiz-adv-x="495" 
d="M248 245v-245h-20v246l-202 391h26l11 -26l173 -334h5l188 334l11 26h26zM183.5 794.5q5.5 -5.5 5.5 -14.5t-5.5 -14.5t-14.5 -5.5t-14.5 5.5t-5.5 14.5t5.5 14.5t14.5 5.5t14.5 -5.5zM323.5 794.5q5.5 -5.5 5.5 -14.5t-5.5 -14.5t-14.5 -5.5t-14.5 5.5t-5.5 14.5
t5.5 14.5t14.5 5.5t14.5 -5.5z" />
    <glyph glyph-name="uni1E8E" unicode="&#x1e8e;" horiz-adv-x="495" 
d="M248 245v-245h-20v246l-202 391h26l11 -26l173 -334h5l188 334l11 26h26zM253.5 810.5q5.5 -5.5 5.5 -14.5t-5.5 -14.5t-14.5 -5.5t-14.5 5.5t-5.5 14.5t5.5 14.5t14.5 5.5t14.5 -5.5z" />
    <glyph glyph-name="uni1EF4" unicode="&#x1ef4;" horiz-adv-x="495" 
d="M248 245v-245h-20v246l-202 391h26l11 -26l173 -334h5l188 334l11 26h26zM252.5 -93.5q5.5 -5.5 5.5 -14.5t-5.5 -14.5t-14.5 -5.5t-14.5 5.5t-5.5 14.5t5.5 14.5t14.5 5.5t14.5 -5.5z" />
    <glyph glyph-name="Ygrave" unicode="&#x1ef2;" horiz-adv-x="495" 
d="M248 245v-245h-20v246l-202 391h26l11 -26l173 -334h5l188 334l11 26h26zM331 742l-7 -15l-5 -3q-107 55 -174 93l-2 5l7 12l5 2q85 -50 176 -94z" />
    <glyph glyph-name="uni1EF6" unicode="&#x1ef6;" horiz-adv-x="495" 
d="M248 245v-245h-20v246l-202 391h26l11 -26l173 -334h5l188 334l11 26h26zM219 737q25 16 38 31.5t13 26.5q0 9 -7 14.5t-19 5.5q-26 0 -54 -23l-8 14q34 29 64 29q19 0 31.5 -11t12.5 -27q0 -29 -48 -65l16 -29l-17 -7z" />
    <glyph glyph-name="uni0232" unicode="&#x232;" horiz-adv-x="495" 
d="M248 245v-245h-20v246l-202 391h26l11 -26l173 -334h5l188 334l11 26h26zM385 789l-2 -17h-287l-3 3l2 17h287z" />
    <glyph glyph-name="Z" unicode="Z" horiz-adv-x="507" 
d="M460 620l-401 -600h331l68 1l4 -5l-3 -16h-391l-36 -1v18l401 600h-320l-58 -1l-4 5l3 17l65 -1h304l37 1v-18z" />
    <glyph glyph-name="Zacute" unicode="&#x179;" horiz-adv-x="507" 
d="M460 620l-401 -600h331l68 1l4 -5l-3 -16h-391l-36 -1v18l401 600h-320l-58 -1l-4 5l3 17l65 -1h304l37 1v-18zM363 834l7 -12l-2 -5q-67 -38 -174 -93l-5 3l-7 15q91 44 176 94z" />
    <glyph glyph-name="Zcaron" unicode="&#x17d;" horiz-adv-x="507" 
d="M460 620l-401 -600h331l68 1l4 -5l-3 -16h-391l-36 -1v18l401 600h-320l-58 -1l-4 5l3 17l65 -1h304l37 1v-18zM361 805q-47 -33 -98 -76h-16q-66 52 -100 76l7 14h5q46 -32 95 -70q49 38 95 70h5z" />
    <glyph glyph-name="Zdotaccent" unicode="&#x17b;" horiz-adv-x="507" 
d="M460 620l-401 -600h331l68 1l4 -5l-3 -16h-391l-36 -1v18l401 600h-320l-58 -1l-4 5l3 17l65 -1h304l37 1v-18zM268.5 810.5q5.5 -5.5 5.5 -14.5t-5.5 -14.5t-14.5 -5.5t-14.5 5.5t-5.5 14.5t5.5 14.5t14.5 5.5t14.5 -5.5z" />
    <glyph glyph-name="uni1E92" unicode="&#x1e92;" horiz-adv-x="507" 
d="M460 620l-401 -600h331l68 1l4 -5l-3 -16h-391l-36 -1v18l401 600h-320l-58 -1l-4 5l3 17l65 -1h304l37 1v-18zM268.5 -93.5q5.5 -5.5 5.5 -14.5t-5.5 -14.5t-14.5 -5.5t-14.5 5.5t-5.5 14.5t5.5 14.5t14.5 5.5t14.5 -5.5z" />
    <glyph glyph-name="Iacute_J.loclNLD" horiz-adv-x="508" 
d="M130 0h-20v637h20v-637zM229 834l7 -12l-2 -5q-67 -38 -174 -93l-5 3l-7 15q91 44 176 94zM400 115q0 -70 -29.5 -118.5t-99.5 -94.5l-11 11v6q64 42 92 87t28 107v504h-128l-4 4l3 16h149v-522zM457 834l7 -12l-2 -5q-67 -38 -174 -93l-5 3l-7 15q91 44 176 94z" />
    <glyph glyph-name="uni1E9E.alt" horiz-adv-x="890" 
d="M368 611l-4 -18l-7 -1q-28 14 -58 21t-55 7q-48 0 -84 -20.5t-55 -53t-19 -66.5q0 -35 19 -60.5t46.5 -42t76.5 -40.5q54 -27 85.5 -47t54 -51.5t22.5 -76.5q0 -44 -24 -82.5t-66.5 -61t-95.5 -22.5q-39 0 -80 12t-72 35l1 19l5 2q30 -24 69 -36t76 -12q49 0 87.5 21
t59 54.5t20.5 70.5q0 38 -20 65t-48.5 45t-78.5 42q-53 26 -83.5 45.5t-52 50t-21.5 73.5t23 79t64 57t93 21q60 0 122 -29zM813 611l-4 -18l-7 -1q-28 14 -58 21t-55 7q-48 0 -84 -20.5t-55 -53t-19 -66.5q0 -35 19 -60.5t46.5 -42t76.5 -40.5q54 -27 85.5 -47t54 -51.5
t22.5 -76.5q0 -44 -24 -82.5t-66.5 -61t-95.5 -22.5q-39 0 -80 12t-72 35l1 19l5 2q30 -24 69 -36t76 -12q49 0 87.5 21t59 54.5t20.5 70.5q0 38 -20 65t-48.5 45t-78.5 42q-53 26 -83.5 45.5t-52 50t-21.5 73.5t23 79t64 57t93 21q60 0 122 -29z" />
    <glyph glyph-name="Q.short" horiz-adv-x="628" 
d="M467.5 -94.5q64.5 -40.5 156.5 -72.5v-6l-8 -12h-5q-94 33 -161 77t-115 104q-9 -1 -27 -1q-125 0 -192.5 83.5t-67.5 238.5q0 157 70 241t200 84q126 0 193.5 -81t67.5 -232q0 -145 -56.5 -229.5t-163.5 -100.5q44 -53 108.5 -93.5zM130 93.5q62 -78.5 178 -78.5
q121 0 186 81.5t65 232.5q0 141 -62.5 217t-178.5 76q-121 0 -185.5 -79t-64.5 -226q0 -145 62 -223.5z" />
    <glyph glyph-name="C.ss01" horiz-adv-x="568" 
d="M608 617h-160q38 -15 70 -39l-7 -17h-7q-34 27 -75.5 41.5t-86.5 14.5q-118 0 -181 -78t-63 -223q0 -143 60 -219.5t172 -76.5q48 0 95.5 17.5t87.5 49.5l7 -2l-2 -18q-40 -31 -84 -47h174v-20h-648v20h265q-72 31 -109.5 106.5t-37.5 190.5q0 116 39.5 192.5
t114.5 107.5h-272v20h648v-20z" />
    <glyph glyph-name="D.ss01" horiz-adv-x="685" 
d="M725 617h-271q76 -30 116 -99.5t40 -178.5q0 -124 -44 -205.5t-127 -113.5h286v-20h-765v20h171v597h-171v20h765v-20zM523.5 546q-66.5 71 -191.5 71h-181v-597h171q129 0 198.5 82.5t69.5 236.5q0 136 -66.5 207z" />
    <glyph glyph-name="I.ss01" horiz-adv-x="282" 
d="M151 20h171v-20h-362v20h171v597h-171v20h362v-20h-171v-597z" />
    <glyph glyph-name="L.ss01" horiz-adv-x="456" 
d="M151 20h250v110h20v-110h75v-20h-536v20h171v597h-171v20h536v-20h-345v-597z" />
    <glyph glyph-name="M.ss01" horiz-adv-x="822" 
d="M659 617l66 -597h137v-20h-902v20h136l68 597h-204v20h902v-20h-203zM625 617h-428l32 -76l177 -413h4l187 424zM684 210l-44 380h-5l-214 -491h-25l-210 491h-5l-43 -380l-21 -190h587z" />
    <glyph glyph-name="V.ss01" horiz-adv-x="576" 
d="M535 617l-238 -597h319v-20h-656v20h302l-219 597h-83v20h656v-20h-81zM512 617h-447l7 -23l206 -560h4l223 560z" />
    <glyph glyph-name="X.ss01" horiz-adv-x="570" 
d="M298 330l217 -310h95v-20h-650v20h97l215 310l-201 287h-111v20h650v-20h-114zM285 346l174 251l12 20h-373l9 -15zM285 314l-193 -278l-10 -16h407l-11 18z" />
    <glyph glyph-name="a" unicode="a" horiz-adv-x="442" 
d="M302.5 427.5q30.5 -29.5 30.5 -83.5q0 -33 -5 -133l-5 -138q0 -29 8.5 -42.5t27.5 -13.5q10 0 21.5 4t20.5 11l6 -3l-4 -18q-20 -14 -45 -14q-28 0 -41 17.5t-14 58.5h-3q-30 -35 -64 -56t-67 -22q-54 0 -83.5 29.5t-29.5 82.5q0 36 21.5 61t60.5 34l172 40l3 98
q0 47 -25.5 72t-73.5 25q-30 0 -65.5 -17t-71.5 -48l-6 2l-5 15q37 33 75.5 50.5t73.5 17.5q57 0 87.5 -29.5zM143 182q-32 -8 -49.5 -27t-17.5 -48q0 -43 24.5 -67.5t67.5 -24.5q33 0 68.5 24t67.5 67l5 115z" />
    <glyph glyph-name="aacute" unicode="&#xe1;" horiz-adv-x="442" 
d="M302.5 427.5q30.5 -29.5 30.5 -83.5q0 -33 -5 -133l-5 -138q0 -29 8.5 -42.5t27.5 -13.5q10 0 21.5 4t20.5 11l6 -3l-4 -18q-20 -14 -45 -14q-28 0 -41 17.5t-14 58.5h-3q-30 -35 -64 -56t-67 -22q-54 0 -83.5 29.5t-29.5 82.5q0 36 21.5 61t60.5 34l172 40l3 98
q0 47 -25.5 72t-73.5 25q-30 0 -65.5 -17t-71.5 -48l-6 2l-5 15q37 33 75.5 50.5t73.5 17.5q57 0 87.5 -29.5zM143 182q-32 -8 -49.5 -27t-17.5 -48q0 -43 24.5 -67.5t67.5 -24.5q33 0 68.5 24t67.5 67l5 115zM313 668l10 -10l-1 -5q-69 -69 -144 -135l-5 1l-11 13
q69 58 146 137z" />
    <glyph glyph-name="abreve" unicode="&#x103;" horiz-adv-x="442" 
d="M302.5 427.5q30.5 -29.5 30.5 -83.5q0 -33 -5 -133l-5 -138q0 -29 8.5 -42.5t27.5 -13.5q10 0 21.5 4t20.5 11l6 -3l-4 -18q-20 -14 -45 -14q-28 0 -41 17.5t-14 58.5h-3q-30 -35 -64 -56t-67 -22q-54 0 -83.5 29.5t-29.5 82.5q0 36 21.5 61t60.5 34l172 40l3 98
q0 47 -25.5 72t-73.5 25q-30 0 -65.5 -17t-71.5 -48l-6 2l-5 15q37 33 75.5 50.5t73.5 17.5q57 0 87.5 -29.5zM143 182q-32 -8 -49.5 -27t-17.5 -48q0 -43 24.5 -67.5t67.5 -24.5q33 0 68.5 24t67.5 67l5 115zM312 627q-10 -54 -34.5 -79.5t-66.5 -25.5t-66.5 25.5
t-34.5 79.5l13 13h5q7 -50 27 -74t56 -24t56 24t27 74h5z" />
    <glyph glyph-name="uni1EAF" unicode="&#x1eaf;" horiz-adv-x="442" 
d="M302.5 427.5q30.5 -29.5 30.5 -83.5q0 -33 -5 -133l-5 -138q0 -29 8.5 -42.5t27.5 -13.5q10 0 21.5 4t20.5 11l6 -3l-4 -18q-20 -14 -45 -14q-28 0 -41 17.5t-14 58.5h-3q-30 -35 -64 -56t-67 -22q-54 0 -83.5 29.5t-29.5 82.5q0 36 21.5 61t60.5 34l172 40l3 98
q0 47 -25.5 72t-73.5 25q-30 0 -65.5 -17t-71.5 -48l-6 2l-5 15q37 33 75.5 50.5t73.5 17.5q57 0 87.5 -29.5zM143 182q-32 -8 -49.5 -27t-17.5 -48q0 -43 24.5 -67.5t67.5 -24.5q33 0 68.5 24t67.5 67l5 115zM281 701l-1 -5l-81 -88l-5 1l-12 12q26 27 83 90h5zM312 597
q-11 -36 -37.5 -55t-64.5 -19t-64 19t-36 55l13 11h5q8 -32 28.5 -48.5t53.5 -16.5t54.5 16.5t29.5 48.5h5z" />
    <glyph glyph-name="uni1EB7" unicode="&#x1eb7;" horiz-adv-x="442" 
d="M322 627q-10 -54 -34.5 -79.5t-66.5 -25.5t-66.5 25.5t-34.5 79.5l13 13h5q7 -50 27 -74t56 -24t56 24t27 74h5zM302.5 427.5q30.5 -29.5 30.5 -83.5q0 -33 -5 -133l-5 -138q0 -29 8.5 -42.5t27.5 -13.5q10 0 21.5 4t20.5 11l6 -3l-4 -18q-20 -14 -45 -14q-28 0 -41 17.5
t-14 58.5h-3q-30 -35 -64 -56t-67 -22q-54 0 -83.5 29.5t-29.5 82.5q0 36 21.5 61t60.5 34l172 40l3 98q0 47 -25.5 72t-73.5 25q-30 0 -65.5 -17t-71.5 -48l-6 2l-5 15q37 33 75.5 50.5t73.5 17.5q57 0 87.5 -29.5zM143 182q-32 -8 -49.5 -27t-17.5 -48q0 -43 24.5 -67.5
t67.5 -24.5q33 0 68.5 24t67.5 67l5 115zM225.5 -93.5q5.5 -5.5 5.5 -14.5t-5.5 -14.5t-14.5 -5.5t-14.5 5.5t-5.5 14.5t5.5 14.5t14.5 5.5t14.5 -5.5z" />
    <glyph glyph-name="uni1EB1" unicode="&#x1eb1;" horiz-adv-x="442" 
d="M302.5 427.5q30.5 -29.5 30.5 -83.5q0 -33 -5 -133l-5 -138q0 -29 8.5 -42.5t27.5 -13.5q10 0 21.5 4t20.5 11l6 -3l-4 -18q-20 -14 -45 -14q-28 0 -41 17.5t-14 58.5h-3q-30 -35 -64 -56t-67 -22q-54 0 -83.5 29.5t-29.5 82.5q0 36 21.5 61t60.5 34l172 40l3 98
q0 47 -25.5 72t-73.5 25q-30 0 -65.5 -17t-71.5 -48l-6 2l-5 15q37 33 75.5 50.5t73.5 17.5q57 0 87.5 -29.5zM143 182q-32 -8 -49.5 -27t-17.5 -48q0 -43 24.5 -67.5t67.5 -24.5q33 0 68.5 24t67.5 67l5 115zM214 608l-81 88l-1 5l11 10h5q57 -63 83 -90l-12 -12zM312 597
q-11 -36 -37.5 -55t-64.5 -19t-64 19t-36 55l13 11h5q8 -32 28.5 -48.5t53.5 -16.5t54.5 16.5t29.5 48.5h5z" />
    <glyph glyph-name="uni1EB3" unicode="&#x1eb3;" horiz-adv-x="442" 
d="M302.5 427.5q30.5 -29.5 30.5 -83.5q0 -33 -5 -133l-5 -138q0 -29 8.5 -42.5t27.5 -13.5q10 0 21.5 4t20.5 11l6 -3l-4 -18q-20 -14 -45 -14q-28 0 -41 17.5t-14 58.5h-3q-30 -35 -64 -56t-67 -22q-54 0 -83.5 29.5t-29.5 82.5q0 36 21.5 61t60.5 34l172 40l3 98
q0 47 -25.5 72t-73.5 25q-30 0 -65.5 -17t-71.5 -48l-6 2l-5 15q37 33 75.5 50.5t73.5 17.5q57 0 87.5 -29.5zM143 182q-32 -8 -49.5 -27t-17.5 -48q0 -43 24.5 -67.5t67.5 -24.5q33 0 68.5 24t67.5 67l5 115zM312 597q-11 -36 -37.5 -55t-64.5 -19t-64 19t-36 55l13 11h5
q8 -32 28.5 -48.5t53.5 -16.5t54.5 16.5t29.5 48.5h5zM191 644q25 16 38 31.5t13 26.5q0 9 -7 14.5t-19 5.5q-26 0 -54 -23l-8 14q34 29 64 29q19 0 31.5 -11t12.5 -27q0 -29 -48 -65l16 -29l-17 -7z" />
    <glyph glyph-name="uni1EB5" unicode="&#x1eb5;" horiz-adv-x="442" 
d="M302.5 427.5q30.5 -29.5 30.5 -83.5q0 -33 -5 -133l-5 -138q0 -29 8.5 -42.5t27.5 -13.5q10 0 21.5 4t20.5 11l6 -3l-4 -18q-20 -14 -45 -14q-28 0 -41 17.5t-14 58.5h-3q-30 -35 -64 -56t-67 -22q-54 0 -83.5 29.5t-29.5 82.5q0 36 21.5 61t60.5 34l172 40l3 98
q0 47 -25.5 72t-73.5 25q-30 0 -65.5 -17t-71.5 -48l-6 2l-5 15q37 33 75.5 50.5t73.5 17.5q57 0 87.5 -29.5zM143 182q-32 -8 -49.5 -27t-17.5 -48q0 -43 24.5 -67.5t67.5 -24.5q33 0 68.5 24t67.5 67l5 115zM312 597q-11 -36 -37.5 -55t-64.5 -19t-64 19t-36 55l13 11h5
q8 -32 28.5 -48.5t53.5 -16.5t54.5 16.5t29.5 48.5h5zM322.716 711v-4l-50.4541 -47l-5.71094 -2q-22.8477 3 -77.1094 21q-59.0225 18 -70.4453 18q-4.75977 0 -12.376 -6t-16.1836 -16l-19.9912 -19h-3.80762l-7.61621 11v4l50.4541 47l5.71191 2q19.04 -2 75.2051 -20
q58.0703 -19 72.3496 -19q4.75977 0 11.4238 6t15.2314 15l20.9434 20h3.80762z" />
    <glyph glyph-name="uni01CE" unicode="&#x1ce;" horiz-adv-x="442" 
d="M302.5 427.5q30.5 -29.5 30.5 -83.5q0 -33 -5 -133l-5 -138q0 -29 8.5 -42.5t27.5 -13.5q10 0 21.5 4t20.5 11l6 -3l-4 -18q-20 -14 -45 -14q-28 0 -41 17.5t-14 58.5h-3q-30 -35 -64 -56t-67 -22q-54 0 -83.5 29.5t-29.5 82.5q0 36 21.5 61t60.5 34l172 40l3 98
q0 47 -25.5 72t-73.5 25q-30 0 -65.5 -17t-71.5 -48l-6 2l-5 15q37 33 75.5 50.5t73.5 17.5q57 0 87.5 -29.5zM143 182q-32 -8 -49.5 -27t-17.5 -48q0 -43 24.5 -67.5t67.5 -24.5q33 0 68.5 24t67.5 67l5 115zM321 646q-38 -43 -101 -126h-18q-63 83 -101 126l9 12h5
q48 -53 96 -117q48 64 96 117h5z" />
    <glyph glyph-name="acircumflex" unicode="&#xe2;" horiz-adv-x="442" 
d="M302.5 427.5q30.5 -29.5 30.5 -83.5q0 -33 -5 -133l-5 -138q0 -29 8.5 -42.5t27.5 -13.5q10 0 21.5 4t20.5 11l6 -3l-4 -18q-20 -14 -45 -14q-28 0 -41 17.5t-14 58.5h-3q-30 -35 -64 -56t-67 -22q-54 0 -83.5 29.5t-29.5 82.5q0 36 21.5 61t60.5 34l172 40l3 98
q0 47 -25.5 72t-73.5 25q-30 0 -65.5 -17t-71.5 -48l-6 2l-5 15q37 33 75.5 50.5t73.5 17.5q57 0 87.5 -29.5zM143 182q-32 -8 -49.5 -27t-17.5 -48q0 -43 24.5 -67.5t67.5 -24.5q33 0 68.5 24t67.5 67l5 115zM101 532q38 43 101 126h18q63 -83 101 -126l-9 -12h-5
q-48 53 -96 117q-48 -64 -96 -117h-5z" />
    <glyph glyph-name="uni1EA5" unicode="&#x1ea5;" horiz-adv-x="442" 
d="M302.5 427.5q30.5 -29.5 30.5 -83.5q0 -33 -5 -133l-5 -138q0 -29 8.5 -42.5t27.5 -13.5q10 0 21.5 4t20.5 11l6 -3l-4 -18q-20 -14 -45 -14q-28 0 -41 17.5t-14 58.5h-3q-30 -35 -64 -56t-67 -22q-54 0 -83.5 29.5t-29.5 82.5q0 36 21.5 61t60.5 34l172 40l3 98
q0 47 -25.5 72t-73.5 25q-30 0 -65.5 -17t-71.5 -48l-6 2l-5 15q37 33 75.5 50.5t73.5 17.5q57 0 87.5 -29.5zM143 182q-32 -8 -49.5 -27t-17.5 -48q0 -43 24.5 -67.5t67.5 -24.5q33 0 68.5 24t67.5 67l5 115zM347 710l-1 -5l-68 -76h-6l-11 11l70 80l5 -1zM104 547
q47 33 98 76h16q66 -52 100 -76l-7 -14h-5q-46 32 -95 70q-49 -38 -95 -70h-5z" />
    <glyph glyph-name="uni1EAD" unicode="&#x1ead;" horiz-adv-x="442" 
d="M302.5 427.5q30.5 -29.5 30.5 -83.5q0 -33 -5 -133l-5 -138q0 -29 8.5 -42.5t27.5 -13.5q10 0 21.5 4t20.5 11l6 -3l-4 -18q-20 -14 -45 -14q-28 0 -41 17.5t-14 58.5h-3q-30 -35 -64 -56t-67 -22q-54 0 -83.5 29.5t-29.5 82.5q0 36 21.5 61t60.5 34l172 40l3 98
q0 47 -25.5 72t-73.5 25q-30 0 -65.5 -17t-71.5 -48l-6 2l-5 15q37 33 75.5 50.5t73.5 17.5q57 0 87.5 -29.5zM143 182q-32 -8 -49.5 -27t-17.5 -48q0 -43 24.5 -67.5t67.5 -24.5q33 0 68.5 24t67.5 67l5 115zM225.5 -93.5q5.5 -5.5 5.5 -14.5t-5.5 -14.5t-14.5 -5.5
t-14.5 5.5t-5.5 14.5t5.5 14.5t14.5 5.5t14.5 -5.5zM101 532q38 43 101 126h18q63 -83 101 -126l-9 -12h-5q-48 53 -96 117q-48 -64 -96 -117h-5z" />
    <glyph glyph-name="uni1EA7" unicode="&#x1ea7;" horiz-adv-x="442" 
d="M302.5 427.5q30.5 -29.5 30.5 -83.5q0 -33 -5 -133l-5 -138q0 -29 8.5 -42.5t27.5 -13.5q10 0 21.5 4t20.5 11l6 -3l-4 -18q-20 -14 -45 -14q-28 0 -41 17.5t-14 58.5h-3q-30 -35 -64 -56t-67 -22q-54 0 -83.5 29.5t-29.5 82.5q0 36 21.5 61t60.5 34l172 40l3 98
q0 47 -25.5 72t-73.5 25q-30 0 -65.5 -17t-71.5 -48l-6 2l-5 15q37 33 75.5 50.5t73.5 17.5q57 0 87.5 -29.5zM143 182q-32 -8 -49.5 -27t-17.5 -48q0 -43 24.5 -67.5t67.5 -24.5q33 0 68.5 24t67.5 67l5 115zM238 705l-1 5l11 9l5 1l70 -80l-11 -11h-6zM104 547
q47 33 98 76h16q66 -52 100 -76l-7 -14h-5q-46 32 -95 70q-49 -38 -95 -70h-5z" />
    <glyph glyph-name="uni1EA9" unicode="&#x1ea9;" horiz-adv-x="442" 
d="M302.5 427.5q30.5 -29.5 30.5 -83.5q0 -33 -5 -133l-5 -138q0 -29 8.5 -42.5t27.5 -13.5q10 0 21.5 4t20.5 11l6 -3l-4 -18q-20 -14 -45 -14q-28 0 -41 17.5t-14 58.5h-3q-30 -35 -64 -56t-67 -22q-54 0 -83.5 29.5t-29.5 82.5q0 36 21.5 61t60.5 34l172 40l3 98
q0 47 -25.5 72t-73.5 25q-30 0 -65.5 -17t-71.5 -48l-6 2l-5 15q37 33 75.5 50.5t73.5 17.5q57 0 87.5 -29.5zM143 182q-32 -8 -49.5 -27t-17.5 -48q0 -43 24.5 -67.5t67.5 -24.5q33 0 68.5 24t67.5 67l5 115zM104 567q47 33 98 76h16q66 -52 100 -76l-7 -14h-5
q-46 32 -95 70q-49 -38 -95 -70h-5zM271.311 664.472q23.7988 15.2314 36.1738 29.9873q12.376 14.7549 12.376 25.2266q0 8.56836 -6.66406 13.8037q-6.66309 5.23535 -18.0869 5.23535q-24.751 0 -51.4062 -21.8945l-7.61523 13.3271q32.3662 27.6074 60.9258 27.6074
q18.0869 0 29.9863 -10.4717t11.8994 -25.7031q0 -27.6074 -45.6943 -61.8779l15.2314 -27.6064l-16.1836 -6.66406z" />
    <glyph glyph-name="uni1EAB" unicode="&#x1eab;" horiz-adv-x="442" 
d="M302.5 427.5q30.5 -29.5 30.5 -83.5q0 -33 -5 -133l-5 -138q0 -29 8.5 -42.5t27.5 -13.5q10 0 21.5 4t20.5 11l6 -3l-4 -18q-20 -14 -45 -14q-28 0 -41 17.5t-14 58.5h-3q-30 -35 -64 -56t-67 -22q-54 0 -83.5 29.5t-29.5 82.5q0 36 21.5 61t60.5 34l172 40l3 98
q0 47 -25.5 72t-73.5 25q-30 0 -65.5 -17t-71.5 -48l-6 2l-5 15q37 33 75.5 50.5t73.5 17.5q57 0 87.5 -29.5zM143 182q-32 -8 -49.5 -27t-17.5 -48q0 -43 24.5 -67.5t67.5 -24.5q33 0 68.5 24t67.5 67l5 115zM104 567q47 33 98 76h16q66 -52 100 -76l-7 -14h-5
q-46 32 -95 70q-49 -38 -95 -70h-5zM350 731v-4l-53 -47l-6 -2q-24 3 -81 21q-62 18 -74 18q-5 0 -13 -6t-17 -16l-21 -19h-4l-8 11v4l53 47l6 2q20 -2 79 -20q61 -19 76 -19q5 0 12 6t16 15l22 20h4z" />
    <glyph glyph-name="uni0201" unicode="&#x201;" horiz-adv-x="442" 
d="M302.5 427.5q30.5 -29.5 30.5 -83.5q0 -33 -5 -133l-5 -138q0 -29 8.5 -42.5t27.5 -13.5q10 0 21.5 4t20.5 11l6 -3l-4 -18q-20 -14 -45 -14q-28 0 -41 17.5t-14 58.5h-3q-30 -35 -64 -56t-67 -22q-54 0 -83.5 29.5t-29.5 82.5q0 36 21.5 61t60.5 34l172 40l3 98
q0 47 -25.5 72t-73.5 25q-30 0 -65.5 -17t-71.5 -48l-6 2l-5 15q37 33 75.5 50.5t73.5 17.5q57 0 87.5 -29.5zM143 182q-32 -8 -49.5 -27t-17.5 -48q0 -43 24.5 -67.5t67.5 -24.5q33 0 68.5 24t67.5 67l5 115zM60 667l-5 -1l-10 -10l1 -5q70 -69 144 -135l5 1l11 13
q-76 68 -146 137zM190 667l-5 -1l-10 -10l1 -5q71 -69 144 -135l5 1l11 13q-76 68 -146 137z" />
    <glyph glyph-name="adieresis" unicode="&#xe4;" horiz-adv-x="442" 
d="M302.5 427.5q30.5 -29.5 30.5 -83.5q0 -33 -5 -133l-5 -138q0 -29 8.5 -42.5t27.5 -13.5q10 0 21.5 4t20.5 11l6 -3l-4 -18q-20 -14 -45 -14q-28 0 -41 17.5t-14 58.5h-3q-30 -35 -64 -56t-67 -22q-54 0 -83.5 29.5t-29.5 82.5q0 36 21.5 61t60.5 34l172 40l3 98
q0 47 -25.5 72t-73.5 25q-30 0 -65.5 -17t-71.5 -48l-6 2l-5 15q37 33 75.5 50.5t73.5 17.5q57 0 87.5 -29.5zM143 182q-32 -8 -49.5 -27t-17.5 -48q0 -43 24.5 -67.5t67.5 -24.5q33 0 68.5 24t67.5 67l5 115zM155.5 609.5q5.5 -5.5 5.5 -14.5t-5.5 -14.5t-14.5 -5.5
t-14.5 5.5t-5.5 14.5t5.5 14.5t14.5 5.5t14.5 -5.5zM295.5 609.5q5.5 -5.5 5.5 -14.5t-5.5 -14.5t-14.5 -5.5t-14.5 5.5t-5.5 14.5t5.5 14.5t14.5 5.5t14.5 -5.5z" />
    <glyph glyph-name="uni1EA1" unicode="&#x1ea1;" horiz-adv-x="442" 
d="M302.5 427.5q30.5 -29.5 30.5 -83.5q0 -33 -5 -133l-5 -138q0 -29 8.5 -42.5t27.5 -13.5q10 0 21.5 4t20.5 11l6 -3l-4 -18q-20 -14 -45 -14q-28 0 -41 17.5t-14 58.5h-3q-30 -35 -64 -56t-67 -22q-54 0 -83.5 29.5t-29.5 82.5q0 36 21.5 61t60.5 34l172 40l3 98
q0 47 -25.5 72t-73.5 25q-30 0 -65.5 -17t-71.5 -48l-6 2l-5 15q37 33 75.5 50.5t73.5 17.5q57 0 87.5 -29.5zM143 182q-32 -8 -49.5 -27t-17.5 -48q0 -43 24.5 -67.5t67.5 -24.5q33 0 68.5 24t67.5 67l5 115zM225.5 -93.5q5.5 -5.5 5.5 -14.5t-5.5 -14.5t-14.5 -5.5
t-14.5 5.5t-5.5 14.5t5.5 14.5t14.5 5.5t14.5 -5.5z" />
    <glyph glyph-name="agrave" unicode="&#xe0;" horiz-adv-x="442" 
d="M302.5 427.5q30.5 -29.5 30.5 -83.5q0 -33 -5 -133l-5 -138q0 -29 8.5 -42.5t27.5 -13.5q10 0 21.5 4t20.5 11l6 -3l-4 -18q-20 -14 -45 -14q-28 0 -41 17.5t-14 58.5h-3q-30 -35 -64 -56t-67 -22q-54 0 -83.5 29.5t-29.5 82.5q0 36 21.5 61t60.5 34l172 40l3 98
q0 47 -25.5 72t-73.5 25q-30 0 -65.5 -17t-71.5 -48l-6 2l-5 15q37 33 75.5 50.5t73.5 17.5q57 0 87.5 -29.5zM143 182q-32 -8 -49.5 -27t-17.5 -48q0 -43 24.5 -67.5t67.5 -24.5q33 0 68.5 24t67.5 67l5 115zM292 532l-11 -13l-5 -1q-75 66 -144 135l-1 5l10 10l5 1
q77 -79 146 -137z" />
    <glyph glyph-name="uni1EA3" unicode="&#x1ea3;" horiz-adv-x="442" 
d="M302.5 427.5q30.5 -29.5 30.5 -83.5q0 -33 -5 -133l-5 -138q0 -29 8.5 -42.5t27.5 -13.5q10 0 21.5 4t20.5 11l6 -3l-4 -18q-20 -14 -45 -14q-28 0 -41 17.5t-14 58.5h-3q-30 -35 -64 -56t-67 -22q-54 0 -83.5 29.5t-29.5 82.5q0 36 21.5 61t60.5 34l172 40l3 98
q0 47 -25.5 72t-73.5 25q-30 0 -65.5 -17t-71.5 -48l-6 2l-5 15q37 33 75.5 50.5t73.5 17.5q57 0 87.5 -29.5zM143 182q-32 -8 -49.5 -27t-17.5 -48q0 -43 24.5 -67.5t67.5 -24.5q33 0 68.5 24t67.5 67l5 115zM191 552q25 16 38 31.5t13 26.5q0 9 -7 14.5t-19 5.5
q-26 0 -54 -23l-8 14q34 29 64 29q19 0 31.5 -11t12.5 -27q0 -29 -48 -65l16 -29l-17 -7z" />
    <glyph glyph-name="uni0203" unicode="&#x203;" horiz-adv-x="442" 
d="M302.5 427.5q30.5 -29.5 30.5 -83.5q0 -33 -5 -133l-5 -138q0 -29 8.5 -42.5t27.5 -13.5q10 0 21.5 4t20.5 11l6 -3l-4 -18q-20 -14 -45 -14q-28 0 -41 17.5t-14 58.5h-3q-30 -35 -64 -56t-67 -22q-54 0 -83.5 29.5t-29.5 82.5q0 36 21.5 61t60.5 34l172 40l3 98
q0 47 -25.5 72t-73.5 25q-30 0 -65.5 -17t-71.5 -48l-6 2l-5 15q37 33 75.5 50.5t73.5 17.5q57 0 87.5 -29.5zM143 182q-32 -8 -49.5 -27t-17.5 -48q0 -43 24.5 -67.5t67.5 -24.5q33 0 68.5 24t67.5 67l5 115zM110 545q10 54 34.5 79.5t66.5 25.5t66.5 -25.5t34.5 -79.5
l-13 -13h-5q-7 50 -27 74t-56 24t-56 -24t-27 -74h-5z" />
    <glyph glyph-name="amacron" unicode="&#x101;" horiz-adv-x="442" 
d="M302.5 427.5q30.5 -29.5 30.5 -83.5q0 -33 -5 -133l-5 -138q0 -29 8.5 -42.5t27.5 -13.5q10 0 21.5 4t20.5 11l6 -3l-4 -18q-20 -14 -45 -14q-28 0 -41 17.5t-14 58.5h-3q-30 -35 -64 -56t-67 -22q-54 0 -83.5 29.5t-29.5 82.5q0 36 21.5 61t60.5 34l172 40l3 98
q0 47 -25.5 72t-73.5 25q-30 0 -65.5 -17t-71.5 -48l-6 2l-5 15q37 33 75.5 50.5t73.5 17.5q57 0 87.5 -29.5zM143 182q-32 -8 -49.5 -27t-17.5 -48q0 -43 24.5 -67.5t67.5 -24.5q33 0 68.5 24t67.5 67l5 115zM357 604l-2 -17h-287l-3 3l2 17h287z" />
    <glyph glyph-name="aogonek" unicode="&#x105;" horiz-adv-x="442" 
d="M302.5 427.5q30.5 -29.5 30.5 -83.5q0 -33 -5 -133l-5 -138q0 -29 8.5 -42.5t27.5 -13.5q10 0 21.5 4t20.5 11l6 -3l-4 -18q-20 -14 -45 -14q-28 0 -41 17.5t-14 58.5h-3q-30 -35 -64 -56t-67 -22q-54 0 -83.5 29.5t-29.5 82.5q0 36 21.5 61t60.5 34l172 40l3 98
q0 47 -25.5 72t-73.5 25q-30 0 -65.5 -17t-71.5 -48l-6 2l-5 15q37 33 75.5 50.5t73.5 17.5q57 0 87.5 -29.5zM143 182q-32 -8 -49.5 -27t-17.5 -48q0 -43 24.5 -67.5t67.5 -24.5q33 0 68.5 24t67.5 67l5 115zM299 -191.5q-17 15.5 -17 42.5q0 17 6.5 32.5t27 44t50.5 67.5
q14 18 13 16h24q-37 -47 -61 -79t-31.5 -47.5t-7.5 -30.5q0 -40 43 -40q41 0 77 52h2l11 -16q-42 -57 -92 -57q-28 0 -45 15.5z" />
    <glyph glyph-name="aring" unicode="&#xe5;" horiz-adv-x="442" 
d="M302.5 427.5q30.5 -29.5 30.5 -83.5q0 -33 -5 -133l-5 -138q0 -29 8.5 -42.5t27.5 -13.5q10 0 21.5 4t20.5 11l6 -3l-4 -18q-20 -14 -45 -14q-28 0 -41 17.5t-14 58.5h-3q-30 -35 -64 -56t-67 -22q-54 0 -83.5 29.5t-29.5 82.5q0 36 21.5 61t60.5 34l172 40l3 98
q0 47 -25.5 72t-73.5 25q-30 0 -65.5 -17t-71.5 -48l-6 2l-5 15q37 33 75.5 50.5t73.5 17.5q57 0 87.5 -29.5zM143 182q-32 -8 -49.5 -27t-17.5 -48q0 -43 24.5 -67.5t67.5 -24.5q33 0 68.5 24t67.5 67l5 115zM261 647q19 -21 19 -49q0 -31 -21.5 -50t-49.5 -19t-49 19.5
t-21 50.5q0 30 19.5 49.5t50.5 19.5q33 0 52 -21zM172.5 634.5q-13.5 -13.5 -13.5 -35.5q0 -23 14.5 -36.5t35.5 -13.5t36 13t15 36q0 21 -13.5 35.5t-37.5 14.5q-23 0 -36.5 -13.5z" />
    <glyph glyph-name="aringacute" unicode="&#x1fb;" horiz-adv-x="442" 
d="M302.5 427.5q30.5 -29.5 30.5 -83.5q0 -33 -5 -133l-5 -138q0 -29 8.5 -42.5t27.5 -13.5q10 0 21.5 4t20.5 11l6 -3l-4 -18q-20 -14 -45 -14q-28 0 -41 17.5t-14 58.5h-3q-30 -35 -64 -56t-67 -22q-54 0 -83.5 29.5t-29.5 82.5q0 36 21.5 61t60.5 34l172 40l3 98
q0 47 -25.5 72t-73.5 25q-30 0 -65.5 -17t-71.5 -48l-6 2l-5 15q37 33 75.5 50.5t73.5 17.5q57 0 87.5 -29.5zM143 182q-32 -8 -49.5 -27t-17.5 -48q0 -43 24.5 -67.5t67.5 -24.5q33 0 68.5 24t67.5 67l5 115zM261 647q19 -21 19 -49q0 -31 -21.5 -50t-49.5 -19t-49 19.5
t-21 50.5q0 30 19.5 49.5t50.5 19.5q33 0 52 -21zM172.5 634.5q-13.5 -13.5 -13.5 -35.5q0 -23 14.5 -36.5t35.5 -13.5t36 13t15 36q0 21 -13.5 35.5t-37.5 14.5q-23 0 -36.5 -13.5zM325.615 763.9l4.80664 -13.0381l-2.83984 -4.57715q-72.6064 -25.7705 -187.57 -61.3262
l-4.40332 3.8252l-4.28418 15.9932q97.29 27.5039 189.715 61.9629z" />
    <glyph glyph-name="atilde" unicode="&#xe3;" horiz-adv-x="442" 
d="M302.5 427.5q30.5 -29.5 30.5 -83.5q0 -33 -5 -133l-5 -138q0 -29 8.5 -42.5t27.5 -13.5q10 0 21.5 4t20.5 11l6 -3l-4 -18q-20 -14 -45 -14q-28 0 -41 17.5t-14 58.5h-3q-30 -35 -64 -56t-67 -22q-54 0 -83.5 29.5t-29.5 82.5q0 36 21.5 61t60.5 34l172 40l3 98
q0 47 -25.5 72t-73.5 25q-30 0 -65.5 -17t-71.5 -48l-6 2l-5 15q37 33 75.5 50.5t73.5 17.5q57 0 87.5 -29.5zM143 182q-32 -8 -49.5 -27t-17.5 -48q0 -43 24.5 -67.5t67.5 -24.5q33 0 68.5 24t67.5 67l5 115zM350 620v-4l-52 -47l-6 -2q-20 2 -81 20q-6 2 -35 10t-40 8
q-5 0 -13 -6t-17 -16l-21 -19h-4l-9 11v4l52 47l6 2q20 -2 81 -20q6 -2 35 -10t40 -8q5 0 13 6t17 16l21 19h4z" />
    <glyph glyph-name="ae" unicode="&#xe6;" horiz-adv-x="662" 
d="M619 294l-296 -69q2 -100 41.5 -155t112.5 -55q35 0 69 12.5t58 33.5l6 -2l-3 -20q-29 -21 -63.5 -32.5t-68.5 -11.5q-55 0 -94 28.5t-59 82.5q-47 -59 -82.5 -84.5t-75.5 -26.5q-53 0 -83 31t-30 82q0 40 20.5 62.5t61.5 31.5l171 39v99q0 46 -24.5 71.5t-67.5 25.5
q-65 0 -140 -65l-6 2l-5 15q78 68 153 68q52 0 80 -28t29 -81q55 109 155 109q65 0 103 -41t43 -115zM401 413.5q-36 -23.5 -57 -63t-21 -84.5v-20l279 65q-5 58 -38 92t-84 34q-43 0 -79 -23.5zM235 41q35 26 80 85q-11 53 -11 94l-166 -38q-36 -9 -51.5 -26.5t-15.5 -47.5
q0 -41 24.5 -67t67.5 -26q37 0 72 26z" />
    <glyph glyph-name="aeacute" unicode="&#x1fd;" horiz-adv-x="662" 
d="M619 294l-296 -69q2 -100 41.5 -155t112.5 -55q35 0 69 12.5t58 33.5l6 -2l-3 -20q-29 -21 -63.5 -32.5t-68.5 -11.5q-55 0 -94 28.5t-59 82.5q-47 -59 -82.5 -84.5t-75.5 -26.5q-53 0 -83 31t-30 82q0 40 20.5 62.5t61.5 31.5l171 39v99q0 46 -24.5 71.5t-67.5 25.5
q-65 0 -140 -65l-6 2l-5 15q78 68 153 68q52 0 80 -28t29 -81q55 109 155 109q65 0 103 -41t43 -115zM401 413.5q-36 -23.5 -57 -63t-21 -84.5v-20l279 65q-5 58 -38 92t-84 34q-43 0 -79 -23.5zM235 41q35 26 80 85q-11 53 -11 94l-166 -38q-36 -9 -51.5 -26.5t-15.5 -47.5
q0 -41 24.5 -67t67.5 -26q37 0 72 26zM439 668l10 -10l-1 -5q-69 -69 -144 -135l-5 1l-11 13q69 58 146 137z" />
    <glyph glyph-name="b" unicode="b" horiz-adv-x="503" 
d="M400.5 398.5q44.5 -57.5 44.5 -161.5q0 -116 -55.5 -179.5t-156.5 -63.5q-61 0 -110 13l-13 -7l-5 3v695l20 4v-317h3q29 34 68 52.5t80 18.5q80 0 124.5 -57.5zM375 72.5q50 58.5 50 164.5q0 95 -39 147t-110 52q-42 0 -81 -21.5t-70 -61.5v-325q64 -14 108 -14
q92 0 142 58.5z" />
    <glyph glyph-name="c" unicode="c" horiz-adv-x="386" 
d="M302 445.5q35 -11.5 60 -30.5l-7 -17h-6q-22 17 -53.5 28t-62.5 11q-71 0 -114 -58.5t-43 -156.5q0 -94 42.5 -150.5t114.5 -56.5q33 0 67 11.5t60 31.5l6 -2l-2 -18q-26 -19 -61 -31t-71 -12q-80 0 -128 62t-48 165q0 71 22 124t62 82t93 29q34 0 69 -11.5z" />
    <glyph glyph-name="cacute" unicode="&#x107;" horiz-adv-x="386" 
d="M302 445.5q35 -11.5 60 -30.5l-7 -17h-6q-22 17 -53.5 28t-62.5 11q-71 0 -114 -58.5t-43 -156.5q0 -94 42.5 -150.5t114.5 -56.5q33 0 67 11.5t60 31.5l6 -2l-2 -18q-26 -19 -61 -31t-71 -12q-80 0 -128 62t-48 165q0 71 22 124t62 82t93 29q34 0 69 -11.5zM335 668
l10 -10l-1 -5q-69 -69 -144 -135l-5 1l-11 13q69 58 146 137z" />
    <glyph glyph-name="ccaron" unicode="&#x10d;" horiz-adv-x="386" 
d="M302 445.5q35 -11.5 60 -30.5l-7 -17h-6q-22 17 -53.5 28t-62.5 11q-71 0 -114 -58.5t-43 -156.5q0 -94 42.5 -150.5t114.5 -56.5q33 0 67 11.5t60 31.5l6 -2l-2 -18q-26 -19 -61 -31t-71 -12q-80 0 -128 62t-48 165q0 71 22 124t62 82t93 29q34 0 69 -11.5zM343 646
q-38 -43 -101 -126h-18q-63 83 -101 126l9 12h5q48 -53 96 -117q48 64 96 117h5z" />
    <glyph glyph-name="ccedilla" unicode="&#xe7;" horiz-adv-x="386" 
d="M302 445.5q35 -11.5 60 -30.5l-7 -17h-6q-22 17 -53.5 28t-62.5 11q-71 0 -114 -58.5t-43 -156.5q0 -94 42.5 -150.5t114.5 -56.5q33 0 67 11.5t60 31.5l6 -2l-2 -18q-26 -19 -61 -31t-71 -12q-80 0 -128 62t-48 165q0 71 22 124t62 82t93 29q34 0 69 -11.5zM231 -55
l31 -20q17 -11 25 -22.5t8 -27.5q0 -24 -17.5 -38.5t-42.5 -14.5q-37 0 -59 33l6 18h4q10 -16 21 -23.5t28 -7.5q18 0 29 8.5t11 24.5q0 11 -5.5 17.5t-18.5 15.5l-44 28l25 75h20z" />
    <glyph glyph-name="uni1E09" unicode="&#x1e09;" horiz-adv-x="386" 
d="M302 445.5q35 -11.5 60 -30.5l-7 -17h-6q-22 17 -53.5 28t-62.5 11q-71 0 -114 -58.5t-43 -156.5q0 -94 42.5 -150.5t114.5 -56.5q33 0 67 11.5t60 31.5l6 -2l-2 -18q-26 -19 -61 -31t-71 -12q-80 0 -128 62t-48 165q0 71 22 124t62 82t93 29q34 0 69 -11.5zM231 -55
l31 -20q17 -11 25 -22.5t8 -27.5q0 -24 -17.5 -38.5t-42.5 -14.5q-37 0 -59 33l6 18h4q10 -16 21 -23.5t28 -7.5q18 0 29 8.5t11 24.5q0 11 -5.5 17.5t-18.5 15.5l-44 28l25 75h20zM335 668l10 -10l-1 -5q-69 -69 -144 -135l-5 1l-11 13q69 58 146 137z" />
    <glyph glyph-name="ccircumflex" unicode="&#x109;" horiz-adv-x="386" 
d="M302 445.5q35 -11.5 60 -30.5l-7 -17h-6q-22 17 -53.5 28t-62.5 11q-71 0 -114 -58.5t-43 -156.5q0 -94 42.5 -150.5t114.5 -56.5q33 0 67 11.5t60 31.5l6 -2l-2 -18q-26 -19 -61 -31t-71 -12q-80 0 -128 62t-48 165q0 71 22 124t62 82t93 29q34 0 69 -11.5zM123 532
q38 43 101 126h18q63 -83 101 -126l-9 -12h-5q-48 53 -96 117q-48 -64 -96 -117h-5z" />
    <glyph glyph-name="cdotaccent" unicode="&#x10b;" horiz-adv-x="386" 
d="M302 445.5q35 -11.5 60 -30.5l-7 -17h-6q-22 17 -53.5 28t-62.5 11q-71 0 -114 -58.5t-43 -156.5q0 -94 42.5 -150.5t114.5 -56.5q33 0 67 11.5t60 31.5l6 -2l-2 -18q-26 -19 -61 -31t-71 -12q-80 0 -128 62t-48 165q0 71 22 124t62 82t93 29q34 0 69 -11.5zM247.5 625.5
q5.5 -5.5 5.5 -14.5t-5.5 -14.5t-14.5 -5.5t-14.5 5.5t-5.5 14.5t5.5 14.5t14.5 5.5t14.5 -5.5z" />
    <glyph glyph-name="d" unicode="d" horiz-adv-x="507" 
d="M396 75q0 -30 8 -44t27 -14q23 0 41 15l6 -3l-4 -18q-20 -14 -44 -14q-27 0 -40 17t-14 55h-3q-32 -37 -67 -55.5t-77 -18.5q-78 0 -125.5 59t-47.5 163q0 115 55.5 177.5t156.5 62.5q51 0 108 -17v258l20 4v-627zM126 379.5q-50 -57.5 -50 -162.5q0 -94 42.5 -148
t111.5 -54q84 0 146 86v317q-55 19 -108 19q-92 0 -142 -57.5z" />
    <glyph glyph-name="eth" unicode="&#xf0;" horiz-adv-x="489" 
d="M392.5 432q36.5 -88 36.5 -189q0 -117 -48 -182.5t-137 -65.5q-87 0 -137.5 61t-50.5 168q0 108 52 170.5t143 62.5q72 0 127 -44q-36 94 -112 165l-129 -55l-4 3l-5 16l120 51q-67 58 -160 94v5l9 10h4q100 -39 169 -100l123 53l4 -3l5 -16l-115 -49q69 -67 105.5 -155z
M366.5 75q42.5 60 42.5 168q0 74 -19 135q-57 59 -139 59t-128.5 -57t-46.5 -156q0 -98 45.5 -153.5t122.5 -55.5q80 0 122.5 60z" />
    <glyph glyph-name="dcaron" unicode="&#x10f;" horiz-adv-x="527" 
d="M396 75q0 -30 8 -44t27 -14q23 0 41 15l6 -3l-4 -18q-20 -14 -44 -14q-27 0 -40 17t-14 55h-3q-32 -37 -67 -55.5t-77 -18.5q-78 0 -125.5 59t-47.5 163q0 115 55.5 177.5t156.5 62.5q51 0 108 -17v258l20 4v-627zM504 651l-12 -144l-17 -2l-3 4l12 144l17 2zM126 379.5
q-50 -57.5 -50 -162.5q0 -94 42.5 -148t111.5 -54q84 0 146 86v317q-55 19 -108 19q-92 0 -142 -57.5z" />
    <glyph glyph-name="dcroat" unicode="&#x111;" horiz-adv-x="508" 
d="M396 75q0 -30 8 -44t27 -14q23 0 41 15l6 -3l-4 -18q-20 -14 -44 -14q-27 0 -40 17t-14 55h-3q-32 -37 -67 -55.5t-77 -18.5q-78 0 -125.5 59t-47.5 163q0 115 55.5 177.5t156.5 62.5q51 0 108 -17v121h-134l-3 3l2 17h135v117l20 4v-121h82l3 -3l-2 -17h-83v-486z
M268 437q-92 0 -142 -57.5t-50 -162.5q0 -94 42.5 -148t111.5 -54q84 0 146 86v317q-55 19 -108 19z" />
    <glyph glyph-name="uni1E0D" unicode="&#x1e0d;" horiz-adv-x="507" 
d="M396 75q0 -30 8 -44t27 -14q23 0 41 15l6 -3l-4 -18q-20 -14 -44 -14q-27 0 -40 17t-14 55h-3q-32 -37 -67 -55.5t-77 -18.5q-78 0 -125.5 59t-47.5 163q0 115 55.5 177.5t156.5 62.5q51 0 108 -17v258l20 4v-627zM126 379.5q-50 -57.5 -50 -162.5q0 -94 42.5 -148
t111.5 -54q84 0 146 86v317q-55 19 -108 19q-92 0 -142 -57.5zM268.5 -93.5q5.5 -5.5 5.5 -14.5t-5.5 -14.5t-14.5 -5.5t-14.5 5.5t-5.5 14.5t5.5 14.5t14.5 5.5t14.5 -5.5z" />
    <glyph glyph-name="uni1E0F" unicode="&#x1e0f;" horiz-adv-x="507" 
d="M396 75q0 -30 8 -44t27 -14q23 0 41 15l6 -3l-4 -18q-20 -14 -44 -14q-27 0 -40 17t-14 55h-3q-32 -37 -67 -55.5t-77 -18.5q-78 0 -125.5 59t-47.5 163q0 115 55.5 177.5t156.5 62.5q51 0 108 -17v258l20 4v-627zM126 379.5q-50 -57.5 -50 -162.5q0 -94 42.5 -148
t111.5 -54q84 0 146 86v317q-55 19 -108 19q-92 0 -142 -57.5zM370 -131l-2 -17h-227l-3 3l2 17h227z" />
    <glyph glyph-name="uni01C6" unicode="&#x1c6;" horiz-adv-x="906" 
d="M396 75q0 -30 8 -44t27 -14q23 0 41 15l6 -3l-4 -18q-20 -14 -44 -14q-27 0 -40 17t-14 55h-3q-32 -37 -67 -55.5t-77 -18.5q-78 0 -125.5 59t-47.5 163q0 115 55.5 177.5t156.5 62.5q51 0 108 -17v258l20 4v-627zM126 379.5q-50 -57.5 -50 -162.5q0 -94 42.5 -148
t111.5 -54q84 0 146 86v317q-55 19 -108 19q-92 0 -142 -57.5zM614 452h224l25 1l1 -17l-291 -416h237l53 1l3 -4l-4 -18l-57 1h-233l-27 -1v17l291 416h-228l-46 -1l-4 4l4 18zM817 646q-38 -43 -101 -126h-18q-63 83 -101 126l9 12h5q48 -53 96 -117q48 64 96 117h5z" />
    <glyph glyph-name="e" unicode="e" horiz-adv-x="446" 
d="M349.5 413.5q38.5 -43.5 38.5 -121.5q0 -20 -1 -30l-6 -7l-304 -4q-1 -10 -1 -30q0 -95 43.5 -150.5t118.5 -55.5q37 0 72 11.5t61 31.5l6 -2l-3 -20q-62 -41 -138 -41q-83 0 -131.5 61t-48.5 165q0 108 50.5 172t135.5 64q69 0 107.5 -43.5zM369 296q0 66 -34.5 103.5
t-93.5 37.5q-65 0 -108 -44.5t-54 -121.5l289 4z" />
    <glyph glyph-name="eacute" unicode="&#xe9;" horiz-adv-x="446" 
d="M349.5 413.5q38.5 -43.5 38.5 -121.5q0 -20 -1 -30l-6 -7l-304 -4q-1 -10 -1 -30q0 -95 43.5 -150.5t118.5 -55.5q37 0 72 11.5t61 31.5l6 -2l-3 -20q-62 -41 -138 -41q-83 0 -131.5 61t-48.5 165q0 108 50.5 172t135.5 64q69 0 107.5 -43.5zM369 296q0 66 -34.5 103.5
t-93.5 37.5q-65 0 -108 -44.5t-54 -121.5l289 4zM332 668l10 -10l-1 -5q-69 -69 -144 -135l-5 1l-11 13q69 58 146 137z" />
    <glyph glyph-name="ebreve" unicode="&#x115;" horiz-adv-x="446" 
d="M349.5 413.5q38.5 -43.5 38.5 -121.5q0 -20 -1 -30l-6 -7l-304 -4q-1 -10 -1 -30q0 -95 43.5 -150.5t118.5 -55.5q37 0 72 11.5t61 31.5l6 -2l-3 -20q-62 -41 -138 -41q-83 0 -131.5 61t-48.5 165q0 108 50.5 172t135.5 64q69 0 107.5 -43.5zM369 296q0 66 -34.5 103.5
t-93.5 37.5q-65 0 -108 -44.5t-54 -121.5l289 4zM331 627q-10 -54 -34.5 -79.5t-66.5 -25.5t-66.5 25.5t-34.5 79.5l13 13h5q7 -50 27 -74t56 -24t56 24t27 74h5z" />
    <glyph glyph-name="ecaron" unicode="&#x11b;" horiz-adv-x="446" 
d="M349.5 413.5q38.5 -43.5 38.5 -121.5q0 -20 -1 -30l-6 -7l-304 -4q-1 -10 -1 -30q0 -95 43.5 -150.5t118.5 -55.5q37 0 72 11.5t61 31.5l6 -2l-3 -20q-62 -41 -138 -41q-83 0 -131.5 61t-48.5 165q0 108 50.5 172t135.5 64q69 0 107.5 -43.5zM369 296q0 66 -34.5 103.5
t-93.5 37.5q-65 0 -108 -44.5t-54 -121.5l289 4zM340 646q-38 -43 -101 -126h-18q-63 83 -101 126l9 12h5q48 -53 96 -117q48 64 96 117h5z" />
    <glyph glyph-name="uni1E1D" unicode="&#x1e1d;" horiz-adv-x="446" 
d="M349.5 413.5q38.5 -43.5 38.5 -121.5q0 -20 -1 -30l-6 -7l-304 -4q-1 -10 -1 -30q0 -95 43.5 -150.5t118.5 -55.5q37 0 72 11.5t61 31.5l6 -2l-3 -20q-62 -41 -138 -41q-83 0 -131.5 61t-48.5 165q0 108 50.5 172t135.5 64q69 0 107.5 -43.5zM369 296q0 66 -34.5 103.5
t-93.5 37.5q-65 0 -108 -44.5t-54 -121.5l289 4zM233 -55l31 -20q17 -11 25 -22.5t8 -27.5q0 -24 -17.5 -38.5t-42.5 -14.5q-37 0 -59 33l6 18h4q10 -16 21 -23.5t28 -7.5q18 0 29 8.5t11 24.5q0 11 -5.5 17.5t-18.5 15.5l-44 28l25 75h20zM331 627q-10 -54 -34.5 -79.5
t-66.5 -25.5t-66.5 25.5t-34.5 79.5l13 13h5q7 -50 27 -74t56 -24t56 24t27 74h5z" />
    <glyph glyph-name="ecircumflex" unicode="&#xea;" horiz-adv-x="446" 
d="M349.5 413.5q38.5 -43.5 38.5 -121.5q0 -20 -1 -30l-6 -7l-304 -4q-1 -10 -1 -30q0 -95 43.5 -150.5t118.5 -55.5q37 0 72 11.5t61 31.5l6 -2l-3 -20q-62 -41 -138 -41q-83 0 -131.5 61t-48.5 165q0 108 50.5 172t135.5 64q69 0 107.5 -43.5zM369 296q0 66 -34.5 103.5
t-93.5 37.5q-65 0 -108 -44.5t-54 -121.5l289 4zM120 532q38 43 101 126h18q63 -83 101 -126l-9 -12h-5q-48 53 -96 117q-48 -64 -96 -117h-5z" />
    <glyph glyph-name="uni1EBF" unicode="&#x1ebf;" horiz-adv-x="446" 
d="M349.5 413.5q38.5 -43.5 38.5 -121.5q0 -20 -1 -30l-6 -7l-304 -4q-1 -10 -1 -30q0 -95 43.5 -150.5t118.5 -55.5q37 0 72 11.5t61 31.5l6 -2l-3 -20q-62 -41 -138 -41q-83 0 -131.5 61t-48.5 165q0 108 50.5 172t135.5 64q69 0 107.5 -43.5zM369 296q0 66 -34.5 103.5
t-93.5 37.5q-65 0 -108 -44.5t-54 -121.5l289 4zM366 710l-1 -5l-68 -76h-6l-11 11l70 80l5 -1zM123 547q47 33 98 76h16q66 -52 100 -76l-7 -14h-5q-46 32 -95 70q-49 -38 -95 -70h-5z" />
    <glyph glyph-name="uni1EC7" unicode="&#x1ec7;" horiz-adv-x="446" 
d="M349.5 413.5q38.5 -43.5 38.5 -121.5q0 -20 -1 -30l-6 -7l-304 -4q-1 -10 -1 -30q0 -95 43.5 -150.5t118.5 -55.5q37 0 72 11.5t61 31.5l6 -2l-3 -20q-62 -41 -138 -41q-83 0 -131.5 61t-48.5 165q0 108 50.5 172t135.5 64q69 0 107.5 -43.5zM369 296q0 66 -34.5 103.5
t-93.5 37.5q-65 0 -108 -44.5t-54 -121.5l289 4zM248.5 -93.5q5.5 -5.5 5.5 -14.5t-5.5 -14.5t-14.5 -5.5t-14.5 5.5t-5.5 14.5t5.5 14.5t14.5 5.5t14.5 -5.5zM120 532q38 43 101 126h18q63 -83 101 -126l-9 -12h-5q-48 53 -96 117q-48 -64 -96 -117h-5z" />
    <glyph glyph-name="uni1EC1" unicode="&#x1ec1;" horiz-adv-x="446" 
d="M349.5 413.5q38.5 -43.5 38.5 -121.5q0 -20 -1 -30l-6 -7l-304 -4q-1 -10 -1 -30q0 -95 43.5 -150.5t118.5 -55.5q37 0 72 11.5t61 31.5l6 -2l-3 -20q-62 -41 -138 -41q-83 0 -131.5 61t-48.5 165q0 108 50.5 172t135.5 64q69 0 107.5 -43.5zM369 296q0 66 -34.5 103.5
t-93.5 37.5q-65 0 -108 -44.5t-54 -121.5l289 4zM257 705l-1 5l11 9l5 1l70 -80l-11 -11h-6zM123 547q47 33 98 76h16q66 -52 100 -76l-7 -14h-5q-46 32 -95 70q-49 -38 -95 -70h-5z" />
    <glyph glyph-name="uni1EC3" unicode="&#x1ec3;" horiz-adv-x="446" 
d="M349.5 413.5q38.5 -43.5 38.5 -121.5q0 -20 -1 -30l-6 -7l-304 -4q-1 -10 -1 -30q0 -95 43.5 -150.5t118.5 -55.5q37 0 72 11.5t61 31.5l6 -2l-3 -20q-62 -41 -138 -41q-83 0 -131.5 61t-48.5 165q0 108 50.5 172t135.5 64q69 0 107.5 -43.5zM369 296q0 66 -34.5 103.5
t-93.5 37.5q-65 0 -108 -44.5t-54 -121.5l289 4zM123 567q47 33 98 76h16q66 -52 100 -76l-7 -14h-5q-46 32 -95 70q-49 -38 -95 -70h-5zM289.397 664.472q23.7988 15.2314 36.1748 29.9873q12.375 14.7549 12.375 25.2266q0 8.56836 -6.66309 13.8037
q-6.66406 5.23535 -18.0879 5.23535q-24.751 0 -51.4062 -21.8945l-7.61523 13.3271q32.3672 27.6074 60.9258 27.6074q18.0869 0 29.9873 -10.4717q11.8994 -10.4717 11.8994 -25.7031q0 -27.6074 -45.6943 -61.8779l15.2314 -27.6064l-16.1836 -6.66406z" />
    <glyph glyph-name="uni1EC5" unicode="&#x1ec5;" horiz-adv-x="446" 
d="M349.5 413.5q38.5 -43.5 38.5 -121.5q0 -20 -1 -30l-6 -7l-304 -4q-1 -10 -1 -30q0 -95 43.5 -150.5t118.5 -55.5q37 0 72 11.5t61 31.5l6 -2l-3 -20q-62 -41 -138 -41q-83 0 -131.5 61t-48.5 165q0 108 50.5 172t135.5 64q69 0 107.5 -43.5zM369 296q0 66 -34.5 103.5
t-93.5 37.5q-65 0 -108 -44.5t-54 -121.5l289 4zM123 567q47 33 98 76h16q66 -52 100 -76l-7 -14h-5q-46 32 -95 70q-49 -38 -95 -70h-5zM369 731v-4l-53 -47l-6 -2q-24 3 -81 21q-62 18 -74 18q-5 0 -13 -6t-17 -16l-21 -19h-4l-8 11v4l53 47l6 2q20 -2 79 -20
q61 -19 76 -19q5 0 12 6t16 15l22 20h4z" />
    <glyph glyph-name="uni0205" unicode="&#x205;" horiz-adv-x="446" 
d="M349.5 413.5q38.5 -43.5 38.5 -121.5q0 -20 -1 -30l-6 -7l-304 -4q-1 -10 -1 -30q0 -95 43.5 -150.5t118.5 -55.5q37 0 72 11.5t61 31.5l6 -2l-3 -20q-62 -41 -138 -41q-83 0 -131.5 61t-48.5 165q0 108 50.5 172t135.5 64q69 0 107.5 -43.5zM369 296q0 66 -34.5 103.5
t-93.5 37.5q-65 0 -108 -44.5t-54 -121.5l289 4zM79 667l-5 -1l-10 -10l1 -5q70 -69 144 -135l5 1l11 13q-76 68 -146 137zM209 667l-5 -1l-10 -10l1 -5q71 -69 144 -135l5 1l11 13q-76 68 -146 137z" />
    <glyph glyph-name="edieresis" unicode="&#xeb;" horiz-adv-x="446" 
d="M349.5 413.5q38.5 -43.5 38.5 -121.5q0 -20 -1 -30l-6 -7l-304 -4q-1 -10 -1 -30q0 -95 43.5 -150.5t118.5 -55.5q37 0 72 11.5t61 31.5l6 -2l-3 -20q-62 -41 -138 -41q-83 0 -131.5 61t-48.5 165q0 108 50.5 172t135.5 64q69 0 107.5 -43.5zM369 296q0 66 -34.5 103.5
t-93.5 37.5q-65 0 -108 -44.5t-54 -121.5l289 4zM174.5 609.5q5.5 -5.5 5.5 -14.5t-5.5 -14.5t-14.5 -5.5t-14.5 5.5t-5.5 14.5t5.5 14.5t14.5 5.5t14.5 -5.5zM314.5 609.5q5.5 -5.5 5.5 -14.5t-5.5 -14.5t-14.5 -5.5t-14.5 5.5t-5.5 14.5t5.5 14.5t14.5 5.5t14.5 -5.5z" />
    <glyph glyph-name="edotaccent" unicode="&#x117;" horiz-adv-x="446" 
d="M349.5 413.5q38.5 -43.5 38.5 -121.5q0 -20 -1 -30l-6 -7l-304 -4q-1 -10 -1 -30q0 -95 43.5 -150.5t118.5 -55.5q37 0 72 11.5t61 31.5l6 -2l-3 -20q-62 -41 -138 -41q-83 0 -131.5 61t-48.5 165q0 108 50.5 172t135.5 64q69 0 107.5 -43.5zM369 296q0 66 -34.5 103.5
t-93.5 37.5q-65 0 -108 -44.5t-54 -121.5l289 4zM244.5 625.5q5.5 -5.5 5.5 -14.5t-5.5 -14.5t-14.5 -5.5t-14.5 5.5t-5.5 14.5t5.5 14.5t14.5 5.5t14.5 -5.5z" />
    <glyph glyph-name="uni1EB9" unicode="&#x1eb9;" horiz-adv-x="446" 
d="M349.5 413.5q38.5 -43.5 38.5 -121.5q0 -20 -1 -30l-6 -7l-304 -4q-1 -10 -1 -30q0 -95 43.5 -150.5t118.5 -55.5q37 0 72 11.5t61 31.5l6 -2l-3 -20q-62 -41 -138 -41q-83 0 -131.5 61t-48.5 165q0 108 50.5 172t135.5 64q69 0 107.5 -43.5zM369 296q0 66 -34.5 103.5
t-93.5 37.5q-65 0 -108 -44.5t-54 -121.5l289 4zM248.5 -93.5q5.5 -5.5 5.5 -14.5t-5.5 -14.5t-14.5 -5.5t-14.5 5.5t-5.5 14.5t5.5 14.5t14.5 5.5t14.5 -5.5z" />
    <glyph glyph-name="egrave" unicode="&#xe8;" horiz-adv-x="446" 
d="M349.5 413.5q38.5 -43.5 38.5 -121.5q0 -20 -1 -30l-6 -7l-304 -4q-1 -10 -1 -30q0 -95 43.5 -150.5t118.5 -55.5q37 0 72 11.5t61 31.5l6 -2l-3 -20q-62 -41 -138 -41q-83 0 -131.5 61t-48.5 165q0 108 50.5 172t135.5 64q69 0 107.5 -43.5zM369 296q0 66 -34.5 103.5
t-93.5 37.5q-65 0 -108 -44.5t-54 -121.5l289 4zM311 532l-11 -13l-5 -1q-75 66 -144 135l-1 5l10 10l5 1q77 -79 146 -137z" />
    <glyph glyph-name="uni1EBB" unicode="&#x1ebb;" horiz-adv-x="446" 
d="M349.5 413.5q38.5 -43.5 38.5 -121.5q0 -20 -1 -30l-6 -7l-304 -4q-1 -10 -1 -30q0 -95 43.5 -150.5t118.5 -55.5q37 0 72 11.5t61 31.5l6 -2l-3 -20q-62 -41 -138 -41q-83 0 -131.5 61t-48.5 165q0 108 50.5 172t135.5 64q69 0 107.5 -43.5zM369 296q0 66 -34.5 103.5
t-93.5 37.5q-65 0 -108 -44.5t-54 -121.5l289 4zM210 552q25 16 38 31.5t13 26.5q0 9 -7 14.5t-19 5.5q-26 0 -54 -23l-8 14q34 29 64 29q19 0 31.5 -11t12.5 -27q0 -29 -48 -65l16 -29l-17 -7z" />
    <glyph glyph-name="uni0207" unicode="&#x207;" horiz-adv-x="446" 
d="M349.5 413.5q38.5 -43.5 38.5 -121.5q0 -20 -1 -30l-6 -7l-304 -4q-1 -10 -1 -30q0 -95 43.5 -150.5t118.5 -55.5q37 0 72 11.5t61 31.5l6 -2l-3 -20q-62 -41 -138 -41q-83 0 -131.5 61t-48.5 165q0 108 50.5 172t135.5 64q69 0 107.5 -43.5zM369 296q0 66 -34.5 103.5
t-93.5 37.5q-65 0 -108 -44.5t-54 -121.5l289 4zM129 545q10 54 34.5 79.5t66.5 25.5t66.5 -25.5t34.5 -79.5l-13 -13h-5q-7 50 -27 74t-56 24t-56 -24t-27 -74h-5z" />
    <glyph glyph-name="emacron" unicode="&#x113;" horiz-adv-x="446" 
d="M349.5 413.5q38.5 -43.5 38.5 -121.5q0 -20 -1 -30l-6 -7l-304 -4q-1 -10 -1 -30q0 -95 43.5 -150.5t118.5 -55.5q37 0 72 11.5t61 31.5l6 -2l-3 -20q-62 -41 -138 -41q-83 0 -131.5 61t-48.5 165q0 108 50.5 172t135.5 64q69 0 107.5 -43.5zM369 296q0 66 -34.5 103.5
t-93.5 37.5q-65 0 -108 -44.5t-54 -121.5l289 4zM376 604l-2 -17h-287l-3 3l2 17h287z" />
    <glyph glyph-name="uni1E17" unicode="&#x1e17;" horiz-adv-x="446" 
d="M349.5 413.5q38.5 -43.5 38.5 -121.5q0 -20 -1 -30l-6 -7l-304 -4q-1 -10 -1 -30q0 -95 43.5 -150.5t118.5 -55.5q37 0 72 11.5t61 31.5l6 -2l-3 -20q-62 -41 -138 -41q-83 0 -131.5 61t-48.5 165q0 108 50.5 172t135.5 64q69 0 107.5 -43.5zM369 296q0 66 -34.5 103.5
t-93.5 37.5q-65 0 -108 -44.5t-54 -121.5l289 4zM325 713l5 -13l-3 -5q-80 -29 -187 -61l-5 4l-4 16q93 26 190 62zM336 574l-2 -17h-207l-3 3l2 17h207z" />
    <glyph glyph-name="uni1E15" unicode="&#x1e15;" horiz-adv-x="446" 
d="M349.5 413.5q38.5 -43.5 38.5 -121.5q0 -20 -1 -30l-6 -7l-304 -4q-1 -10 -1 -30q0 -95 43.5 -150.5t118.5 -55.5q37 0 72 11.5t61 31.5l6 -2l-3 -20q-62 -41 -138 -41q-83 0 -131.5 61t-48.5 165q0 108 50.5 172t135.5 64q69 0 107.5 -43.5zM369 296q0 66 -34.5 103.5
t-93.5 37.5q-65 0 -108 -44.5t-54 -121.5l289 4zM134 695l-3 5l5 13l4 3q97 -36 190 -62l-4 -16l-5 -4q-107 32 -187 61zM336 574l-2 -17h-207l-3 3l2 17h207z" />
    <glyph glyph-name="eogonek" unicode="&#x119;" horiz-adv-x="446" 
d="M349.5 413.5q38.5 -43.5 38.5 -121.5q0 -20 -1 -30l-6 -7l-304 -4q-1 -10 -1 -30q0 -95 43.5 -150.5t118.5 -55.5q37 0 72 11.5t61 31.5l6 -2l-3 -20q-62 -41 -138 -41q-83 0 -131.5 61t-48.5 165q0 108 50.5 172t135.5 64q69 0 107.5 -43.5zM369 296q0 66 -34.5 103.5
t-93.5 37.5q-65 0 -108 -44.5t-54 -121.5l289 4zM270 -166.5q-17 15.5 -17 42.5q0 17 6.5 32.5t27 44t50.5 67.5q14 18 13 16h24q-37 -47 -61 -79t-31.5 -47.5t-7.5 -30.5q0 -40 43 -40q41 0 77 52h2l11 -16q-42 -57 -92 -57q-28 0 -45 15.5z" />
    <glyph glyph-name="uni0259" unicode="&#x259;" horiz-adv-x="446" 
d="M341.5 396q48.5 -61 48.5 -165q0 -108 -50.5 -172t-135.5 -64q-69 0 -107.5 43.5t-38.5 121.5q0 20 1 30l6 7l304 4q1 10 1 30q0 95 -43.5 150.5t-118.5 55.5q-37 0 -72 -11.5t-61 -31.5l-6 2l3 20q62 41 138 41q83 0 131.5 -61zM313 59.5q43 44.5 54 121.5l-289 -4
l-1 -21q0 -66 34.5 -103.5t93.5 -37.5q65 0 108 44.5z" />
    <glyph glyph-name="f" unicode="f" horiz-adv-x="276" 
d="M307 695l-2 -19l-3 -2q-29 10 -63 10q-49 0 -75.5 -32t-26.5 -92v-108h125l3 -4l-3 -16h-125v-432h-20v432h-67l-4 4l3 16h68v108q0 70 31.5 107t90.5 37q30 0 68 -9z" />
    <glyph glyph-name="g" unicode="g" horiz-adv-x="472" 
d="M346 416l-2 -3q39 -41 39 -109q0 -71 -42 -112.5t-115 -41.5q-42 0 -75 14q-31 -20 -43 -33t-12 -24q0 -23 30.5 -33.5t97.5 -21.5q60 -9 98.5 -18.5t65.5 -31t27 -57.5t-27.5 -67.5t-73.5 -50.5t-98 -19q-71 0 -113.5 32.5t-42.5 82.5q5 34 29 60.5t73 54.5v5
q-42 9 -64.5 25t-22.5 43q5 25 57 60v3q-29 20 -45 52.5t-16 74.5q0 73 42 114t116 41q55 0 94 -25q74 14 128 29l4 -3v-18q-47 -12 -109 -23zM327 205.5q37 35.5 37 98.5q0 62 -36 97t-99 35q-65 0 -102 -36t-37 -99q0 -61 36 -96t100 -35t101 35.5zM372.5 -9
q-22.5 17 -55 25t-86.5 16q-13 1 -34 5q-55 -28 -86 -57t-31 -62q0 -37 37 -63.5t99 -26.5q48 0 89 17t65.5 44t24.5 56t-22.5 46z" />
    <glyph glyph-name="gbreve" unicode="&#x11f;" horiz-adv-x="472" 
d="M346 416l-2 -3q39 -41 39 -109q0 -71 -42 -112.5t-115 -41.5q-42 0 -75 14q-31 -20 -43 -33t-12 -24q0 -23 30.5 -33.5t97.5 -21.5q60 -9 98.5 -18.5t65.5 -31t27 -57.5t-27.5 -67.5t-73.5 -50.5t-98 -19q-71 0 -113.5 32.5t-42.5 82.5q5 34 29 60.5t73 54.5v5
q-42 9 -64.5 25t-22.5 43q5 25 57 60v3q-29 20 -45 52.5t-16 74.5q0 73 42 114t116 41q55 0 94 -25q74 14 128 29l4 -3v-18q-47 -12 -109 -23zM327 205.5q37 35.5 37 98.5q0 62 -36 97t-99 35q-65 0 -102 -36t-37 -99q0 -61 36 -96t100 -35t101 35.5zM372.5 -9
q-22.5 17 -55 25t-86.5 16q-13 1 -34 5q-55 -28 -86 -57t-31 -62q0 -37 37 -63.5t99 -26.5q48 0 89 17t65.5 44t24.5 56t-22.5 46zM338 617q-10 -54 -34.5 -79.5t-66.5 -25.5t-66.5 25.5t-34.5 79.5l13 13h5q7 -50 27 -74t56 -24t56 24t27 74h5z" />
    <glyph glyph-name="gcaron" unicode="&#x1e7;" horiz-adv-x="472" 
d="M346 416l-2 -3q39 -41 39 -109q0 -71 -42 -112.5t-115 -41.5q-42 0 -75 14q-31 -20 -43 -33t-12 -24q0 -23 30.5 -33.5t97.5 -21.5q60 -9 98.5 -18.5t65.5 -31t27 -57.5t-27.5 -67.5t-73.5 -50.5t-98 -19q-71 0 -113.5 32.5t-42.5 82.5q5 34 29 60.5t73 54.5v5
q-42 9 -64.5 25t-22.5 43q5 25 57 60v3q-29 20 -45 52.5t-16 74.5q0 73 42 114t116 41q55 0 94 -25q74 14 128 29l4 -3v-18q-47 -12 -109 -23zM327 205.5q37 35.5 37 98.5q0 62 -36 97t-99 35q-65 0 -102 -36t-37 -99q0 -61 36 -96t100 -35t101 35.5zM372.5 -9
q-22.5 17 -55 25t-86.5 16q-13 1 -34 5q-55 -28 -86 -57t-31 -62q0 -37 37 -63.5t99 -26.5q48 0 89 17t65.5 44t24.5 56t-22.5 46zM347 636q-38 -43 -101 -126h-18q-63 83 -101 126l9 12h5q48 -53 96 -117q48 64 96 117h5z" />
    <glyph glyph-name="gcircumflex" unicode="&#x11d;" horiz-adv-x="472" 
d="M346 416l-2 -3q39 -41 39 -109q0 -71 -42 -112.5t-115 -41.5q-42 0 -75 14q-31 -20 -43 -33t-12 -24q0 -23 30.5 -33.5t97.5 -21.5q60 -9 98.5 -18.5t65.5 -31t27 -57.5t-27.5 -67.5t-73.5 -50.5t-98 -19q-71 0 -113.5 32.5t-42.5 82.5q5 34 29 60.5t73 54.5v5
q-42 9 -64.5 25t-22.5 43q5 25 57 60v3q-29 20 -45 52.5t-16 74.5q0 73 42 114t116 41q55 0 94 -25q74 14 128 29l4 -3v-18q-47 -12 -109 -23zM327 205.5q37 35.5 37 98.5q0 62 -36 97t-99 35q-65 0 -102 -36t-37 -99q0 -61 36 -96t100 -35t101 35.5zM372.5 -9
q-22.5 17 -55 25t-86.5 16q-13 1 -34 5q-55 -28 -86 -57t-31 -62q0 -37 37 -63.5t99 -26.5q48 0 89 17t65.5 44t24.5 56t-22.5 46zM127 522q38 43 101 126h18q63 -83 101 -126l-9 -12h-5q-48 53 -96 117q-48 -64 -96 -117h-5z" />
    <glyph glyph-name="gcommaaccent" unicode="&#x123;" horiz-adv-x="472" 
d="M346 416l-2 -3q39 -41 39 -109q0 -71 -42 -112.5t-115 -41.5q-42 0 -75 14q-31 -20 -43 -33t-12 -24q0 -23 30.5 -33.5t97.5 -21.5q60 -9 98.5 -18.5t65.5 -31t27 -57.5t-27.5 -67.5t-73.5 -50.5t-98 -19q-71 0 -113.5 32.5t-42.5 82.5q5 34 29 60.5t73 54.5v5
q-42 9 -64.5 25t-22.5 43q5 25 57 60v3q-29 20 -45 52.5t-16 74.5q0 73 42 114t116 41q55 0 94 -25q74 14 128 29l4 -3v-18q-47 -12 -109 -23zM327 205.5q37 35.5 37 98.5q0 62 -36 97t-99 35q-65 0 -102 -36t-37 -99q0 -61 36 -96t100 -35t101 35.5zM372.5 -9
q-22.5 17 -55 25t-86.5 16q-13 1 -34 5q-55 -28 -86 -57t-31 -62q0 -37 37 -63.5t99 -26.5q48 0 89 17t65.5 44t24.5 56t-22.5 46zM197 574q0 46 53 102l13 -11v-4q-44 -47 -44 -83q0 -30 38 -39v-4q-1 -3 -10 -16q-50 12 -50 55z" />
    <glyph glyph-name="gdotaccent" unicode="&#x121;" horiz-adv-x="472" 
d="M346 416l-2 -3q39 -41 39 -109q0 -71 -42 -112.5t-115 -41.5q-42 0 -75 14q-31 -20 -43 -33t-12 -24q0 -23 30.5 -33.5t97.5 -21.5q60 -9 98.5 -18.5t65.5 -31t27 -57.5t-27.5 -67.5t-73.5 -50.5t-98 -19q-71 0 -113.5 32.5t-42.5 82.5q5 34 29 60.5t73 54.5v5
q-42 9 -64.5 25t-22.5 43q5 25 57 60v3q-29 20 -45 52.5t-16 74.5q0 73 42 114t116 41q55 0 94 -25q74 14 128 29l4 -3v-18q-47 -12 -109 -23zM327 205.5q37 35.5 37 98.5q0 62 -36 97t-99 35q-65 0 -102 -36t-37 -99q0 -61 36 -96t100 -35t101 35.5zM372.5 -9
q-22.5 17 -55 25t-86.5 16q-13 1 -34 5q-55 -28 -86 -57t-31 -62q0 -37 37 -63.5t99 -26.5q48 0 89 17t65.5 44t24.5 56t-22.5 46zM251.5 615.5q5.5 -5.5 5.5 -14.5t-5.5 -14.5t-14.5 -5.5t-14.5 5.5t-5.5 14.5t5.5 14.5t14.5 5.5t14.5 -5.5z" />
    <glyph glyph-name="uni1E21" unicode="&#x1e21;" horiz-adv-x="472" 
d="M346 416l-2 -3q39 -41 39 -109q0 -71 -42 -112.5t-115 -41.5q-42 0 -75 14q-31 -20 -43 -33t-12 -24q0 -23 30.5 -33.5t97.5 -21.5q60 -9 98.5 -18.5t65.5 -31t27 -57.5t-27.5 -67.5t-73.5 -50.5t-98 -19q-71 0 -113.5 32.5t-42.5 82.5q5 34 29 60.5t73 54.5v5
q-42 9 -64.5 25t-22.5 43q5 25 57 60v3q-29 20 -45 52.5t-16 74.5q0 73 42 114t116 41q55 0 94 -25q74 14 128 29l4 -3v-18q-47 -12 -109 -23zM327 205.5q37 35.5 37 98.5q0 62 -36 97t-99 35q-65 0 -102 -36t-37 -99q0 -61 36 -96t100 -35t101 35.5zM372.5 -9
q-22.5 17 -55 25t-86.5 16q-13 1 -34 5q-55 -28 -86 -57t-31 -62q0 -37 37 -63.5t99 -26.5q48 0 89 17t65.5 44t24.5 56t-22.5 46zM383 594l-2 -17h-287l-3 3l2 17h287z" />
    <glyph glyph-name="h" unicode="h" horiz-adv-x="506" 
d="M382.5 421.5q34.5 -35.5 33.5 -100.5l-1 -127l-1 -194h-20l2 320q0 55 -29 86t-82 31q-39 0 -80.5 -25.5t-79.5 -70.5v-341h-20v698l20 4v-328h4q37 40 77.5 61.5t78.5 21.5q63 0 97.5 -35.5z" />
    <glyph glyph-name="hbar" unicode="&#x127;" horiz-adv-x="495" 
d="M371.5 421.5q34.5 -35.5 33.5 -100.5l-1 -127l-1 -194h-20l2 320q0 55 -29 86t-82 31q-39 0 -80.5 -25.5t-79.5 -70.5v-341h-20v556h-72l-3 3l2 17h73v122l20 4v-126h161l3 -3l-2 -17h-162v-182h4q37 40 77.5 61.5t78.5 21.5q63 0 97.5 -35.5z" />
    <glyph glyph-name="uni1E2B" unicode="&#x1e2b;" horiz-adv-x="506" 
d="M382.5 421.5q34.5 -35.5 33.5 -100.5l-1 -127l-1 -194h-20l2 320q0 55 -29 86t-82 31q-39 0 -80.5 -25.5t-79.5 -70.5v-341h-20v698l20 4v-328h4q37 40 77.5 61.5t78.5 21.5q63 0 97.5 -35.5zM354 -75q-10 -54 -34.5 -79.5t-66.5 -25.5t-66.5 25.5t-34.5 79.5l13 13h5
q7 -50 27 -74t56 -24t56 24t27 74h5z" />
    <glyph glyph-name="hcircumflex" unicode="&#x125;" horiz-adv-x="506" 
d="M382.5 421.5q34.5 -35.5 33.5 -100.5l-1 -127l-1 -194h-20l2 320q0 55 -29 86t-82 31q-39 0 -80.5 -25.5t-79.5 -70.5v-341h-20v698l20 4v-328h4q37 40 77.5 61.5t78.5 21.5q63 0 97.5 -35.5zM8 755q47 33 98 76h16q66 -52 100 -76l-7 -14h-5q-46 32 -95 70
q-49 -38 -95 -70h-5z" />
    <glyph glyph-name="uni1E25" unicode="&#x1e25;" horiz-adv-x="506" 
d="M382.5 421.5q34.5 -35.5 33.5 -100.5l-1 -127l-1 -194h-20l2 320q0 55 -29 86t-82 31q-39 0 -80.5 -25.5t-79.5 -70.5v-341h-20v698l20 4v-328h4q37 40 77.5 61.5t78.5 21.5q63 0 97.5 -35.5zM267.5 -93.5q5.5 -5.5 5.5 -14.5t-5.5 -14.5t-14.5 -5.5t-14.5 5.5t-5.5 14.5
t5.5 14.5t14.5 5.5t14.5 -5.5z" />
    <glyph glyph-name="i" unicode="i" horiz-adv-x="222" 
d="M101 449l20 4v-453h-20v449zM125.5 625.5q5.5 -5.5 5.5 -14.5t-5.5 -14.5t-14.5 -5.5t-14.5 5.5t-5.5 14.5t5.5 14.5t14.5 5.5t14.5 -5.5z" />
    <glyph glyph-name="dotlessi" unicode="&#x131;" horiz-adv-x="222" 
d="M101 449l20 4v-453h-20v449z" />
    <glyph glyph-name="iacute" unicode="&#xed;" horiz-adv-x="222" 
d="M101 449l20 4v-453h-20v449zM213 668l10 -10l-1 -5q-69 -69 -144 -135l-5 1l-11 13q69 58 146 137z" />
    <glyph glyph-name="ibreve" unicode="&#x12d;" horiz-adv-x="222" 
d="M101 449l20 4v-453h-20v449zM212 627q-10 -54 -34.5 -79.5t-66.5 -25.5t-66.5 25.5t-34.5 79.5l13 13h5q7 -50 27 -74t56 -24t56 24t27 74h5z" />
    <glyph glyph-name="uni01D0" unicode="&#x1d0;" horiz-adv-x="222" 
d="M101 449l20 4v-453h-20v449zM221 646q-38 -43 -101 -126h-18q-63 83 -101 126l9 12h5q48 -53 96 -117q48 64 96 117h5z" />
    <glyph glyph-name="icircumflex" unicode="&#xee;" horiz-adv-x="222" 
d="M101 449l20 4v-453h-20v449zM1 532q38 43 101 126h18q63 -83 101 -126l-9 -12h-5q-48 53 -96 117q-48 -64 -96 -117h-5z" />
    <glyph glyph-name="uni0209" unicode="&#x209;" horiz-adv-x="222" 
d="M101 449l20 4v-453h-20v449zM-40 667l-5 -1l-10 -10l1 -5q70 -69 144 -135l5 1l11 13q-76 68 -146 137zM90 667l-5 -1l-10 -10l1 -5q71 -69 144 -135l5 1l11 13q-76 68 -146 137z" />
    <glyph glyph-name="uni1E2F" unicode="&#x1e2f;" horiz-adv-x="222" 
d="M101 449l20 4v-453h-20v449zM205 723l5 -13l-3 -5q-80 -29 -187 -61l-5 4l-4 16q93 26 190 62zM52.5 589.5q5.5 -5.5 5.5 -14.5t-5.5 -14.5t-14.5 -5.5t-14.5 5.5t-5.5 14.5t5.5 14.5t14.5 5.5t14.5 -5.5zM192.5 589.5q5.5 -5.5 5.5 -14.5t-5.5 -14.5t-14.5 -5.5
t-14.5 5.5t-5.5 14.5t5.5 14.5t14.5 5.5t14.5 -5.5z" />
    <glyph glyph-name="i.loclTRK" horiz-adv-x="222" 
d="M101 449l20 4v-453h-20v449zM125.5 625.5q5.5 -5.5 5.5 -14.5t-5.5 -14.5t-14.5 -5.5t-14.5 5.5t-5.5 14.5t5.5 14.5t14.5 5.5t14.5 -5.5z" />
    <glyph glyph-name="uni1ECB" unicode="&#x1ecb;" horiz-adv-x="222" 
d="M101 449l20 4v-453h-20v449zM125.5 625.5q5.5 -5.5 5.5 -14.5t-5.5 -14.5t-14.5 -5.5t-14.5 5.5t-5.5 14.5t5.5 14.5t14.5 5.5t14.5 -5.5zM125.5 -93.5q5.5 -5.5 5.5 -14.5t-5.5 -14.5t-14.5 -5.5t-14.5 5.5t-5.5 14.5t5.5 14.5t14.5 5.5t14.5 -5.5z" />
    <glyph glyph-name="igrave" unicode="&#xec;" horiz-adv-x="222" 
d="M101 449l20 4v-453h-20v449zM191 532l-11 -13l-5 -1q-75 66 -144 135l-1 5l10 10l5 1q77 -79 146 -137z" />
    <glyph glyph-name="uni1EC9" unicode="&#x1ec9;" horiz-adv-x="222" 
d="M101 449l20 4v-453h-20v449zM91 552q25 16 38 31.5t13 26.5q0 9 -7 14.5t-19 5.5q-26 0 -54 -23l-8 14q34 29 64 29q19 0 31.5 -11t12.5 -27q0 -29 -48 -65l16 -29l-17 -7z" />
    <glyph glyph-name="uni020B" unicode="&#x20b;" horiz-adv-x="222" 
d="M101 449l20 4v-453h-20v449zM10 545q10 54 34.5 79.5t66.5 25.5t66.5 -25.5t34.5 -79.5l-13 -13h-5q-7 50 -27 74t-56 24t-56 -24t-27 -74h-5z" />
    <glyph glyph-name="ij" unicode="&#x133;" horiz-adv-x="444" 
d="M101 449l20 4v-453h-20v449zM125.5 625.5q5.5 -5.5 5.5 -14.5t-5.5 -14.5t-14.5 -5.5t-14.5 5.5t-5.5 14.5t5.5 14.5t14.5 5.5t14.5 -5.5zM350 451v-439q0 -78 -19.5 -120.5t-73.5 -83.5l-10 10v6q48 37 65.5 76.5t17.5 107.5v424h-84l-4 4l3 16h83l20 1zM339.5 625.5
q5.5 -5.5 5.5 -14.5t-5.5 -14.5t-14.5 -5.5t-14.5 5.5t-5.5 14.5t5.5 14.5t14.5 5.5t14.5 -5.5z" />
    <glyph glyph-name="imacron" unicode="&#x12b;" horiz-adv-x="222" 
d="M101 449l20 4v-453h-20v449zM217 604l-2 -17h-207l-3 3l2 17h207z" />
    <glyph glyph-name="iogonek" unicode="&#x12f;" horiz-adv-x="222" 
d="M101 449l20 4v-453h-20v449zM125.5 625.5q5.5 -5.5 5.5 -14.5t-5.5 -14.5t-14.5 -5.5t-14.5 5.5t-5.5 14.5t5.5 14.5t14.5 5.5t14.5 -5.5zM56 -107.5q-14 -26.5 -14 -40.5q0 -13 7 -19.5t19 -6.5q28 0 44 42h2l15 -11q-11 -26 -26.5 -38t-36.5 -12q-20 0 -32 11.5
t-12 31.5q0 19 15.5 47.5t65.5 102.5h18q-51 -81 -65 -107.5z" />
    <glyph glyph-name="j" unicode="j" horiz-adv-x="222" 
d="M128 451v-439q0 -78 -19.5 -120.5t-73.5 -83.5l-10 10v6q48 37 65.5 76.5t17.5 107.5v424h-84l-4 4l3 16h83l20 1zM117.5 625.5q5.5 -5.5 5.5 -14.5t-5.5 -14.5t-14.5 -5.5t-14.5 5.5t-5.5 14.5t5.5 14.5t14.5 5.5t14.5 -5.5z" />
    <glyph glyph-name="uni0237" unicode="&#x237;" horiz-adv-x="222" 
d="M128 451v-439q0 -78 -19.5 -120.5t-73.5 -83.5l-10 10v6q48 37 65.5 76.5t17.5 107.5v424h-84l-4 4l3 16h83l20 1z" />
    <glyph glyph-name="jcircumflex" unicode="&#x135;" horiz-adv-x="222" 
d="M128 451v-439q0 -78 -19.5 -120.5t-73.5 -83.5l-10 10v6q48 37 65.5 76.5t17.5 107.5v424h-84l-4 4l3 16h83l20 1zM-7 532q38 43 101 126h18q63 -83 101 -126l-9 -12h-5q-48 53 -96 117q-48 -64 -96 -117h-5z" />
    <glyph glyph-name="k" unicode="k" horiz-adv-x="418" 
d="M125 0h-20v698l20 4v-702zM181 241q110 -124 227 -236v-4q-2 -3 -15 -8l-4 1q-125 122 -234 244v5l177 175l29 34h31z" />
    <glyph glyph-name="kcommaaccent" unicode="&#x137;" horiz-adv-x="418" 
d="M125 0h-20v698l20 4v-702zM181 241q110 -124 227 -236v-4q-2 -3 -15 -8l-4 1q-125 122 -234 244v5l177 175l29 34h31zM276 -118q0 -20 -17 -44t-49 -49l-10 11l1 3q26 19 40 39.5t14 38.5q0 20 -30 34v4q5 7 13 11q38 -17 38 -48z" />
    <glyph glyph-name="kgreenlandic" unicode="&#x138;" horiz-adv-x="412" 
d="M100 449l20 4v-453h-20v449zM175 241q109 -124 227 -236v-4q-3 -3 -14 -8l-4 1q-121 118 -235 244v5l178 175l29 34h30z" />
    <glyph glyph-name="l" unicode="l" horiz-adv-x="230" 
d="M125 0h-20v698l20 4v-702z" />
    <glyph glyph-name="lacute" unicode="&#x13a;" horiz-adv-x="230" 
d="M125 0h-20v698l20 4v-702zM224 877l7 -12l-2 -5q-67 -38 -174 -93l-5 3l-7 15q91 44 176 94z" />
    <glyph glyph-name="lcaron" unicode="&#x13e;" horiz-adv-x="250" 
d="M125 0h-20v698l20 4v-702zM243 641l-12 -144l-17 -2l-3 4l12 144l17 2z" />
    <glyph glyph-name="lcommaaccent" unicode="&#x13c;" horiz-adv-x="230" 
d="M125 0h-20v698l20 4v-702zM153 -118q0 -20 -17 -44t-49 -49l-10 11l1 3q26 19 40 39.5t14 38.5q0 20 -30 34v4q5 7 13 11q38 -17 38 -48z" />
    <glyph glyph-name="ldot" unicode="&#x140;" horiz-adv-x="230" 
d="M125 0h-20v698l20 4v-702zM241.5 281.5q5.5 -5.5 5.5 -14.5t-5.5 -14.5t-14.5 -5.5t-14.5 5.5t-5.5 14.5t5.5 14.5t14.5 5.5t14.5 -5.5z" />
    <glyph glyph-name="uni1E37" unicode="&#x1e37;" horiz-adv-x="230" 
d="M125 0h-20v698l20 4v-702zM129.5 -93.5q5.5 -5.5 5.5 -14.5t-5.5 -14.5t-14.5 -5.5t-14.5 5.5t-5.5 14.5t5.5 14.5t14.5 5.5t14.5 -5.5z" />
    <glyph glyph-name="uni01C9" unicode="&#x1c9;" horiz-adv-x="452" 
d="M125 0h-20v698l20 4v-702zM358 451v-439q0 -78 -19.5 -120.5t-73.5 -83.5l-10 10v6q48 37 65.5 76.5t17.5 107.5v424h-84l-4 4l3 16h83l20 1zM347.5 625.5q5.5 -5.5 5.5 -14.5t-5.5 -14.5t-14.5 -5.5t-14.5 5.5t-5.5 14.5t5.5 14.5t14.5 5.5t14.5 -5.5z" />
    <glyph glyph-name="uni1E3B" unicode="&#x1e3b;" horiz-adv-x="230" 
d="M125 0h-20v698l20 4v-702zM231 -131l-2 -17h-227l-3 3l2 17h227z" />
    <glyph glyph-name="lslash" unicode="&#x142;" horiz-adv-x="230" 
d="M125 386v-386h-20v376l-93 -48l-5 3l-5 15l103 53v299l20 4v-293l96 50l5 -2l5 -15z" />
    <glyph glyph-name="m" unicode="m" horiz-adv-x="788" 
d="M664 421.5q34 -35.5 34 -100.5v-127l-2 -194h-20l2 320q0 55 -29 86t-81 31q-39 0 -80 -24t-79 -68q1 -8 1 -24v-127l-2 -194h-20l2 320q0 55 -29 86t-81 31q-39 0 -80.5 -25.5t-79.5 -70.5l1 -145l-1 -196h-20v449l20 4v-79h5q37 40 77.5 61.5t77.5 21.5q49 0 81 -22.5
t43 -64.5h5q37 41 79 64t80 23q62 0 96 -35.5z" />
    <glyph glyph-name="uni1E43" unicode="&#x1e43;" horiz-adv-x="788" 
d="M664 421.5q34 -35.5 34 -100.5v-127l-2 -194h-20l2 320q0 55 -29 86t-81 31q-39 0 -80 -24t-79 -68q1 -8 1 -24v-127l-2 -194h-20l2 320q0 55 -29 86t-81 31q-39 0 -80.5 -25.5t-79.5 -70.5l1 -145l-1 -196h-20v449l20 4v-79h5q37 40 77.5 61.5t77.5 21.5q49 0 81 -22.5
t43 -64.5h5q37 41 79 64t80 23q62 0 96 -35.5zM408.5 -93.5q5.5 -5.5 5.5 -14.5t-5.5 -14.5t-14.5 -5.5t-14.5 5.5t-5.5 14.5t5.5 14.5t14.5 5.5t14.5 -5.5z" />
    <glyph glyph-name="n" unicode="n" horiz-adv-x="501" 
d="M377 421.5q34 -35.5 34 -100.5v-321h-22l2 320q0 55 -29 86t-82 31q-39 0 -80.5 -25.5t-79.5 -70.5v-341h-20v449l20 4v-79h4q37 40 77.5 61.5t78.5 21.5q63 0 97 -35.5z" />
    <glyph glyph-name="nacute" unicode="&#x144;" horiz-adv-x="501" 
d="M377 421.5q34 -35.5 34 -100.5v-321h-22l2 320q0 55 -29 86t-82 31q-39 0 -80.5 -25.5t-79.5 -70.5v-341h-20v449l20 4v-79h4q37 40 77.5 61.5t78.5 21.5q63 0 97 -35.5zM364 668l10 -10l-1 -5q-69 -69 -144 -135l-5 1l-11 13q69 58 146 137z" />
    <glyph glyph-name="ncaron" unicode="&#x148;" horiz-adv-x="501" 
d="M377 421.5q34 -35.5 34 -100.5v-321h-22l2 320q0 55 -29 86t-82 31q-39 0 -80.5 -25.5t-79.5 -70.5v-341h-20v449l20 4v-79h4q37 40 77.5 61.5t78.5 21.5q63 0 97 -35.5zM372 646q-38 -43 -101 -126h-18q-63 83 -101 126l9 12h5q48 -53 96 -117q48 64 96 117h5z" />
    <glyph glyph-name="ncommaaccent" unicode="&#x146;" horiz-adv-x="501" 
d="M377 421.5q34 -35.5 34 -100.5v-321h-22l2 320q0 55 -29 86t-82 31q-39 0 -80.5 -25.5t-79.5 -70.5v-341h-20v449l20 4v-79h4q37 40 77.5 61.5t78.5 21.5q63 0 97 -35.5zM287 -118q0 -20 -17 -44t-49 -49l-10 11l1 3q26 19 40 39.5t14 38.5q0 20 -30 34v4q5 7 13 11
q38 -17 38 -48z" />
    <glyph glyph-name="uni1E45" unicode="&#x1e45;" horiz-adv-x="501" 
d="M377 421.5q34 -35.5 34 -100.5v-321h-22l2 320q0 55 -29 86t-82 31q-39 0 -80.5 -25.5t-79.5 -70.5v-341h-20v449l20 4v-79h4q37 40 77.5 61.5t78.5 21.5q63 0 97 -35.5zM276.5 625.5q5.5 -5.5 5.5 -14.5t-5.5 -14.5t-14.5 -5.5t-14.5 5.5t-5.5 14.5t5.5 14.5t14.5 5.5
t14.5 -5.5z" />
    <glyph glyph-name="uni1E47" unicode="&#x1e47;" horiz-adv-x="501" 
d="M377 421.5q34 -35.5 34 -100.5v-321h-22l2 320q0 55 -29 86t-82 31q-39 0 -80.5 -25.5t-79.5 -70.5v-341h-20v449l20 4v-79h4q37 40 77.5 61.5t78.5 21.5q63 0 97 -35.5zM263.5 -93.5q5.5 -5.5 5.5 -14.5t-5.5 -14.5t-14.5 -5.5t-14.5 5.5t-5.5 14.5t5.5 14.5t14.5 5.5
t14.5 -5.5z" />
    <glyph glyph-name="eng" unicode="&#x14b;" horiz-adv-x="505" 
d="M377 421.5q34 -35.5 34 -100.5v-309q0 -78 -19 -120.5t-71 -83.5l-11 11v6q47 38 64 76.5t17 106.5v312q0 55 -29 86t-82 31q-39 0 -80.5 -25.5t-79.5 -70.5v-341h-20v449l20 4v-79h4q37 40 77.5 61.5t78.5 21.5q63 0 97 -35.5z" />
    <glyph glyph-name="uni01CC" unicode="&#x1cc;" horiz-adv-x="723" 
d="M377 421.5q34 -35.5 34 -100.5v-321h-22l2 320q0 55 -29 86t-82 31q-39 0 -80.5 -25.5t-79.5 -70.5v-341h-20v449l20 4v-79h4q37 40 77.5 61.5t78.5 21.5q63 0 97 -35.5zM629 451v-439q0 -78 -19.5 -120.5t-73.5 -83.5l-10 10v6q48 37 65.5 76.5t17.5 107.5v424h-84l-4 4
l3 16h83l20 1zM618.5 625.5q5.5 -5.5 5.5 -14.5t-5.5 -14.5t-14.5 -5.5t-14.5 5.5t-5.5 14.5t5.5 14.5t14.5 5.5t14.5 -5.5z" />
    <glyph glyph-name="uni1E49" unicode="&#x1e49;" horiz-adv-x="501" 
d="M377 421.5q34 -35.5 34 -100.5v-321h-22l2 320q0 55 -29 86t-82 31q-39 0 -80.5 -25.5t-79.5 -70.5v-341h-20v449l20 4v-79h4q37 40 77.5 61.5t78.5 21.5q63 0 97 -35.5zM365 -131l-2 -17h-227l-3 3l2 17h227z" />
    <glyph glyph-name="ntilde" unicode="&#xf1;" horiz-adv-x="501" 
d="M377 421.5q34 -35.5 34 -100.5v-321h-22l2 320q0 55 -29 86t-82 31q-39 0 -80.5 -25.5t-79.5 -70.5v-341h-20v449l20 4v-79h4q37 40 77.5 61.5t78.5 21.5q63 0 97 -35.5zM401 620v-4l-52 -47l-6 -2q-20 2 -81 20q-6 2 -35 10t-40 8q-5 0 -13 -6t-17 -16l-21 -19h-4l-9 11
v4l52 47l6 2q20 -2 81 -20q6 -2 35 -10t40 -8q5 0 13 6t17 16l21 19h4z" />
    <glyph glyph-name="o" unicode="o" horiz-adv-x="487" 
d="M380 396.5q49 -60.5 49 -166.5q0 -109 -50.5 -172t-139.5 -63q-85 0 -134 60.5t-49 166.5q0 109 50.5 172t139.5 63q85 0 134 -60.5zM121.5 380q-45.5 -57 -45.5 -158q0 -97 43.5 -152t119.5 -55q79 0 124.5 57t45.5 158q0 97 -43.5 152t-119.5 55q-79 0 -124.5 -57z" />
    <glyph glyph-name="oacute" unicode="&#xf3;" horiz-adv-x="487" 
d="M380 396.5q49 -60.5 49 -166.5q0 -109 -50.5 -172t-139.5 -63q-85 0 -134 60.5t-49 166.5q0 109 50.5 172t139.5 63q85 0 134 -60.5zM121.5 380q-45.5 -57 -45.5 -158q0 -97 43.5 -152t119.5 -55q79 0 124.5 57t45.5 158q0 97 -43.5 152t-119.5 55q-79 0 -124.5 -57z
M345 668l10 -10l-1 -5q-69 -69 -144 -135l-5 1l-11 13q69 58 146 137z" />
    <glyph glyph-name="obreve" unicode="&#x14f;" horiz-adv-x="487" 
d="M380 396.5q49 -60.5 49 -166.5q0 -109 -50.5 -172t-139.5 -63q-85 0 -134 60.5t-49 166.5q0 109 50.5 172t139.5 63q85 0 134 -60.5zM121.5 380q-45.5 -57 -45.5 -158q0 -97 43.5 -152t119.5 -55q79 0 124.5 57t45.5 158q0 97 -43.5 152t-119.5 55q-79 0 -124.5 -57z
M344 627q-10 -54 -34.5 -79.5t-66.5 -25.5t-66.5 25.5t-34.5 79.5l13 13h5q7 -50 27 -74t56 -24t56 24t27 74h5z" />
    <glyph glyph-name="uni01D2" unicode="&#x1d2;" horiz-adv-x="487" 
d="M380 396.5q49 -60.5 49 -166.5q0 -109 -50.5 -172t-139.5 -63q-85 0 -134 60.5t-49 166.5q0 109 50.5 172t139.5 63q85 0 134 -60.5zM121.5 380q-45.5 -57 -45.5 -158q0 -97 43.5 -152t119.5 -55q79 0 124.5 57t45.5 158q0 97 -43.5 152t-119.5 55q-79 0 -124.5 -57z
M353 646q-38 -43 -101 -126h-18q-63 83 -101 126l9 12h5q48 -53 96 -117q48 64 96 117h5z" />
    <glyph glyph-name="ocircumflex" unicode="&#xf4;" horiz-adv-x="487" 
d="M380 396.5q49 -60.5 49 -166.5q0 -109 -50.5 -172t-139.5 -63q-85 0 -134 60.5t-49 166.5q0 109 50.5 172t139.5 63q85 0 134 -60.5zM121.5 380q-45.5 -57 -45.5 -158q0 -97 43.5 -152t119.5 -55q79 0 124.5 57t45.5 158q0 97 -43.5 152t-119.5 55q-79 0 -124.5 -57z
M133 532q38 43 101 126h18q63 -83 101 -126l-9 -12h-5q-48 53 -96 117q-48 -64 -96 -117h-5z" />
    <glyph glyph-name="uni1ED1" unicode="&#x1ed1;" horiz-adv-x="487" 
d="M380 396.5q49 -60.5 49 -166.5q0 -109 -50.5 -172t-139.5 -63q-85 0 -134 60.5t-49 166.5q0 109 50.5 172t139.5 63q85 0 134 -60.5zM121.5 380q-45.5 -57 -45.5 -158q0 -97 43.5 -152t119.5 -55q79 0 124.5 57t45.5 158q0 97 -43.5 152t-119.5 55q-79 0 -124.5 -57z
M379 710l-1 -5l-68 -76h-6l-11 11l70 80l5 -1zM136 547q47 33 98 76h16q66 -52 100 -76l-7 -14h-5q-46 32 -95 70q-49 -38 -95 -70h-5z" />
    <glyph glyph-name="uni1ED9" unicode="&#x1ed9;" horiz-adv-x="487" 
d="M380 396.5q49 -60.5 49 -166.5q0 -109 -50.5 -172t-139.5 -63q-85 0 -134 60.5t-49 166.5q0 109 50.5 172t139.5 63q85 0 134 -60.5zM121.5 380q-45.5 -57 -45.5 -158q0 -97 43.5 -152t119.5 -55q79 0 124.5 57t45.5 158q0 97 -43.5 152t-119.5 55q-79 0 -124.5 -57z
M258.5 -93.5q5.5 -5.5 5.5 -14.5t-5.5 -14.5t-14.5 -5.5t-14.5 5.5t-5.5 14.5t5.5 14.5t14.5 5.5t14.5 -5.5zM133 532q38 43 101 126h18q63 -83 101 -126l-9 -12h-5q-48 53 -96 117q-48 -64 -96 -117h-5z" />
    <glyph glyph-name="uni1ED3" unicode="&#x1ed3;" horiz-adv-x="487" 
d="M380 396.5q49 -60.5 49 -166.5q0 -109 -50.5 -172t-139.5 -63q-85 0 -134 60.5t-49 166.5q0 109 50.5 172t139.5 63q85 0 134 -60.5zM121.5 380q-45.5 -57 -45.5 -158q0 -97 43.5 -152t119.5 -55q79 0 124.5 57t45.5 158q0 97 -43.5 152t-119.5 55q-79 0 -124.5 -57z
M270 705l-1 5l11 9l5 1l70 -80l-11 -11h-6zM136 547q47 33 98 76h16q66 -52 100 -76l-7 -14h-5q-46 32 -95 70q-49 -38 -95 -70h-5z" />
    <glyph glyph-name="uni1ED5" unicode="&#x1ed5;" horiz-adv-x="487" 
d="M380 396.5q49 -60.5 49 -166.5q0 -109 -50.5 -172t-139.5 -63q-85 0 -134 60.5t-49 166.5q0 109 50.5 172t139.5 63q85 0 134 -60.5zM121.5 380q-45.5 -57 -45.5 -158q0 -97 43.5 -152t119.5 -55q79 0 124.5 57t45.5 158q0 97 -43.5 152t-119.5 55q-79 0 -124.5 -57z
M136 567q47 33 98 76h16q66 -52 100 -76l-7 -14h-5q-46 32 -95 70q-49 -38 -95 -70h-5zM301.773 664.472q23.7988 15.2314 36.1738 29.9873q12.376 14.7549 12.376 25.2266q0 8.56836 -6.66406 13.8037q-6.66309 5.23535 -18.0869 5.23535q-24.751 0 -51.4062 -21.8945
l-7.61523 13.3271q32.3662 27.6074 60.9258 27.6074q18.0869 0 29.9863 -10.4717t11.8994 -25.7031q0 -27.6074 -45.6943 -61.8779l15.2314 -27.6064l-16.1836 -6.66406z" />
    <glyph glyph-name="uni1ED7" unicode="&#x1ed7;" horiz-adv-x="487" 
d="M380 396.5q49 -60.5 49 -166.5q0 -109 -50.5 -172t-139.5 -63q-85 0 -134 60.5t-49 166.5q0 109 50.5 172t139.5 63q85 0 134 -60.5zM121.5 380q-45.5 -57 -45.5 -158q0 -97 43.5 -152t119.5 -55q79 0 124.5 57t45.5 158q0 97 -43.5 152t-119.5 55q-79 0 -124.5 -57z
M136 567q47 33 98 76h16q66 -52 100 -76l-7 -14h-5q-46 32 -95 70q-49 -38 -95 -70h-5zM382 731v-4l-53 -47l-6 -2q-24 3 -81 21q-62 18 -74 18q-5 0 -13 -6t-17 -16l-21 -19h-4l-8 11v4l53 47l6 2q20 -2 79 -20q61 -19 76 -19q5 0 12 6t16 15l22 20h4z" />
    <glyph glyph-name="uni020D" unicode="&#x20d;" horiz-adv-x="487" 
d="M380 396.5q49 -60.5 49 -166.5q0 -109 -50.5 -172t-139.5 -63q-85 0 -134 60.5t-49 166.5q0 109 50.5 172t139.5 63q85 0 134 -60.5zM121.5 380q-45.5 -57 -45.5 -158q0 -97 43.5 -152t119.5 -55q79 0 124.5 57t45.5 158q0 97 -43.5 152t-119.5 55q-79 0 -124.5 -57z
M92 667l-5 -1l-10 -10l1 -5q70 -69 144 -135l5 1l11 13q-76 68 -146 137zM222 667l-5 -1l-10 -10l1 -5q71 -69 144 -135l5 1l11 13q-76 68 -146 137z" />
    <glyph glyph-name="uni022B" unicode="&#x22b;" horiz-adv-x="487" 
d="M380 396.5q49 -60.5 49 -166.5q0 -109 -50.5 -172t-139.5 -63q-85 0 -134 60.5t-49 166.5q0 109 50.5 172t139.5 63q85 0 134 -60.5zM121.5 380q-45.5 -57 -45.5 -158q0 -97 43.5 -152t119.5 -55q79 0 124.5 57t45.5 158q0 97 -43.5 152t-119.5 55q-79 0 -124.5 -57z
M347 688l-2 -17h-200l-3 3l2 17h200zM186.5 589.5q5.5 -5.5 5.5 -14.5t-5.5 -14.5t-14.5 -5.5t-14.5 5.5t-5.5 14.5t5.5 14.5t14.5 5.5t14.5 -5.5zM326.5 589.5q5.5 -5.5 5.5 -14.5t-5.5 -14.5t-14.5 -5.5t-14.5 5.5t-5.5 14.5t5.5 14.5t14.5 5.5t14.5 -5.5z" />
    <glyph glyph-name="uni0231" unicode="&#x231;" horiz-adv-x="487" 
d="M380 396.5q49 -60.5 49 -166.5q0 -109 -50.5 -172t-139.5 -63q-85 0 -134 60.5t-49 166.5q0 109 50.5 172t139.5 63q85 0 134 -60.5zM121.5 380q-45.5 -57 -45.5 -158q0 -97 43.5 -152t119.5 -55q79 0 124.5 57t45.5 158q0 97 -43.5 152t-119.5 55q-79 0 -124.5 -57z
M257.5 589.5q5.5 -5.5 5.5 -14.5t-5.5 -14.5t-14.5 -5.5t-14.5 5.5t-5.5 14.5t5.5 14.5t14.5 5.5t14.5 -5.5zM349 667l-2 -17h-207l-3 3l2 17h207z" />
    <glyph glyph-name="uni1ECD" unicode="&#x1ecd;" horiz-adv-x="487" 
d="M380 396.5q49 -60.5 49 -166.5q0 -109 -50.5 -172t-139.5 -63q-85 0 -134 60.5t-49 166.5q0 109 50.5 172t139.5 63q85 0 134 -60.5zM121.5 380q-45.5 -57 -45.5 -158q0 -97 43.5 -152t119.5 -55q79 0 124.5 57t45.5 158q0 97 -43.5 152t-119.5 55q-79 0 -124.5 -57z
M258.5 -93.5q5.5 -5.5 5.5 -14.5t-5.5 -14.5t-14.5 -5.5t-14.5 5.5t-5.5 14.5t5.5 14.5t14.5 5.5t14.5 -5.5z" />
    <glyph glyph-name="ograve" unicode="&#xf2;" horiz-adv-x="487" 
d="M380 396.5q49 -60.5 49 -166.5q0 -109 -50.5 -172t-139.5 -63q-85 0 -134 60.5t-49 166.5q0 109 50.5 172t139.5 63q85 0 134 -60.5zM121.5 380q-45.5 -57 -45.5 -158q0 -97 43.5 -152t119.5 -55q79 0 124.5 57t45.5 158q0 97 -43.5 152t-119.5 55q-79 0 -124.5 -57z
M324 532l-11 -13l-5 -1q-75 66 -144 135l-1 5l10 10l5 1q77 -79 146 -137z" />
    <glyph glyph-name="uni1ECF" unicode="&#x1ecf;" horiz-adv-x="487" 
d="M380 396.5q49 -60.5 49 -166.5q0 -109 -50.5 -172t-139.5 -63q-85 0 -134 60.5t-49 166.5q0 109 50.5 172t139.5 63q85 0 134 -60.5zM121.5 380q-45.5 -57 -45.5 -158q0 -97 43.5 -152t119.5 -55q79 0 124.5 57t45.5 158q0 97 -43.5 152t-119.5 55q-79 0 -124.5 -57z
M223 552q25 16 38 31.5t13 26.5q0 9 -7 14.5t-19 5.5q-26 0 -54 -23l-8 14q34 29 64 29q19 0 31.5 -11t12.5 -27q0 -29 -48 -65l16 -29l-17 -7z" />
    <glyph glyph-name="ohorn" unicode="&#x1a1;" horiz-adv-x="513" 
d="M437.5 437.5q-28.5 -23.5 -76.5 -22.5q68 -61 68 -186q0 -109 -50.5 -171.5t-138.5 -62.5q-86 0 -135 60.5t-49 166.5q0 109 51 172t139 63q32 0 72 -12q34 -10 53 -10q35 0 55 16.5t20 45.5q0 35 -34 71l2 5q8 5 13 5q13 0 26 -25.5t13 -50.5q0 -41 -28.5 -64.5z
M365.5 382.5q-43.5 54.5 -120.5 54.5q-79 0 -124 -57.5t-45 -157.5q0 -98 43.5 -152.5t120.5 -54.5q79 0 124 57.5t45 157.5q0 98 -43.5 152.5z" />
    <glyph glyph-name="uni1EDB" unicode="&#x1edb;" horiz-adv-x="513" 
d="M437.5 437.5q-28.5 -23.5 -76.5 -22.5q68 -61 68 -186q0 -109 -50.5 -171.5t-138.5 -62.5q-86 0 -135 60.5t-49 166.5q0 109 51 172t139 63q32 0 72 -12q34 -10 53 -10q35 0 55 16.5t20 45.5q0 35 -34 71l2 5q8 5 13 5q13 0 26 -25.5t13 -50.5q0 -41 -28.5 -64.5z
M365.5 382.5q-43.5 54.5 -120.5 54.5q-79 0 -124 -57.5t-45 -157.5q0 -98 43.5 -152.5t120.5 -54.5q79 0 124 57.5t45 157.5q0 98 -43.5 152.5zM345 668l10 -10l-1 -5q-69 -69 -144 -135l-5 1l-11 13q69 58 146 137z" />
    <glyph glyph-name="uni1EE3" unicode="&#x1ee3;" horiz-adv-x="487" 
d="M437.5 437.5q-28.5 -23.5 -76.5 -22.5q68 -61 68 -186q0 -109 -50.5 -171.5t-138.5 -62.5q-86 0 -135 60.5t-49 166.5q0 109 51 172t139 63q32 0 72 -12q34 -10 53 -10q35 0 55 16.5t20 45.5q0 35 -34 71l2 5q8 5 13 5q13 0 26 -25.5t13 -50.5q0 -41 -28.5 -64.5z
M365.5 382.5q-43.5 54.5 -120.5 54.5q-79 0 -124 -57.5t-45 -157.5q0 -98 43.5 -152.5t120.5 -54.5q79 0 124 57.5t45 157.5q0 98 -43.5 152.5zM265.5 -93.5q5.5 -5.5 5.5 -14.5t-5.5 -14.5t-14.5 -5.5t-14.5 5.5t-5.5 14.5t5.5 14.5t14.5 5.5t14.5 -5.5z" />
    <glyph glyph-name="uni1EDD" unicode="&#x1edd;" horiz-adv-x="487" 
d="M292 532l-11 -13l-5 -1q-75 66 -144 135l-1 5l10 10l5 1q77 -79 146 -137zM466.5 557.5q9.5 -10.5 16.5 -28t7 -37.5q0 -40 -27 -63.5t-73 -23.5q-14 0 -21 1q31 -32 45.5 -75t14.5 -102q0 -109 -50.5 -171.5t-138.5 -62.5q-87 0 -135.5 60.5t-48.5 166.5q0 109 51 172
t139 63q26 0 45 -5t39 -15q18 -8 31 -11.5t29 -3.5q36 0 58 18t22 47q0 35 -34 71l2 5q8 5 13 5q6 0 15.5 -10.5zM121.5 379.5q-45.5 -57.5 -45.5 -157.5q0 -97 43.5 -152t120.5 -55q78 0 123.5 57.5t45.5 157.5q0 97 -43.5 152t-120.5 55q-78 0 -123.5 -57.5z" />
    <glyph glyph-name="uni1EDF" unicode="&#x1edf;" horiz-adv-x="513" 
d="M437.5 437.5q-28.5 -23.5 -76.5 -22.5q68 -61 68 -186q0 -109 -50.5 -171.5t-138.5 -62.5q-86 0 -135 60.5t-49 166.5q0 109 51 172t139 63q32 0 72 -12q34 -10 53 -10q35 0 55 16.5t20 45.5q0 35 -34 71l2 5q8 5 13 5q13 0 26 -25.5t13 -50.5q0 -41 -28.5 -64.5z
M365.5 382.5q-43.5 54.5 -120.5 54.5q-79 0 -124 -57.5t-45 -157.5q0 -98 43.5 -152.5t120.5 -54.5q79 0 124 57.5t45 157.5q0 98 -43.5 152.5zM223 552q25 16 38 31.5t13 26.5q0 9 -7 14.5t-19 5.5q-26 0 -54 -23l-8 14q34 29 64 29q19 0 31.5 -11t12.5 -27q0 -29 -48 -65
l16 -29l-17 -7z" />
    <glyph glyph-name="uni1EE1" unicode="&#x1ee1;" horiz-adv-x="513" 
d="M437.5 437.5q-28.5 -23.5 -76.5 -22.5q68 -61 68 -186q0 -109 -50.5 -171.5t-138.5 -62.5q-86 0 -135 60.5t-49 166.5q0 109 51 172t139 63q32 0 72 -12q34 -10 53 -10q35 0 55 16.5t20 45.5q0 35 -34 71l2 5q8 5 13 5q13 0 26 -25.5t13 -50.5q0 -41 -28.5 -64.5z
M365.5 382.5q-43.5 54.5 -120.5 54.5q-79 0 -124 -57.5t-45 -157.5q0 -98 43.5 -152.5t120.5 -54.5q79 0 124 57.5t45 157.5q0 98 -43.5 152.5zM367 617v-4l-47 -47l-6 -2q-16 2 -72 20q-54 18 -65 18q-5 0 -13 -7t-17 -17l-16 -16h-3l-9 11v4l47 47l6 2q16 -2 72 -20
q54 -18 65 -18q5 0 12 6t15 15l19 19h3z" />
    <glyph glyph-name="ohungarumlaut" unicode="&#x151;" horiz-adv-x="487" 
d="M380 396.5q49 -60.5 49 -166.5q0 -109 -50.5 -172t-139.5 -63q-85 0 -134 60.5t-49 166.5q0 109 50.5 172t139.5 63q85 0 134 -60.5zM121.5 380q-45.5 -57 -45.5 -158q0 -97 43.5 -152t119.5 -55q79 0 124.5 57t45.5 158q0 97 -43.5 152t-119.5 55q-79 0 -124.5 -57z
M269 667l5 -1l10 -10l-1 -5q-70 -69 -144 -135l-5 1l-11 13q76 67 146 137zM399 667l5 -1l10 -10l-1 -5q-71 -69 -144 -135l-5 1l-11 13q77 68 146 137z" />
    <glyph glyph-name="uni020F" unicode="&#x20f;" horiz-adv-x="487" 
d="M380 396.5q49 -60.5 49 -166.5q0 -109 -50.5 -172t-139.5 -63q-85 0 -134 60.5t-49 166.5q0 109 50.5 172t139.5 63q85 0 134 -60.5zM121.5 380q-45.5 -57 -45.5 -158q0 -97 43.5 -152t119.5 -55q79 0 124.5 57t45.5 158q0 97 -43.5 152t-119.5 55q-79 0 -124.5 -57z
M142 545q10 54 34.5 79.5t66.5 25.5t66.5 -25.5t34.5 -79.5l-13 -13h-5q-7 50 -27 74t-56 24t-56 -24t-27 -74h-5z" />
    <glyph glyph-name="omacron" unicode="&#x14d;" horiz-adv-x="487" 
d="M380 396.5q49 -60.5 49 -166.5q0 -109 -50.5 -172t-139.5 -63q-85 0 -134 60.5t-49 166.5q0 109 50.5 172t139.5 63q85 0 134 -60.5zM121.5 380q-45.5 -57 -45.5 -158q0 -97 43.5 -152t119.5 -55q79 0 124.5 57t45.5 158q0 97 -43.5 152t-119.5 55q-79 0 -124.5 -57z
M389 604l-2 -17h-287l-3 3l2 17h287z" />
    <glyph glyph-name="uni1E53" unicode="&#x1e53;" horiz-adv-x="487" 
d="M380 396.5q49 -60.5 49 -166.5q0 -109 -50.5 -172t-139.5 -63q-85 0 -134 60.5t-49 166.5q0 109 50.5 172t139.5 63q85 0 134 -60.5zM121.5 380q-45.5 -57 -45.5 -158q0 -97 43.5 -152t119.5 -55q79 0 124.5 57t45.5 158q0 97 -43.5 152t-119.5 55q-79 0 -124.5 -57z
M338 713l5 -13l-3 -5q-80 -29 -187 -61l-5 4l-4 16q93 26 190 62zM349 574l-2 -17h-207l-3 3l2 17h207z" />
    <glyph glyph-name="uni1E51" unicode="&#x1e51;" horiz-adv-x="487" 
d="M380 396.5q49 -60.5 49 -166.5q0 -109 -50.5 -172t-139.5 -63q-85 0 -134 60.5t-49 166.5q0 109 50.5 172t139.5 63q85 0 134 -60.5zM121.5 380q-45.5 -57 -45.5 -158q0 -97 43.5 -152t119.5 -55q79 0 124.5 57t45.5 158q0 97 -43.5 152t-119.5 55q-79 0 -124.5 -57z
M147 695l-3 5l5 13l4 3q97 -36 190 -62l-4 -16l-5 -4q-107 32 -187 61zM349 574l-2 -17h-207l-3 3l2 17h207z" />
    <glyph glyph-name="uni01EB" unicode="&#x1eb;" horiz-adv-x="487" 
d="M380 396.5q49 -60.5 49 -166.5q0 -109 -50.5 -172t-139.5 -63q-85 0 -134 60.5t-49 166.5q0 109 50.5 172t139.5 63q85 0 134 -60.5zM121.5 380q-45.5 -57 -45.5 -158q0 -97 43.5 -152t119.5 -55q79 0 124.5 57t45.5 158q0 97 -43.5 152t-119.5 55q-79 0 -124.5 -57z
M230 -179.5q-17 15.5 -17 42.5q0 17 6.5 32.5t27 44t50.5 67.5q14 18 13 16h24q-37 -47 -61 -79t-31.5 -47.5t-7.5 -30.5q0 -40 43 -40q41 0 77 52h2l11 -16q-42 -57 -92 -57q-28 0 -45 15.5z" />
    <glyph glyph-name="oslash" unicode="&#xf8;" horiz-adv-x="487" 
d="M407 351.5q22 -51.5 22 -121.5q0 -109 -50.5 -172t-139.5 -63q-44 0 -80 17l-53 -119l-16 3l-2 4l54 122q-41 26 -63.5 77.5t-22.5 122.5q0 109 50.5 172t139.5 63q46 0 82 -18l40 91l15 -2l2 -5l-41 -93q41 -27 63 -78.5zM95.5 112.5q19.5 -46.5 55.5 -71.5l168 379
q-32 17 -73 17q-79 0 -124.5 -57t-45.5 -158q0 -63 19.5 -109.5zM363.5 72q45.5 57 45.5 158q0 63 -19 109.5t-55 71.5l-168 -380q34 -16 72 -16q79 0 124.5 57z" />
    <glyph glyph-name="oslashacute" unicode="&#x1ff;" horiz-adv-x="487" 
d="M407 351.5q22 -51.5 22 -121.5q0 -109 -50.5 -172t-139.5 -63q-44 0 -80 17l-53 -119l-16 3l-2 4l54 122q-41 26 -63.5 77.5t-22.5 122.5q0 109 50.5 172t139.5 63q46 0 82 -18l40 91l15 -2l2 -5l-41 -93q41 -27 63 -78.5zM95.5 112.5q19.5 -46.5 55.5 -71.5l168 379
q-32 17 -73 17q-79 0 -124.5 -57t-45.5 -158q0 -63 19.5 -109.5zM363.5 72q45.5 57 45.5 158q0 63 -19 109.5t-55 71.5l-168 -380q34 -16 72 -16q79 0 124.5 57zM345 668l10 -10l-1 -5q-69 -69 -144 -135l-5 1l-11 13q69 58 146 137z" />
    <glyph glyph-name="otilde" unicode="&#xf5;" horiz-adv-x="487" 
d="M380 396.5q49 -60.5 49 -166.5q0 -109 -50.5 -172t-139.5 -63q-85 0 -134 60.5t-49 166.5q0 109 50.5 172t139.5 63q85 0 134 -60.5zM121.5 380q-45.5 -57 -45.5 -158q0 -97 43.5 -152t119.5 -55q79 0 124.5 57t45.5 158q0 97 -43.5 152t-119.5 55q-79 0 -124.5 -57z
M382 620v-4l-52 -47l-6 -2q-20 2 -81 20q-6 2 -35 10t-40 8q-5 0 -13 -6t-17 -16l-21 -19h-4l-9 11v4l52 47l6 2q20 -2 81 -20q6 -2 35 -10t40 -8q5 0 13 6t17 16l21 19h4z" />
    <glyph glyph-name="uni1E4D" unicode="&#x1e4d;" horiz-adv-x="487" 
d="M380 396.5q49 -60.5 49 -166.5q0 -109 -50.5 -172t-139.5 -63q-85 0 -134 60.5t-49 166.5q0 109 50.5 172t139.5 63q85 0 134 -60.5zM121.5 380q-45.5 -57 -45.5 -158q0 -97 43.5 -152t119.5 -55q79 0 124.5 57t45.5 158q0 97 -43.5 152t-119.5 55q-79 0 -124.5 -57z
M335 724l5 -13l-3 -5q-80 -29 -187 -61l-5 4l-4 16q93 26 190 62zM367 597v-4l-47 -47l-6 -2q-16 2 -72 20q-54 18 -65 18q-5 0 -13 -7t-17 -17l-16 -16h-3l-9 11v4l47 47l6 2q16 -2 72 -20q54 -18 65 -18q5 0 12 6t15 15l19 19h3z" />
    <glyph glyph-name="uni1E4F" unicode="&#x1e4f;" horiz-adv-x="487" 
d="M380 396.5q49 -60.5 49 -166.5q0 -109 -50.5 -172t-139.5 -63q-85 0 -134 60.5t-49 166.5q0 109 50.5 172t139.5 63q85 0 134 -60.5zM121.5 380q-45.5 -57 -45.5 -158q0 -97 43.5 -152t119.5 -55q79 0 124.5 57t45.5 158q0 97 -43.5 152t-119.5 55q-79 0 -124.5 -57z
M367 597v-4l-47 -47l-6 -2q-16 2 -72 20q-54 18 -65 18q-5 0 -13 -7t-17 -17l-16 -16h-3l-9 11v4l47 47l6 2q16 -2 72 -20q54 -18 65 -18q5 0 12 6t15 15l19 19h3zM187.5 701.5q5.5 -5.5 5.5 -14.5t-5.5 -14.5t-14.5 -5.5t-14.5 5.5t-5.5 14.5t5.5 14.5t14.5 5.5t14.5 -5.5z
M327.5 701.5q5.5 -5.5 5.5 -14.5t-5.5 -14.5t-14.5 -5.5t-14.5 5.5t-5.5 14.5t5.5 14.5t14.5 5.5t14.5 -5.5z" />
    <glyph glyph-name="uni022D" unicode="&#x22d;" horiz-adv-x="487" 
d="M380 396.5q49 -60.5 49 -166.5q0 -109 -50.5 -172t-139.5 -63q-85 0 -134 60.5t-49 166.5q0 109 50.5 172t139.5 63q85 0 134 -60.5zM121.5 380q-45.5 -57 -45.5 -158q0 -97 43.5 -152t119.5 -55q79 0 124.5 57t45.5 158q0 97 -43.5 152t-119.5 55q-79 0 -124.5 -57z
M367 597v-4l-47 -47l-6 -2q-16 2 -72 20q-54 18 -65 18q-5 0 -13 -7t-17 -17l-16 -16h-3l-9 11v4l47 47l6 2q16 -2 72 -20q54 -18 65 -18q5 0 12 6t15 15l19 19h3zM349 696l-2 -17h-207l-3 3l2 17h207z" />
    <glyph glyph-name="oe" unicode="&#x153;" horiz-adv-x="780" 
d="M695.5 414q39.5 -43 39.5 -118l-2 -27l-6 -7l-304 -10q-1 -10 -1 -31q0 -94 43 -150t119 -56q34 0 66.5 12t56.5 34l6 -2l-3 -20q-57 -44 -128 -44q-66 0 -110.5 39t-60.5 109q-17 -70 -63.5 -109t-115.5 -39q-85 0 -134 60.5t-49 166.5q0 109 50.5 172t139.5 63
q68 0 113 -39t61 -110q17 70 63 109.5t112 39.5q68 0 107.5 -43zM356.5 72q45.5 57 45.5 158q0 97 -43.5 152t-119.5 55q-79 0 -124.5 -57t-45.5 -158q0 -97 43.5 -152t119.5 -55q79 0 124.5 57zM715 296q0 66 -34.5 103.5t-93.5 37.5q-64 0 -107 -44t-54 -121l288 10z" />
    <glyph glyph-name="p" unicode="p" horiz-adv-x="498" 
d="M395.5 399.5q44.5 -57.5 44.5 -161.5q0 -116 -55.5 -179.5t-156.5 -63.5q-64 0 -108 10v-190h-20v634l20 4v-67h3q29 34 68 52.5t80 18.5q80 0 124.5 -57.5zM370 73.5q50 58.5 50 164.5q0 95 -39 147t-110 52q-42 0 -81 -21.5t-70 -61.5v-328q61 -11 108 -11
q92 0 142 58.5z" />
    <glyph glyph-name="thorn" unicode="&#xfe;" horiz-adv-x="503" 
d="M400.5 398.5q44.5 -57.5 44.5 -161.5q0 -116 -55.5 -179.5t-156.5 -63.5q-51 0 -108 10v-189h-20v883l20 4v-317h3q29 34 68 52.5t80 18.5q80 0 124.5 -57.5zM375 72.5q50 58.5 50 164.5q0 95 -39 147t-110 52q-42 0 -81 -21.5t-70 -61.5v-327q62 -12 108 -12
q92 0 142 58.5z" />
    <glyph glyph-name="q" unicode="q" horiz-adv-x="496" 
d="M392 455l4 -3v-637h-20v254h-3q-32 -37 -67 -55.5t-77 -18.5q-79 0 -126 59t-47 165q0 113 55.5 175.5t152.5 62.5q41 0 112 -15zM126.5 379.5q-50.5 -57.5 -50.5 -161.5q0 -96 42 -149.5t112 -53.5q85 0 146 86v319q-63 17 -109 17q-90 0 -140.5 -57.5z" />
    <glyph glyph-name="r" unicode="r" horiz-adv-x="297" 
d="M287 450v-19l-5 -2q-15 3 -27 3q-35 0 -68 -32t-67 -99v-301h-20v449l20 4v-111h4q31 56 64 83t72 27q13 0 27 -2z" />
    <glyph glyph-name="racute" unicode="&#x155;" horiz-adv-x="297" 
d="M287 450v-19l-5 -2q-15 3 -27 3q-35 0 -68 -32t-67 -99v-301h-20v449l20 4v-111h4q31 56 64 83t72 27q13 0 27 -2zM287 668l10 -10l-1 -5q-69 -69 -144 -135l-5 1l-11 13q69 58 146 137z" />
    <glyph glyph-name="rcaron" unicode="&#x159;" horiz-adv-x="297" 
d="M287 450v-19l-5 -2q-15 3 -27 3q-35 0 -68 -32t-67 -99v-301h-20v449l20 4v-111h4q31 56 64 83t72 27q13 0 27 -2zM295 646q-38 -43 -101 -126h-18q-63 83 -101 126l9 12h5q48 -53 96 -117q48 64 96 117h5z" />
    <glyph glyph-name="rcommaaccent" unicode="&#x157;" horiz-adv-x="297" 
d="M287 450v-19l-5 -2q-15 3 -27 3q-35 0 -68 -32t-67 -99v-301h-20v449l20 4v-111h4q31 56 64 83t72 27q13 0 27 -2zM149 -118q0 -20 -17 -44t-49 -49l-10 11l1 3q26 19 40 39.5t14 38.5q0 20 -30 34v4q5 7 13 11q38 -17 38 -48z" />
    <glyph glyph-name="uni0211" unicode="&#x211;" horiz-adv-x="297" 
d="M287 450v-19l-5 -2q-15 3 -27 3q-35 0 -68 -32t-67 -99v-301h-20v449l20 4v-111h4q31 56 64 83t72 27q13 0 27 -2zM34 667l-5 -1l-10 -10l1 -5q70 -69 144 -135l5 1l11 13q-76 68 -146 137zM164 667l-5 -1l-10 -10l1 -5q71 -69 144 -135l5 1l11 13q-76 68 -146 137z" />
    <glyph glyph-name="uni1E5B" unicode="&#x1e5b;" horiz-adv-x="297" 
d="M287 450v-19l-5 -2q-15 3 -27 3q-35 0 -68 -32t-67 -99v-301h-20v449l20 4v-111h4q31 56 64 83t72 27q13 0 27 -2zM125.5 -93.5q5.5 -5.5 5.5 -14.5t-5.5 -14.5t-14.5 -5.5t-14.5 5.5t-5.5 14.5t5.5 14.5t14.5 5.5t14.5 -5.5z" />
    <glyph glyph-name="uni0213" unicode="&#x213;" horiz-adv-x="297" 
d="M287 450v-19l-5 -2q-15 3 -27 3q-35 0 -68 -32t-67 -99v-301h-20v449l20 4v-111h4q31 56 64 83t72 27q13 0 27 -2zM84 545q10 54 34.5 79.5t66.5 25.5t66.5 -25.5t34.5 -79.5l-13 -13h-5q-7 50 -27 74t-56 24t-56 -24t-27 -74h-5z" />
    <glyph glyph-name="uni1E5F" unicode="&#x1e5f;" horiz-adv-x="297" 
d="M287 450v-19l-5 -2q-15 3 -27 3q-35 0 -68 -32t-67 -99v-301h-20v449l20 4v-111h4q31 56 64 83t72 27q13 0 27 -2zM227 -131l-2 -17h-227l-3 3l2 17h227z" />
    <glyph glyph-name="s" unicode="s" horiz-adv-x="357" 
d="M287 435l-5 -19l-6 -1q-41 20 -84 20q-50 0 -81 -27t-31 -66q0 -37 26 -58t80 -46q38 -18 61 -32t39 -36t16 -53q0 -33 -18 -61t-50.5 -44.5t-73.5 -16.5q-31 0 -61.5 9.5t-53.5 25.5l3 17l5 3q47 -35 106 -35q56 0 89.5 30t33.5 71q0 36 -25.5 57t-78.5 46
q-39 18 -62.5 32.5t-39.5 37t-16 54.5q0 49 36.5 80.5t96.5 31.5q46 0 94 -20z" />
    <glyph glyph-name="sacute" unicode="&#x15b;" horiz-adv-x="357" 
d="M287 435l-5 -19l-6 -1q-41 20 -84 20q-50 0 -81 -27t-31 -66q0 -37 26 -58t80 -46q38 -18 61 -32t39 -36t16 -53q0 -33 -18 -61t-50.5 -44.5t-73.5 -16.5q-31 0 -61.5 9.5t-53.5 25.5l3 17l5 3q47 -35 106 -35q56 0 89.5 30t33.5 71q0 36 -25.5 57t-78.5 46
q-39 18 -62.5 32.5t-39.5 37t-16 54.5q0 49 36.5 80.5t96.5 31.5q46 0 94 -20zM277 668l10 -10l-1 -5q-69 -69 -144 -135l-5 1l-11 13q69 58 146 137z" />
    <glyph glyph-name="uni1E65" unicode="&#x1e65;" horiz-adv-x="357" 
d="M287 435l-5 -19l-6 -1q-41 20 -84 20q-50 0 -81 -27t-31 -66q0 -37 26 -58t80 -46q38 -18 61 -32t39 -36t16 -53q0 -33 -18 -61t-50.5 -44.5t-73.5 -16.5q-31 0 -61.5 9.5t-53.5 25.5l3 17l5 3q47 -35 106 -35q56 0 89.5 30t33.5 71q0 36 -25.5 57t-78.5 46
q-39 18 -62.5 32.5t-39.5 37t-16 54.5q0 49 36.5 80.5t96.5 31.5q46 0 94 -20zM284 649l7 -12l-2 -5q-67 -38 -174 -93l-5 3l-7 15q91 44 176 94zM188.5 722.5q5.5 -5.5 5.5 -14.5t-5.5 -14.5t-14.5 -5.5t-14.5 5.5t-5.5 14.5t5.5 14.5t14.5 5.5t14.5 -5.5z" />
    <glyph glyph-name="uniA78C" unicode="&#xa78c;" horiz-adv-x="105" 
d="M67 529l-12 -234l-17 -3l-3 7l12 234l17 3z" />
    <glyph glyph-name="scaron" unicode="&#x161;" horiz-adv-x="357" 
d="M287 435l-5 -19l-6 -1q-41 20 -84 20q-50 0 -81 -27t-31 -66q0 -37 26 -58t80 -46q38 -18 61 -32t39 -36t16 -53q0 -33 -18 -61t-50.5 -44.5t-73.5 -16.5q-31 0 -61.5 9.5t-53.5 25.5l3 17l5 3q47 -35 106 -35q56 0 89.5 30t33.5 71q0 36 -25.5 57t-78.5 46
q-39 18 -62.5 32.5t-39.5 37t-16 54.5q0 49 36.5 80.5t96.5 31.5q46 0 94 -20zM285 646q-38 -43 -101 -126h-18q-63 83 -101 126l9 12h5q48 -53 96 -117q48 64 96 117h5z" />
    <glyph glyph-name="uni1E67" unicode="&#x1e67;" horiz-adv-x="357" 
d="M287 435l-5 -19l-6 -1q-41 20 -84 20q-50 0 -81 -27t-31 -66q0 -37 26 -58t80 -46q38 -18 61 -32t39 -36t16 -53q0 -33 -18 -61t-50.5 -44.5t-73.5 -16.5q-31 0 -61.5 9.5t-53.5 25.5l3 17l5 3q47 -35 106 -35q56 0 89.5 30t33.5 71q0 36 -25.5 57t-78.5 46
q-39 18 -62.5 32.5t-39.5 37t-16 54.5q0 49 36.5 80.5t96.5 31.5q46 0 94 -20zM282 620q-47 -33 -98 -76h-16q-66 52 -100 76l7 14h5q46 -32 95 -70q49 38 95 70h5zM189.5 701.5q5.5 -5.5 5.5 -14.5t-5.5 -14.5t-14.5 -5.5t-14.5 5.5t-5.5 14.5t5.5 14.5t14.5 5.5t14.5 -5.5
z" />
    <glyph glyph-name="scedilla" unicode="&#x15f;" horiz-adv-x="357" 
d="M287 435l-5 -19l-6 -1q-41 20 -84 20q-50 0 -81 -27t-31 -66q0 -37 26 -58t80 -46q38 -18 61 -32t39 -36t16 -53q0 -33 -18 -61t-50.5 -44.5t-73.5 -16.5q-31 0 -61.5 9.5t-53.5 25.5l3 17l5 3q47 -35 106 -35q56 0 89.5 30t33.5 71q0 36 -25.5 57t-78.5 46
q-39 18 -62.5 32.5t-39.5 37t-16 54.5q0 49 36.5 80.5t96.5 31.5q46 0 94 -20zM159 -55l31 -20q17 -11 25 -22.5t8 -27.5q0 -24 -17.5 -38.5t-42.5 -14.5q-37 0 -59 33l6 18h4q10 -16 21 -23.5t28 -7.5q18 0 29 8.5t11 24.5q0 11 -5.5 17.5t-18.5 15.5l-44 28l25 75h20z" />
    <glyph glyph-name="scircumflex" unicode="&#x15d;" horiz-adv-x="357" 
d="M287 435l-5 -19l-6 -1q-41 20 -84 20q-50 0 -81 -27t-31 -66q0 -37 26 -58t80 -46q38 -18 61 -32t39 -36t16 -53q0 -33 -18 -61t-50.5 -44.5t-73.5 -16.5q-31 0 -61.5 9.5t-53.5 25.5l3 17l5 3q47 -35 106 -35q56 0 89.5 30t33.5 71q0 36 -25.5 57t-78.5 46
q-39 18 -62.5 32.5t-39.5 37t-16 54.5q0 49 36.5 80.5t96.5 31.5q46 0 94 -20zM65 532q38 43 101 126h18q63 -83 101 -126l-9 -12h-5q-48 53 -96 117q-48 -64 -96 -117h-5z" />
    <glyph glyph-name="scommaaccent" unicode="&#x219;" horiz-adv-x="357" 
d="M287 435l-5 -19l-6 -1q-41 20 -84 20q-50 0 -81 -27t-31 -66q0 -37 26 -58t80 -46q38 -18 61 -32t39 -36t16 -53q0 -33 -18 -61t-50.5 -44.5t-73.5 -16.5q-31 0 -61.5 9.5t-53.5 25.5l3 17l5 3q47 -35 106 -35q56 0 89.5 30t33.5 71q0 36 -25.5 57t-78.5 46
q-39 18 -62.5 32.5t-39.5 37t-16 54.5q0 49 36.5 80.5t96.5 31.5q46 0 94 -20zM198 -118q0 -20 -17 -44t-49 -49l-10 11l1 3q26 19 40 39.5t14 38.5q0 20 -30 34v4q5 7 13 11q38 -17 38 -48z" />
    <glyph glyph-name="uni1E61" unicode="&#x1e61;" horiz-adv-x="357" 
d="M287 435l-5 -19l-6 -1q-41 20 -84 20q-50 0 -81 -27t-31 -66q0 -37 26 -58t80 -46q38 -18 61 -32t39 -36t16 -53q0 -33 -18 -61t-50.5 -44.5t-73.5 -16.5q-31 0 -61.5 9.5t-53.5 25.5l3 17l5 3q47 -35 106 -35q56 0 89.5 30t33.5 71q0 36 -25.5 57t-78.5 46
q-39 18 -62.5 32.5t-39.5 37t-16 54.5q0 49 36.5 80.5t96.5 31.5q46 0 94 -20zM189.5 625.5q5.5 -5.5 5.5 -14.5t-5.5 -14.5t-14.5 -5.5t-14.5 5.5t-5.5 14.5t5.5 14.5t14.5 5.5t14.5 -5.5z" />
    <glyph glyph-name="uni1E63" unicode="&#x1e63;" horiz-adv-x="357" 
d="M287 435l-5 -19l-6 -1q-41 20 -84 20q-50 0 -81 -27t-31 -66q0 -37 26 -58t80 -46q38 -18 61 -32t39 -36t16 -53q0 -33 -18 -61t-50.5 -44.5t-73.5 -16.5q-31 0 -61.5 9.5t-53.5 25.5l3 17l5 3q47 -35 106 -35q56 0 89.5 30t33.5 71q0 36 -25.5 57t-78.5 46
q-39 18 -62.5 32.5t-39.5 37t-16 54.5q0 49 36.5 80.5t96.5 31.5q46 0 94 -20zM174.5 -93.5q5.5 -5.5 5.5 -14.5t-5.5 -14.5t-14.5 -5.5t-14.5 5.5t-5.5 14.5t5.5 14.5t14.5 5.5t14.5 -5.5z" />
    <glyph glyph-name="uni1E69" unicode="&#x1e69;" horiz-adv-x="357" 
d="M287 435l-5 -19l-6 -1q-41 20 -84 20q-50 0 -81 -27t-31 -66q0 -37 26 -58t80 -46q38 -18 61 -32t39 -36t16 -53q0 -33 -18 -61t-50.5 -44.5t-73.5 -16.5q-31 0 -61.5 9.5t-53.5 25.5l3 17l5 3q47 -35 106 -35q56 0 89.5 30t33.5 71q0 36 -25.5 57t-78.5 46
q-39 18 -62.5 32.5t-39.5 37t-16 54.5q0 49 36.5 80.5t96.5 31.5q46 0 94 -20zM174.5 -93.5q5.5 -5.5 5.5 -14.5t-5.5 -14.5t-14.5 -5.5t-14.5 5.5t-5.5 14.5t5.5 14.5t14.5 5.5t14.5 -5.5zM189.5 625.5q5.5 -5.5 5.5 -14.5t-5.5 -14.5t-14.5 -5.5t-14.5 5.5t-5.5 14.5
t5.5 14.5t14.5 5.5t14.5 -5.5z" />
    <glyph glyph-name="germandbls" unicode="&#xdf;" horiz-adv-x="517" 
d="M299 316q14 -21 34 -35t56 -36q36 -21 57 -36.5t36 -38t15 -52.5q0 -33 -18 -61.5t-50.5 -45t-73.5 -16.5q-31 0 -61.5 9.5t-53.5 25.5l3 17l5 3q47 -35 106 -35q56 0 89.5 30t33.5 71q0 36 -24.5 59t-74.5 53q-37 21 -59.5 38t-38 41t-15.5 57q0 36 16.5 59.5t49.5 53.5
t49 53t16 58q0 46 -30.5 71t-83.5 25q-69 0 -107 -42.5t-38 -121.5v-520h-20v432h-67l-4 4l3 16h68v68q0 88 42.5 136t120.5 48q63 0 99.5 -30t36.5 -84q0 -42 -18 -68.5t-53 -57.5q-31 -28 -45.5 -48.5t-14.5 -50.5q0 -28 14 -49z" />
    <glyph glyph-name="t" unicode="t" horiz-adv-x="298" 
d="M278 42l4 -3l-2 -18q-44 -25 -80 -25q-45 0 -69.5 30t-24.5 86v320h-62l-4 4l3 16h63v108l16 6l4 -3v-111h155l3 -4l-3 -16h-155v-319q0 -47 19 -72t55 -25q38 0 78 26z" />
    <glyph glyph-name="tbar" unicode="&#x167;" horiz-adv-x="302" 
d="M280 42l4 -3l-2 -18q-44 -25 -80 -25q-45 0 -69.5 30t-24.5 86v152h-64l-3 3l2 17h65v148h-62l-4 4l3 16h63v108l16 6l4 -3v-111h155l3 -4l-3 -16h-155v-148h137l3 -3l-2 -17h-138v-151q0 -47 19 -72t55 -25q38 0 78 26z" />
    <glyph glyph-name="tcaron" unicode="&#x165;" horiz-adv-x="323" 
d="M278 42l4 -3l-2 -18q-44 -25 -80 -25q-45 0 -69.5 30t-24.5 86v320h-62l-4 4l3 16h63v108l16 6l4 -3v-111h155l3 -4l-3 -16h-155v-319q0 -47 19 -72t55 -25q38 0 78 26zM244 651l-12 -144l-17 -2l-3 4l12 144l17 2z" />
    <glyph glyph-name="uni0163" unicode="&#x163;" horiz-adv-x="298" 
d="M278 42l4 -3l-2 -18q-44 -25 -80 -25q-45 0 -69.5 30t-24.5 86v320h-62l-4 4l3 16h63v108l16 6l4 -3v-111h155l3 -4l-3 -16h-155v-319q0 -47 19 -72t55 -25q38 0 78 26zM198 -55l31 -20q17 -11 25 -22.5t8 -27.5q0 -24 -17.5 -38.5t-42.5 -14.5q-37 0 -59 33l6 18h4
q10 -16 21 -23.5t28 -7.5q18 0 29 8.5t11 24.5q0 11 -5.5 17.5t-18.5 15.5l-44 28l25 75h20z" />
    <glyph glyph-name="uni021B" unicode="&#x21b;" horiz-adv-x="298" 
d="M278 42l4 -3l-2 -18q-44 -25 -80 -25q-45 0 -69.5 30t-24.5 86v320h-62l-4 4l3 16h63v108l16 6l4 -3v-111h155l3 -4l-3 -16h-155v-319q0 -47 19 -72t55 -25q38 0 78 26zM237 -118q0 -20 -17 -44t-49 -49l-10 11l1 3q26 19 40 39.5t14 38.5q0 20 -30 34v4q5 7 13 11
q38 -17 38 -48z" />
    <glyph glyph-name="uni1E97" unicode="&#x1e97;" horiz-adv-x="298" 
d="M278 42l4 -3l-2 -18q-44 -25 -80 -25q-45 0 -69.5 30t-24.5 86v320h-62l-4 4l3 16h63v108l16 6l4 -3v-111h155l3 -4l-3 -16h-155v-319q0 -47 19 -72t55 -25q38 0 78 26zM62.5 658.5q5.5 -5.5 5.5 -14.5t-5.5 -14.5t-14.5 -5.5t-14.5 5.5t-5.5 14.5t5.5 14.5t14.5 5.5
t14.5 -5.5zM202.5 658.5q5.5 -5.5 5.5 -14.5t-5.5 -14.5t-14.5 -5.5t-14.5 5.5t-5.5 14.5t5.5 14.5t14.5 5.5t14.5 -5.5z" />
    <glyph glyph-name="uni1E6D" unicode="&#x1e6d;" horiz-adv-x="298" 
d="M278 42l4 -3l-2 -18q-44 -25 -80 -25q-45 0 -69.5 30t-24.5 86v320h-62l-4 4l3 16h63v108l16 6l4 -3v-111h155l3 -4l-3 -16h-155v-319q0 -47 19 -72t55 -25q38 0 78 26zM213.5 -93.5q5.5 -5.5 5.5 -14.5t-5.5 -14.5t-14.5 -5.5t-14.5 5.5t-5.5 14.5t5.5 14.5t14.5 5.5
t14.5 -5.5z" />
    <glyph glyph-name="uni1E6F" unicode="&#x1e6f;" horiz-adv-x="298" 
d="M278 42l4 -3l-2 -18q-44 -25 -80 -25q-45 0 -69.5 30t-24.5 86v320h-62l-4 4l3 16h63v108l16 6l4 -3v-111h155l3 -4l-3 -16h-155v-319q0 -47 19 -72t55 -25q38 0 78 26zM315 -131l-2 -17h-227l-3 3l2 17h227z" />
    <glyph glyph-name="u" unicode="u" horiz-adv-x="504" 
d="M475 29l-4 -18q-20 -14 -45 -14q-28 0 -41 20t-13 62h-4q-77 -83 -160 -83q-57 0 -87.5 35.5t-30.5 100.5v317l20 4v-320q0 -56 26 -86.5t75 -30.5q40 0 81 23.5t80 68.5v341l20 4v-374q0 -32 8.5 -47t27.5 -15q23 0 41 15z" />
    <glyph glyph-name="uacute" unicode="&#xfa;" horiz-adv-x="504" 
d="M475 29l-4 -18q-20 -14 -45 -14q-28 0 -41 20t-13 62h-4q-77 -83 -160 -83q-57 0 -87.5 35.5t-30.5 100.5v317l20 4v-320q0 -56 26 -86.5t75 -30.5q40 0 81 23.5t80 68.5v341l20 4v-374q0 -32 8.5 -47t27.5 -15q23 0 41 15zM356 668l10 -10l-1 -5q-69 -69 -144 -135l-5 1
l-11 13q69 58 146 137z" />
    <glyph glyph-name="ubreve" unicode="&#x16d;" horiz-adv-x="504" 
d="M475 29l-4 -18q-20 -14 -45 -14q-28 0 -41 20t-13 62h-4q-77 -83 -160 -83q-57 0 -87.5 35.5t-30.5 100.5v317l20 4v-320q0 -56 26 -86.5t75 -30.5q40 0 81 23.5t80 68.5v341l20 4v-374q0 -32 8.5 -47t27.5 -15q23 0 41 15zM355 627q-10 -54 -34.5 -79.5t-66.5 -25.5
t-66.5 25.5t-34.5 79.5l13 13h5q7 -50 27 -74t56 -24t56 24t27 74h5z" />
    <glyph glyph-name="uni01D4" unicode="&#x1d4;" horiz-adv-x="504" 
d="M475 29l-4 -18q-20 -14 -45 -14q-28 0 -41 20t-13 62h-4q-77 -83 -160 -83q-57 0 -87.5 35.5t-30.5 100.5v317l20 4v-320q0 -56 26 -86.5t75 -30.5q40 0 81 23.5t80 68.5v341l20 4v-374q0 -32 8.5 -47t27.5 -15q23 0 41 15zM364 646q-38 -43 -101 -126h-18
q-63 83 -101 126l9 12h5q48 -53 96 -117q48 64 96 117h5z" />
    <glyph glyph-name="ucircumflex" unicode="&#xfb;" horiz-adv-x="504" 
d="M475 29l-4 -18q-20 -14 -45 -14q-28 0 -41 20t-13 62h-4q-77 -83 -160 -83q-57 0 -87.5 35.5t-30.5 100.5v317l20 4v-320q0 -56 26 -86.5t75 -30.5q40 0 81 23.5t80 68.5v341l20 4v-374q0 -32 8.5 -47t27.5 -15q23 0 41 15zM144 532q38 43 101 126h18q63 -83 101 -126
l-9 -12h-5q-48 53 -96 117q-48 -64 -96 -117h-5z" />
    <glyph glyph-name="uni0215" unicode="&#x215;" horiz-adv-x="504" 
d="M475 29l-4 -18q-20 -14 -45 -14q-28 0 -41 20t-13 62h-4q-77 -83 -160 -83q-57 0 -87.5 35.5t-30.5 100.5v317l20 4v-320q0 -56 26 -86.5t75 -30.5q40 0 81 23.5t80 68.5v341l20 4v-374q0 -32 8.5 -47t27.5 -15q23 0 41 15zM103 667l-5 -1l-10 -10l1 -5q70 -69 144 -135
l5 1l11 13q-76 68 -146 137zM233 667l-5 -1l-10 -10l1 -5q71 -69 144 -135l5 1l11 13q-76 68 -146 137z" />
    <glyph glyph-name="udieresis" unicode="&#xfc;" horiz-adv-x="504" 
d="M475 29l-4 -18q-20 -14 -45 -14q-28 0 -41 20t-13 62h-4q-77 -83 -160 -83q-57 0 -87.5 35.5t-30.5 100.5v317l20 4v-320q0 -56 26 -86.5t75 -30.5q40 0 81 23.5t80 68.5v341l20 4v-374q0 -32 8.5 -47t27.5 -15q23 0 41 15zM198.5 609.5q5.5 -5.5 5.5 -14.5t-5.5 -14.5
t-14.5 -5.5t-14.5 5.5t-5.5 14.5t5.5 14.5t14.5 5.5t14.5 -5.5zM338.5 609.5q5.5 -5.5 5.5 -14.5t-5.5 -14.5t-14.5 -5.5t-14.5 5.5t-5.5 14.5t5.5 14.5t14.5 5.5t14.5 -5.5z" />
    <glyph glyph-name="uni01D8" unicode="&#x1d8;" horiz-adv-x="504" 
d="M475 29l-4 -18q-20 -14 -45 -14q-28 0 -41 20t-13 62h-4q-77 -83 -160 -83q-57 0 -87.5 35.5t-30.5 100.5v317l20 4v-320q0 -56 26 -86.5t75 -30.5q40 0 81 23.5t80 68.5v341l20 4v-374q0 -32 8.5 -47t27.5 -15q23 0 41 15zM348 723l5 -13l-3 -5q-80 -29 -187 -61l-5 4
l-4 16q93 26 190 62zM195.5 589.5q5.5 -5.5 5.5 -14.5t-5.5 -14.5t-14.5 -5.5t-14.5 5.5t-5.5 14.5t5.5 14.5t14.5 5.5t14.5 -5.5zM335.5 589.5q5.5 -5.5 5.5 -14.5t-5.5 -14.5t-14.5 -5.5t-14.5 5.5t-5.5 14.5t5.5 14.5t14.5 5.5t14.5 -5.5z" />
    <glyph glyph-name="uni01DA" unicode="&#x1da;" horiz-adv-x="504" 
d="M475 29l-4 -18q-20 -14 -45 -14q-28 0 -41 20t-13 62h-4q-77 -83 -160 -83q-57 0 -87.5 35.5t-30.5 100.5v317l20 4v-320q0 -56 26 -86.5t75 -30.5q40 0 81 23.5t80 68.5v341l20 4v-374q0 -32 8.5 -47t27.5 -15q23 0 41 15zM361 704q-47 -33 -98 -76h-16q-66 52 -100 76
l7 14h5q46 -32 95 -70q49 38 95 70h5zM197.5 589.5q5.5 -5.5 5.5 -14.5t-5.5 -14.5t-14.5 -5.5t-14.5 5.5t-5.5 14.5t5.5 14.5t14.5 5.5t14.5 -5.5zM337.5 589.5q5.5 -5.5 5.5 -14.5t-5.5 -14.5t-14.5 -5.5t-14.5 5.5t-5.5 14.5t5.5 14.5t14.5 5.5t14.5 -5.5z" />
    <glyph glyph-name="uni01DC" unicode="&#x1dc;" horiz-adv-x="504" 
d="M475 29l-4 -18q-20 -14 -45 -14q-28 0 -41 20t-13 62h-4q-77 -83 -160 -83q-57 0 -87.5 35.5t-30.5 100.5v317l20 4v-320q0 -56 26 -86.5t75 -30.5q40 0 81 23.5t80 68.5v341l20 4v-374q0 -32 8.5 -47t27.5 -15q23 0 41 15zM159 705l-3 5l5 13l4 3q97 -36 190 -62l-4 -16
l-5 -4q-107 32 -187 61zM168.5 560.5q-5.5 5.5 -5.5 14.5t5.5 14.5t14.5 5.5t14.5 -5.5t5.5 -14.5t-5.5 -14.5t-14.5 -5.5t-14.5 5.5zM308.5 560.5q-5.5 5.5 -5.5 14.5t5.5 14.5t14.5 5.5t14.5 -5.5t5.5 -14.5t-5.5 -14.5t-14.5 -5.5t-14.5 5.5z" />
    <glyph glyph-name="uni01D6" unicode="&#x1d6;" horiz-adv-x="504" 
d="M475 29l-4 -18q-20 -14 -45 -14q-28 0 -41 20t-13 62h-4q-77 -83 -160 -83q-57 0 -87.5 35.5t-30.5 100.5v317l20 4v-320q0 -56 26 -86.5t75 -30.5q40 0 81 23.5t80 68.5v341l20 4v-374q0 -32 8.5 -47t27.5 -15q23 0 41 15zM358 688l-2 -17h-200l-3 3l2 17h200z
M197.5 589.5q5.5 -5.5 5.5 -14.5t-5.5 -14.5t-14.5 -5.5t-14.5 5.5t-5.5 14.5t5.5 14.5t14.5 5.5t14.5 -5.5zM337.5 589.5q5.5 -5.5 5.5 -14.5t-5.5 -14.5t-14.5 -5.5t-14.5 5.5t-5.5 14.5t5.5 14.5t14.5 5.5t14.5 -5.5z" />
    <glyph glyph-name="uni1EE5" unicode="&#x1ee5;" horiz-adv-x="504" 
d="M475 29l-4 -18q-20 -14 -45 -14q-28 0 -41 20t-13 62h-4q-77 -83 -160 -83q-57 0 -87.5 35.5t-30.5 100.5v317l20 4v-320q0 -56 26 -86.5t75 -30.5q40 0 81 23.5t80 68.5v341l20 4v-374q0 -32 8.5 -47t27.5 -15q23 0 41 15zM271.5 -93.5q5.5 -5.5 5.5 -14.5t-5.5 -14.5
t-14.5 -5.5t-14.5 5.5t-5.5 14.5t5.5 14.5t14.5 5.5t14.5 -5.5z" />
    <glyph glyph-name="ugrave" unicode="&#xf9;" horiz-adv-x="504" 
d="M475 29l-4 -18q-20 -14 -45 -14q-28 0 -41 20t-13 62h-4q-77 -83 -160 -83q-57 0 -87.5 35.5t-30.5 100.5v317l20 4v-320q0 -56 26 -86.5t75 -30.5q40 0 81 23.5t80 68.5v341l20 4v-374q0 -32 8.5 -47t27.5 -15q23 0 41 15zM335 532l-11 -13l-5 -1q-75 66 -144 135l-1 5
l10 10l5 1q77 -79 146 -137z" />
    <glyph glyph-name="uni1EE7" unicode="&#x1ee7;" horiz-adv-x="504" 
d="M475 29l-4 -18q-20 -14 -45 -14q-28 0 -41 20t-13 62h-4q-77 -83 -160 -83q-57 0 -87.5 35.5t-30.5 100.5v317l20 4v-320q0 -56 26 -86.5t75 -30.5q40 0 81 23.5t80 68.5v341l20 4v-374q0 -32 8.5 -47t27.5 -15q23 0 41 15zM234 552q25 16 38 31.5t13 26.5q0 9 -7 14.5
t-19 5.5q-26 0 -54 -23l-8 14q34 29 64 29q19 0 31.5 -11t12.5 -27q0 -29 -48 -65l16 -29l-17 -7z" />
    <glyph glyph-name="uhorn" unicode="&#x1b0;" horiz-adv-x="531" 
d="M470.5 587.5q9.5 -10.5 16.5 -28t7 -36.5q0 -35 -24 -56.5t-75 -31.5v-356q0 -32 8.5 -47t27.5 -15q10 0 21.5 4t20.5 11l6 -3l-4 -18q-20 -14 -45 -14q-28 0 -41.5 19.5t-13.5 62.5h-4q-79 -83 -163 -83q-56 0 -87 35t-31 101v317l20 4v-320q0 -56 26.5 -86.5
t74.5 -30.5q82 0 164 92v341l16 3q43 8 63 24t20 42q0 15 -8.5 33.5t-25.5 36.5l2 5q7 5 13 5t15.5 -10.5z" />
    <glyph glyph-name="uni1EE9" unicode="&#x1ee9;" horiz-adv-x="531" 
d="M470.5 587.5q9.5 -10.5 16.5 -28t7 -36.5q0 -35 -24 -56.5t-75 -31.5v-356q0 -32 8.5 -47t27.5 -15q10 0 21.5 4t20.5 11l6 -3l-4 -18q-20 -14 -45 -14q-28 0 -41.5 19.5t-13.5 62.5h-4q-79 -83 -163 -83q-56 0 -87 35t-31 101v317l20 4v-320q0 -56 26.5 -86.5
t74.5 -30.5q82 0 164 92v341l16 3q43 8 63 24t20 42q0 15 -8.5 33.5t-25.5 36.5l2 5q7 5 13 5t15.5 -10.5zM348 668l10 -10l-1 -5q-69 -69 -144 -135l-5 1l-11 13q69 58 146 137z" />
    <glyph glyph-name="uni1EF1" unicode="&#x1ef1;" horiz-adv-x="512" 
d="M470.5 587.5q9.5 -10.5 16.5 -28t7 -36.5q0 -35 -24 -56.5t-75 -31.5v-356q0 -32 8.5 -47t27.5 -15q10 0 21.5 4t20.5 11l6 -3l-4 -18q-20 -14 -45 -14q-28 0 -41.5 19.5t-13.5 62.5h-4q-79 -83 -163 -83q-56 0 -87 35t-31 101v317l20 4v-320q0 -56 26.5 -86.5
t74.5 -30.5q82 0 164 92v341l16 3q43 8 63 24t20 42q0 15 -8.5 33.5t-25.5 36.5l2 5q7 5 13 5t15.5 -10.5zM271.5 -93.5q5.5 -5.5 5.5 -14.5t-5.5 -14.5t-14.5 -5.5t-14.5 5.5t-5.5 14.5t5.5 14.5t14.5 5.5t14.5 -5.5z" />
    <glyph glyph-name="uni1EEB" unicode="&#x1eeb;" horiz-adv-x="531" 
d="M470.5 587.5q9.5 -10.5 16.5 -28t7 -36.5q0 -35 -24 -56.5t-75 -31.5v-356q0 -32 8.5 -47t27.5 -15q10 0 21.5 4t20.5 11l6 -3l-4 -18q-20 -14 -45 -14q-28 0 -41.5 19.5t-13.5 62.5h-4q-79 -83 -163 -83q-56 0 -87 35t-31 101v317l20 4v-320q0 -56 26.5 -86.5
t74.5 -30.5q82 0 164 92v341l16 3q43 8 63 24t20 42q0 15 -8.5 33.5t-25.5 36.5l2 5q7 5 13 5t15.5 -10.5zM327 532l-11 -13l-5 -1q-75 66 -144 135l-1 5l10 10l5 1q77 -79 146 -137z" />
    <glyph glyph-name="uni1EED" unicode="&#x1eed;" horiz-adv-x="531" 
d="M470.5 587.5q9.5 -10.5 16.5 -28t7 -36.5q0 -35 -24 -56.5t-75 -31.5v-356q0 -32 8.5 -47t27.5 -15q10 0 21.5 4t20.5 11l6 -3l-4 -18q-20 -14 -45 -14q-28 0 -41.5 19.5t-13.5 62.5h-4q-79 -83 -163 -83q-56 0 -87 35t-31 101v317l20 4v-320q0 -56 26.5 -86.5
t74.5 -30.5q82 0 164 92v341l16 3q43 8 63 24t20 42q0 15 -8.5 33.5t-25.5 36.5l2 5q7 5 13 5t15.5 -10.5zM226 552q25 16 38 31.5t13 26.5q0 9 -7 14.5t-19 5.5q-26 0 -54 -23l-8 14q34 29 64 29q19 0 31.5 -11t12.5 -27q0 -29 -48 -65l16 -29l-17 -7z" />
    <glyph glyph-name="uni1EEF" unicode="&#x1eef;" horiz-adv-x="531" 
d="M470.5 587.5q9.5 -10.5 16.5 -28t7 -36.5q0 -35 -24 -56.5t-75 -31.5v-356q0 -32 8.5 -47t27.5 -15q10 0 21.5 4t20.5 11l6 -3l-4 -18q-20 -14 -45 -14q-28 0 -41.5 19.5t-13.5 62.5h-4q-79 -83 -163 -83q-56 0 -87 35t-31 101v317l20 4v-320q0 -56 26.5 -86.5
t74.5 -30.5q82 0 164 92v341l16 3q43 8 63 24t20 42q0 15 -8.5 33.5t-25.5 36.5l2 5q7 5 13 5t15.5 -10.5zM385 620v-4l-52 -47l-6 -2q-20 2 -81 20q-6 2 -35 10t-40 8q-5 0 -13 -6t-17 -16l-21 -19h-4l-9 11v4l52 47l6 2q20 -2 81 -20q6 -2 35 -10t40 -8q5 0 13 6t17 16
l21 19h4z" />
    <glyph glyph-name="uhungarumlaut" unicode="&#x171;" horiz-adv-x="504" 
d="M475 29l-4 -18q-20 -14 -45 -14q-28 0 -41 20t-13 62h-4q-77 -83 -160 -83q-57 0 -87.5 35.5t-30.5 100.5v317l20 4v-320q0 -56 26 -86.5t75 -30.5q40 0 81 23.5t80 68.5v341l20 4v-374q0 -32 8.5 -47t27.5 -15q23 0 41 15zM280 667l5 -1l10 -10l-1 -5q-70 -69 -144 -135
l-5 1l-11 13q76 67 146 137zM410 667l5 -1l10 -10l-1 -5q-71 -69 -144 -135l-5 1l-11 13q77 68 146 137z" />
    <glyph glyph-name="uni0217" unicode="&#x217;" horiz-adv-x="504" 
d="M475 29l-4 -18q-20 -14 -45 -14q-28 0 -41 20t-13 62h-4q-77 -83 -160 -83q-57 0 -87.5 35.5t-30.5 100.5v317l20 4v-320q0 -56 26 -86.5t75 -30.5q40 0 81 23.5t80 68.5v341l20 4v-374q0 -32 8.5 -47t27.5 -15q23 0 41 15zM153 545q10 54 34.5 79.5t66.5 25.5
t66.5 -25.5t34.5 -79.5l-13 -13h-5q-7 50 -27 74t-56 24t-56 -24t-27 -74h-5z" />
    <glyph glyph-name="umacron" unicode="&#x16b;" horiz-adv-x="504" 
d="M475 29l-4 -18q-20 -14 -45 -14q-28 0 -41 20t-13 62h-4q-77 -83 -160 -83q-57 0 -87.5 35.5t-30.5 100.5v317l20 4v-320q0 -56 26 -86.5t75 -30.5q40 0 81 23.5t80 68.5v341l20 4v-374q0 -32 8.5 -47t27.5 -15q23 0 41 15zM400 604l-2 -17h-287l-3 3l2 17h287z" />
    <glyph glyph-name="uni1E7B" unicode="&#x1e7b;" horiz-adv-x="504" 
d="M475 29l-4 -18q-20 -14 -45 -14q-28 0 -41 20t-13 62h-4q-77 -83 -160 -83q-57 0 -87.5 35.5t-30.5 100.5v317l20 4v-320q0 -56 26 -86.5t75 -30.5q40 0 81 23.5t80 68.5v341l20 4v-374q0 -32 8.5 -47t27.5 -15q23 0 41 15zM400 604l-2 -17h-287l-3 3l2 17h287z
M198.5 754.5q5.5 -5.5 5.5 -14.5t-5.5 -14.5t-14.5 -5.5t-14.5 5.5t-5.5 14.5t5.5 14.5t14.5 5.5t14.5 -5.5zM338.5 754.5q5.5 -5.5 5.5 -14.5t-5.5 -14.5t-14.5 -5.5t-14.5 5.5t-5.5 14.5t5.5 14.5t14.5 5.5t14.5 -5.5z" />
    <glyph glyph-name="uogonek" unicode="&#x173;" horiz-adv-x="504" 
d="M475 29l-4 -18q-20 -14 -45 -14q-28 0 -41 20t-13 62h-4q-77 -83 -160 -83q-57 0 -87.5 35.5t-30.5 100.5v317l20 4v-320q0 -56 26 -86.5t75 -30.5q40 0 81 23.5t80 68.5v341l20 4v-374q0 -32 8.5 -47t27.5 -15q23 0 41 15zM367 -191.5q-17 15.5 -17 42.5q0 17 6.5 32.5
t27 44t50.5 67.5q14 18 13 16h24q-37 -47 -61 -79t-31.5 -47.5t-7.5 -30.5q0 -40 43 -40q41 0 77 52h2l11 -16q-42 -57 -92 -57q-28 0 -45 15.5z" />
    <glyph glyph-name="uring" unicode="&#x16f;" horiz-adv-x="504" 
d="M475 29l-4 -18q-20 -14 -45 -14q-28 0 -41 20t-13 62h-4q-77 -83 -160 -83q-57 0 -87.5 35.5t-30.5 100.5v317l20 4v-320q0 -56 26 -86.5t75 -30.5q40 0 81 23.5t80 68.5v341l20 4v-374q0 -32 8.5 -47t27.5 -15q23 0 41 15zM304 647q19 -21 19 -49q0 -31 -21.5 -50
t-49.5 -19t-49 19.5t-21 50.5q0 30 19.5 49.5t50.5 19.5q33 0 52 -21zM215.5 634.5q-13.5 -13.5 -13.5 -35.5q0 -23 14.5 -36.5t35.5 -13.5t36 13t15 36q0 21 -13.5 35.5t-37.5 14.5q-23 0 -36.5 -13.5z" />
    <glyph glyph-name="uni1E79" unicode="&#x1e79;" horiz-adv-x="504" 
d="M475 29l-4 -18q-20 -14 -45 -14q-28 0 -41 20t-13 62h-4q-77 -83 -160 -83q-57 0 -87.5 35.5t-30.5 100.5v317l20 4v-320q0 -56 26 -86.5t75 -30.5q40 0 81 23.5t80 68.5v341l20 4v-374q0 -32 8.5 -47t27.5 -15q23 0 41 15zM346 724l5 -13l-3 -5q-80 -29 -187 -61l-5 4
l-4 16q93 26 190 62zM378 597v-4l-47 -47l-6 -2q-16 2 -72 20q-54 18 -65 18q-5 0 -13 -7t-17 -17l-16 -16h-3l-9 11v4l47 47l6 2q16 -2 72 -20q54 -18 65 -18q5 0 12 6t15 15l19 19h3z" />
    <glyph glyph-name="v" unicode="v" horiz-adv-x="384" 
d="M53 409l130 -378h4l151 378l15 43h24l-182 -452h-22l-154 450l21 4z" />
    <glyph glyph-name="w" unicode="w" horiz-adv-x="632" 
d="M52 409l112 -377h4l128 377l14 43h23l11 -43l111 -377h4l129 377l14 43h23l-158 -452h-22l-123 416h-4l-142 -416h-22l-135 450l21 4z" />
    <glyph glyph-name="wacute" unicode="&#x1e83;" horiz-adv-x="632" 
d="M52 409l112 -377h4l128 377l14 43h23l11 -43l111 -377h4l129 377l14 43h23l-158 -452h-22l-123 416h-4l-142 -416h-22l-135 450l21 4zM420 668l10 -10l-1 -5q-69 -69 -144 -135l-5 1l-11 13q69 58 146 137z" />
    <glyph glyph-name="wcircumflex" unicode="&#x175;" horiz-adv-x="632" 
d="M52 409l112 -377h4l128 377l14 43h23l11 -43l111 -377h4l129 377l14 43h23l-158 -452h-22l-123 416h-4l-142 -416h-22l-135 450l21 4zM208 532q38 43 101 126h18q63 -83 101 -126l-9 -12h-5q-48 53 -96 117q-48 -64 -96 -117h-5z" />
    <glyph glyph-name="wdieresis" unicode="&#x1e85;" horiz-adv-x="632" 
d="M52 409l112 -377h4l128 377l14 43h23l11 -43l111 -377h4l129 377l14 43h23l-158 -452h-22l-123 416h-4l-142 -416h-22l-135 450l21 4zM262.5 609.5q5.5 -5.5 5.5 -14.5t-5.5 -14.5t-14.5 -5.5t-14.5 5.5t-5.5 14.5t5.5 14.5t14.5 5.5t14.5 -5.5zM402.5 609.5
q5.5 -5.5 5.5 -14.5t-5.5 -14.5t-14.5 -5.5t-14.5 5.5t-5.5 14.5t5.5 14.5t14.5 5.5t14.5 -5.5z" />
    <glyph glyph-name="wgrave" unicode="&#x1e81;" horiz-adv-x="632" 
d="M52 409l112 -377h4l128 377l14 43h23l11 -43l111 -377h4l129 377l14 43h23l-158 -452h-22l-123 416h-4l-142 -416h-22l-135 450l21 4zM399 532l-11 -13l-5 -1q-75 66 -144 135l-1 5l10 10l5 1q77 -79 146 -137z" />
    <glyph glyph-name="x" unicode="x" horiz-adv-x="409" 
d="M82 423l122 -175l119 170l21 34h27l-155 -221l161 -228l-24 -5l-22 35l-128 183l-129 -185l-20 -31h-27l164 233l-152 216l24 5z" />
    <glyph glyph-name="y" unicode="y" horiz-adv-x="405" 
d="M54 409l140 -373h5l146 373l15 43h24l-177 -452q-26 -67 -53 -104t-63 -55.5t-95 -30.5h-5q-4 4 -8 12v6q60 12 95 29.5t59.5 50t47.5 92.5l-166 450l21 4z" />
    <glyph glyph-name="ycircumflex" unicode="&#x177;" horiz-adv-x="405" 
d="M54 409l140 -373h5l146 373l15 43h24l-177 -452q-26 -67 -53 -104t-63 -55.5t-95 -30.5h-5q-4 4 -8 12v6q60 12 95 29.5t59.5 50t47.5 92.5l-166 450l21 4zM95 532q38 43 101 126h18q63 -83 101 -126l-9 -12h-5q-48 53 -96 117q-48 -64 -96 -117h-5z" />
    <glyph glyph-name="ydieresis" unicode="&#xff;" horiz-adv-x="405" 
d="M54 409l140 -373h5l146 373l15 43h24l-177 -452q-26 -67 -53 -104t-63 -55.5t-95 -30.5h-5q-4 4 -8 12v6q60 12 95 29.5t59.5 50t47.5 92.5l-166 450l21 4zM149.5 609.5q5.5 -5.5 5.5 -14.5t-5.5 -14.5t-14.5 -5.5t-14.5 5.5t-5.5 14.5t5.5 14.5t14.5 5.5t14.5 -5.5z
M289.5 609.5q5.5 -5.5 5.5 -14.5t-5.5 -14.5t-14.5 -5.5t-14.5 5.5t-5.5 14.5t5.5 14.5t14.5 5.5t14.5 -5.5z" />
    <glyph glyph-name="uni1E8F" unicode="&#x1e8f;" horiz-adv-x="405" 
d="M54 409l140 -373h5l146 373l15 43h24l-177 -452q-26 -67 -53 -104t-63 -55.5t-95 -30.5h-5q-4 4 -8 12v6q60 12 95 29.5t59.5 50t47.5 92.5l-166 450l21 4zM219.5 625.5q5.5 -5.5 5.5 -14.5t-5.5 -14.5t-14.5 -5.5t-14.5 5.5t-5.5 14.5t5.5 14.5t14.5 5.5t14.5 -5.5z" />
    <glyph glyph-name="uni1EF5" unicode="&#x1ef5;" horiz-adv-x="407" 
d="M54 409l140 -373h5l146 373l15 43h24l-177 -452q-26 -67 -53 -104t-63 -55.5t-95 -30.5h-5q-4 4 -8 12v6q60 12 95 29.5t59.5 50t47.5 92.5l-166 450l21 4zM289.5 -93.5q5.5 -5.5 5.5 -14.5t-5.5 -14.5t-14.5 -5.5t-14.5 5.5t-5.5 14.5t5.5 14.5t14.5 5.5t14.5 -5.5z" />
    <glyph glyph-name="ygrave" unicode="&#x1ef3;" horiz-adv-x="405" 
d="M54 409l140 -373h5l146 373l15 43h24l-177 -452q-26 -67 -53 -104t-63 -55.5t-95 -30.5h-5q-4 4 -8 12v6q60 12 95 29.5t59.5 50t47.5 92.5l-166 450l21 4zM286 532l-11 -13l-5 -1q-75 66 -144 135l-1 5l10 10l5 1q77 -79 146 -137z" />
    <glyph glyph-name="uni1EF7" unicode="&#x1ef7;" horiz-adv-x="405" 
d="M54 409l140 -373h5l146 373l15 43h24l-177 -452q-26 -67 -53 -104t-63 -55.5t-95 -30.5h-5q-4 4 -8 12v6q60 12 95 29.5t59.5 50t47.5 92.5l-166 450l21 4zM185 552q25 16 38 31.5t13 26.5q0 9 -7 14.5t-19 5.5q-26 0 -54 -23l-8 14q34 29 64 29q19 0 31.5 -11t12.5 -27
q0 -29 -48 -65l16 -29l-17 -7z" />
    <glyph glyph-name="uni0233" unicode="&#x233;" horiz-adv-x="405" 
d="M54 409l140 -373h5l146 373l15 43h24l-177 -452q-26 -67 -53 -104t-63 -55.5t-95 -30.5h-5q-4 4 -8 12v6q60 12 95 29.5t59.5 50t47.5 92.5l-166 450l21 4zM351 604l-2 -17h-287l-3 3l2 17h287z" />
    <glyph glyph-name="z" unicode="z" horiz-adv-x="399" 
d="M107 452h224l25 1l1 -17l-291 -416h237l53 1l3 -4l-4 -18l-57 1h-233l-27 -1v17l291 416h-228l-46 -1l-4 4l4 18z" />
    <glyph glyph-name="zacute" unicode="&#x17a;" horiz-adv-x="399" 
d="M107 452h224l25 1l1 -17l-291 -416h237l53 1l3 -4l-4 -18l-57 1h-233l-27 -1v17l291 416h-228l-46 -1l-4 4l4 18zM302 668l10 -10l-1 -5q-69 -69 -144 -135l-5 1l-11 13q69 58 146 137z" />
    <glyph glyph-name="zcaron" unicode="&#x17e;" horiz-adv-x="399" 
d="M107 452h224l25 1l1 -17l-291 -416h237l53 1l3 -4l-4 -18l-57 1h-233l-27 -1v17l291 416h-228l-46 -1l-4 4l4 18zM310 646q-38 -43 -101 -126h-18q-63 83 -101 126l9 12h5q48 -53 96 -117q48 64 96 117h5z" />
    <glyph glyph-name="zdotaccent" unicode="&#x17c;" horiz-adv-x="399" 
d="M107 452h224l25 1l1 -17l-291 -416h237l53 1l3 -4l-4 -18l-57 1h-233l-27 -1v17l291 416h-228l-46 -1l-4 4l4 18zM214.5 625.5q5.5 -5.5 5.5 -14.5t-5.5 -14.5t-14.5 -5.5t-14.5 5.5t-5.5 14.5t5.5 14.5t14.5 5.5t14.5 -5.5z" />
    <glyph glyph-name="uni1E93" unicode="&#x1e93;" horiz-adv-x="399" 
d="M107 452h224l25 1l1 -17l-291 -416h237l53 1l3 -4l-4 -18l-57 1h-233l-27 -1v17l291 416h-228l-46 -1l-4 4l4 18zM214.5 -93.5q5.5 -5.5 5.5 -14.5t-5.5 -14.5t-14.5 -5.5t-14.5 5.5t-5.5 14.5t5.5 14.5t14.5 5.5t14.5 -5.5z" />
    <glyph glyph-name="germandbls.calt" horiz-adv-x="592" 
d="M397.5 627q48.5 -13 105.5 -41l3 -11l-193 -231q114 -12 174.5 -57t60.5 -123q0 -49 -23 -87t-63 -59.5t-91 -21.5q-39 0 -82.5 12.5t-75.5 34.5l2 19l5 2q30 -23 71.5 -35.5t78.5 -12.5q46 0 82 19.5t56 54t20 75.5q0 72 -62.5 111.5t-177.5 48.5l-4 15l196 235
q-93 45 -177 45q-89 0 -143 -51t-54 -135v-434h-20v433q0 61 27.5 108t76.5 73t113 26q46 0 94.5 -13z" />
    <glyph glyph-name="f.f" horiz-adv-x="280" 
d="M392 432h-255v-432h-20v432h-67l-4 4l3 16h68v86q0 74 30 114t86 40q42 0 84 -13l-6 -20h-6q-26 13 -72 13t-71 -34.5t-25 -99.5v-86h255l3 -4z" />
    <glyph glyph-name="iacute_j.loclNLD" horiz-adv-x="444" 
d="M101 449l20 4v-453h-20v449zM213 668l10 -10l-1 -5q-69 -69 -144 -135l-5 1l-11 13q69 58 146 137zM350 451v-439q0 -78 -19.5 -120.5t-73.5 -83.5l-10 10v6q48 37 65.5 76.5t17.5 107.5v424h-84l-4 4l3 16h83l20 1zM427 668l10 -10l-1 -5q-69 -69 -144 -135l-5 1l-11 13
q69 58 146 137z" />
    <glyph glyph-name="f.l" horiz-adv-x="280" 
d="M396 696l-2 -19l-3 -2q-63 17 -112 17q-142 0 -142 -134v-106h125l3 -4l-3 -16h-125v-432h-20v432h-67l-4 4l3 16h68v106q0 77 40.5 115.5t119.5 38.5q49 0 119 -16z" />
    <glyph glyph-name="c.ss01" horiz-adv-x="467" 
d="M507 471h-138q27 -11 48 -25l-6 -18h-6q-27 21 -60.5 32t-69.5 11q-94 0 -144 -58.5t-50 -168.5q0 -109 48 -166.5t137 -57.5q38 0 76.5 13t69.5 37l6 -2l-2 -18q-28 -19 -56 -30h147v-20h-547v20h212q-55 26 -83 82.5t-28 141.5q0 87 30 144.5t88 82.5h-219v20h547v-20z
" />
    <glyph glyph-name="d.ss01" horiz-adv-x="561" 
d="M601 471h-222q59 -24 89.5 -77.5t30.5 -133.5q0 -91 -32 -152t-94 -88h228v-20h-641v20h152v451h-152v20h641v-20zM426.5 415.5q-52.5 54.5 -151.5 54.5l-144 -4v-443l78 -3h84q90 8 138 69.5t48 169.5q0 102 -52.5 156.5z" />
    <glyph glyph-name="i.ss01" horiz-adv-x="237" 
d="M128 20h149v-20h-317v20h148v451h-148v20h317v-20h-149v-451z" />
    <glyph glyph-name="l.ss01" horiz-adv-x="365" 
d="M127 20h195v90h20v-90h63v-20h-445v20h147v451h-147v20h445v-20h-278v-451z" />
    <glyph glyph-name="m.ss01" horiz-adv-x="678" 
d="M538 471l50 -451h130v-20h-758v20h128l52 451h-180v20h758v-20h-180zM506 471h-334l24 -56l139 -308h3l146 316zM554 157l-34 289h-4l-168 -367h-23l-165 367h-3l-34 -288l-15 -138h461z" />
    <glyph glyph-name="v.ss01" horiz-adv-x="481" 
d="M443 471l-189 -451h267v-20h-561v20h258l-174 451h-84v20h561v-20h-78zM422 471h-358l6 -18l165 -421h3l178 421z" />
    <glyph glyph-name="x.ss01" horiz-adv-x="504" 
d="M258 253l175 -233h111v-20h-584v20h101l172 233l-162 218h-111v20h584v-20h-126zM246 269l139 187l9 15h-297l7 -11zM246 238l-155 -207l-7 -11h323l-8 12z" />
    <glyph glyph-name="f.t" horiz-adv-x="294" 
d="M392 432h-255v-432h-20v432h-67l-4 4l3 16h68v86q0 74 30 114t86 40q42 0 84 -13l-6 -20h-6q-26 13 -72 13t-71 -34.5t-25 -99.5v-86h255l3 -4z" />
    <glyph glyph-name="uni01C5.sc" horiz-adv-x="1092" 
d="M517 563.5q72 -78.5 72 -224.5q0 -166 -74.5 -255t-213.5 -89q-34 0 -90 1.5t-101 3.5v637l201 5q134 0 206 -78.5zM499.5 99q69.5 84 69.5 240q0 137 -67 210t-191 73q-31 0 -84.5 -1.5t-96.5 -3.5v-597q42 -2 91.5 -3.5t79.5 -1.5q129 0 198.5 84zM1035 474l-326 -455
h267l57 1l4 -4l-3 -16h-321l-31 -1v17l326 456h-259l-49 -1l-3 4l3 17l55 -1h249l31 1v-18zM975 685q-38 -43 -101 -126h-18q-63 83 -101 126l9 12h5q48 -53 96 -117q48 64 96 117h5z" />
    <glyph glyph-name="uni01C8.sc" horiz-adv-x="659" 
d="M393 16l-4 -16h-280v637h20v-617h261zM551 89q0 -55 -21 -92.5t-72 -72.5l-12 11v5q46 31 65.5 65.5t19.5 82.5v384h-102l-3 3l3 16h122v-402z" />
    <glyph glyph-name="uni01CB.sc" horiz-adv-x="931" 
d="M559 176l-1 -176h-19l-404 595h-4l-1 -396v-199h-20v190l1 447h19l404 -595h4l2 594l20 2zM823 89q0 -55 -21 -92.5t-72 -72.5l-12 11v5q46 31 65.5 65.5t19.5 82.5v384h-102l-3 3l3 16h122v-402z" />
    <glyph glyph-name="a.sc" horiz-adv-x="494" 
d="M452 0h-23l-10 35l-49 126h-248l-53 -126l-12 -35h-23l207 491h21zM252 461h-3l-119 -281h232z" />
    <glyph glyph-name="aacute.sc" horiz-adv-x="494" 
d="M452 0h-23l-10 35l-49 126h-248l-53 -126l-12 -35h-23l207 491h21zM252 461h-3l-119 -281h232zM353 707l10 -10l-1 -5q-69 -69 -144 -135l-5 1l-11 13q69 58 146 137z" />
    <glyph glyph-name="abreve.sc" horiz-adv-x="494" 
d="M452 0h-23l-10 35l-49 126h-248l-53 -126l-12 -35h-23l207 491h21zM252 461h-3l-119 -281h232zM352 666q-10 -54 -34.5 -79.5t-66.5 -25.5t-66.5 25.5t-34.5 79.5l13 13h5q7 -50 27 -74t56 -24t56 24t27 74h5z" />
    <glyph glyph-name="uni1EAF.sc" horiz-adv-x="494" 
d="M452 0h-23l-10 35l-49 126h-248l-53 -126l-12 -35h-23l207 491h21zM252 461h-3l-119 -281h232zM321 740l-1 -5l-81 -88l-5 1l-12 12q26 27 83 90h5zM352 636q-11 -36 -37.5 -55t-64.5 -19t-64 19t-36 55l13 11h5q8 -32 28.5 -48.5t53.5 -16.5t54.5 16.5t29.5 48.5h5z" />
    <glyph glyph-name="uni1EB7.sc" horiz-adv-x="494" 
d="M452 0h-23l-10 35l-49 126h-248l-53 -126l-12 -35h-23l207 491h21zM252 461h-3l-119 -281h232zM261.5 -93.5q5.5 -5.5 5.5 -14.5t-5.5 -14.5t-14.5 -5.5t-14.5 5.5t-5.5 14.5t5.5 14.5t14.5 5.5t14.5 -5.5zM352 666q-10 -54 -34.5 -79.5t-66.5 -25.5t-66.5 25.5
t-34.5 79.5l13 13h5q7 -50 27 -74t56 -24t56 24t27 74h5z" />
    <glyph glyph-name="uni1EB1.sc" horiz-adv-x="494" 
d="M452 0h-23l-10 35l-49 126h-248l-53 -126l-12 -35h-23l207 491h21zM252 461h-3l-119 -281h232zM254 647l-81 88l-1 5l11 10h5q57 -63 83 -90l-12 -12zM352 636q-11 -36 -37.5 -55t-64.5 -19t-64 19t-36 55l13 11h5q8 -32 28.5 -48.5t53.5 -16.5t54.5 16.5t29.5 48.5h5z
" />
    <glyph glyph-name="uni1EB3.sc" horiz-adv-x="494" 
d="M452 0h-23l-10 35l-49 126h-248l-53 -126l-12 -35h-23l207 491h21zM252 461h-3l-119 -281h232zM352 636q-11 -36 -37.5 -55t-64.5 -19t-64 19t-36 55l13 11h5q8 -32 28.5 -48.5t53.5 -16.5t54.5 16.5t29.5 48.5h5zM231 683q25 16 38 31.5t13 26.5q0 9 -7 14.5t-19 5.5
q-26 0 -54 -23l-8 14q34 29 64 29q19 0 31.5 -11t12.5 -27q0 -29 -48 -65l16 -29l-17 -7z" />
    <glyph glyph-name="uni1EB5.sc" horiz-adv-x="494" 
d="M452 0h-23l-10 35l-49 126h-248l-53 -126l-12 -35h-23l207 491h21zM252 461h-3l-119 -281h232zM352 636q-11 -36 -37.5 -55t-64.5 -19t-64 19t-36 55l13 11h5q8 -32 28.5 -48.5t53.5 -16.5t54.5 16.5t29.5 48.5h5zM360.795 750v-4l-50.4541 -47l-5.71191 -2
q-22.8477 3 -77.1094 21q-59.0215 18 -70.4453 18q-4.75977 0 -12.375 -6q-7.61621 -6 -16.1836 -16l-19.9912 -19h-3.80859l-7.61523 11v4l50.4541 47l5.71191 2q19.0391 -2 75.2051 -20q58.0703 -19 72.3496 -19q4.75977 0 11.4229 6q6.66406 6 15.2324 15l20.9424 20
h3.80859z" />
    <glyph glyph-name="uni01CE.sc" horiz-adv-x="494" 
d="M452 0h-23l-10 35l-49 126h-248l-53 -126l-12 -35h-23l207 491h21zM252 461h-3l-119 -281h232zM361 685q-38 -43 -101 -126h-18q-63 83 -101 126l9 12h5q48 -53 96 -117q48 64 96 117h5z" />
    <glyph glyph-name="acircumflex.sc" horiz-adv-x="494" 
d="M452 0h-23l-10 35l-49 126h-248l-53 -126l-12 -35h-23l207 491h21zM252 461h-3l-119 -281h232zM141 571q38 43 101 126h18q63 -83 101 -126l-9 -12h-5q-48 53 -96 117q-48 -64 -96 -117h-5z" />
    <glyph glyph-name="uni1EA5.sc" horiz-adv-x="494" 
d="M452 0h-23l-10 35l-49 126h-248l-53 -126l-12 -35h-23l207 491h21zM252 461h-3l-119 -281h232zM387 749l-1 -5l-68 -76h-6l-11 11l70 80l5 -1zM144 586q47 33 98 76h16q66 -52 100 -76l-7 -14h-5q-46 32 -95 70q-49 -38 -95 -70h-5z" />
    <glyph glyph-name="uni1EAD.sc" horiz-adv-x="494" 
d="M452 0h-23l-10 35l-49 126h-248l-53 -126l-12 -35h-23l207 491h21zM252 461h-3l-119 -281h232zM261.5 -93.5q5.5 -5.5 5.5 -14.5t-5.5 -14.5t-14.5 -5.5t-14.5 5.5t-5.5 14.5t5.5 14.5t14.5 5.5t14.5 -5.5zM141 571q38 43 101 126h18q63 -83 101 -126l-9 -12h-5
q-48 53 -96 117q-48 -64 -96 -117h-5z" />
    <glyph glyph-name="uni1EA7.sc" horiz-adv-x="494" 
d="M452 0h-23l-10 35l-49 126h-248l-53 -126l-12 -35h-23l207 491h21zM252 461h-3l-119 -281h232zM278 744l-1 5l11 9l5 1l70 -80l-11 -11h-6zM144 586q47 33 98 76h16q66 -52 100 -76l-7 -14h-5q-46 32 -95 70q-49 -38 -95 -70h-5z" />
    </font>
</defs>
</svg>
