<?xml version="1.0" standalone="no"?>
<!DOCTYPE svg PUBLIC "-//W3C//DTD SVG 1.1//EN" "http://www.w3.org/Graphics/SVG/1.1/DTD/svg11.dtd" >
<svg xmlns="http://www.w3.org/2000/svg" xmlns:xlink="http://www.w3.org/1999/xlink" version="1.1">
<metadata>
Created by FontForge 20170910 at Thu Nov  9 15:49:00 2017
 By Jimmy Wärting
Copyright 2013 The Alegreya Sans Project Authors (https://github.com/huertatipografica/Alegreya-Sans)
</metadata>
<defs>
<font id="AlegreyaSans-ThinItalic" horiz-adv-x="0" >
  <font-face 
    font-family="Alegreya Sans Thin"
    font-weight="250"
    font-style="italic"
    font-stretch="normal"
    units-per-em="1000"
    panose-1="0 0 3 0 0 0 0 0 0 0"
    ascent="800"
    descent="-200"
    x-height="455"
    cap-height="637"
    bbox="-363 -265 1116 956"
    underline-thickness="42"
    underline-position="-190"
    slope="-7"
    unicode-range="U+000D-FB02"
  />
<missing-glyph horiz-adv-x="180" 
 />
    <glyph glyph-name="uni1EBC" unicode="&#x7e;E" horiz-adv-x="432" 
d="M143 340h223l3 -4l-6 -16h-222l-16 -125l-22 -175h273l3 -4l-6 -16h-293l25 195l55 442h291l2 -4l-6 -16h-269zM468 805v-4l-52 -47l-6 -2q-20 2 -81 20q-6 2 -35 10t-40 8q-5 0 -13 -6t-17 -16l-21 -19h-4l-9 11v4l52 47l6 2q20 -2 81 -20q6 -2 35 -10t40 -8q5 0 13 6
t17 16l21 19h4z" />
    <glyph glyph-name="Idieresis" unicode="&#xa8;I" horiz-adv-x="235" 
d="M125 195l-25 -195h-20l25 195l55 442h20zM149.5 795.5q5.5 -5.5 5.5 -14.5t-5.5 -14.5t-14.5 -5.5t-14.5 5.5t-5.5 14.5t5.5 14.5t14.5 5.5t14.5 -5.5zM251.5 795.5q5.5 -5.5 5.5 -14.5t-5.5 -14.5t-14.5 -5.5t-14.5 5.5t-5.5 14.5t5.5 14.5t14.5 5.5t14.5 -5.5z" />
    <glyph glyph-name="Itilde" unicode="&#x7e;I" horiz-adv-x="235" 
d="M125 195l-25 -195h-20l25 195l55 442h20zM309 792v-4l-47 -47l-6 -2q-16 2 -72 20q-54 18 -65 18q-5 0 -13 -7t-17 -17l-16 -16h-3l-9 11v4l47 47l6 2q16 -2 72 -20q54 -18 65 -18q5 0 12 6t15 15l19 19h3z" />
    <glyph glyph-name="Odieresis" unicode="&#xa8;O" horiz-adv-x="599" 
d="M513.5 577q54.5 -65 54.5 -186q0 -122 -35.5 -211t-103 -137t-162.5 -48q-102 0 -156.5 67t-54.5 191q0 121 35 208.5t102.5 134t161.5 46.5q104 0 158.5 -65zM205 578q-62 -44 -95 -126.5t-33 -195.5q0 -115 49.5 -178t141.5 -63q87 0 150 45.5t96 129t33 197.5
q0 113 -49 174t-144 61q-87 0 -149 -44zM307.5 795.5q5.5 -5.5 5.5 -14.5t-5.5 -14.5t-14.5 -5.5t-14.5 5.5t-5.5 14.5t5.5 14.5t14.5 5.5t14.5 -5.5zM457.5 795.5q5.5 -5.5 5.5 -14.5t-5.5 -14.5t-14.5 -5.5t-14.5 5.5t-5.5 14.5t5.5 14.5t14.5 5.5t14.5 -5.5z" />
    <glyph glyph-name="Utilde" unicode="&#x7e;U" horiz-adv-x="583" 
d="M510 312l-10 -83q-11 -111 -72.5 -172t-161.5 -61q-89 0 -137 46.5t-48 133.5q0 29 4 53l13 93l40 315h20l-53 -408q-4 -34 -4 -49q0 -79 42.5 -121.5t121.5 -42.5q91 0 146 55t69 158l51 408h20zM499 805v-4l-52 -47l-6 -2q-20 2 -81 20q-6 2 -35 10t-40 8q-5 0 -13 -6
t-17 -16l-21 -19h-4l-9 11v4l52 47l6 2q20 -2 81 -20q6 -2 35 -10t40 -8q5 0 13 6t17 16l21 19h4z" />
    <glyph glyph-name="Yacute" unicode="&#xb4;Y" horiz-adv-x="469" 
d="M238 247l-7 -52l-24 -195h-20l24 195l7 50l-141 392h25l7 -26l120 -334h5l218 334l14 26h26zM392 834l7 -12l-2 -5q-67 -38 -174 -93l-5 3l-7 15q91 44 176 94z" />
    <glyph glyph-name="uni1EF8" unicode="&#x7e;Y" horiz-adv-x="469" 
d="M238 247l-7 -52l-24 -195h-20l24 195l7 50l-141 392h25l7 -26l120 -334h5l218 334l14 26h26zM442 805v-4l-52 -47l-6 -2q-20 2 -81 20q-6 2 -35 10t-40 8q-5 0 -13 -6t-17 -16l-21 -19h-4l-9 11v4l52 47l6 2q20 -2 81 -20q6 -2 35 -10t40 -8q5 0 13 6t17 16l21 19h4z" />
    <glyph glyph-name="uni1EBD" unicode="&#x7e;e" horiz-adv-x="354" 
d="M284 118l9 -13q-30 -50 -64.5 -77t-80.5 -33h-9q-49 6 -70.5 41.5t-21.5 106.5q0 88 25.5 159t70.5 112.5t99 42.5h5q75 -6 75 -69q0 -57 -64 -111t-190 -101q-1 -9 -1 -28q0 -68 19.5 -100t59.5 -32q37 0 70.5 26.5t60.5 75.5h7zM163.5 405.5q-37.5 -30.5 -62 -84.5
t-31.5 -123q111 41 171 90t60 97q0 23 -14.5 37t-42.5 14q-43 0 -80.5 -30.5zM390 620v-4l-52 -47l-6 -2q-20 2 -81 20q-6 2 -35 10t-40 8q-5 0 -13 -6t-17 -16l-21 -19h-4l-9 11v4l52 47l6 2q20 -2 81 -20q6 -2 35 -10t40 -8q5 0 13 6t17 16l21 19h4z" />
    <glyph glyph-name="idieresis" unicode="&#xa8;i" horiz-adv-x="203" 
d="M95 106l-7 -106l-27 -4l49 366l6 90l25 4zM110.5 610.5q5.5 -5.5 5.5 -14.5t-5.5 -14.5t-14.5 -5.5t-14.5 5.5t-5.5 14.5t5.5 14.5t14.5 5.5t14.5 -5.5zM212.5 610.5q5.5 -5.5 5.5 -14.5t-5.5 -14.5t-14.5 -5.5t-14.5 5.5t-5.5 14.5t5.5 14.5t14.5 5.5t14.5 -5.5z" />
    <glyph glyph-name="itilde" unicode="&#x7e;i" horiz-adv-x="203" 
d="M95 106l-7 -106l-27 -4l49 366l6 90l25 4zM270 607v-4l-47 -47l-6 -2q-16 2 -72 20q-54 18 -65 18q-5 0 -13 -7t-17 -17l-16 -16h-3l-9 11v4l47 47l6 2q16 -2 72 -20q54 -18 65 -18q5 0 12 6t15 15l19 19h3z" />
    <glyph glyph-name="odieresis" unicode="&#xa8;o" horiz-adv-x="396" 
d="M253 458q50 -4 72.5 -37t22.5 -101q0 -91 -24 -163.5t-69 -115.5t-106 -47h-5q-50 3 -73 36.5t-23 103.5q0 91 24.5 164.5t69.5 116t106 43.5h5zM154.5 398q-40.5 -39 -63.5 -107.5t-23 -153.5q0 -62 19.5 -92t60.5 -30q52 0 93 39.5t63.5 108.5t22.5 154q0 62 -19 91
t-60 29q-53 0 -93.5 -39zM188.5 610.5q5.5 -5.5 5.5 -14.5t-5.5 -14.5t-14.5 -5.5t-14.5 5.5t-5.5 14.5t5.5 14.5t14.5 5.5t14.5 -5.5zM338.5 610.5q5.5 -5.5 5.5 -14.5t-5.5 -14.5t-14.5 -5.5t-14.5 5.5t-5.5 14.5t5.5 14.5t14.5 5.5t14.5 -5.5z" />
    <glyph glyph-name="utilde" unicode="&#x7e;u" horiz-adv-x="454" 
d="M392 456l-46 -350l-9 -106l-25 -4l36 271h-5q-65 -112 -114.5 -179t-98.5 -99h-11q-24 7 -38 30.5t-13 54.5l1 13l43 263l12 101l25 4l-59 -365l-1 -15q-1 -25 10 -42.5t24 -17.5q26 0 90.5 85t142.5 230l4 32l7 90zM412 620v-4l-53 -48l-6 -2q-24 3 -81 21
q-62 18 -74 18q-5 0 -13 -6t-17 -16l-21 -19h-4l-9 11v4l53 48l6 2q24 -3 81 -21q62 -18 74 -18q5 0 13 6t17 16l21 19h4z" />
    <glyph glyph-name="yacute" unicode="&#xb4;y" horiz-adv-x="379" 
d="M362 373q0 -49 -39 -115l-164 -277q-56 -95 -99 -135.5t-91 -40.5q-27 0 -60 12l2 19l5 2q30 -12 55 -12q41 0 79 37.5t91 126.5l13 22l-80 438l23 6l12 -74l59 -340h4l134 226q36 60 36 106q0 32 -28 70l1 5l18 6q29 -41 29 -82zM308 668l10 -10l-1 -5
q-69 -69 -144 -135l-5 1l-11 13q69 58 146 137z" />
    <glyph glyph-name="uni1EF9" unicode="&#x7e;y" horiz-adv-x="379" 
d="M362 373q0 -49 -39 -115l-164 -277q-56 -95 -99 -135.5t-91 -40.5q-27 0 -60 12l2 19l5 2q30 -12 55 -12q41 0 79 37.5t91 126.5l13 22l-80 438l23 6l12 -74l59 -340h4l134 226q36 60 36 106q0 32 -28 70l1 5l18 6q29 -41 29 -82zM374 620v-4l-52 -47l-6 -2q-20 2 -81 20
q-6 2 -35 10t-40 8q-5 0 -13 -6t-17 -16l-21 -19h-4l-9 11v4l52 47l6 2q20 -2 81 -20q6 -2 35 -10t40 -8q5 0 13 6t17 16l21 19h4z" />
    <glyph glyph-name="f_j" unicode="fj" horiz-adv-x="459" 
d="M226.5 650.5q-35.5 -34.5 -46.5 -99.5l-13 -102h209l18 6l3 -3l-44 -359l-11 -75q-10 -81 -35.5 -125t-82.5 -85l-10 11l1 6q52 37 74 76t31 107l47 354l5 67h-208l-30 -237l-27 -216l-9 -106l-25 -4l41 324l30 239h-69l-4 4l4 16h72l13 102q13 74 56.5 114t111.5 40
l76 -20l2 -3l-7 -20h-6q-15 10 -36 16.5t-39 6.5q-56 0 -91.5 -34.5z" />
    <glyph glyph-name="fi" unicode="fi" horiz-adv-x="454" 
d="M226.5 650.5q-35.5 -34.5 -46.5 -99.5l-13 -102h209l18 6l3 -3l-45 -346l-7 -106l-27 -4l49 366l5 67h-208l-30 -237l-27 -216l-9 -106l-25 -4l41 324l30 239h-69l-4 4l4 16h72l13 102q13 74 56.5 114t111.5 40l76 -20l2 -3l-7 -20h-6q-15 10 -36 16.5t-39 6.5
q-56 0 -91.5 -34.5z" />
    <glyph glyph-name="fl" unicode="fl" horiz-adv-x="495" 
d="M420 695l-6 -20l-4 -2q-48 12 -92 12q-59 0 -94.5 -34t-43.5 -100l-13 -102h116l3 -4l-4 -16h-118l-30 -237l-27 -216l-9 -106l-25 -4l41 324l30 239h-69l-4 4l4 16h72l13 102q10 76 52 115t112 39l94 -7zM369 106l-9 -106l-26 -4l82 612l6 90l26 4z" />
    <glyph glyph-name="Gtilde" unicode="&#x7e;G" horiz-adv-x="575" 
d="M461.5 627q42.5 -14 80.5 -40l-8 -18h-7q-76 52 -152 52q-94 0 -161.5 -44t-103 -127t-35.5 -198q0 -114 49 -175.5t142 -61.5q44 0 82.5 6.5t98.5 23.5l15 113l10 89l20 2l-10 -91l-17 -128q-67 -20 -108 -27t-91 -7q-103 0 -157 66t-54 188t38.5 210t111 134.5
t173.5 46.5q41 0 83.5 -14zM501 805v-4l-52 -47l-6 -2q-20 2 -81 20q-6 2 -35 10t-40 8q-5 0 -13 -6t-17 -16l-21 -19h-4l-9 11v4l52 47l6 2q20 -2 81 -20q6 -2 35 -10t40 -8q5 0 13 6t17 16l21 19h4z" />
    <glyph glyph-name="gtilde" unicode="&#x7e;g" horiz-adv-x="414" 
d="M352 456l-41 -323l-12 -98q-15 -116 -72 -174t-145 -58q-55 0 -90.5 27.5t-49.5 77.5l2 7l150 122v5q-18 18 -26.5 45t-8.5 71q0 80 25.5 146t74 106.5t114.5 44.5h4l59 -3l11 7zM170.5 398q-44.5 -38 -68.5 -101t-24 -135q0 -37 6.5 -60.5t15 -34t14.5 -10.5
q7 0 38 36.5t75.5 102t91.5 148.5l3 26l5 64l-53 2q-59 0 -103.5 -38zM311 286h-4q-63 -100 -104.5 -157.5t-85.5 -97.5l-144 -117q-3 -2 -4.5 -4.5t-1.5 -5.5q2 -15 15 -34t38.5 -33t61.5 -14q78 0 130 53t66 155zM394 620v-4l-52 -47l-6 -2q-20 2 -81 20q-6 2 -35 10
t-40 8q-5 0 -13 -6t-17 -16l-21 -19h-4l-9 11v4l52 47l6 2q20 -2 81 -20q6 -2 35 -10t40 -8q5 0 13 6t17 16l21 19h4z" />
    <glyph glyph-name=".notdef" horiz-adv-x="180" 
 />
    <glyph glyph-name="nonmarkingreturn" unicode="&#xd;" horiz-adv-x="161" 
 />
    <glyph glyph-name="space" unicode=" " horiz-adv-x="161" 
 />
    <glyph glyph-name="A" unicode="A" horiz-adv-x="524" 
d="M470 0h-23l-6 43l-37 170h-283l-85 -170l-20 -43h-24l319 637h21zM318 603h-3l-184 -370h268z" />
    <glyph glyph-name="Aacute" unicode="&#xc1;" horiz-adv-x="524" 
d="M470 0h-23l-6 43l-37 170h-283l-85 -170l-20 -43h-24l319 637h21zM318 603h-3l-184 -370h268zM426 834l7 -12l-2 -5q-67 -38 -174 -93l-5 3l-7 15q91 44 176 94z" />
    <glyph glyph-name="Abreve" unicode="&#x102;" horiz-adv-x="524" 
d="M470 0h-23l-6 43l-37 170h-283l-85 -170l-20 -43h-24l319 637h21zM318 603h-3l-184 -370h268zM434 802q-16 -36 -44 -55t-65 -19t-61.5 19t-30.5 55l14 11h5q4 -32 22.5 -48.5t51.5 -16.5q66 0 91 65h5z" />
    <glyph glyph-name="uni1EAE" unicode="&#x1eae;" horiz-adv-x="524" 
d="M470 0h-23l-6 43l-37 170h-283l-85 -170l-20 -43h-24l319 637h21zM318 603h-3l-184 -370h268zM401 886l-1 -5q-30 -35 -61 -67l-20 -21l-5 1l-12 12q26 27 83 90h5zM436 782q-16 -36 -44 -55t-65 -19t-61.5 19t-30.5 55l14 11h5q4 -32 22.5 -48.5t51.5 -16.5q66 0 91 65
h5z" />
    <glyph glyph-name="uni1EB6" unicode="&#x1eb6;" horiz-adv-x="524" 
d="M470 0h-23l-6 43l-37 170h-283l-85 -170l-20 -43h-24l319 637h21zM318 603h-3l-184 -370h268zM240.5 -97.5q5.5 -5.5 5.5 -14.5t-5.5 -14.5t-14.5 -5.5t-14.5 5.5t-5.5 14.5t5.5 14.5t14.5 5.5t14.5 -5.5zM434 802q-16 -36 -44 -55t-65 -19t-61.5 19t-30.5 55l14 11h5
q4 -32 22.5 -48.5t51.5 -16.5q66 0 91 65h5z" />
    <glyph glyph-name="uni1EB0" unicode="&#x1eb0;" horiz-adv-x="524" 
d="M470 0h-23l-6 43l-37 170h-283l-85 -170l-20 -43h-24l319 637h21zM318 603h-3l-184 -370h268zM345 794l-5 -1l-20 21q-31 32 -61 67l-1 5l11 10h5q57 -63 83 -90zM436 783q-16 -36 -44 -55t-65 -19t-61.5 19t-30.5 55l14 11h5q4 -32 22.5 -48.5t51.5 -16.5q66 0 91 65h5z
" />
    <glyph glyph-name="uni1EB2" unicode="&#x1eb2;" horiz-adv-x="524" 
d="M470 0h-23l-6 43l-37 170h-283l-85 -170l-20 -43h-24l319 637h21zM318 603h-3l-184 -370h268zM450 782q-16 -36 -44 -55t-65 -19t-61.5 19t-30.5 55l14 11h5q4 -32 22.5 -48.5t51.5 -16.5q66 0 91 65h5zM319 825q25 16 38 31.5t13 26.5q0 9 -7 14.5t-19 5.5
q-26 0 -54 -23l-8 14q34 29 64 29q19 0 31.5 -11t12.5 -27q0 -29 -48 -65l16 -29l-17 -7z" />
    <glyph glyph-name="uni1EB4" unicode="&#x1eb4;" horiz-adv-x="524" 
d="M470 0h-23l-6 43l-37 170h-283l-85 -170l-20 -43h-24l319 637h21zM318 603h-3l-184 -370h268zM423 782q-16 -36 -44 -55t-65 -19t-61.5 19t-30.5 55l14 11h5q4 -32 22.5 -48.5t51.5 -16.5q66 0 91 65h5zM467 893v-4l-53 -48l-6 -2q-24 3 -81 21q-62 18 -74 18
q-5 0 -13 -6t-17 -16l-21 -19h-4l-9 11v4l53 48l6 2q24 -3 81 -21q62 -18 74 -18q5 0 13 6t17 16l21 19h4z" />
    <glyph glyph-name="uni01CD" unicode="&#x1cd;" horiz-adv-x="524" 
d="M470 0h-23l-6 43l-37 170h-283l-85 -170l-20 -43h-24l319 637h21zM318 603h-3l-184 -370h268zM445 805q-37 -24 -105 -76h-16q-52 45 -92 76l8 14h5q40 -29 87 -70q47 35 103 70h5z" />
    <glyph glyph-name="Acircumflex" unicode="&#xc2;" horiz-adv-x="524" 
d="M470 0h-23l-6 43l-37 170h-283l-85 -170l-20 -43h-24l319 637h21zM318 603h-3l-184 -370h268zM225 743q37 24 105 76h16q52 -45 92 -76l-8 -14h-5q-40 29 -87 70q-47 -35 -103 -70h-5z" />
    <glyph glyph-name="uni1EA4" unicode="&#x1ea4;" horiz-adv-x="524" 
d="M470 0h-23l-6 43l-37 170h-283l-85 -170l-20 -43h-24l319 637h21zM318 603h-3l-184 -370h268zM381 816l70 80l5 -1l11 -9l-1 -5l-68 -76h-6zM222 731q44 28 106 76h16q60 -52 91 -76l-8 -14h-5q-40 29 -87 70q-47 -35 -103 -70h-5z" />
    <glyph glyph-name="uni1EAC" unicode="&#x1eac;" horiz-adv-x="524" 
d="M470 0h-23l-6 43l-37 170h-283l-85 -170l-20 -43h-24l319 637h21zM318 603h-3l-184 -370h268zM240.5 -97.5q5.5 -5.5 5.5 -14.5t-5.5 -14.5t-14.5 -5.5t-14.5 5.5t-5.5 14.5t5.5 14.5t14.5 5.5t14.5 -5.5zM225 743q37 24 105 76h16q52 -45 92 -76l-8 -14h-5
q-40 29 -87 70q-47 -35 -103 -70h-5z" />
    <glyph glyph-name="uni1EA6" unicode="&#x1ea6;" horiz-adv-x="524" 
d="M470 0h-23l-6 43l-37 170h-283l-85 -170l-20 -43h-24l319 637h21zM318 603h-3l-184 -370h268zM363 880l-1 5l11 9l5 1l70 -80l-11 -11h-6zM224 732q44 28 106 76h16q60 -52 91 -76l-8 -14h-5q-40 29 -87 70q-47 -35 -103 -70h-5z" />
    <glyph glyph-name="uni1EA8" unicode="&#x1ea8;" horiz-adv-x="524" 
d="M470 0h-23l-6 43l-37 170h-283l-85 -170l-20 -43h-24l319 637h21zM318 603h-3l-184 -370h268zM244 743q37 24 105 76h16q52 -45 92 -76l-8 -14h-5q-40 29 -87 70q-47 -35 -103 -70h-5zM410 847q25 16 38 31.5t13 26.5q0 9 -7 14.5t-19 5.5q-26 0 -54 -23l-8 14
q34 29 64 29q19 0 31.5 -11t12.5 -27q0 -29 -48 -65l16 -29l-17 -7z" />
    <glyph glyph-name="uni1EAA" unicode="&#x1eaa;" horiz-adv-x="524" 
d="M470 0h-23l-6 43l-37 170h-283l-85 -170l-20 -43h-24l319 637h21zM318 603h-3l-184 -370h268zM216 743q37 24 105 76h16q52 -45 92 -76l-8 -14h-5q-40 29 -87 70q-47 -35 -103 -70h-5zM481 912v-4l-53 -48l-6 -2q-24 3 -81 21q-62 18 -74 18q-5 0 -13 -6t-17 -16l-21 -19
h-4l-9 11v4l53 48l6 2q24 -3 81 -21q62 -18 74 -18q5 0 13 6t17 16l21 19h4z" />
    <glyph glyph-name="uni0200" unicode="&#x200;" horiz-adv-x="524" 
d="M470 0h-23l-6 43l-37 170h-283l-85 -170l-20 -43h-24l319 637h21zM318 603h-3l-184 -370h268zM292 728q-52 48 -104 98l-1 5l10 10l5 1q51 -51 106 -100l-11 -13zM422 728q-52 48 -104 98l-1 5l10 10l5 1q51 -51 106 -100l-11 -13z" />
    <glyph glyph-name="Adieresis" unicode="&#xc4;" horiz-adv-x="524" 
d="M470 0h-23l-6 43l-37 170h-283l-85 -170l-20 -43h-24l319 637h21zM318 603h-3l-184 -370h268zM276.5 795.5q5.5 -5.5 5.5 -14.5t-5.5 -14.5t-14.5 -5.5t-14.5 5.5t-5.5 14.5t5.5 14.5t14.5 5.5t14.5 -5.5zM426.5 795.5q5.5 -5.5 5.5 -14.5t-5.5 -14.5t-14.5 -5.5
t-14.5 5.5t-5.5 14.5t5.5 14.5t14.5 5.5t14.5 -5.5z" />
    <glyph glyph-name="uni1EA0" unicode="&#x1ea0;" horiz-adv-x="524" 
d="M470 0h-23l-6 43l-37 170h-283l-85 -170l-20 -43h-24l319 637h21zM318 603h-3l-184 -370h268zM240.5 -97.5q5.5 -5.5 5.5 -14.5t-5.5 -14.5t-14.5 -5.5t-14.5 5.5t-5.5 14.5t5.5 14.5t14.5 5.5t14.5 -5.5z" />
    <glyph glyph-name="Agrave" unicode="&#xc0;" horiz-adv-x="524" 
d="M470 0h-23l-6 43l-37 170h-283l-85 -170l-20 -43h-24l319 637h21zM318 603h-3l-184 -370h268zM413 742l-7 -15l-5 -3q-107 55 -174 93l-2 5l7 12l5 2q85 -50 176 -94z" />
    <glyph glyph-name="uni1EA2" unicode="&#x1ea2;" horiz-adv-x="524" 
d="M470 0h-23l-6 43l-37 170h-283l-85 -170l-20 -43h-24l319 637h21zM318 603h-3l-184 -370h268zM299 737q25 16 38 31.5t13 26.5q0 9 -7 14.5t-19 5.5q-26 0 -54 -23l-8 14q34 29 64 29q19 0 31.5 -11t12.5 -27q0 -29 -48 -65l16 -29l-17 -7z" />
    <glyph glyph-name="uni0202" unicode="&#x202;" horiz-adv-x="524" 
d="M470 0h-23l-6 43l-37 170h-283l-85 -170l-20 -43h-24l319 637h21zM318 603h-3l-184 -370h268zM235 720q16 54 44 79.5t70 25.5t63 -25.5t25 -79.5l-15 -13h-5q-1 50 -18 74t-53 24q-35 0 -58 -24t-36 -74h-5z" />
    <glyph glyph-name="Amacron" unicode="&#x100;" horiz-adv-x="524" 
d="M470 0h-23l-6 43l-37 170h-283l-85 -170l-20 -43h-24l319 637h21zM318 603h-3l-184 -370h268zM483 789l-2 -17h-287l-3 3l2 17h287z" />
    <glyph glyph-name="Aogonek" unicode="&#x104;" horiz-adv-x="524" 
d="M470 0h-23l-6 43l-37 170h-283l-85 -170l-20 -43h-24l319 637h21zM318 603h-3l-184 -370h268zM407.5 -85.5q-23.5 -33.5 -29 -45.5t-5.5 -23t6.5 -17t17.5 -6q14 0 25 9.5t24 31.5h2l13 -13q-17 -26 -31.5 -37t-33.5 -11q-20 0 -32 10.5t-12 29.5q0 14 7 29t26.5 43
t64.5 85h20q-39 -52 -62.5 -85.5z" />
    <glyph glyph-name="Aring" unicode="&#xc5;" horiz-adv-x="524" 
d="M470 0h-23l-6 43l-37 170h-283l-85 -170l-20 -43h-24l319 637h21zM318 603h-3l-184 -370h268zM388 832q19 -21 19 -49q0 -31 -21.5 -50t-49.5 -19t-49 19.5t-21 50.5q0 30 19.5 49.5t50.5 19.5q33 0 52 -21zM299.5 819.5q-13.5 -13.5 -13.5 -35.5q0 -23 14.5 -36.5
t35.5 -13.5t36 13t15 36q0 21 -13.5 35.5t-37.5 14.5q-23 0 -36.5 -13.5z" />
    <glyph glyph-name="Aringacute" unicode="&#x1fa;" horiz-adv-x="524" 
d="M256 778l-5 15q99 35 186 72l5 -2l5 -13l-2 -5q-66 -27 -184 -71zM470 0h-23l-7 43l-37 170h-283l-85 -170l-19 -43h-24l312 620q-21 6 -35 24t-14 43q0 30 19.5 49.5t50.5 19.5q33 0 52 -21t19 -49t-17.5 -46t-42.5 -22zM289.5 650.5q14.5 -13.5 35.5 -13.5t36 13t15 36
q0 21 -13.5 35.5t-37.5 14.5q-23 0 -36.5 -13.5t-13.5 -35.5q0 -23 14.5 -36.5zM318 603h-3l-185 -370h269z" />
    <glyph glyph-name="Atilde" unicode="&#xc3;" horiz-adv-x="524" 
d="M470 0h-23l-6 43l-37 170h-283l-85 -170l-20 -43h-24l319 637h21zM318 603h-3l-184 -370h268zM476 805v-4l-52 -47l-6 -2q-20 2 -81 20q-6 2 -35 10t-40 8q-5 0 -13 -6t-17 -16l-21 -19h-4l-9 11v4l52 47l6 2q20 -2 81 -20q6 -2 35 -10t40 -8q5 0 13 6t17 16l21 19h4z
" />
    <glyph glyph-name="AE" unicode="&#xc6;" horiz-adv-x="744" 
d="M695 16l-6 -16h-286v43l-8 247l-249 -43l-135 -204l-26 -43h-27l426 637h285l2 -4l-7 -16h-258l9 -304l227 39l2 -3l-5 -17l-224 -38l8 -274h271zM394 310l-9 292h-3l-220 -332z" />
    <glyph glyph-name="AEacute" unicode="&#x1fc;" horiz-adv-x="744" 
d="M695 16l-6 -16h-286v43l-8 247l-249 -43l-135 -204l-26 -43h-27l426 637h285l2 -4l-7 -16h-258l9 -304l227 39l2 -3l-5 -17l-224 -38l8 -274h271zM394 310l-9 292h-3l-220 -332zM623 834l7 -12l-2 -5q-67 -38 -174 -93l-5 3l-7 15q91 44 176 94z" />
    <glyph glyph-name="B" unicode="B" horiz-adv-x="471" 
d="M391.5 290.5q31.5 -34.5 31.5 -92.5q0 -95 -62 -148t-177 -53q-56 0 -104 3l25 195l56 442l116 2q66 0 102 -33t36 -93q0 -67 -29 -112.5t-83 -66.5q57 -9 88.5 -43.5zM144 343l121 -3q62 13 95.5 57.5t33.5 110.5q0 51 -30 80.5t-82 29.5h-103zM344 64q58 47 58 131
q0 55 -33.5 87.5t-96.5 37.5h-131l-16 -125l-22 -175q38 -3 78 -3q105 0 163 47z" />
    <glyph glyph-name="C" unicode="C" horiz-adv-x="497" 
d="M437 625.5q42 -15.5 73 -43.5l-9 -17h-7q-59 56 -146 56q-86 0 -147.5 -44.5t-93.5 -127t-32 -196.5q0 -115 47.5 -176.5t138.5 -61.5q45 0 92 17.5t88 49.5l7 -2l-4 -18q-44 -32 -92 -49.5t-92 -17.5q-100 0 -152.5 66.5t-52.5 189.5q0 121 35 208.5t101 134.5t159 47
q45 0 87 -15.5z" />
    <glyph glyph-name="Cacute" unicode="&#x106;" horiz-adv-x="497" 
d="M437 625.5q42 -15.5 73 -43.5l-9 -17h-7q-59 56 -146 56q-86 0 -147.5 -44.5t-93.5 -127t-32 -196.5q0 -115 47.5 -176.5t138.5 -61.5q45 0 92 17.5t88 49.5l7 -2l-4 -18q-44 -32 -92 -49.5t-92 -17.5q-100 0 -152.5 66.5t-52.5 189.5q0 121 35 208.5t101 134.5t159 47
q45 0 87 -15.5zM442 834l7 -12l-2 -5q-67 -38 -174 -93l-5 3l-7 15q91 44 176 94z" />
    <glyph glyph-name="Ccaron" unicode="&#x10c;" horiz-adv-x="497" 
d="M437 625.5q42 -15.5 73 -43.5l-9 -17h-7q-59 56 -146 56q-86 0 -147.5 -44.5t-93.5 -127t-32 -196.5q0 -115 47.5 -176.5t138.5 -61.5q45 0 92 17.5t88 49.5l7 -2l-4 -18q-44 -32 -92 -49.5t-92 -17.5q-100 0 -152.5 66.5t-52.5 189.5q0 121 35 208.5t101 134.5t159 47
q45 0 87 -15.5zM461 805q-37 -24 -105 -76h-16q-52 45 -92 76l8 14h5q40 -29 87 -70q47 35 103 70h5z" />
    <glyph glyph-name="Ccedilla" unicode="&#xc7;" horiz-adv-x="497" 
d="M437 625.5q42 -15.5 73 -43.5l-9 -17h-7q-59 56 -146 56q-86 0 -147.5 -44.5t-93.5 -127t-32 -196.5q0 -115 47.5 -176.5t138.5 -61.5q45 0 92 17.5t88 49.5l7 -2l-4 -18q-44 -32 -92 -49.5t-92 -17.5q-100 0 -152.5 66.5t-52.5 189.5q0 121 35 208.5t101 134.5t159 47
q45 0 87 -15.5zM268 -55l31 -20q17 -11 25 -22.5t8 -27.5q0 -24 -17.5 -38.5t-42.5 -14.5q-37 0 -59 33l6 18h4q10 -16 21 -23.5t28 -7.5q18 0 29 8.5t11 24.5q0 11 -5.5 17.5t-18.5 15.5l-43 28l24 75h20z" />
    <glyph glyph-name="uni1E08" unicode="&#x1e08;" horiz-adv-x="497" 
d="M437 625.5q42 -15.5 73 -43.5l-9 -17h-7q-59 56 -146 56q-86 0 -147.5 -44.5t-93.5 -127t-32 -196.5q0 -115 47.5 -176.5t138.5 -61.5q45 0 92 17.5t88 49.5l7 -2l-4 -18q-44 -32 -92 -49.5t-92 -17.5q-100 0 -152.5 66.5t-52.5 189.5q0 121 35 208.5t101 134.5t159 47
q45 0 87 -15.5zM268 -55l31 -20q17 -11 25 -22.5t8 -27.5q0 -24 -17.5 -38.5t-42.5 -14.5q-37 0 -59 33l6 18h4q10 -16 21 -23.5t28 -7.5q18 0 29 8.5t11 24.5q0 11 -5.5 17.5t-18.5 15.5l-43 28l24 75h20zM442 834l7 -12l-2 -5q-67 -38 -174 -93l-5 3l-7 15q91 44 176 94z
" />
    <glyph glyph-name="Ccircumflex" unicode="&#x108;" horiz-adv-x="497" 
d="M437 625.5q42 -15.5 73 -43.5l-9 -17h-7q-59 56 -146 56q-86 0 -147.5 -44.5t-93.5 -127t-32 -196.5q0 -115 47.5 -176.5t138.5 -61.5q45 0 92 17.5t88 49.5l7 -2l-4 -18q-44 -32 -92 -49.5t-92 -17.5q-100 0 -152.5 66.5t-52.5 189.5q0 121 35 208.5t101 134.5t159 47
q45 0 87 -15.5zM241 743q37 24 105 76h16q52 -45 92 -76l-8 -14h-5q-40 29 -87 70q-47 -35 -103 -70h-5z" />
    <glyph glyph-name="Cdotaccent" unicode="&#x10a;" horiz-adv-x="497" 
d="M437 625.5q42 -15.5 73 -43.5l-9 -17h-7q-59 56 -146 56q-86 0 -147.5 -44.5t-93.5 -127t-32 -196.5q0 -115 47.5 -176.5t138.5 -61.5q45 0 92 17.5t88 49.5l7 -2l-4 -18q-44 -32 -92 -49.5t-92 -17.5q-100 0 -152.5 66.5t-52.5 189.5q0 121 35 208.5t101 134.5t159 47
q45 0 87 -15.5zM369.5 810.5q5.5 -5.5 5.5 -14.5t-5.5 -14.5t-14.5 -5.5t-14.5 5.5t-5.5 14.5t5.5 14.5t14.5 5.5t14.5 -5.5z" />
    <glyph glyph-name="D" unicode="D" horiz-adv-x="609" 
d="M520 577.5q59 -64.5 59 -184.5q0 -121 -37.5 -210.5t-109.5 -138.5t-172 -49q-32 0 -85 1.5t-95 3.5l25 195l55 442l190 5q111 0 170 -64.5zM421.5 61q66.5 46 101.5 130.5t35 198.5q0 112 -54 172t-156 60q-30 0 -80.5 -1.5t-89.5 -3.5l-53 -422l-23 -176l56 -2l105 -2
q92 0 158.5 46z" />
    <glyph glyph-name="uni01C4" unicode="&#x1c4;" horiz-adv-x="1091" 
d="M520 577.5q59 -64.5 59 -184.5q0 -121 -37.5 -210.5t-109.5 -138.5t-172 -49q-32 0 -85 1.5t-95 3.5l25 195l55 442l190 5q111 0 170 -64.5zM421.5 61q66.5 46 101.5 130.5t35 198.5q0 112 -54 172t-156 60q-30 0 -80.5 -1.5t-89.5 -3.5l-53 -422l-23 -176l56 -2l105 -2
q92 0 158.5 46zM1096 620l-453 -600h310l65 1l4 -5l-6 -16h-368l-34 -1l2 18l453 600h-300l-55 -1l-4 5l6 17l61 -1h286l35 1zM998 805q-37 -24 -105 -76h-16q-52 45 -92 76l8 14h5q40 -29 87 -70q47 35 103 70h5z" />
    <glyph glyph-name="Eth" unicode="&#xd0;" horiz-adv-x="630" 
d="M540 577.5q59 -64.5 59 -184.5q0 -121 -37.5 -210.5t-109.5 -138.5t-172 -49q-32 0 -85 1.5t-95 3.5l25 195l55 442l190 5q111 0 170 -64.5zM441.5 61q66.5 46 101.5 130.5t35 198.5q0 112 -54 172t-156 60q-30 0 -80.5 -1.5t-89.5 -3.5l-53 -422l-23 -176l56 -2l105 -2
q92 0 158.5 46zM329.387 336l-2.40039 -17h-310.188l-1.19922 3l2.39941 17h310.188z" />
    <glyph glyph-name="Dcaron" unicode="&#x10e;" horiz-adv-x="609" 
d="M520 577.5q59 -64.5 59 -184.5q0 -121 -37.5 -210.5t-109.5 -138.5t-172 -49q-32 0 -85 1.5t-95 3.5l25 195l55 442l190 5q111 0 170 -64.5zM421.5 61q66.5 46 101.5 130.5t35 198.5q0 112 -54 172t-156 60q-30 0 -80.5 -1.5t-89.5 -3.5l-53 -422l-23 -176l56 -2l105 -2
q92 0 158.5 46zM460 805q-37 -24 -105 -76h-16q-52 45 -92 76l8 14h5q40 -29 87 -70q47 35 103 70h5z" />
    <glyph glyph-name="Dcroat" unicode="&#x110;" horiz-adv-x="630" 
d="M540 577.5q59 -64.5 59 -184.5q0 -121 -37.5 -210.5t-109.5 -138.5t-172 -49q-32 0 -85 1.5t-95 3.5l25 195l55 442l190 5q111 0 170 -64.5zM441.5 61q66.5 46 101.5 130.5t35 198.5q0 112 -54 172t-156 60q-30 0 -80.5 -1.5t-89.5 -3.5l-53 -422l-23 -176l56 -2l105 -2
q92 0 158.5 46zM329.387 336l-2.40039 -17h-310.188l-1.19922 3l2.39941 17h310.188z" />
    <glyph glyph-name="uni1E0C" unicode="&#x1e0c;" horiz-adv-x="609" 
d="M520 577.5q59 -64.5 59 -184.5q0 -121 -37.5 -210.5t-109.5 -138.5t-172 -49q-32 0 -85 1.5t-95 3.5l25 195l55 442l190 5q111 0 170 -64.5zM421.5 61q66.5 46 101.5 130.5t35 198.5q0 112 -54 172t-156 60q-30 0 -80.5 -1.5t-89.5 -3.5l-53 -422l-23 -176l56 -2l105 -2
q92 0 158.5 46zM283.5 -97.5q5.5 -5.5 5.5 -14.5t-5.5 -14.5t-14.5 -5.5t-14.5 5.5t-5.5 14.5t5.5 14.5t14.5 5.5t14.5 -5.5z" />
    <glyph glyph-name="uni1E0E" unicode="&#x1e0e;" horiz-adv-x="609" 
d="M520 577.5q59 -64.5 59 -184.5q0 -121 -37.5 -210.5t-109.5 -138.5t-172 -49q-32 0 -85 1.5t-95 3.5l25 195l55 442l190 5q111 0 170 -64.5zM421.5 61q66.5 46 101.5 130.5t35 198.5q0 112 -54 172t-156 60q-30 0 -80.5 -1.5t-89.5 -3.5l-53 -422l-23 -176l56 -2l105 -2
q92 0 158.5 46zM366 -130l-2 -17h-207l-3 3l2 17h207z" />
    <glyph glyph-name="uni01C5" unicode="&#x1c5;" horiz-adv-x="1002" 
d="M520 577.5q59 -64.5 59 -184.5q0 -121 -37.5 -210.5t-109.5 -138.5t-172 -49q-32 0 -85 1.5t-95 3.5l25 195l55 442l190 5q111 0 170 -64.5zM421.5 61q66.5 46 101.5 130.5t35 198.5q0 112 -54 172t-156 60q-30 0 -80.5 -1.5t-89.5 -3.5l-53 -422l-23 -176l56 -2l105 -2
q92 0 158.5 46zM967 455l-313 -416l27 5q21 0 44 -8t27 -9q43 -17 69 -17q52 0 79.5 39.5t32.5 119.5l9 1l10 -11q-9 -169 -133 -169q-26 0 -71 17q-18 6 -37.5 11t-34.5 5q-36 0 -61 -28h-3l-9 8l323 429h-200l-42 -1l-2 4l4 17l2 2l46 -2h205l17 12zM961 646
q-42 -41 -115 -126h-18q-49 78 -87 126l11 12h5q39 -50 81 -117q59 68 110 117h5z" />
    <glyph glyph-name="E" unicode="E" horiz-adv-x="432" 
d="M143 340h223l3 -4l-6 -16h-222l-16 -125l-22 -175h273l3 -4l-6 -16h-293l25 195l55 442h291l2 -4l-6 -16h-269z" />
    <glyph glyph-name="Eacute" unicode="&#xc9;" horiz-adv-x="432" 
d="M143 340h223l3 -4l-6 -16h-222l-16 -125l-22 -175h273l3 -4l-6 -16h-293l25 195l55 442h291l2 -4l-6 -16h-269zM418 834l7 -12l-2 -5q-67 -38 -174 -93l-5 3l-7 15q91 44 176 94z" />
    <glyph glyph-name="Ebreve" unicode="&#x114;" horiz-adv-x="432" 
d="M143 340h223l3 -4l-6 -16h-222l-16 -125l-22 -175h273l3 -4l-6 -16h-293l25 195l55 442h291l2 -4l-6 -16h-269zM426 802q-16 -36 -44 -55t-65 -19t-61.5 19t-30.5 55l14 11h5q4 -32 22.5 -48.5t51.5 -16.5q66 0 91 65h5z" />
    <glyph glyph-name="Ecaron" unicode="&#x11a;" horiz-adv-x="432" 
d="M143 340h223l3 -4l-6 -16h-222l-16 -125l-22 -175h273l3 -4l-6 -16h-293l25 195l55 442h291l2 -4l-6 -16h-269zM437 805q-37 -24 -105 -76h-16q-52 45 -92 76l8 14h5q40 -29 87 -70q47 35 103 70h5z" />
    <glyph glyph-name="uni1E1C" unicode="&#x1e1c;" horiz-adv-x="432" 
d="M143 340h223l3 -4l-6 -16h-222l-16 -125l-22 -175h273l3 -4l-6 -16h-293l25 195l55 442h291l2 -4l-6 -16h-269zM240 -55l31 -20q17 -11 25 -22.5t8 -27.5q0 -24 -17.5 -38.5t-42.5 -14.5q-37 0 -59 33l6 18h4q10 -16 21 -23.5t28 -7.5q18 0 29 8.5t11 24.5
q0 11 -5.5 17.5t-18.5 15.5l-43 28l24 75h20zM426 802q-16 -36 -44 -55t-65 -19t-61.5 19t-30.5 55l14 11h5q4 -32 22.5 -48.5t51.5 -16.5q66 0 91 65h5z" />
    <glyph glyph-name="Ecircumflex" unicode="&#xca;" horiz-adv-x="432" 
d="M143 340h223l3 -4l-6 -16h-222l-16 -125l-22 -175h273l3 -4l-6 -16h-293l25 195l55 442h291l2 -4l-6 -16h-269zM217 743q37 24 105 76h16q52 -45 92 -76l-8 -14h-5q-40 29 -87 70q-47 -35 -103 -70h-5z" />
    <glyph glyph-name="uni1EBE" unicode="&#x1ebe;" horiz-adv-x="432" 
d="M143 340h223l3 -4l-6 -16h-222l-16 -125l-22 -175h273l3 -4l-6 -16h-293l25 195l55 442h291l2 -4l-6 -16h-269zM373 816l70 80l5 -1l11 -9l-1 -5l-68 -76h-6zM214 731q44 28 106 76h16q60 -52 91 -76l-8 -14h-5q-40 29 -87 70q-47 -35 -103 -70h-5z" />
    <glyph glyph-name="uni1EC6" unicode="&#x1ec6;" horiz-adv-x="432" 
d="M143 340h223l3 -4l-6 -16h-222l-16 -125l-22 -175h273l3 -4l-6 -16h-293l25 195l55 442h291l2 -4l-6 -16h-269zM256.5 -97.5q5.5 -5.5 5.5 -14.5t-5.5 -14.5t-14.5 -5.5t-14.5 5.5t-5.5 14.5t5.5 14.5t14.5 5.5t14.5 -5.5zM217 743q37 24 105 76h16q52 -45 92 -76l-8 -14
h-5q-40 29 -87 70q-47 -35 -103 -70h-5z" />
    <glyph glyph-name="uni1EC0" unicode="&#x1ec0;" horiz-adv-x="432" 
d="M143 340h223l3 -4l-6 -16h-222l-16 -125l-22 -175h273l3 -4l-6 -16h-293l25 195l55 442h291l2 -4l-6 -16h-269zM355 880l-1 5l11 9l5 1l70 -80l-11 -11h-6zM216 732q44 28 106 76h16q60 -52 91 -76l-8 -14h-5q-40 29 -87 70q-47 -35 -103 -70h-5z" />
    <glyph glyph-name="uni1EC2" unicode="&#x1ec2;" horiz-adv-x="432" 
d="M143 340h223l3 -4l-6 -16h-222l-16 -125l-22 -175h273l3 -4l-6 -16h-293l25 195l55 442h291l2 -4l-6 -16h-269zM236 743q37 24 105 76h16q52 -45 92 -76l-8 -14h-5q-40 29 -87 70q-47 -35 -103 -70h-5zM402 847q25 16 38 31.5t13 26.5q0 9 -7 14.5t-19 5.5q-26 0 -54 -23
l-8 14q34 29 64 29q19 0 31.5 -11t12.5 -27q0 -29 -48 -65l16 -29l-17 -7z" />
    <glyph glyph-name="uni1EC4" unicode="&#x1ec4;" horiz-adv-x="432" 
d="M143 340h223l3 -4l-6 -16h-222l-16 -125l-22 -175h273l3 -4l-6 -16h-293l25 195l55 442h291l2 -4l-6 -16h-269zM208 743q37 24 105 76h16q52 -45 92 -76l-8 -14h-5q-40 29 -87 70q-47 -35 -103 -70h-5zM473 912v-4l-53 -48l-6 -2q-24 3 -81 21q-62 18 -74 18q-5 0 -13 -6
t-17 -16l-21 -19h-4l-9 11v4l53 48l6 2q24 -3 81 -21q62 -18 74 -18q5 0 13 6t17 16l21 19h4z" />
    <glyph glyph-name="uni0204" unicode="&#x204;" horiz-adv-x="432" 
d="M143 340h223l3 -4l-6 -16h-222l-16 -125l-22 -175h273l3 -4l-6 -16h-293l25 195l55 442h291l2 -4l-6 -16h-269zM284 728q-52 48 -104 98l-1 5l10 10l5 1q51 -51 106 -100l-11 -13zM414 728q-52 48 -104 98l-1 5l10 10l5 1q51 -51 106 -100l-11 -13z" />
    <glyph glyph-name="Edieresis" unicode="&#xcb;" horiz-adv-x="432" 
d="M143 340h223l3 -4l-6 -16h-222l-16 -125l-22 -175h273l3 -4l-6 -16h-293l25 195l55 442h291l2 -4l-6 -16h-269zM268.5 795.5q5.5 -5.5 5.5 -14.5t-5.5 -14.5t-14.5 -5.5t-14.5 5.5t-5.5 14.5t5.5 14.5t14.5 5.5t14.5 -5.5zM418.5 795.5q5.5 -5.5 5.5 -14.5t-5.5 -14.5
t-14.5 -5.5t-14.5 5.5t-5.5 14.5t5.5 14.5t14.5 5.5t14.5 -5.5z" />
    <glyph glyph-name="Edotaccent" unicode="&#x116;" horiz-adv-x="432" 
d="M143 340h223l3 -4l-6 -16h-222l-16 -125l-22 -175h273l3 -4l-6 -16h-293l25 195l55 442h291l2 -4l-6 -16h-269zM345.5 810.5q5.5 -5.5 5.5 -14.5t-5.5 -14.5t-14.5 -5.5t-14.5 5.5t-5.5 14.5t5.5 14.5t14.5 5.5t14.5 -5.5z" />
    <glyph glyph-name="uni1EB8" unicode="&#x1eb8;" horiz-adv-x="432" 
d="M143 340h223l3 -4l-6 -16h-222l-16 -125l-22 -175h273l3 -4l-6 -16h-293l25 195l55 442h291l2 -4l-6 -16h-269zM256.5 -97.5q5.5 -5.5 5.5 -14.5t-5.5 -14.5t-14.5 -5.5t-14.5 5.5t-5.5 14.5t5.5 14.5t14.5 5.5t14.5 -5.5z" />
    <glyph glyph-name="Egrave" unicode="&#xc8;" horiz-adv-x="432" 
d="M143 340h223l3 -4l-6 -16h-222l-16 -125l-22 -175h273l3 -4l-6 -16h-293l25 195l55 442h291l2 -4l-6 -16h-269zM405 742l-7 -15l-5 -3q-107 55 -174 93l-2 5l7 12l5 2q85 -50 176 -94z" />
    <glyph glyph-name="uni1EBA" unicode="&#x1eba;" horiz-adv-x="432" 
d="M143 340h223l3 -4l-6 -16h-222l-16 -125l-22 -175h273l3 -4l-6 -16h-293l25 195l55 442h291l2 -4l-6 -16h-269zM291 737q25 16 38 31.5t13 26.5q0 9 -7 14.5t-19 5.5q-26 0 -54 -23l-8 14q34 29 64 29q19 0 31.5 -11t12.5 -27q0 -29 -48 -65l16 -29l-17 -7z" />
    <glyph glyph-name="uni0206" unicode="&#x206;" horiz-adv-x="432" 
d="M143 340h223l3 -4l-6 -16h-222l-16 -125l-22 -175h273l3 -4l-6 -16h-293l25 195l55 442h291l2 -4l-6 -16h-269zM227 720q16 54 44 79.5t70 25.5t63 -25.5t25 -79.5l-15 -13h-5q-1 50 -18 74t-53 24q-35 0 -58 -24t-36 -74h-5z" />
    <glyph glyph-name="Emacron" unicode="&#x112;" horiz-adv-x="432" 
d="M143 340h223l3 -4l-6 -16h-222l-16 -125l-22 -175h273l3 -4l-6 -16h-293l25 195l55 442h291l2 -4l-6 -16h-269zM475 789l-2 -17h-287l-3 3l2 17h287z" />
    <glyph glyph-name="uni1E16" unicode="&#x1e16;" horiz-adv-x="432" 
d="M143 340h223l3 -4l-6 -16h-222l-16 -125l-22 -175h273l3 -4l-6 -16h-293l25 195l55 442h291l2 -4l-6 -16h-269zM433 898l5 -13l-3 -5q-80 -29 -187 -61l-5 4l-4 16q93 26 190 62zM440 759l-2 -17h-207l-3 3l2 17h207z" />
    <glyph glyph-name="uni1E14" unicode="&#x1e14;" horiz-adv-x="432" 
d="M143 340h223l3 -4l-6 -16h-222l-16 -125l-22 -175h273l3 -4l-6 -16h-293l25 195l55 442h291l2 -4l-6 -16h-269zM246 880l-3 5l5 13l4 3q97 -36 190 -62l-4 -16l-5 -4q-107 32 -187 61zM437 759l-2 -17h-207l-3 3l2 17h207z" />
    <glyph glyph-name="Eogonek" unicode="&#x118;" horiz-adv-x="432" 
d="M143 340h223l3 -4l-6 -16h-222l-16 -125l-22 -175h273l3 -4l-6 -16h-293l25 195l55 442h291l2 -4l-6 -16h-269zM262.5 -190.5q-17.5 17.5 -17.5 47.5q0 20 10.5 38.5t50.5 72.5l31 42h24q-18 -22 -28 -38q-44 -58 -55.5 -76.5t-11.5 -36.5q0 -21 11.5 -33.5t32.5 -12.5
t42 13.5t39 38.5h2l11 -16q-44 -57 -95 -57q-29 0 -46.5 17.5z" />
    <glyph glyph-name="F" unicode="F" horiz-adv-x="394" 
d="M142 330h214l2 -4l-6 -16h-213l-14 -115l-25 -195h-20l25 195l55 442h281l3 -4l-6 -16h-260z" />
    <glyph glyph-name="G" unicode="G" horiz-adv-x="575" 
d="M461.5 627q42.5 -14 80.5 -40l-8 -18h-7q-76 52 -152 52q-94 0 -161.5 -44t-103 -127t-35.5 -198q0 -114 49 -175.5t142 -61.5q44 0 82.5 6.5t98.5 23.5l15 113l10 89l20 2l-10 -91l-17 -128q-67 -20 -108 -27t-91 -7q-103 0 -157 66t-54 188t38.5 210t111 134.5
t173.5 46.5q41 0 83.5 -14z" />
    <glyph glyph-name="Gbreve" unicode="&#x11e;" horiz-adv-x="575" 
d="M461.5 627q42.5 -14 80.5 -40l-8 -18h-7q-76 52 -152 52q-94 0 -161.5 -44t-103 -127t-35.5 -198q0 -114 49 -175.5t142 -61.5q44 0 82.5 6.5t98.5 23.5l15 113l10 89l20 2l-10 -91l-17 -128q-67 -20 -108 -27t-91 -7q-103 0 -157 66t-54 188t38.5 210t111 134.5
t173.5 46.5q41 0 83.5 -14zM459 802q-16 -36 -44 -55t-65 -19t-61.5 19t-30.5 55l14 11h5q4 -32 22.5 -48.5t51.5 -16.5q66 0 91 65h5z" />
    <glyph glyph-name="Gcaron" unicode="&#x1e6;" horiz-adv-x="575" 
d="M461.5 627q42.5 -14 80.5 -40l-8 -18h-7q-76 52 -152 52q-94 0 -161.5 -44t-103 -127t-35.5 -198q0 -114 49 -175.5t142 -61.5q44 0 82.5 6.5t98.5 23.5l15 113l10 89l20 2l-10 -91l-17 -128q-67 -20 -108 -27t-91 -7q-103 0 -157 66t-54 188t38.5 210t111 134.5
t173.5 46.5q41 0 83.5 -14zM470 805q-37 -24 -105 -76h-16q-52 45 -92 76l8 14h5q40 -29 87 -70q47 35 103 70h5z" />
    <glyph glyph-name="Gcircumflex" unicode="&#x11c;" horiz-adv-x="575" 
d="M461.5 627q42.5 -14 80.5 -40l-8 -18h-7q-76 52 -152 52q-94 0 -161.5 -44t-103 -127t-35.5 -198q0 -114 49 -175.5t142 -61.5q44 0 82.5 6.5t98.5 23.5l15 113l10 89l20 2l-10 -91l-17 -128q-67 -20 -108 -27t-91 -7q-103 0 -157 66t-54 188t38.5 210t111 134.5
t173.5 46.5q41 0 83.5 -14zM250 743q37 24 105 76h16q52 -45 92 -76l-8 -14h-5q-40 29 -87 70q-47 -35 -103 -70h-5z" />
    <glyph glyph-name="Gcommaaccent" unicode="&#x122;" horiz-adv-x="575" 
d="M461.5 627q42.5 -14 80.5 -40l-8 -18h-7q-76 52 -152 52q-94 0 -161.5 -44t-103 -127t-35.5 -198q0 -114 49 -175.5t142 -61.5q44 0 82.5 6.5t98.5 23.5l15 113l10 89l20 2l-10 -91l-17 -128q-67 -20 -108 -27t-91 -7q-103 0 -157 66t-54 188t38.5 210t111 134.5
t173.5 46.5q41 0 83.5 -14zM354 -117q0 -20 -17 -44t-49 -49l-10 11l1 3q26 19 40 39.5t14 38.5q0 20 -30 34v4q5 7 13 11q38 -17 38 -48z" />
    <glyph glyph-name="Gdotaccent" unicode="&#x120;" horiz-adv-x="575" 
d="M461.5 627q42.5 -14 80.5 -40l-8 -18h-7q-76 52 -152 52q-94 0 -161.5 -44t-103 -127t-35.5 -198q0 -114 49 -175.5t142 -61.5q44 0 82.5 6.5t98.5 23.5l15 113l10 89l20 2l-10 -91l-17 -128q-67 -20 -108 -27t-91 -7q-103 0 -157 66t-54 188t38.5 210t111 134.5
t173.5 46.5q41 0 83.5 -14zM378.5 810.5q5.5 -5.5 5.5 -14.5t-5.5 -14.5t-14.5 -5.5t-14.5 5.5t-5.5 14.5t5.5 14.5t14.5 5.5t14.5 -5.5z" />
    <glyph glyph-name="uni1E20" unicode="&#x1e20;" horiz-adv-x="575" 
d="M461.5 627q42.5 -14 80.5 -40l-8 -18h-7q-76 52 -152 52q-94 0 -161.5 -44t-103 -127t-35.5 -198q0 -114 49 -175.5t142 -61.5q44 0 82.5 6.5t98.5 23.5l15 113l10 89l20 2l-10 -91l-17 -128q-67 -20 -108 -27t-91 -7q-103 0 -157 66t-54 188t38.5 210t111 134.5
t173.5 46.5q41 0 83.5 -14zM508 789l-2 -17h-287l-3 3l2 17h287z" />
    <glyph glyph-name="H" unicode="H" horiz-adv-x="640" 
d="M585 637l-55 -442l-25 -195h-20l25 195l15 119h-385l-15 -119l-25 -195h-20l25 195l55 442h20l-38 -303h385l38 303h20z" />
    <glyph glyph-name="Hbar" unicode="&#x126;" horiz-adv-x="661" 
d="M638 484h-63l-36 -289l-25 -195h-20l25 195l15 119h-385l-15 -119l-25 -195h-20l25 195l36 289h-63l-3 3l2 17h66l17 133h20l-17 -133h385l17 133h20l-17 -133h60l3 -3zM555 484h-385l-19 -150h385z" />
    <glyph glyph-name="uni1E2A" unicode="&#x1e2a;" horiz-adv-x="640" 
d="M585 637l-55 -442l-25 -195h-20l25 195l15 119h-385l-15 -119l-25 -195h-20l25 195l55 442h20l-38 -303h385l38 303h20zM377 -81q-16 -54 -44 -79.5t-70 -25.5t-63 25.5t-25 79.5l15 13h5q1 -50 18 -74t53 -24q35 0 58 24t36 74h5z" />
    <glyph glyph-name="Hcircumflex" unicode="&#x124;" horiz-adv-x="640" 
d="M585 637l-55 -442l-25 -195h-20l25 195l15 119h-385l-15 -119l-25 -195h-20l25 195l55 442h20l-38 -303h385l38 303h20zM277 743q37 24 105 76h16q52 -45 92 -76l-8 -14h-5q-40 29 -87 70q-47 -35 -103 -70h-5z" />
    <glyph glyph-name="uni1E24" unicode="&#x1e24;" horiz-adv-x="640" 
d="M585 637l-55 -442l-25 -195h-20l25 195l15 119h-385l-15 -119l-25 -195h-20l25 195l55 442h20l-38 -303h385l38 303h20zM298.5 -97.5q5.5 -5.5 5.5 -14.5t-5.5 -14.5t-14.5 -5.5t-14.5 5.5t-5.5 14.5t5.5 14.5t14.5 5.5t14.5 -5.5z" />
    <glyph glyph-name="I" unicode="I" horiz-adv-x="235" 
d="M125 195l-25 -195h-20l25 195l55 442h20z" />
    <glyph glyph-name="IJ" unicode="&#x132;" horiz-adv-x="495" 
d="M125 195l-25 -195h-20l25 195l55 442h20zM382 212l-12 -97q-9 -70 -44 -118.5t-109 -94.5l-9 11v6q68 42 102 88t41 108l11 93l51 409h-125l-4 4l5 16h146z" />
    <glyph glyph-name="Iacute" unicode="&#xcd;" horiz-adv-x="235" 
d="M125 195l-25 -195h-20l25 195l55 442h20zM275 834l7 -12l-2 -5q-67 -38 -174 -93l-5 3l-7 15q91 44 176 94z" />
    <glyph glyph-name="Ibreve" unicode="&#x12c;" horiz-adv-x="235" 
d="M125 195l-25 -195h-20l25 195l55 442h20zM283 802q-16 -36 -44 -55t-65 -19t-61.5 19t-30.5 55l14 11h5q4 -32 22.5 -48.5t51.5 -16.5q66 0 91 65h5z" />
    <glyph glyph-name="uni01CF" unicode="&#x1cf;" horiz-adv-x="235" 
d="M125 195l-25 -195h-20l25 195l55 442h20zM294 805q-37 -24 -105 -76h-16q-52 45 -92 76l8 14h5q40 -29 87 -70q47 35 103 70h5z" />
    <glyph glyph-name="Icircumflex" unicode="&#xce;" horiz-adv-x="235" 
d="M125 195l-25 -195h-20l25 195l55 442h20zM74 743q37 24 105 76h16q52 -45 92 -76l-8 -14h-5q-40 29 -87 70q-47 -35 -103 -70h-5z" />
    <glyph glyph-name="uni0208" unicode="&#x208;" horiz-adv-x="235" 
d="M125 195l-25 -195h-20l25 195l55 442h20zM141 728q-52 48 -104 98l-1 5l10 10l5 1q51 -51 106 -100l-11 -13zM271 728q-52 48 -104 98l-1 5l10 10l5 1q51 -51 106 -100l-11 -13z" />
    <glyph glyph-name="uni1E2E" unicode="&#x1e2e;" horiz-adv-x="235" 
d="M125 195l-25 -195h-20l25 195l55 442h20zM274 908l5 -13l-3 -5q-80 -29 -187 -61l-5 4l-4 16q93 26 190 62zM111.5 774.5q5.5 -5.5 5.5 -14.5t-5.5 -14.5t-14.5 -5.5t-14.5 5.5t-5.5 14.5t5.5 14.5t14.5 5.5t14.5 -5.5zM251.5 774.5q5.5 -5.5 5.5 -14.5t-5.5 -14.5
t-14.5 -5.5t-14.5 5.5t-5.5 14.5t5.5 14.5t14.5 5.5t14.5 -5.5z" />
    <glyph glyph-name="Idotaccent" unicode="&#x130;" horiz-adv-x="235" 
d="M125 195l-25 -195h-20l25 195l55 442h20zM202.5 810.5q5.5 -5.5 5.5 -14.5t-5.5 -14.5t-14.5 -5.5t-14.5 5.5t-5.5 14.5t5.5 14.5t14.5 5.5t14.5 -5.5z" />
    <glyph glyph-name="uni1ECA" unicode="&#x1eca;" horiz-adv-x="235" 
d="M125 195l-25 -195h-20l25 195l55 442h20zM96.5 -97.5q5.5 -5.5 5.5 -14.5t-5.5 -14.5t-14.5 -5.5t-14.5 5.5t-5.5 14.5t5.5 14.5t14.5 5.5t14.5 -5.5z" />
    <glyph glyph-name="Igrave" unicode="&#xcc;" horiz-adv-x="235" 
d="M125 195l-25 -195h-20l25 195l55 442h20zM262 742l-7 -15l-5 -3q-107 55 -174 93l-2 5l7 12l5 2q85 -50 176 -94z" />
    <glyph glyph-name="uni1EC8" unicode="&#x1ec8;" horiz-adv-x="235" 
d="M125 195l-25 -195h-20l25 195l55 442h20zM148 737q25 16 38 31.5t13 26.5q0 9 -7 14.5t-19 5.5q-26 0 -54 -23l-8 14q34 29 64 29q19 0 31.5 -11t12.5 -27q0 -29 -48 -65l16 -29l-17 -7z" />
    <glyph glyph-name="uni020A" unicode="&#x20a;" horiz-adv-x="235" 
d="M125 195l-25 -195h-20l25 195l55 442h20zM84 720q16 54 44 79.5t70 25.5t63 -25.5t25 -79.5l-15 -13h-5q-1 50 -18 74t-53 24q-35 0 -58 -24t-36 -74h-5z" />
    <glyph glyph-name="Imacron" unicode="&#x12a;" horiz-adv-x="235" 
d="M125 195l-25 -195h-20l25 195l55 442h20zM292 789l-2 -17h-207l-3 3l2 17h207z" />
    <glyph glyph-name="Iogonek" unicode="&#x12e;" horiz-adv-x="235" 
d="M125 195l-25 -195h-20l25 195l55 442h20zM37.5 -85.5q-23.5 -33.5 -29 -45.5t-5.5 -23t6.5 -17t17.5 -6q14 0 25 9.5t24 31.5h2l13 -13q-17 -26 -31.5 -37t-33.5 -11q-20 0 -32 10.5t-12 29.5q0 14 7 29t26.5 43t64.5 85h20q-39 -52 -62.5 -85.5z" />
    <glyph glyph-name="J" unicode="J" horiz-adv-x="260" 
d="M147 212l-12 -97q-9 -70 -44 -118.5t-109 -94.5l-9 11v6q68 42 102 88t41 108l11 93l51 409h-125l-4 4l5 16h146z" />
    <glyph glyph-name="Jcircumflex" unicode="&#x134;" horiz-adv-x="260" 
d="M147 212l-12 -97q-9 -70 -44 -118.5t-109 -94.5l-9 11v6q68 42 102 88t41 108l11 93l51 409h-125l-4 4l5 16h146zM37 743q37 24 105 76h16q52 -45 92 -76l-8 -14h-5q-40 29 -87 70q-47 -35 -103 -70h-5z" />
    <glyph glyph-name="K" unicode="K" horiz-adv-x="483" 
d="M125 195l-25 -195h-20l25 195l56 442h20zM198 339q116 -177 248 -334v-4q-4 -4 -14 -8l-4 1q-149 179 -258 345v3l265 248l47 47h32z" />
    <glyph glyph-name="Kcommaaccent" unicode="&#x136;" horiz-adv-x="483" 
d="M125 195l-25 -195h-20l25 195l56 442h20zM198 339q116 -177 248 -334v-4q-4 -4 -14 -8l-4 1q-149 179 -258 345v3l265 248l47 47h32zM300 -117q0 -20 -17 -44t-49 -49l-10 11l1 3q26 19 40 39.5t14 38.5q0 20 -30 34v4q5 7 13 11q38 -17 38 -48z" />
    <glyph glyph-name="L" unicode="L" horiz-adv-x="382" 
d="M351 16l-6 -16h-264l25 195l55 442h20l-55 -442l-22 -175h244z" />
    <glyph glyph-name="uni01C7" unicode="&#x1c7;" horiz-adv-x="642" 
d="M351 16l-6 -16h-264l25 195l55 442h20l-55 -442l-22 -175h244zM529 212l-12 -97q-9 -70 -44 -118.5t-109 -94.5l-9 11v6q68 42 102 88t41 108l11 93l51 409h-125l-4 4l5 16h146z" />
    <glyph glyph-name="Lacute" unicode="&#x139;" horiz-adv-x="382" 
d="M351 16l-6 -16h-264l25 195l55 442h20l-55 -442l-22 -175h244zM280 834l7 -12l-2 -5q-67 -38 -174 -93l-5 3l-7 15q91 44 176 94z" />
    <glyph glyph-name="Lcaron" unicode="&#x13d;" horiz-adv-x="425" 
d="M351 16l-6 -16h-264l25 195l55 442h20l-55 -442l-22 -175h244zM394 586l-29 -144l-18 -2l-2 4l29 144l18 2z" />
    <glyph glyph-name="Lcommaaccent" unicode="&#x13b;" horiz-adv-x="382" 
d="M351 16l-6 -16h-264l25 195l55 442h20l-55 -442l-22 -175h244zM236 -117q0 -20 -17 -44t-49 -49l-10 11l1 3q26 19 40 39.5t14 38.5q0 20 -30 34v4q5 7 13 11q38 -17 38 -48z" />
    <glyph glyph-name="Ldot" unicode="&#x13f;" horiz-adv-x="382" 
d="M351 16l-6 -16h-264l25 195l55 442h20l-55 -442l-22 -175h244zM314.5 381.5q5.5 -5.5 5.5 -14.5t-5.5 -14.5t-14.5 -5.5t-14.5 5.5t-5.5 14.5t5.5 14.5t14.5 5.5t14.5 -5.5z" />
    <glyph glyph-name="uni1E36" unicode="&#x1e36;" horiz-adv-x="382" 
d="M351 16l-6 -16h-264l25 195l55 442h20l-55 -442l-22 -175h244zM208.5 -97.5q5.5 -5.5 5.5 -14.5t-5.5 -14.5t-14.5 -5.5t-14.5 5.5t-5.5 14.5t5.5 14.5t14.5 5.5t14.5 -5.5z" />
    <glyph glyph-name="uni01C8" unicode="&#x1c8;" horiz-adv-x="594" 
d="M351 16l-6 -16h-264l25 195l55 442h20l-55 -442l-22 -175h244zM532 451l-45 -358l-11 -75q-10 -80 -36.5 -124.5t-86.5 -85.5l-11 11l1 6q55 37 78 76t32 107l49 358l5 63h-83l-4 4l4 16h87l19 3zM537.5 625.5q5.5 -5.5 5.5 -14.5t-5.5 -14.5t-14.5 -5.5t-14.5 5.5
t-5.5 14.5t5.5 14.5t14.5 5.5t14.5 -5.5z" />
    <glyph glyph-name="uni1E3A" unicode="&#x1e3a;" horiz-adv-x="382" 
d="M351 16l-6 -16h-264l25 195l55 442h20l-55 -442l-22 -175h244zM291 -130l-2 -17h-207l-3 3l2 17h207z" />
    <glyph glyph-name="Lslash" unicode="&#x141;" horiz-adv-x="387" 
d="M357 16l-6 -16h-264l25 195l17 140l-90 -49l-5 3l-3 15l101 54l35 279h20l-33 -267l157 84l5 -2l4 -15l-169 -91l-41 -326h244z" />
    <glyph glyph-name="M" unicode="M" horiz-adv-x="742" 
d="M640 0h-21l6 195l8 394h-4l-265 -508h-25l-133 508h-4l-90 -394l-44 -195h-21l146 637h23l26 -99l110 -428h4l231 439l46 88h24z" />
    <glyph glyph-name="uni1E42" unicode="&#x1e42;" horiz-adv-x="742" 
d="M640 0h-21l6 195l8 394h-4l-265 -508h-25l-133 508h-4l-90 -394l-44 -195h-21l146 637h23l26 -99l110 -428h4l231 439l46 88h24zM349.5 -97.5q5.5 -5.5 5.5 -14.5t-5.5 -14.5t-14.5 -5.5t-14.5 5.5t-5.5 14.5t5.5 14.5t14.5 5.5t14.5 -5.5z" />
    <glyph glyph-name="N" unicode="N" horiz-adv-x="640" 
d="M526 176l-23 -176h-19l-304 595h-4l-51 -396l-25 -199h-20l24 190l57 447h19l304 -595h4l77 594l20 2z" />
    <glyph glyph-name="uni01CA" unicode="&#x1ca;" horiz-adv-x="900" 
d="M526 176l-23 -176h-19l-304 595h-4l-51 -396l-25 -199h-20l24 190l57 447h19l304 -595h4l77 594l20 2zM787 212l-12 -97q-9 -70 -44 -118.5t-109 -94.5l-9 11v6q68 42 102 88t41 108l11 93l51 409h-125l-4 4l5 16h146z" />
    <glyph glyph-name="Nacute" unicode="&#x143;" horiz-adv-x="640" 
d="M526 176l-23 -176h-19l-304 595h-4l-51 -396l-25 -199h-20l24 190l57 447h19l304 -595h4l77 594l20 2zM478 834l7 -12l-2 -5q-67 -38 -174 -93l-5 3l-7 15q91 44 176 94z" />
    <glyph glyph-name="Ncaron" unicode="&#x147;" horiz-adv-x="640" 
d="M526 176l-23 -176h-19l-304 595h-4l-51 -396l-25 -199h-20l24 190l57 447h19l304 -595h4l77 594l20 2zM497 805q-37 -24 -105 -76h-16q-52 45 -92 76l8 14h5q40 -29 87 -70q47 35 103 70h5z" />
    <glyph glyph-name="Ncommaaccent" unicode="&#x145;" horiz-adv-x="640" 
d="M526 176l-23 -176h-19l-304 595h-4l-51 -396l-25 -199h-20l24 190l57 447h19l304 -595h4l77 594l20 2zM327 -117q0 -20 -17 -44t-49 -49l-10 11l1 3q26 19 40 39.5t14 38.5q0 20 -30 34v4q5 7 13 11q38 -17 38 -48z" />
    <glyph glyph-name="uni1E44" unicode="&#x1e44;" horiz-adv-x="640" 
d="M526 176l-23 -176h-19l-304 595h-4l-51 -396l-25 -199h-20l24 190l57 447h19l304 -595h4l77 594l20 2zM407.5 810.5q5.5 -5.5 5.5 -14.5t-5.5 -14.5t-14.5 -5.5t-14.5 5.5t-5.5 14.5t5.5 14.5t14.5 5.5t14.5 -5.5z" />
    <glyph glyph-name="uni1E46" unicode="&#x1e46;" horiz-adv-x="640" 
d="M526 176l-23 -176h-19l-304 595h-4l-51 -396l-25 -199h-20l24 190l57 447h19l304 -595h4l77 594l20 2zM299.5 -97.5q5.5 -5.5 5.5 -14.5t-5.5 -14.5t-14.5 -5.5t-14.5 5.5t-5.5 14.5t5.5 14.5t14.5 5.5t14.5 -5.5z" />
    <glyph glyph-name="Eng" unicode="&#x14a;" horiz-adv-x="648" 
d="M531 176l-18 -137q-7 -59 -39.5 -100t-106.5 -83l-10 11l1 6q58 33 87.5 63.5t41.5 68.5l-309 590h-4l-49 -396l-24 -199h-20l23 190l56 447h19l311 -595h4l75 594l20 2z" />
    <glyph glyph-name="uni01CB" unicode="&#x1cb;" horiz-adv-x="852" 
d="M526 176l-23 -176h-19l-304 595h-4l-51 -396l-25 -199h-20l24 190l57 447h19l304 -595h4l77 594l20 2zM790 451l-45 -358l-11 -75q-10 -80 -36.5 -124.5t-86.5 -85.5l-11 11l1 6q55 37 78 76t32 107l49 358l5 63h-83l-4 4l4 16h87l19 3zM795.5 625.5q5.5 -5.5 5.5 -14.5
t-5.5 -14.5t-14.5 -5.5t-14.5 5.5t-5.5 14.5t5.5 14.5t14.5 5.5t14.5 -5.5z" />
    <glyph glyph-name="uni1E48" unicode="&#x1e48;" horiz-adv-x="640" 
d="M526 176l-23 -176h-19l-304 595h-4l-51 -396l-25 -199h-20l24 190l57 447h19l304 -595h4l77 594l20 2zM382 -130l-2 -17h-207l-3 3l2 17h207z" />
    <glyph glyph-name="Ntilde" unicode="&#xd1;" horiz-adv-x="640" 
d="M526 176l-23 -176h-19l-304 595h-4l-51 -396l-25 -199h-20l24 190l57 447h19l304 -595h4l77 594l20 2zM528 805v-4l-52 -47l-6 -2q-20 2 -81 20q-6 2 -35 10t-40 8q-5 0 -13 -6t-17 -16l-21 -19h-4l-9 11v4l52 47l6 2q20 -2 81 -20q6 -2 35 -10t40 -8q5 0 13 6t17 16
l21 19h4z" />
    <glyph glyph-name="O" unicode="O" horiz-adv-x="599" 
d="M513.5 577q54.5 -65 54.5 -186q0 -122 -35.5 -211t-103 -137t-162.5 -48q-102 0 -156.5 67t-54.5 191q0 121 35 208.5t102.5 134t161.5 46.5q104 0 158.5 -65zM205 578q-62 -44 -95 -126.5t-33 -195.5q0 -115 49.5 -178t141.5 -63q87 0 150 45.5t96 129t33 197.5
q0 113 -49 174t-144 61q-87 0 -149 -44z" />
    <glyph glyph-name="Oacute" unicode="&#xd3;" horiz-adv-x="599" 
d="M513.5 577q54.5 -65 54.5 -186q0 -122 -35.5 -211t-103 -137t-162.5 -48q-102 0 -156.5 67t-54.5 191q0 121 35 208.5t102.5 134t161.5 46.5q104 0 158.5 -65zM205 578q-62 -44 -95 -126.5t-33 -195.5q0 -115 49.5 -178t141.5 -63q87 0 150 45.5t96 129t33 197.5
q0 113 -49 174t-144 61q-87 0 -149 -44zM457 834l7 -12l-2 -5q-67 -38 -174 -93l-5 3l-7 15q91 44 176 94z" />
    <glyph glyph-name="Obreve" unicode="&#x14e;" horiz-adv-x="599" 
d="M513.5 577q54.5 -65 54.5 -186q0 -122 -35.5 -211t-103 -137t-162.5 -48q-102 0 -156.5 67t-54.5 191q0 121 35 208.5t102.5 134t161.5 46.5q104 0 158.5 -65zM205 578q-62 -44 -95 -126.5t-33 -195.5q0 -115 49.5 -178t141.5 -63q87 0 150 45.5t96 129t33 197.5
q0 113 -49 174t-144 61q-87 0 -149 -44zM465 802q-16 -36 -44 -55t-65 -19t-61.5 19t-30.5 55l14 11h5q4 -32 22.5 -48.5t51.5 -16.5q66 0 91 65h5z" />
    <glyph glyph-name="uni01D1" unicode="&#x1d1;" horiz-adv-x="599" 
d="M513.5 577q54.5 -65 54.5 -186q0 -122 -35.5 -211t-103 -137t-162.5 -48q-102 0 -156.5 67t-54.5 191q0 121 35 208.5t102.5 134t161.5 46.5q104 0 158.5 -65zM205 578q-62 -44 -95 -126.5t-33 -195.5q0 -115 49.5 -178t141.5 -63q87 0 150 45.5t96 129t33 197.5
q0 113 -49 174t-144 61q-87 0 -149 -44zM476 805q-37 -24 -105 -76h-16q-52 45 -92 76l8 14h5q40 -29 87 -70q47 35 103 70h5z" />
    <glyph glyph-name="Ocircumflex" unicode="&#xd4;" horiz-adv-x="599" 
d="M513.5 577q54.5 -65 54.5 -186q0 -122 -35.5 -211t-103 -137t-162.5 -48q-102 0 -156.5 67t-54.5 191q0 121 35 208.5t102.5 134t161.5 46.5q104 0 158.5 -65zM205 578q-62 -44 -95 -126.5t-33 -195.5q0 -115 49.5 -178t141.5 -63q87 0 150 45.5t96 129t33 197.5
q0 113 -49 174t-144 61q-87 0 -149 -44zM256 743q37 24 105 76h16q52 -45 92 -76l-8 -14h-5q-40 29 -87 70q-47 -35 -103 -70h-5z" />
    <glyph glyph-name="uni1ED0" unicode="&#x1ed0;" horiz-adv-x="599" 
d="M513.5 577q54.5 -65 54.5 -186q0 -122 -35.5 -211t-103 -137t-162.5 -48q-102 0 -156.5 67t-54.5 191q0 121 35 208.5t102.5 134t161.5 46.5q104 0 158.5 -65zM205 578q-62 -44 -95 -126.5t-33 -195.5q0 -115 49.5 -178t141.5 -63q87 0 150 45.5t96 129t33 197.5
q0 113 -49 174t-144 61q-87 0 -149 -44zM412 816l70 80l5 -1l11 -9l-1 -5l-68 -76h-6zM253 731q44 28 106 76h16q60 -52 91 -76l-8 -14h-5q-40 29 -87 70q-47 -35 -103 -70h-5z" />
    <glyph glyph-name="uni1ED8" unicode="&#x1ed8;" horiz-adv-x="599" 
d="M513.5 577q54.5 -65 54.5 -186q0 -122 -35.5 -211t-103 -137t-162.5 -48q-102 0 -156.5 67t-54.5 191q0 121 35 208.5t102.5 134t161.5 46.5q104 0 158.5 -65zM205 578q-62 -44 -95 -126.5t-33 -195.5q0 -115 49.5 -178t141.5 -63q87 0 150 45.5t96 129t33 197.5
q0 113 -49 174t-144 61q-87 0 -149 -44zM278.5 -97.5q5.5 -5.5 5.5 -14.5t-5.5 -14.5t-14.5 -5.5t-14.5 5.5t-5.5 14.5t5.5 14.5t14.5 5.5t14.5 -5.5zM256 743q37 24 105 76h16q52 -45 92 -76l-8 -14h-5q-40 29 -87 70q-47 -35 -103 -70h-5z" />
    <glyph glyph-name="uni1ED2" unicode="&#x1ed2;" horiz-adv-x="599" 
d="M513.5 577q54.5 -65 54.5 -186q0 -122 -35.5 -211t-103 -137t-162.5 -48q-102 0 -156.5 67t-54.5 191q0 121 35 208.5t102.5 134t161.5 46.5q104 0 158.5 -65zM205 578q-62 -44 -95 -126.5t-33 -195.5q0 -115 49.5 -178t141.5 -63q87 0 150 45.5t96 129t33 197.5
q0 113 -49 174t-144 61q-87 0 -149 -44zM394 880l-1 5l11 9l5 1l70 -80l-11 -11h-6zM255 732q44 28 106 76h16q60 -52 91 -76l-8 -14h-5q-40 29 -87 70q-47 -35 -103 -70h-5z" />
    <glyph glyph-name="uni1ED4" unicode="&#x1ed4;" horiz-adv-x="599" 
d="M513.5 577q54.5 -65 54.5 -186q0 -122 -35.5 -211t-103 -137t-162.5 -48q-102 0 -156.5 67t-54.5 191q0 121 35 208.5t102.5 134t161.5 46.5q104 0 158.5 -65zM205 578q-62 -44 -95 -126.5t-33 -195.5q0 -115 49.5 -178t141.5 -63q87 0 150 45.5t96 129t33 197.5
q0 113 -49 174t-144 61q-87 0 -149 -44zM275 743q37 24 105 76h16q52 -45 92 -76l-8 -14h-5q-40 29 -87 70q-47 -35 -103 -70h-5zM441 847q25 16 38 31.5t13 26.5q0 9 -7 14.5t-19 5.5q-26 0 -54 -23l-8 14q34 29 64 29q19 0 31.5 -11t12.5 -27q0 -29 -48 -65l16 -29l-17 -7
z" />
    <glyph glyph-name="uni1ED6" unicode="&#x1ed6;" horiz-adv-x="599" 
d="M513.5 577q54.5 -65 54.5 -186q0 -122 -35.5 -211t-103 -137t-162.5 -48q-102 0 -156.5 67t-54.5 191q0 121 35 208.5t102.5 134t161.5 46.5q104 0 158.5 -65zM205 578q-62 -44 -95 -126.5t-33 -195.5q0 -115 49.5 -178t141.5 -63q87 0 150 45.5t96 129t33 197.5
q0 113 -49 174t-144 61q-87 0 -149 -44zM247 743q37 24 105 76h16q52 -45 92 -76l-8 -14h-5q-40 29 -87 70q-47 -35 -103 -70h-5zM512 912v-4l-53 -48l-6 -2q-24 3 -81 21q-62 18 -74 18q-5 0 -13 -6t-17 -16l-21 -19h-4l-9 11v4l53 48l6 2q24 -3 81 -21q62 -18 74 -18
q5 0 13 6t17 16l21 19h4z" />
    <glyph glyph-name="uni020C" unicode="&#x20c;" horiz-adv-x="599" 
d="M513.5 577q54.5 -65 54.5 -186q0 -122 -35.5 -211t-103 -137t-162.5 -48q-102 0 -156.5 67t-54.5 191q0 121 35 208.5t102.5 134t161.5 46.5q104 0 158.5 -65zM205 578q-62 -44 -95 -126.5t-33 -195.5q0 -115 49.5 -178t141.5 -63q87 0 150 45.5t96 129t33 197.5
q0 113 -49 174t-144 61q-87 0 -149 -44zM323 728q-52 48 -104 98l-1 5l10 10l5 1q51 -51 106 -100l-11 -13zM453 728q-52 48 -104 98l-1 5l10 10l5 1q51 -51 106 -100l-11 -13z" />
    <glyph glyph-name="uni022A" unicode="&#x22a;" horiz-adv-x="599" 
d="M513.5 577q54.5 -65 54.5 -186q0 -122 -35.5 -211t-103 -137t-162.5 -48q-102 0 -156.5 67t-54.5 191q0 121 35 208.5t102.5 134t161.5 46.5q104 0 158.5 -65zM205 578q-62 -44 -95 -126.5t-33 -195.5q0 -115 49.5 -178t141.5 -63q87 0 150 45.5t96 129t33 197.5
q0 113 -49 174t-144 61q-87 0 -149 -44zM506 873l-2 -17h-237l-3 3l2 17h237zM320.5 774.5q5.5 -5.5 5.5 -14.5t-5.5 -14.5t-14.5 -5.5t-14.5 5.5t-5.5 14.5t5.5 14.5t14.5 5.5t14.5 -5.5zM460.5 774.5q5.5 -5.5 5.5 -14.5t-5.5 -14.5t-14.5 -5.5t-14.5 5.5t-5.5 14.5
t5.5 14.5t14.5 5.5t14.5 -5.5z" />
    <glyph glyph-name="uni0230" unicode="&#x230;" horiz-adv-x="599" 
d="M513.5 577q54.5 -65 54.5 -186q0 -122 -35.5 -211t-103 -137t-162.5 -48q-102 0 -156.5 67t-54.5 191q0 121 35 208.5t102.5 134t161.5 46.5q104 0 158.5 -65zM205 578q-62 -44 -95 -126.5t-33 -195.5q0 -115 49.5 -178t141.5 -63q87 0 150 45.5t96 129t33 197.5
q0 113 -49 174t-144 61q-87 0 -149 -44zM384.5 773.5q5.5 -5.5 5.5 -14.5t-5.5 -14.5t-14.5 -5.5t-14.5 5.5t-5.5 14.5t5.5 14.5t14.5 5.5t14.5 -5.5zM486 851l-2 -17h-207l-3 3l2 17h207z" />
    <glyph glyph-name="uni1ECC" unicode="&#x1ecc;" horiz-adv-x="599" 
d="M513.5 577q54.5 -65 54.5 -186q0 -122 -35.5 -211t-103 -137t-162.5 -48q-102 0 -156.5 67t-54.5 191q0 121 35 208.5t102.5 134t161.5 46.5q104 0 158.5 -65zM205 578q-62 -44 -95 -126.5t-33 -195.5q0 -115 49.5 -178t141.5 -63q87 0 150 45.5t96 129t33 197.5
q0 113 -49 174t-144 61q-87 0 -149 -44zM278.5 -97.5q5.5 -5.5 5.5 -14.5t-5.5 -14.5t-14.5 -5.5t-14.5 5.5t-5.5 14.5t5.5 14.5t14.5 5.5t14.5 -5.5z" />
    <glyph glyph-name="Ograve" unicode="&#xd2;" horiz-adv-x="599" 
d="M513.5 577q54.5 -65 54.5 -186q0 -122 -35.5 -211t-103 -137t-162.5 -48q-102 0 -156.5 67t-54.5 191q0 121 35 208.5t102.5 134t161.5 46.5q104 0 158.5 -65zM205 578q-62 -44 -95 -126.5t-33 -195.5q0 -115 49.5 -178t141.5 -63q87 0 150 45.5t96 129t33 197.5
q0 113 -49 174t-144 61q-87 0 -149 -44zM444 742l-7 -15l-5 -3q-107 55 -174 93l-2 5l7 12l5 2q85 -50 176 -94z" />
    <glyph glyph-name="uni1ECE" unicode="&#x1ece;" horiz-adv-x="599" 
d="M513.5 577q54.5 -65 54.5 -186q0 -122 -35.5 -211t-103 -137t-162.5 -48q-102 0 -156.5 67t-54.5 191q0 121 35 208.5t102.5 134t161.5 46.5q104 0 158.5 -65zM205 578q-62 -44 -95 -126.5t-33 -195.5q0 -115 49.5 -178t141.5 -63q87 0 150 45.5t96 129t33 197.5
q0 113 -49 174t-144 61q-87 0 -149 -44zM330 737q25 16 38 31.5t13 26.5q0 9 -7 14.5t-19 5.5q-26 0 -54 -23l-8 14q34 29 64 29q19 0 31.5 -11t12.5 -27q0 -29 -48 -65l16 -29l-17 -7z" />
    <glyph glyph-name="Ohorn" unicode="&#x1a0;" horiz-adv-x="635" 
d="M569.5 606q-26.5 -23 -66.5 -19q34 -32 49.5 -81t15.5 -124q0 -117 -37 -204.5t-104.5 -135t-157.5 -47.5q-212 0 -212 270q0 116 36.5 201t105 130.5t160.5 45.5q37 0 60 -6t46 -17q12 -5 24.5 -9t25.5 -4q26 0 43 15.5t17 39.5q0 33 -23 64l2 5q10 5 13 5
q10 0 19.5 -21.5t9.5 -45.5q0 -39 -26.5 -62zM353 622q-84 0 -146.5 -43.5t-96 -124t-33.5 -188.5q0 -251 194 -251q83 0 145.5 44.5t97 126t34.5 189.5q0 247 -195 247z" />
    <glyph glyph-name="uni1EDA" unicode="&#x1eda;" horiz-adv-x="635" 
d="M569.5 606q-26.5 -23 -66.5 -19q34 -32 49.5 -81t15.5 -124q0 -117 -37 -204.5t-104.5 -135t-157.5 -47.5q-212 0 -212 270q0 116 36.5 201t105 130.5t160.5 45.5q37 0 60 -6t46 -17q12 -5 24.5 -9t25.5 -4q26 0 43 15.5t17 39.5q0 33 -23 64l2 5q10 5 13 5
q10 0 19.5 -21.5t9.5 -45.5q0 -39 -26.5 -62zM353 622q-84 0 -146.5 -43.5t-96 -124t-33.5 -188.5q0 -251 194 -251q83 0 145.5 44.5t97 126t34.5 189.5q0 247 -195 247zM458 834l7 -12l-2 -5q-67 -38 -174 -93l-5 3l-7 15q91 44 176 94z" />
    <glyph glyph-name="uni1EE2" unicode="&#x1ee2;" horiz-adv-x="601" 
d="M569.5 606q-26.5 -23 -66.5 -19q34 -32 49.5 -81t15.5 -124q0 -117 -37 -204.5t-104.5 -135t-157.5 -47.5q-212 0 -212 270q0 116 36.5 201t105 130.5t160.5 45.5q37 0 60 -6t46 -17q12 -5 24.5 -9t25.5 -4q26 0 43 15.5t17 39.5q0 33 -23 64l2 5q10 5 13 5
q10 0 19.5 -21.5t9.5 -45.5q0 -39 -26.5 -62zM353 622q-84 0 -146.5 -43.5t-96 -124t-33.5 -188.5q0 -251 194 -251q83 0 145.5 44.5t97 126t34.5 189.5q0 247 -195 247zM222.5 -97.5q5.5 -5.5 5.5 -14.5t-5.5 -14.5t-14.5 -5.5t-14.5 5.5t-5.5 14.5t5.5 14.5t14.5 5.5
t14.5 -5.5z" />
    <glyph glyph-name="uni1EDC" unicode="&#x1edc;" horiz-adv-x="635" 
d="M569.5 606q-26.5 -23 -66.5 -19q34 -32 49.5 -81t15.5 -124q0 -117 -37 -204.5t-104.5 -135t-157.5 -47.5q-212 0 -212 270q0 116 36.5 201t105 130.5t160.5 45.5q37 0 60 -6t46 -17q12 -5 24.5 -9t25.5 -4q26 0 43 15.5t17 39.5q0 33 -23 64l2 5q10 5 13 5
q10 0 19.5 -21.5t9.5 -45.5q0 -39 -26.5 -62zM353 622q-84 0 -146.5 -43.5t-96 -124t-33.5 -188.5q0 -251 194 -251q83 0 145.5 44.5t97 126t34.5 189.5q0 247 -195 247zM445 742l-7 -15l-5 -3q-107 55 -174 93l-2 5l7 12l5 2q85 -50 176 -94z" />
    <glyph glyph-name="uni1EDE" unicode="&#x1ede;" horiz-adv-x="635" 
d="M569.5 606q-26.5 -23 -66.5 -19q34 -32 49.5 -81t15.5 -124q0 -117 -37 -204.5t-104.5 -135t-157.5 -47.5q-212 0 -212 270q0 116 36.5 201t105 130.5t160.5 45.5q37 0 60 -6t46 -17q12 -5 24.5 -9t25.5 -4q26 0 43 15.5t17 39.5q0 33 -23 64l2 5q10 5 13 5
q10 0 19.5 -21.5t9.5 -45.5q0 -39 -26.5 -62zM353 622q-84 0 -146.5 -43.5t-96 -124t-33.5 -188.5q0 -251 194 -251q83 0 145.5 44.5t97 126t34.5 189.5q0 247 -195 247zM331 737q25 16 38 31.5t13 26.5q0 9 -7 14.5t-19 5.5q-26 0 -54 -23l-8 14q34 29 64 29q19 0 31.5 -11
t12.5 -27q0 -29 -48 -65l16 -29l-17 -7z" />
    <glyph glyph-name="uni1EE0" unicode="&#x1ee0;" horiz-adv-x="635" 
d="M569.5 606q-26.5 -23 -66.5 -19q34 -32 49.5 -81t15.5 -124q0 -117 -37 -204.5t-104.5 -135t-157.5 -47.5q-212 0 -212 270q0 116 36.5 201t105 130.5t160.5 45.5q37 0 60 -6t46 -17q12 -5 24.5 -9t25.5 -4q26 0 43 15.5t17 39.5q0 33 -23 64l2 5q10 5 13 5
q10 0 19.5 -21.5t9.5 -45.5q0 -39 -26.5 -62zM353 622q-84 0 -146.5 -43.5t-96 -124t-33.5 -188.5q0 -251 194 -251q83 0 145.5 44.5t97 126t34.5 189.5q0 247 -195 247zM508 805v-4l-52 -47l-6 -2q-20 2 -81 20q-6 2 -35 10t-40 8q-5 0 -13 -6t-17 -16l-21 -19h-4l-9 11v4
l52 47l6 2q20 -2 81 -20q6 -2 35 -10t40 -8q5 0 13 6t17 16l21 19h4z" />
    <glyph glyph-name="Ohungarumlaut" unicode="&#x150;" horiz-adv-x="599" 
d="M513.5 577q54.5 -65 54.5 -186q0 -122 -35.5 -211t-103 -137t-162.5 -48q-102 0 -156.5 67t-54.5 191q0 121 35 208.5t102.5 134t161.5 46.5q104 0 158.5 -65zM205 578q-62 -44 -95 -126.5t-33 -195.5q0 -115 49.5 -178t141.5 -63q87 0 150 45.5t96 129t33 197.5
q0 113 -49 174t-144 61q-87 0 -149 -44zM293 757q75 70 89 84l5 -1l10 -10l-1 -5q-35 -35 -112 -105l-5 1l-11 13zM423 757q75 70 89 84l5 -1l10 -10l-1 -5q-35 -35 -112 -105l-5 1l-11 13z" />
    <glyph glyph-name="uni020E" unicode="&#x20e;" horiz-adv-x="599" 
d="M513.5 577q54.5 -65 54.5 -186q0 -122 -35.5 -211t-103 -137t-162.5 -48q-102 0 -156.5 67t-54.5 191q0 121 35 208.5t102.5 134t161.5 46.5q104 0 158.5 -65zM205 578q-62 -44 -95 -126.5t-33 -195.5q0 -115 49.5 -178t141.5 -63q87 0 150 45.5t96 129t33 197.5
q0 113 -49 174t-144 61q-87 0 -149 -44zM266 720q16 54 44 79.5t70 25.5t63 -25.5t25 -79.5l-15 -13h-5q-1 50 -18 74t-53 24q-35 0 -58 -24t-36 -74h-5z" />
    <glyph glyph-name="Omacron" unicode="&#x14c;" horiz-adv-x="599" 
d="M513.5 577q54.5 -65 54.5 -186q0 -122 -35.5 -211t-103 -137t-162.5 -48q-102 0 -156.5 67t-54.5 191q0 121 35 208.5t102.5 134t161.5 46.5q104 0 158.5 -65zM205 578q-62 -44 -95 -126.5t-33 -195.5q0 -115 49.5 -178t141.5 -63q87 0 150 45.5t96 129t33 197.5
q0 113 -49 174t-144 61q-87 0 -149 -44zM514 789l-2 -17h-287l-3 3l2 17h287z" />
    <glyph glyph-name="uni1E52" unicode="&#x1e52;" horiz-adv-x="599" 
d="M513.5 577q54.5 -65 54.5 -186q0 -122 -35.5 -211t-103 -137t-162.5 -48q-102 0 -156.5 67t-54.5 191q0 121 35 208.5t102.5 134t161.5 46.5q104 0 158.5 -65zM205 578q-62 -44 -95 -126.5t-33 -195.5q0 -115 49.5 -178t141.5 -63q87 0 150 45.5t96 129t33 197.5
q0 113 -49 174t-144 61q-87 0 -149 -44zM472 898l5 -13l-3 -5q-80 -29 -187 -61l-5 4l-4 16q93 26 190 62zM479 759l-2 -17h-207l-3 3l2 17h207z" />
    <glyph glyph-name="uni1E50" unicode="&#x1e50;" horiz-adv-x="599" 
d="M513.5 577q54.5 -65 54.5 -186q0 -122 -35.5 -211t-103 -137t-162.5 -48q-102 0 -156.5 67t-54.5 191q0 121 35 208.5t102.5 134t161.5 46.5q104 0 158.5 -65zM205 578q-62 -44 -95 -126.5t-33 -195.5q0 -115 49.5 -178t141.5 -63q87 0 150 45.5t96 129t33 197.5
q0 113 -49 174t-144 61q-87 0 -149 -44zM285 880l-3 5l5 13l4 3q97 -36 190 -62l-4 -16l-5 -4q-107 32 -187 61zM476 759l-2 -17h-207l-3 3l2 17h207z" />
    <glyph glyph-name="uni01EA" unicode="&#x1ea;" horiz-adv-x="599" 
d="M513.5 577q54.5 -65 54.5 -186q0 -122 -35.5 -211t-103 -137t-162.5 -48q-102 0 -156.5 67t-54.5 191q0 121 35 208.5t102.5 134t161.5 46.5q104 0 158.5 -65zM205 578q-62 -44 -95 -126.5t-33 -195.5q0 -115 49.5 -178t141.5 -63q87 0 150 45.5t96 129t33 197.5
q0 113 -49 174t-144 61q-87 0 -149 -44zM258.5 -190.5q-17.5 17.5 -17.5 47.5q0 20 10.5 38.5t50.5 72.5l31 42h24q-18 -22 -28 -38q-44 -58 -55.5 -76.5t-11.5 -36.5q0 -21 11.5 -33.5t32.5 -12.5t42 13.5t39 38.5h2l11 -16q-44 -57 -95 -57q-29 0 -46.5 17.5z" />
    <glyph glyph-name="Oslash" unicode="&#xd8;" horiz-adv-x="600" 
d="M568 391q0 -122 -35.5 -211t-103 -137t-162.5 -48q-61 0 -105 24l-60 -106l-15 3l-2 4l61 109q-44 31 -67 88t-23 136q0 121 35 208.5t102.5 134t161.5 46.5q71 0 118 -30l55 97l16 -3l1 -5l-56 -100q79 -64 79 -210zM97.5 130q20.5 -53 59.5 -82l306 545q-44 29 -109 29
q-87 0 -149 -44t-95 -126.5t-33 -195.5q0 -73 20.5 -126zM418 60.5q63 45.5 96 129t33 197.5q0 137 -69 195l-306 -544q41 -23 96 -23q87 0 150 45.5z" />
    <glyph glyph-name="Oslashacute" unicode="&#x1fe;" horiz-adv-x="600" 
d="M568 391q0 -122 -35.5 -211t-103 -137t-162.5 -48q-61 0 -105 24l-60 -106l-15 3l-2 4l61 109q-44 31 -67 88t-23 136q0 121 35 208.5t102.5 134t161.5 46.5q71 0 118 -30l55 97l16 -3l1 -5l-56 -100q79 -64 79 -210zM97.5 130q20.5 -53 59.5 -82l306 545q-44 29 -109 29
q-87 0 -149 -44t-95 -126.5t-33 -195.5q0 -73 20.5 -126zM418 60.5q63 45.5 96 129t33 197.5q0 137 -69 195l-306 -544q41 -23 96 -23q87 0 150 45.5zM457 834l7 -12l-2 -5q-67 -38 -174 -93l-5 3l-7 15q91 44 176 94z" />
    <glyph glyph-name="Otilde" unicode="&#xd5;" horiz-adv-x="599" 
d="M513.5 577q54.5 -65 54.5 -186q0 -122 -35.5 -211t-103 -137t-162.5 -48q-102 0 -156.5 67t-54.5 191q0 121 35 208.5t102.5 134t161.5 46.5q104 0 158.5 -65zM205 578q-62 -44 -95 -126.5t-33 -195.5q0 -115 49.5 -178t141.5 -63q87 0 150 45.5t96 129t33 197.5
q0 113 -49 174t-144 61q-87 0 -149 -44zM507 805v-4l-52 -47l-6 -2q-20 2 -81 20q-6 2 -35 10t-40 8q-5 0 -13 -6t-17 -16l-21 -19h-4l-9 11v4l52 47l6 2q20 -2 81 -20q6 -2 35 -10t40 -8q5 0 13 6t17 16l21 19h4z" />
    <glyph glyph-name="uni1E4C" unicode="&#x1e4c;" horiz-adv-x="599" 
d="M513.5 577q54.5 -65 54.5 -186q0 -122 -35.5 -211t-103 -137t-162.5 -48q-102 0 -156.5 67t-54.5 191q0 121 35 208.5t102.5 134t161.5 46.5q104 0 158.5 -65zM205 578q-62 -44 -95 -126.5t-33 -195.5q0 -115 49.5 -178t141.5 -63q87 0 150 45.5t96 129t33 197.5
q0 113 -49 174t-144 61q-87 0 -149 -44zM479 909l5 -13l-3 -5q-80 -29 -187 -61l-5 4l-4 16q93 26 190 62zM496 782v-4l-47 -47l-6 -2q-16 2 -72 20q-54 18 -65 18q-5 0 -13 -7t-17 -17l-16 -16h-3l-9 11v4l47 47l6 2q16 -2 72 -20q54 -18 65 -18q5 0 12 6t15 15l19 19h3z
" />
    <glyph glyph-name="uni1E4E" unicode="&#x1e4e;" horiz-adv-x="599" 
d="M513.5 577q54.5 -65 54.5 -186q0 -122 -35.5 -211t-103 -137t-162.5 -48q-102 0 -156.5 67t-54.5 191q0 121 35 208.5t102.5 134t161.5 46.5q104 0 158.5 -65zM205 578q-62 -44 -95 -126.5t-33 -195.5q0 -115 49.5 -178t141.5 -63q87 0 150 45.5t96 129t33 197.5
q0 113 -49 174t-144 61q-87 0 -149 -44zM495 792v-4l-47 -47l-6 -2q-16 2 -72 20q-54 18 -65 18q-5 0 -13 -7t-17 -17l-16 -16h-3l-9 11v4l47 47l6 2q16 -2 72 -20q54 -18 65 -18q5 0 12 6t15 15l19 19h3zM332.5 884.5q5.5 -5.5 5.5 -14.5t-5.5 -14.5t-14.5 -5.5t-14.5 5.5
t-5.5 14.5t5.5 14.5t14.5 5.5t14.5 -5.5zM482.5 884.5q5.5 -5.5 5.5 -14.5t-5.5 -14.5t-14.5 -5.5t-14.5 5.5t-5.5 14.5t5.5 14.5t14.5 5.5t14.5 -5.5z" />
    <glyph glyph-name="uni022C" unicode="&#x22c;" horiz-adv-x="599" 
d="M513.5 577q54.5 -65 54.5 -186q0 -122 -35.5 -211t-103 -137t-162.5 -48q-102 0 -156.5 67t-54.5 191q0 121 35 208.5t102.5 134t161.5 46.5q104 0 158.5 -65zM205 578q-62 -44 -95 -126.5t-33 -195.5q0 -115 49.5 -178t141.5 -63q87 0 150 45.5t96 129t33 197.5
q0 113 -49 174t-144 61q-87 0 -149 -44zM492 792v-4l-47 -47l-6 -2q-16 2 -72 20q-54 18 -65 18q-5 0 -13 -7t-17 -17l-16 -16h-3l-9 11v4l47 47l6 2q16 -2 72 -20q54 -18 65 -18q5 0 12 6t15 15l19 19h3zM496 878l-2 -17h-207l-3 3l2 17h207z" />
    <glyph glyph-name="OE" unicode="&#x152;" horiz-adv-x="789" 
d="M465 643q46 -6 73 -6h269l3 -4l-6 -16h-270l-34 -277h222l2 -4l-6 -16h-222l-16 -132l-21 -168h274l3 -4l-6 -16h-273q-29 0 -83 -6q-52 -6 -73 -6q-118 0 -181.5 72t-63.5 200q0 119 40.5 206.5t117 135t181.5 47.5q26 0 70 -6zM223 584.5q-71 -44.5 -109 -127.5
t-38 -195q0 -121 59.5 -187.5t173.5 -66.5q42 0 102 10q17 3 23 8t8 17l66 543q1 8 1 18q0 8 -2 10.5t-8 3.5q-59 11 -107 11q-98 0 -169 -44.5z" />
    <glyph glyph-name="P" unicode="P" horiz-adv-x="464" 
d="M405 600q39 -39 39 -111q0 -113 -60 -176.5t-170 -63.5h-82l-7 -54l-25 -195h-20l25 195l55 442l133 2q73 0 112 -39zM376.5 335.5q47.5 58.5 47.5 149.5q0 62 -32.5 96.5t-93.5 37.5l-120 -1l-44 -349h112q83 8 130.5 66.5z" />
    <glyph glyph-name="Thorn" unicode="&#xde;" horiz-adv-x="467" 
d="M390 477q39 -39 39 -111q0 -113 -60 -176.5t-170 -63.5h-83l-16 -126h-20l25 195l55 442h20l-15 -123l113 2q73 0 112 -39zM361.5 212.5q47.5 58.5 47.5 149.5q0 62 -32.5 96.5t-93.5 37.5l-121 -1l-37 -300l-6 -49h112q83 8 130.5 66.5z" />
    <glyph glyph-name="Q" unicode="Q" horiz-adv-x="592" 
d="M475 -110q88 -42 187 -54l-1 -6q-9 -12 -10 -12h-4q-101 13 -192 59t-163 119q-8 -1 -25 -1q-102 0 -156.5 67t-54.5 191q0 121 35 208.5t102.5 134t161.5 46.5q104 0 158.5 -65t54.5 -186q0 -167 -65.5 -270t-184.5 -122q69 -67 157 -109zM126.5 78q49.5 -63 141.5 -63
q87 0 150 45.5t96 129t33 197.5q0 113 -49 174t-144 61q-87 0 -149 -44t-95 -126.5t-33 -195.5q0 -115 49.5 -178z" />
    <glyph glyph-name="R" unicode="R" horiz-adv-x="494" 
d="M402 348.5q-43 -58.5 -122 -82.5q60 -134 137 -261l-1 -4q-5 -5 -13 -8l-5 2q-81 137 -140 268h-125l-8 -68l-25 -195h-20l25 195l55 442l133 2q73 0 112.5 -38.5t39.5 -109.5q0 -84 -43 -142.5zM136 283h134q74 20 114.5 73.5t40.5 131.5q0 60 -32.5 94t-94.5 37
l-120 -1z" />
    <glyph glyph-name="Racute" unicode="&#x154;" horiz-adv-x="494" 
d="M402 348.5q-43 -58.5 -122 -82.5q60 -134 137 -261l-1 -4q-5 -5 -13 -8l-5 2q-81 137 -140 268h-125l-8 -68l-25 -195h-20l25 195l55 442l133 2q73 0 112.5 -38.5t39.5 -109.5q0 -84 -43 -142.5zM136 283h134q74 20 114.5 73.5t40.5 131.5q0 60 -32.5 94t-94.5 37
l-120 -1zM388 853l10 -10l-1 -5q-69 -69 -144 -135l-5 1l-11 13q69 58 146 137z" />
    <glyph glyph-name="Rcaron" unicode="&#x158;" horiz-adv-x="494" 
d="M402 348.5q-43 -58.5 -122 -82.5q60 -134 137 -261l-1 -4q-5 -5 -13 -8l-5 2q-81 137 -140 268h-125l-8 -68l-25 -195h-20l25 195l55 442l133 2q73 0 112.5 -38.5t39.5 -109.5q0 -84 -43 -142.5zM136 283h134q74 20 114.5 73.5t40.5 131.5q0 60 -32.5 94t-94.5 37
l-120 -1zM424 831q-42 -41 -115 -126h-18q-49 78 -87 126l11 12h5q39 -50 81 -117q59 68 110 117h5z" />
    <glyph glyph-name="Rcommaaccent" unicode="&#x156;" horiz-adv-x="494" 
d="M402 348.5q-43 -58.5 -122 -82.5q60 -134 137 -261l-1 -4q-5 -5 -13 -8l-5 2q-81 137 -140 268h-125l-8 -68l-25 -195h-20l25 195l55 442l133 2q73 0 112.5 -38.5t39.5 -109.5q0 -84 -43 -142.5zM136 283h134q74 20 114.5 73.5t40.5 131.5q0 60 -32.5 94t-94.5 37
l-120 -1zM253 -117q0 -20 -17 -44t-49 -49l-10 11l1 3q26 19 40 39.5t14 38.5q0 20 -30 34v4q5 7 13 11q38 -17 38 -48z" />
    <glyph glyph-name="uni0210" unicode="&#x210;" horiz-adv-x="494" 
d="M402 348.5q-43 -58.5 -122 -82.5q60 -134 137 -261l-1 -4q-5 -5 -13 -8l-5 2q-81 137 -140 268h-125l-8 -68l-25 -195h-20l25 195l55 442l133 2q73 0 112.5 -38.5t39.5 -109.5q0 -84 -43 -142.5zM136 283h134q74 20 114.5 73.5t40.5 131.5q0 60 -32.5 94t-94.5 37
l-120 -1zM270 728q-52 48 -104 98l-1 5l10 10l5 1q51 -51 106 -100l-11 -13zM400 728q-52 48 -104 98l-1 5l10 10l5 1q51 -51 106 -100l-11 -13z" />
    <glyph glyph-name="uni1E5A" unicode="&#x1e5a;" horiz-adv-x="494" 
d="M402 348.5q-43 -58.5 -122 -82.5q60 -134 137 -261l-1 -4q-5 -5 -13 -8l-5 2q-81 137 -140 268h-125l-8 -68l-25 -195h-20l25 195l55 442l133 2q73 0 112.5 -38.5t39.5 -109.5q0 -84 -43 -142.5zM136 283h134q74 20 114.5 73.5t40.5 131.5q0 60 -32.5 94t-94.5 37
l-120 -1zM225.5 -97.5q5.5 -5.5 5.5 -14.5t-5.5 -14.5t-14.5 -5.5t-14.5 5.5t-5.5 14.5t5.5 14.5t14.5 5.5t14.5 -5.5z" />
    <glyph glyph-name="uni0212" unicode="&#x212;" horiz-adv-x="494" 
d="M402 348.5q-43 -58.5 -122 -82.5q60 -134 137 -261l-1 -4q-5 -5 -13 -8l-5 2q-81 137 -140 268h-125l-8 -68l-25 -195h-20l25 195l55 442l133 2q73 0 112.5 -38.5t39.5 -109.5q0 -84 -43 -142.5zM136 283h134q74 20 114.5 73.5t40.5 131.5q0 60 -32.5 94t-94.5 37
l-120 -1zM213 720q16 54 44 79.5t70 25.5t63 -25.5t25 -79.5l-15 -13h-5q-1 50 -18 74t-53 24q-35 0 -58 -24t-36 -74h-5z" />
    <glyph glyph-name="uni1E5E" unicode="&#x1e5e;" horiz-adv-x="494" 
d="M402 348.5q-43 -58.5 -122 -82.5q60 -134 137 -261l-1 -4q-5 -5 -13 -8l-5 2q-81 137 -140 268h-125l-8 -68l-25 -195h-20l25 195l55 442l133 2q73 0 112.5 -38.5t39.5 -109.5q0 -84 -43 -142.5zM136 283h134q74 20 114.5 73.5t40.5 131.5q0 60 -32.5 94t-94.5 37
l-120 -1zM308 -130l-2 -17h-207l-3 3l2 17h207z" />
    <glyph glyph-name="S" unicode="S" horiz-adv-x="423" 
d="M398 611l-6 -18l-7 -1q-46 28 -104 28q-48 0 -86 -20.5t-59 -53.5t-21 -69q0 -33 16 -58t38.5 -42.5t62.5 -41.5q44 -26 70 -46t44 -50.5t18 -71.5q0 -46 -26.5 -85.5t-72 -62.5t-99.5 -23q-37 0 -74 12t-64 35l3 19l6 2q26 -24 61 -36t70 -12q50 0 90.5 21t63 55
t22.5 73q0 35 -16.5 61.5t-40 44.5t-64.5 43q-43 27 -68 46t-42.5 48.5t-17.5 69.5q0 45 25 82t68 58.5t96 21.5q61 0 114 -29z" />
    <glyph glyph-name="Sacute" unicode="&#x15a;" horiz-adv-x="423" 
d="M398 611l-6 -18l-7 -1q-46 28 -104 28q-48 0 -86 -20.5t-59 -53.5t-21 -69q0 -33 16 -58t38.5 -42.5t62.5 -41.5q44 -26 70 -46t44 -50.5t18 -71.5q0 -46 -26.5 -85.5t-72 -62.5t-99.5 -23q-37 0 -74 12t-64 35l3 19l6 2q26 -24 61 -36t70 -12q50 0 90.5 21t63 55
t22.5 73q0 35 -16.5 61.5t-40 44.5t-64.5 43q-43 27 -68 46t-42.5 48.5t-17.5 69.5q0 45 25 82t68 58.5t96 21.5q61 0 114 -29zM353 853l10 -10l-1 -5q-69 -69 -144 -135l-5 1l-11 13q69 58 146 137z" />
    <glyph glyph-name="uni1E64" unicode="&#x1e64;" horiz-adv-x="423" 
d="M398 611l-6 -18l-7 -1q-46 28 -104 28q-48 0 -86 -20.5t-59 -53.5t-21 -69q0 -33 16 -58t38.5 -42.5t62.5 -41.5q44 -26 70 -46t44 -50.5t18 -71.5q0 -46 -26.5 -85.5t-72 -62.5t-99.5 -23q-37 0 -74 12t-64 35l3 19l6 2q26 -24 61 -36t70 -12q50 0 90.5 21t63 55
t22.5 73q0 35 -16.5 61.5t-40 44.5t-64.5 43q-43 27 -68 46t-42.5 48.5t-17.5 69.5q0 45 25 82t68 58.5t96 21.5q61 0 114 -29zM369 834l7 -12l-2 -5q-67 -38 -174 -93l-5 3l-7 15q91 44 176 94zM300.5 907.5q5.5 -5.5 5.5 -14.5t-5.5 -14.5t-14.5 -5.5t-14.5 5.5t-5.5 14.5
t5.5 14.5t14.5 5.5t14.5 -5.5z" />
    <glyph glyph-name="uniA78B" unicode="&#xa78b;" horiz-adv-x="82" 
d="M95 599l-30 -223l-17 -3l-2 6l29 223l18 3z" />
    <glyph glyph-name="Scaron" unicode="&#x160;" horiz-adv-x="423" 
d="M398 611l-6 -18l-7 -1q-46 28 -104 28q-48 0 -86 -20.5t-59 -53.5t-21 -69q0 -33 16 -58t38.5 -42.5t62.5 -41.5q44 -26 70 -46t44 -50.5t18 -71.5q0 -46 -26.5 -85.5t-72 -62.5t-99.5 -23q-37 0 -74 12t-64 35l3 19l6 2q26 -24 61 -36t70 -12q50 0 90.5 21t63 55
t22.5 73q0 35 -16.5 61.5t-40 44.5t-64.5 43q-43 27 -68 46t-42.5 48.5t-17.5 69.5q0 45 25 82t68 58.5t96 21.5q61 0 114 -29zM388 805q-37 -24 -105 -76h-16q-52 45 -92 76l8 14h5q40 -29 87 -70q47 35 103 70h5z" />
    <glyph glyph-name="uni1E66" unicode="&#x1e66;" horiz-adv-x="423" 
d="M398 611l-6 -18l-7 -1q-46 28 -104 28q-48 0 -86 -20.5t-59 -53.5t-21 -69q0 -33 16 -58t38.5 -42.5t62.5 -41.5q44 -26 70 -46t44 -50.5t18 -71.5q0 -46 -26.5 -85.5t-72 -62.5t-99.5 -23q-37 0 -74 12t-64 35l3 19l6 2q26 -24 61 -36t70 -12q50 0 90.5 21t63 55
t22.5 73q0 35 -16.5 61.5t-40 44.5t-64.5 43q-43 27 -68 46t-42.5 48.5t-17.5 69.5q0 45 25 82t68 58.5t96 21.5q61 0 114 -29zM388 805q-37 -24 -105 -76h-16q-52 45 -92 76l8 14h5q40 -29 87 -70q47 35 103 70h5zM302.5 881.5q5.5 -5.5 5.5 -14.5t-5.5 -14.5t-14.5 -5.5
t-14.5 5.5t-5.5 14.5t5.5 14.5t14.5 5.5t14.5 -5.5z" />
    <glyph glyph-name="Scedilla" unicode="&#x15e;" horiz-adv-x="423" 
d="M398 611l-6 -18l-7 -1q-46 28 -104 28q-48 0 -86 -20.5t-59 -53.5t-21 -69q0 -33 16 -58t38.5 -42.5t62.5 -41.5q44 -26 70 -46t44 -50.5t18 -71.5q0 -46 -26.5 -85.5t-72 -62.5t-99.5 -23q-37 0 -74 12t-64 35l3 19l6 2q26 -24 61 -36t70 -12q50 0 90.5 21t63 55
t22.5 73q0 35 -16.5 61.5t-40 44.5t-64.5 43q-43 27 -68 46t-42.5 48.5t-17.5 69.5q0 45 25 82t68 58.5t96 21.5q61 0 114 -29zM174 -55l31 -20q17 -11 25 -22.5t8 -27.5q0 -24 -17.5 -38.5t-42.5 -14.5q-37 0 -59 33l6 18h4q10 -16 21 -23.5t28 -7.5q18 0 29 8.5t11 24.5
q0 11 -5.5 17.5t-18.5 15.5l-43 28l24 75h20z" />
    <glyph glyph-name="Scircumflex" unicode="&#x15c;" horiz-adv-x="423" 
d="M398 611l-6 -18l-7 -1q-46 28 -104 28q-48 0 -86 -20.5t-59 -53.5t-21 -69q0 -33 16 -58t38.5 -42.5t62.5 -41.5q44 -26 70 -46t44 -50.5t18 -71.5q0 -46 -26.5 -85.5t-72 -62.5t-99.5 -23q-37 0 -74 12t-64 35l3 19l6 2q26 -24 61 -36t70 -12q50 0 90.5 21t63 55
t22.5 73q0 35 -16.5 61.5t-40 44.5t-64.5 43q-43 27 -68 46t-42.5 48.5t-17.5 69.5q0 45 25 82t68 58.5t96 21.5q61 0 114 -29zM161 717q42 41 115 126h18q49 -78 87 -126l-11 -12h-5q-39 50 -81 117q-59 -68 -110 -117h-5z" />
    <glyph glyph-name="Scommaaccent" unicode="&#x218;" horiz-adv-x="423" 
d="M398 611l-6 -18l-7 -1q-46 28 -104 28q-48 0 -86 -20.5t-59 -53.5t-21 -69q0 -33 16 -58t38.5 -42.5t62.5 -41.5q44 -26 70 -46t44 -50.5t18 -71.5q0 -46 -26.5 -85.5t-72 -62.5t-99.5 -23q-37 0 -74 12t-64 35l3 19l6 2q26 -24 61 -36t70 -12q50 0 90.5 21t63 55
t22.5 73q0 35 -16.5 61.5t-40 44.5t-64.5 43q-43 27 -68 46t-42.5 48.5t-17.5 69.5q0 45 25 82t68 58.5t96 21.5q61 0 114 -29zM218 -117q0 -20 -17 -44t-49 -49l-10 11l1 3q26 19 40 39.5t14 38.5q0 20 -30 34v4q5 7 13 11q38 -17 38 -48z" />
    <glyph glyph-name="uni1E60" unicode="&#x1e60;" horiz-adv-x="423" 
d="M398 611l-6 -18l-7 -1q-46 28 -104 28q-48 0 -86 -20.5t-59 -53.5t-21 -69q0 -33 16 -58t38.5 -42.5t62.5 -41.5q44 -26 70 -46t44 -50.5t18 -71.5q0 -46 -26.5 -85.5t-72 -62.5t-99.5 -23q-37 0 -74 12t-64 35l3 19l6 2q26 -24 61 -36t70 -12q50 0 90.5 21t63 55
t22.5 73q0 35 -16.5 61.5t-40 44.5t-64.5 43q-43 27 -68 46t-42.5 48.5t-17.5 69.5q0 45 25 82t68 58.5t96 21.5q61 0 114 -29zM298.5 810.5q5.5 -5.5 5.5 -14.5t-5.5 -14.5t-14.5 -5.5t-14.5 5.5t-5.5 14.5t5.5 14.5t14.5 5.5t14.5 -5.5z" />
    <glyph glyph-name="uni1E62" unicode="&#x1e62;" horiz-adv-x="423" 
d="M398 611l-6 -18l-7 -1q-46 28 -104 28q-48 0 -86 -20.5t-59 -53.5t-21 -69q0 -33 16 -58t38.5 -42.5t62.5 -41.5q44 -26 70 -46t44 -50.5t18 -71.5q0 -46 -26.5 -85.5t-72 -62.5t-99.5 -23q-37 0 -74 12t-64 35l3 19l6 2q26 -24 61 -36t70 -12q50 0 90.5 21t63 55
t22.5 73q0 35 -16.5 61.5t-40 44.5t-64.5 43q-43 27 -68 46t-42.5 48.5t-17.5 69.5q0 45 25 82t68 58.5t96 21.5q61 0 114 -29zM190.5 -97.5q5.5 -5.5 5.5 -14.5t-5.5 -14.5t-14.5 -5.5t-14.5 5.5t-5.5 14.5t5.5 14.5t14.5 5.5t14.5 -5.5z" />
    <glyph glyph-name="uni1E68" unicode="&#x1e68;" horiz-adv-x="423" 
d="M398 611l-6 -18l-7 -1q-46 28 -104 28q-48 0 -86 -20.5t-59 -53.5t-21 -69q0 -33 16 -58t38.5 -42.5t62.5 -41.5q44 -26 70 -46t44 -50.5t18 -71.5q0 -46 -26.5 -85.5t-72 -62.5t-99.5 -23q-37 0 -74 12t-64 35l3 19l6 2q26 -24 61 -36t70 -12q50 0 90.5 21t63 55
t22.5 73q0 35 -16.5 61.5t-40 44.5t-64.5 43q-43 27 -68 46t-42.5 48.5t-17.5 69.5q0 45 25 82t68 58.5t96 21.5q61 0 114 -29zM190.5 -97.5q5.5 -5.5 5.5 -14.5t-5.5 -14.5t-14.5 -5.5t-14.5 5.5t-5.5 14.5t5.5 14.5t14.5 5.5t14.5 -5.5zM298.5 810.5q5.5 -5.5 5.5 -14.5
t-5.5 -14.5t-14.5 -5.5t-14.5 5.5t-5.5 14.5t5.5 14.5t14.5 5.5t14.5 -5.5z" />
    <glyph glyph-name="uni1E9E" unicode="&#x1e9e;" horiz-adv-x="564" 
d="M523 586l2 -11l-209 -231q97 -11 148 -52t51 -109q0 -53 -25.5 -96t-69 -67t-94.5 -24q-37 0 -76 12.5t-66 34.5l5 19l5 2q25 -23 61.5 -35.5t71.5 -12.5q47 0 85.5 22.5t60.5 60t22 81.5q0 65 -53.5 101t-152.5 44l-1 15l211 235q-78 45 -159 45q-83 0 -139.5 -51
t-66.5 -135l-30 -238l-25 -196h-20l25 190l30 243q8 61 39.5 108t80.5 73t109 26q87 0 180 -54z" />
    <glyph glyph-name="uni018F" unicode="&#x18f;" horiz-adv-x="591" 
d="M500 572.5q59 -68.5 59 -193.5q0 -113 -38.5 -200.5t-108 -135.5t-158.5 -48q-96 0 -153 54.5t-57 144.5q0 32 10 69l8 9l468 6q9 47 9 99q0 117 -54.5 180.5t-156.5 63.5q-53 0 -107 -16t-93 -43l-7 2l5 19q47 28 100.5 43t105.5 15q109 0 168 -68.5zM428 80.5
q72 64.5 98 176.5l-456 -5l-5 -32q-2 -20 -2 -29q0 -79 52.5 -127t140.5 -48q100 0 172 64.5z" />
    <glyph glyph-name="T" unicode="T" horiz-adv-x="450" 
d="M474 633l-6 -16h-183l-54 -422l-24 -195h-20l24 195l54 422h-185l-3 4l6 16h388z" />
    <glyph glyph-name="Tbar" unicode="&#x166;" horiz-adv-x="450" 
d="M474 633l-6 -16h-183l-34 -267h93l3 -3l-2 -17h-97l-17 -135l-24 -195h-20l24 195l17 135h-93l-3 3l2 17h97l34 267h-185l-3 4l6 16h388z" />
    <glyph glyph-name="Tcaron" unicode="&#x164;" horiz-adv-x="450" 
d="M474 633l-6 -16h-183l-54 -422l-24 -195h-20l24 195l54 422h-185l-3 4l6 16h388zM403 831q-42 -41 -115 -126h-18q-49 78 -87 126l11 12h5q39 -50 81 -117q59 68 110 117h5z" />
    <glyph glyph-name="uni0162" unicode="&#x162;" horiz-adv-x="450" 
d="M474 633l-6 -16h-183l-54 -422l-24 -195l-19 -55l31 -20q17 -11 25 -22.5t8 -27.5q0 -24 -17.5 -38.5t-42.5 -14.5q-37 0 -59 33l6 18h4q10 -16 21 -23.5t28 -7.5q18 0 29 8.5t11 24.5q0 11 -5.5 17.5t-18.5 15.5l-43 28l22 64l24 195l54 422h-185l-3 4l6 16h388z" />
    <glyph glyph-name="uni021A" unicode="&#x21a;" horiz-adv-x="450" 
d="M474 633l-6 -16h-183l-54 -422l-24 -195h-20l24 195l54 422h-185l-3 4l6 16h388zM232 -117q0 -20 -17 -44t-49 -49l-10 11l1 3q26 19 40 39.5t14 38.5q0 20 -30 34v4q5 7 13 11q38 -17 38 -48z" />
    <glyph glyph-name="uni1E6C" unicode="&#x1e6c;" horiz-adv-x="450" 
d="M474 633l-6 -16h-183l-54 -422l-24 -195h-20l24 195l54 422h-185l-3 4l6 16h388zM204.5 -97.5q5.5 -5.5 5.5 -14.5t-5.5 -14.5t-14.5 -5.5t-14.5 5.5t-5.5 14.5t5.5 14.5t14.5 5.5t14.5 -5.5z" />
    <glyph glyph-name="uni1E6E" unicode="&#x1e6e;" horiz-adv-x="450" 
d="M474 633l-6 -16h-183l-54 -422l-24 -195h-20l24 195l54 422h-185l-3 4l6 16h388zM287 -130l-2 -17h-207l-3 3l2 17h207z" />
    <glyph glyph-name="U" unicode="U" horiz-adv-x="583" 
d="M510 312l-10 -83q-11 -111 -72.5 -172t-161.5 -61q-89 0 -137 46.5t-48 133.5q0 29 4 53l13 93l40 315h20l-53 -408q-4 -34 -4 -49q0 -79 42.5 -121.5t121.5 -42.5q91 0 146 55t69 158l51 408h20z" />
    <glyph glyph-name="Uacute" unicode="&#xda;" horiz-adv-x="583" 
d="M510 312l-10 -83q-11 -111 -72.5 -172t-161.5 -61q-89 0 -137 46.5t-48 133.5q0 29 4 53l13 93l40 315h20l-53 -408q-4 -34 -4 -49q0 -79 42.5 -121.5t121.5 -42.5q91 0 146 55t69 158l51 408h20zM449 834l7 -12l-2 -5q-67 -38 -174 -93l-5 3l-7 15q91 44 176 94z" />
    <glyph glyph-name="Ubreve" unicode="&#x16c;" horiz-adv-x="583" 
d="M510 312l-10 -83q-11 -111 -72.5 -172t-161.5 -61q-89 0 -137 46.5t-48 133.5q0 29 4 53l13 93l40 315h20l-53 -408q-4 -34 -4 -49q0 -79 42.5 -121.5t121.5 -42.5q91 0 146 55t69 158l51 408h20zM460 812q-16 -54 -44 -79.5t-70 -25.5t-63 25.5t-25 79.5l15 13h5
q1 -50 18 -74t53 -24q35 0 58 24t36 74h5z" />
    <glyph glyph-name="uni01D3" unicode="&#x1d3;" horiz-adv-x="583" 
d="M510 312l-10 -83q-11 -111 -72.5 -172t-161.5 -61q-89 0 -137 46.5t-48 133.5q0 29 4 53l13 93l40 315h20l-53 -408q-4 -34 -4 -49q0 -79 42.5 -121.5t121.5 -42.5q91 0 146 55t69 158l51 408h20zM469 831q-42 -41 -115 -126h-18q-49 78 -87 126l11 12h5q39 -50 81 -117
q59 68 110 117h5z" />
    <glyph glyph-name="Ucircumflex" unicode="&#xdb;" horiz-adv-x="583" 
d="M510 312l-10 -83q-11 -111 -72.5 -172t-161.5 -61q-89 0 -137 46.5t-48 133.5q0 29 4 53l13 93l40 315h20l-53 -408q-4 -34 -4 -49q0 -79 42.5 -121.5t121.5 -42.5q91 0 146 55t69 158l51 408h20zM248 743q37 24 105 76h16q52 -45 92 -76l-8 -14h-5q-40 29 -87 70
q-47 -35 -103 -70h-5z" />
    <glyph glyph-name="uni0214" unicode="&#x214;" horiz-adv-x="583" 
d="M510 312l-10 -83q-11 -111 -72.5 -172t-161.5 -61q-89 0 -137 46.5t-48 133.5q0 29 4 53l13 93l40 315h20l-53 -408q-4 -34 -4 -49q0 -79 42.5 -121.5t121.5 -42.5q91 0 146 55t69 158l51 408h20zM315 728q-52 48 -104 98l-1 5l10 10l5 1q51 -51 106 -100l-11 -13z
M445 728q-52 48 -104 98l-1 5l10 10l5 1q51 -51 106 -100l-11 -13z" />
    <glyph glyph-name="Udieresis" unicode="&#xdc;" horiz-adv-x="583" 
d="M510 312l-10 -83q-11 -111 -72.5 -172t-161.5 -61q-89 0 -137 46.5t-48 133.5q0 29 4 53l13 93l40 315h20l-53 -408q-4 -34 -4 -49q0 -79 42.5 -121.5t121.5 -42.5q91 0 146 55t69 158l51 408h20zM304.5 795.5q5.5 -5.5 5.5 -14.5t-5.5 -14.5t-14.5 -5.5t-14.5 5.5
t-5.5 14.5t5.5 14.5t14.5 5.5t14.5 -5.5zM454.5 795.5q5.5 -5.5 5.5 -14.5t-5.5 -14.5t-14.5 -5.5t-14.5 5.5t-5.5 14.5t5.5 14.5t14.5 5.5t14.5 -5.5z" />
    <glyph glyph-name="uni01D7" unicode="&#x1d7;" horiz-adv-x="583" 
d="M510 312l-10 -83q-11 -111 -72.5 -172t-161.5 -61q-89 0 -137 46.5t-48 133.5q0 29 4 53l13 93l40 315h20l-53 -408q-4 -34 -4 -49q0 -79 42.5 -121.5t121.5 -42.5q91 0 146 55t69 158l51 408h20zM448 908l5 -13l-3 -5q-80 -29 -187 -61l-5 4l-4 16q93 26 190 62z
M285.5 774.5q5.5 -5.5 5.5 -14.5t-5.5 -14.5t-14.5 -5.5t-14.5 5.5t-5.5 14.5t5.5 14.5t14.5 5.5t14.5 -5.5zM425.5 774.5q5.5 -5.5 5.5 -14.5t-5.5 -14.5t-14.5 -5.5t-14.5 5.5t-5.5 14.5t5.5 14.5t14.5 5.5t14.5 -5.5z" />
    <glyph glyph-name="uni01D9" unicode="&#x1d9;" horiz-adv-x="583" 
d="M510 312l-10 -83q-11 -111 -72.5 -172t-161.5 -61q-89 0 -137 46.5t-48 133.5q0 29 4 53l13 93l40 315h20l-53 -408q-4 -34 -4 -49q0 -79 42.5 -121.5t121.5 -42.5q91 0 146 55t69 158l51 408h20zM294.5 775.5q5.5 -5.5 5.5 -14.5t-5.5 -14.5t-14.5 -5.5t-14.5 5.5
t-5.5 14.5t5.5 14.5t14.5 5.5t14.5 -5.5zM444.5 775.5q5.5 -5.5 5.5 -14.5t-5.5 -14.5t-14.5 -5.5t-14.5 5.5t-5.5 14.5t5.5 14.5t14.5 5.5t14.5 -5.5zM475 894q-37 -24 -105 -76h-16q-52 45 -92 76l8 14h5q40 -29 87 -70q47 35 103 70h5z" />
    <glyph glyph-name="uni01DB" unicode="&#x1db;" horiz-adv-x="583" 
d="M510 312l-10 -83q-11 -111 -72.5 -172t-161.5 -61q-89 0 -137 46.5t-48 133.5q0 29 4 53l13 93l40 315h20l-53 -408q-4 -34 -4 -49q0 -79 42.5 -121.5t121.5 -42.5q91 0 146 55t69 158l51 408h20zM247 890l-3 5l5 13l4 3q97 -36 190 -62l-4 -16l-5 -4q-107 32 -187 61z
M256.5 745.5q-5.5 5.5 -5.5 14.5t5.5 14.5t14.5 5.5t14.5 -5.5t5.5 -14.5t-5.5 -14.5t-14.5 -5.5t-14.5 5.5zM396.5 745.5q-5.5 5.5 -5.5 14.5t5.5 14.5t14.5 5.5t14.5 -5.5t5.5 -14.5t-5.5 -14.5t-14.5 -5.5t-14.5 5.5z" />
    <glyph glyph-name="uni01D5" unicode="&#x1d5;" horiz-adv-x="583" 
d="M510 312l-10 -83q-11 -111 -72.5 -172t-161.5 -61q-89 0 -137 46.5t-48 133.5q0 29 4 53l13 93l40 315h20l-53 -408q-4 -34 -4 -49q0 -79 42.5 -121.5t121.5 -42.5q91 0 146 55t69 158l51 408h20zM498 873l-2 -17h-237l-3 3l2 17h237zM312.5 774.5q5.5 -5.5 5.5 -14.5
t-5.5 -14.5t-14.5 -5.5t-14.5 5.5t-5.5 14.5t5.5 14.5t14.5 5.5t14.5 -5.5zM452.5 774.5q5.5 -5.5 5.5 -14.5t-5.5 -14.5t-14.5 -5.5t-14.5 5.5t-5.5 14.5t5.5 14.5t14.5 5.5t14.5 -5.5z" />
    <glyph glyph-name="uni1EE4" unicode="&#x1ee4;" horiz-adv-x="583" 
d="M510 312l-10 -83q-11 -111 -72.5 -172t-161.5 -61q-89 0 -137 46.5t-48 133.5q0 29 4 53l13 93l40 315h20l-53 -408q-4 -34 -4 -49q0 -79 42.5 -121.5t121.5 -42.5q91 0 146 55t69 158l51 408h20zM270.5 -97.5q5.5 -5.5 5.5 -14.5t-5.5 -14.5t-14.5 -5.5t-14.5 5.5
t-5.5 14.5t5.5 14.5t14.5 5.5t14.5 -5.5z" />
    <glyph glyph-name="Ugrave" unicode="&#xd9;" horiz-adv-x="583" 
d="M510 312l-10 -83q-11 -111 -72.5 -172t-161.5 -61q-89 0 -137 46.5t-48 133.5q0 29 4 53l13 93l40 315h20l-53 -408q-4 -34 -4 -49q0 -79 42.5 -121.5t121.5 -42.5q91 0 146 55t69 158l51 408h20zM436 742l-7 -15l-5 -3q-107 55 -174 93l-2 5l7 12l5 2q85 -50 176 -94z
" />
    <glyph glyph-name="uni1EE6" unicode="&#x1ee6;" horiz-adv-x="583" 
d="M510 312l-10 -83q-11 -111 -72.5 -172t-161.5 -61q-89 0 -137 46.5t-48 133.5q0 29 4 53l13 93l40 315h20l-53 -408q-4 -34 -4 -49q0 -79 42.5 -121.5t121.5 -42.5q91 0 146 55t69 158l51 408h20zM322 737q25 16 38 31.5t13 26.5q0 9 -7 14.5t-19 5.5q-26 0 -54 -23
l-8 14q34 29 64 29q19 0 31.5 -11t12.5 -27q0 -29 -48 -65l16 -29l-17 -7z" />
    <glyph glyph-name="Uhorn" unicode="&#x1af;" horiz-adv-x="617" 
d="M605.5 639q-21.5 -20 -56.5 -22l-39 -305l-10 -83q-11 -111 -72.5 -172t-161.5 -61q-89 0 -137 46.5t-48 133.5q0 29 4 53l13 93l40 315h20l-53 -408q-4 -34 -4 -49q0 -79 42.5 -121.5t121.5 -42.5q91 0 146 55t69 158l51 408h11q30 0 47.5 14.5t17.5 38.5q0 27 -31 61
l2 5q6 5 12 5t15 -10t15.5 -26t6.5 -35q0 -31 -21.5 -51z" />
    <glyph glyph-name="uni1EE8" unicode="&#x1ee8;" horiz-adv-x="617" 
d="M605.5 639q-21.5 -20 -56.5 -22l-39 -305l-10 -83q-11 -111 -72.5 -172t-161.5 -61q-89 0 -137 46.5t-48 133.5q0 29 4 53l13 93l40 315h20l-53 -408q-4 -34 -4 -49q0 -79 42.5 -121.5t121.5 -42.5q91 0 146 55t69 158l51 408h11q30 0 47.5 14.5t17.5 38.5q0 27 -31 61
l2 5q6 5 12 5t15 -10t15.5 -26t6.5 -35q0 -31 -21.5 -51zM446 834l7 -12l-2 -5q-67 -38 -174 -93l-5 3l-7 15q91 44 176 94z" />
    <glyph glyph-name="uni1EF0" unicode="&#x1ef0;" horiz-adv-x="617" 
d="M605.5 639q-21.5 -20 -56.5 -22l-39 -305l-10 -83q-11 -111 -72.5 -172t-161.5 -61q-89 0 -137 46.5t-48 133.5q0 29 4 53l13 93l40 315h20l-53 -408q-4 -34 -4 -49q0 -79 42.5 -121.5t121.5 -42.5q91 0 146 55t69 158l51 408h11q30 0 47.5 14.5t17.5 38.5q0 27 -31 61
l2 5q6 5 12 5t15 -10t15.5 -26t6.5 -35q0 -31 -21.5 -51zM275.5 -97.5q5.5 -5.5 5.5 -14.5t-5.5 -14.5t-14.5 -5.5t-14.5 5.5t-5.5 14.5t5.5 14.5t14.5 5.5t14.5 -5.5z" />
    <glyph glyph-name="uni1EEA" unicode="&#x1eea;" horiz-adv-x="617" 
d="M605.5 639q-21.5 -20 -56.5 -22l-39 -305l-10 -83q-11 -111 -72.5 -172t-161.5 -61q-89 0 -137 46.5t-48 133.5q0 29 4 53l13 93l40 315h20l-53 -408q-4 -34 -4 -49q0 -79 42.5 -121.5t121.5 -42.5q91 0 146 55t69 158l51 408h11q30 0 47.5 14.5t17.5 38.5q0 27 -31 61
l2 5q6 5 12 5t15 -10t15.5 -26t6.5 -35q0 -31 -21.5 -51zM433 742l-7 -15l-5 -3q-107 55 -174 93l-2 5l7 12l5 2q85 -50 176 -94z" />
    <glyph glyph-name="uni1EEC" unicode="&#x1eec;" horiz-adv-x="617" 
d="M605.5 639q-21.5 -20 -56.5 -22l-39 -305l-10 -83q-11 -111 -72.5 -172t-161.5 -61q-89 0 -137 46.5t-48 133.5q0 29 4 53l13 93l40 315h20l-53 -408q-4 -34 -4 -49q0 -79 42.5 -121.5t121.5 -42.5q91 0 146 55t69 158l51 408h11q30 0 47.5 14.5t17.5 38.5q0 27 -31 61
l2 5q6 5 12 5t15 -10t15.5 -26t6.5 -35q0 -31 -21.5 -51zM319 737q25 16 38 31.5t13 26.5q0 9 -7 14.5t-19 5.5q-26 0 -54 -23l-8 14q34 29 64 29q19 0 31.5 -11t12.5 -27q0 -29 -48 -65l16 -29l-17 -7z" />
    <glyph glyph-name="uni1EEE" unicode="&#x1eee;" horiz-adv-x="617" 
d="M605.5 639q-21.5 -20 -56.5 -22l-39 -305l-10 -83q-11 -111 -72.5 -172t-161.5 -61q-89 0 -137 46.5t-48 133.5q0 29 4 53l13 93l40 315h20l-53 -408q-4 -34 -4 -49q0 -79 42.5 -121.5t121.5 -42.5q91 0 146 55t69 158l51 408h11q30 0 47.5 14.5t17.5 38.5q0 27 -31 61
l2 5q6 5 12 5t15 -10t15.5 -26t6.5 -35q0 -31 -21.5 -51zM496 805v-4l-52 -47l-6 -2q-20 2 -81 20q-6 2 -35 10t-40 8q-5 0 -13 -6t-17 -16l-21 -19h-4l-9 11v4l52 47l6 2q20 -2 81 -20q6 -2 35 -10t40 -8q5 0 13 6t17 16l21 19h4z" />
    <glyph glyph-name="Uhungarumlaut" unicode="&#x170;" horiz-adv-x="583" 
d="M510 312l-10 -83q-11 -111 -72.5 -172t-161.5 -61q-89 0 -137 46.5t-48 133.5q0 29 4 53l13 93l40 315h20l-53 -408q-4 -34 -4 -49q0 -79 42.5 -121.5t121.5 -42.5q91 0 146 55t69 158l51 408h20zM285 757q75 70 89 84l5 -1l10 -10l-1 -5q-35 -35 -112 -105l-5 1l-11 13z
M415 757q75 70 89 84l5 -1l10 -10l-1 -5q-35 -35 -112 -105l-5 1l-11 13z" />
    <glyph glyph-name="uni0216" unicode="&#x216;" horiz-adv-x="583" 
d="M510 312l-10 -83q-11 -111 -72.5 -172t-161.5 -61q-89 0 -137 46.5t-48 133.5q0 29 4 53l13 93l40 315h20l-53 -408q-4 -34 -4 -49q0 -79 42.5 -121.5t121.5 -42.5q91 0 146 55t69 158l51 408h20zM258 720q16 54 44 79.5t70 25.5t63 -25.5t25 -79.5l-15 -13h-5
q-1 50 -18 74t-53 24q-35 0 -58 -24t-36 -74h-5z" />
    <glyph glyph-name="Umacron" unicode="&#x16a;" horiz-adv-x="583" 
d="M510 312l-10 -83q-11 -111 -72.5 -172t-161.5 -61q-89 0 -137 46.5t-48 133.5q0 29 4 53l13 93l40 315h20l-53 -408q-4 -34 -4 -49q0 -79 42.5 -121.5t121.5 -42.5q91 0 146 55t69 158l51 408h20zM506 789l-2 -17h-287l-3 3l2 17h287z" />
    <glyph glyph-name="uni1E7A" unicode="&#x1e7a;" horiz-adv-x="583" 
d="M510 312l-10 -83q-11 -111 -72.5 -172t-161.5 -61q-89 0 -137 46.5t-48 133.5q0 29 4 53l13 93l40 315h20l-53 -408q-4 -34 -4 -49q0 -79 42.5 -121.5t121.5 -42.5q91 0 146 55t69 158l51 408h20zM506 789l-2 -17h-287l-3 3l2 17h287zM324.5 950.5q5.5 -5.5 5.5 -14.5
t-5.5 -14.5t-14.5 -5.5t-14.5 5.5t-5.5 14.5t5.5 14.5t14.5 5.5t14.5 -5.5zM474.5 950.5q5.5 -5.5 5.5 -14.5t-5.5 -14.5t-14.5 -5.5t-14.5 5.5t-5.5 14.5t5.5 14.5t14.5 5.5t14.5 -5.5z" />
    <glyph glyph-name="Uogonek" unicode="&#x172;" horiz-adv-x="583" 
d="M510 312l-10 -83q-11 -111 -72.5 -172t-161.5 -61q-89 0 -137 46.5t-48 133.5q0 29 4 53l13 93l40 315h20l-53 -408q-4 -34 -4 -49q0 -79 42.5 -121.5t121.5 -42.5q91 0 146 55t69 158l51 408h20zM252.5 -190.5q-17.5 17.5 -17.5 47.5q0 20 10.5 38.5t50.5 72.5l31 42h24
q-18 -22 -28 -38q-44 -58 -55.5 -76.5t-11.5 -36.5q0 -21 11.5 -33.5t32.5 -12.5t42 13.5t39 38.5h2l11 -16q-44 -57 -95 -57q-29 0 -46.5 17.5z" />
    <glyph glyph-name="Uring" unicode="&#x16e;" horiz-adv-x="583" 
d="M510 312l-10 -83q-11 -111 -72.5 -172t-161.5 -61q-89 0 -137 46.5t-48 133.5q0 29 4 53l13 93l40 315h20l-53 -408q-4 -34 -4 -49q0 -79 42.5 -121.5t121.5 -42.5q91 0 146 55t69 158l51 408h20zM411 832q19 -21 19 -49q0 -31 -21.5 -50t-49.5 -19t-49 19.5t-21 50.5
q0 30 19.5 49.5t50.5 19.5q33 0 52 -21zM322.5 819.5q-13.5 -13.5 -13.5 -35.5q0 -23 14.5 -36.5t35.5 -13.5t36 13t15 36q0 21 -13.5 35.5t-37.5 14.5q-23 0 -36.5 -13.5z" />
    <glyph glyph-name="uni1E78" unicode="&#x1e78;" horiz-adv-x="583" 
d="M510 312l-10 -83q-11 -111 -72.5 -172t-161.5 -61q-89 0 -137 46.5t-48 133.5q0 29 4 53l13 93l40 315h20l-53 -408q-4 -34 -4 -49q0 -79 42.5 -121.5t121.5 -42.5q91 0 146 55t69 158l51 408h20zM471 909l5 -13l-3 -5q-80 -29 -187 -61l-5 4l-4 16q93 26 190 62z
M488 782v-4l-47 -47l-6 -2q-16 2 -72 20q-54 18 -65 18q-5 0 -13 -7t-17 -17l-16 -16h-3l-9 11v4l47 47l6 2q16 -2 72 -20q54 -18 65 -18q5 0 12 6t15 15l19 19h3z" />
    <glyph glyph-name="V" unicode="V" horiz-adv-x="508" 
d="M232 0h-22l-139 637h23l7 -43l122 -560h4l280 560l18 43h24z" />
    <glyph glyph-name="W" unicode="W" horiz-adv-x="834" 
d="M559 0h-20l-91 438h-4l-213 -438h-22l-135 637h23l7 -43l119 -560h4l213 437l-36 166h22l7 -43l118 -560h4l276 560l19 43h23z" />
    <glyph glyph-name="Wacute" unicode="&#x1e82;" horiz-adv-x="834" 
d="M559 0h-20l-91 438h-4l-213 -438h-22l-135 637h23l7 -43l119 -560h4l213 437l-36 166h22l7 -43l118 -560h4l276 560l19 43h23zM554 834l7 -12l-2 -5q-67 -38 -174 -93l-5 3l-7 15q91 44 176 94z" />
    <glyph glyph-name="Wcircumflex" unicode="&#x174;" horiz-adv-x="834" 
d="M559 0h-20l-91 438h-4l-213 -438h-22l-135 637h23l7 -43l119 -560h4l213 437l-36 166h22l7 -43l118 -560h4l276 560l19 43h23zM353 743q37 24 105 76h16q52 -45 92 -76l-8 -14h-5q-40 29 -87 70q-47 -35 -103 -70h-5z" />
    <glyph glyph-name="Wdieresis" unicode="&#x1e84;" horiz-adv-x="834" 
d="M559 0h-20l-91 438h-4l-213 -438h-22l-135 637h23l7 -43l119 -560h4l213 437l-36 166h22l7 -43l118 -560h4l276 560l19 43h23zM409.5 795.5q5.5 -5.5 5.5 -14.5t-5.5 -14.5t-14.5 -5.5t-14.5 5.5t-5.5 14.5t5.5 14.5t14.5 5.5t14.5 -5.5zM559.5 795.5q5.5 -5.5 5.5 -14.5
t-5.5 -14.5t-14.5 -5.5t-14.5 5.5t-5.5 14.5t5.5 14.5t14.5 5.5t14.5 -5.5z" />
    <glyph glyph-name="Wgrave" unicode="&#x1e80;" horiz-adv-x="834" 
d="M559 0h-20l-91 438h-4l-213 -438h-22l-135 637h23l7 -43l119 -560h4l213 437l-36 166h22l7 -43l118 -560h4l276 560l19 43h23zM541 742l-7 -15l-5 -3q-107 55 -174 93l-2 5l7 12l5 2q85 -50 176 -94z" />
    <glyph glyph-name="X" unicode="X" horiz-adv-x="537" 
d="M290 329l173 -329h-25l-16 38l-148 276l-215 -278l-25 -36h-27l257 331l-161 306h26l16 -35l134 -256l195 251l27 40h27z" />
    <glyph glyph-name="Y" unicode="Y" horiz-adv-x="469" 
d="M238 247l-7 -52l-24 -195h-20l24 195l7 50l-141 392h25l7 -26l120 -334h5l218 334l14 26h26z" />
    <glyph glyph-name="Ycircumflex" unicode="&#x176;" horiz-adv-x="469" 
d="M238 247l-7 -52l-24 -195h-20l24 195l7 50l-141 392h25l7 -26l120 -334h5l218 334l14 26h26zM191 743q37 24 105 76h16q52 -45 92 -76l-8 -14h-5q-40 29 -87 70q-47 -35 -103 -70h-5z" />
    <glyph glyph-name="Ydieresis" unicode="&#x178;" horiz-adv-x="469" 
d="M238 247l-7 -52l-24 -195h-20l24 195l7 50l-141 392h25l7 -26l120 -334h5l218 334l14 26h26zM247.5 795.5q5.5 -5.5 5.5 -14.5t-5.5 -14.5t-14.5 -5.5t-14.5 5.5t-5.5 14.5t5.5 14.5t14.5 5.5t14.5 -5.5zM397.5 795.5q5.5 -5.5 5.5 -14.5t-5.5 -14.5t-14.5 -5.5
t-14.5 5.5t-5.5 14.5t5.5 14.5t14.5 5.5t14.5 -5.5z" />
    <glyph glyph-name="uni1E8E" unicode="&#x1e8e;" horiz-adv-x="469" 
d="M238 247l-7 -52l-24 -195h-20l24 195l7 50l-141 392h25l7 -26l120 -334h5l218 334l14 26h26zM321.5 810.5q5.5 -5.5 5.5 -14.5t-5.5 -14.5t-14.5 -5.5t-14.5 5.5t-5.5 14.5t5.5 14.5t14.5 5.5t14.5 -5.5z" />
    <glyph glyph-name="uni1EF4" unicode="&#x1ef4;" horiz-adv-x="469" 
d="M238 247l-7 -52l-24 -195h-20l24 195l7 50l-141 392h25l7 -26l120 -334h5l218 334l14 26h26zM213.5 -97.5q5.5 -5.5 5.5 -14.5t-5.5 -14.5t-14.5 -5.5t-14.5 5.5t-5.5 14.5t5.5 14.5t14.5 5.5t14.5 -5.5z" />
    <glyph glyph-name="Ygrave" unicode="&#x1ef2;" horiz-adv-x="469" 
d="M238 247l-7 -52l-24 -195h-20l24 195l7 50l-141 392h25l7 -26l120 -334h5l218 334l14 26h26zM379 742l-7 -15l-5 -3q-107 55 -174 93l-2 5l7 12l5 2q85 -50 176 -94z" />
    <glyph glyph-name="uni1EF6" unicode="&#x1ef6;" horiz-adv-x="469" 
d="M238 247l-7 -52l-24 -195h-20l24 195l7 50l-141 392h25l7 -26l120 -334h5l218 334l14 26h26zM265 737q25 16 38 31.5t13 26.5q0 9 -7 14.5t-19 5.5q-26 0 -54 -23l-8 14q34 29 64 29q19 0 31.5 -11t12.5 -27q0 -29 -48 -65l16 -29l-17 -7z" />
    <glyph glyph-name="uni0232" unicode="&#x232;" horiz-adv-x="469" 
d="M238 247l-7 -52l-24 -195h-20l24 195l7 50l-141 392h25l7 -26l120 -334h5l218 334l14 26h26zM449 789l-2 -17h-287l-3 3l2 17h287z" />
    <glyph glyph-name="Z" unicode="Z" horiz-adv-x="482" 
d="M487 620l-453 -600h310l65 1l4 -5l-6 -16h-368l-34 -1l2 18l453 600h-300l-55 -1l-4 5l6 17l61 -1h286l35 1z" />
    <glyph glyph-name="Zacute" unicode="&#x179;" horiz-adv-x="482" 
d="M487 620l-453 -600h310l65 1l4 -5l-6 -16h-368l-34 -1l2 18l453 600h-300l-55 -1l-4 5l6 17l61 -1h286l35 1zM370 834l7 -12l-2 -5q-67 -38 -174 -93l-5 3l-7 15q91 44 176 94z" />
    <glyph glyph-name="Zcaron" unicode="&#x17d;" horiz-adv-x="482" 
d="M487 620l-453 -600h310l65 1l4 -5l-6 -16h-368l-34 -1l2 18l453 600h-300l-55 -1l-4 5l6 17l61 -1h286l35 1zM389 805q-37 -24 -105 -76h-16q-52 45 -92 76l8 14h5q40 -29 87 -70q47 35 103 70h5z" />
    <glyph glyph-name="Zdotaccent" unicode="&#x17b;" horiz-adv-x="482" 
d="M487 620l-453 -600h310l65 1l4 -5l-6 -16h-368l-34 -1l2 18l453 600h-300l-55 -1l-4 5l6 17l61 -1h286l35 1zM297.5 810.5q5.5 -5.5 5.5 -14.5t-5.5 -14.5t-14.5 -5.5t-14.5 5.5t-5.5 14.5t5.5 14.5t14.5 5.5t14.5 -5.5z" />
    <glyph glyph-name="uni1E92" unicode="&#x1e92;" horiz-adv-x="482" 
d="M487 620l-453 -600h310l65 1l4 -5l-6 -16h-368l-34 -1l2 18l453 600h-300l-55 -1l-4 5l6 17l61 -1h286l35 1zM219.5 -97.5q5.5 -5.5 5.5 -14.5t-5.5 -14.5t-14.5 -5.5t-14.5 5.5t-5.5 14.5t5.5 14.5t14.5 5.5t14.5 -5.5z" />
    <glyph glyph-name="Iacute_J.loclNLD" horiz-adv-x="495" 
d="M125 195l-25 -195h-20l25 195l55 442h20zM275 834l7 -12l-2 -5q-67 -38 -174 -93l-5 3l-7 15q91 44 176 94zM382 212l-12 -97q-9 -70 -44 -118.5t-109 -94.5l-9 11v6q68 42 102 88t41 108l11 93l51 409h-125l-4 4l5 16h146zM473 834l7 -12l-2 -5q-67 -38 -174 -93l-5 3
l-7 15q91 44 176 94z" />
    <glyph glyph-name="uni1E9E.alt" horiz-adv-x="846" 
d="M398 611l-6 -18l-7 -1q-46 28 -104 28q-48 0 -86 -20.5t-59 -53.5t-21 -69q0 -33 16 -58t38.5 -42.5t62.5 -41.5q44 -26 70 -46t44 -50.5t18 -71.5q0 -46 -26.5 -85.5t-72 -62.5t-99.5 -23q-37 0 -74 12t-64 35l3 19l6 2q26 -24 61 -36t70 -12q50 0 90.5 21t63 55
t22.5 73q0 35 -16.5 61.5t-40 44.5t-64.5 43q-43 27 -68 46t-42.5 48.5t-17.5 69.5q0 45 25 82t68 58.5t96 21.5q61 0 114 -29zM821 611l-6 -18l-7 -1q-46 28 -104 28q-48 0 -86 -20.5t-59 -53.5t-21 -69q0 -33 16 -58t38.5 -42.5t62.5 -41.5q44 -26 70 -46t44 -50.5
t18 -71.5q0 -46 -26.5 -85.5t-72 -62.5t-99.5 -23q-37 0 -74 12t-64 35l3 19l6 2q26 -24 61 -36t70 -12q50 0 90.5 21t63 55t22.5 73q0 35 -16.5 61.5t-40 44.5t-64.5 43q-43 27 -68 46t-42.5 48.5t-17.5 69.5q0 45 25 82t68 58.5t96 21.5q61 0 114 -29z" />
    <glyph glyph-name="Q.short" horiz-adv-x="593" 
d="M402.5 -95.5q55.5 -40.5 138.5 -72.5l-1 -6l-7 -11h-5q-85 33 -142 77t-95 104q-8 -1 -24 -1q-102 0 -156.5 67t-54.5 191q0 121 35 208.5t102.5 134t161.5 46.5q104 0 158.5 -65t54.5 -186q0 -169 -66.5 -272.5t-188.5 -120.5q34 -53 89.5 -93.5zM126.5 78
q49.5 -63 141.5 -63q87 0 150 45.5t96 129t33 197.5q0 113 -49 174t-144 61q-87 0 -149 -44t-95 -126.5t-33 -195.5q0 -115 49.5 -178z" />
    <glyph glyph-name="C.ss01" horiz-adv-x="568" 
d="M645 617h-160q37 -15 65 -39l-9 -17h-7q-30 27 -70 41.5t-84 14.5q-119 0 -192 -78t-90 -224q-5 -42 -5 -69q0 -110 51 -168t148 -58q49 0 99 17.5t93 49.5l7 -2l-4 -18q-41 -30 -89 -47h173l-2 -20h-648l2 20h266q-57 26 -86.5 83t-29.5 143q0 29 5 72q14 116 62.5 192
t127.5 107h-271l2 20h648z" />
    <glyph glyph-name="D.ss01" horiz-adv-x="685" 
d="M762 617h-272q62 -25 94 -79.5t32 -136.5q0 -34 -4 -63q-15 -124 -68.5 -205t-140.5 -113h285l-2 -20h-765l2 20h171l22 175l52 422h-171l2 20h765zM597 396q0 108 -58.5 164.5t-169.5 56.5h-181l-52 -422l-22 -175h171q129 0 209 83t99 237q4 40 4 56z" />
    <glyph glyph-name="I.ss01" horiz-adv-x="282" 
d="M136 195l-22 -175h171l-2 -20h-362l2 20h171l22 175l52 422h-171l2 20h362l-2 -20h-171z" />
    <glyph glyph-name="L.ss01" horiz-adv-x="456" 
d="M136 195l-22 -175h250l14 110h20l-14 -110h75l-2 -20h-536l2 20h171l22 175l52 422h-171l2 20h536l-2 -20h-345z" />
    <glyph glyph-name="M.ss01" horiz-adv-x="822" 
d="M696 617l-8 -597h137l-2 -20h-902l2 20h137l140 597h-203l2 20h902l-2 -20h-203zM662 617h-428l22 -76l126 -413h4l239 424zM667 20l4 190l2 380h-4l-275 -491h-25l-150 491h-5l-89 -380l-44 -190h586z" />
    <glyph glyph-name="V.ss01" horiz-adv-x="576" 
d="M572 617l-312 -597h319l-2 -20h-656l2 20h302l-145 597h-83l2 20h656l-2 -20h-81zM549 617h-447l4 -23l137 -560h4l292 560z" />
    <glyph glyph-name="X.ss01" horiz-adv-x="570" 
d="M299 330l179 -310h95l-2 -20h-650l2 20h97l253 310l-165 287h-111l2 20h650l-2 -20h-114zM288 346l205 251l15 20h-374l7 -15zM285 314l-227 -278l-12 -16h407l-9 18z" />
    <glyph glyph-name="a" unicode="a" horiz-adv-x="422" 
d="M359 456l-46 -350l-9 -106l-25 -4l36 275h-4q-45 -85 -97 -156t-105 -119h-11q-27 20 -39.5 52t-12.5 89q0 85 26.5 156t78 115t122.5 49h4l65 -5l12 7zM149.5 64q35.5 40 82.5 110t91 159l4 29l7 70l-59 5q-63 -1 -110.5 -42.5t-73 -109t-25.5 -144.5q0 -41 7 -67
t16.5 -38t16.5 -12q8 0 43.5 40z" />
    <glyph glyph-name="aacute" unicode="&#xe1;" horiz-adv-x="422" 
d="M359 456l-46 -350l-9 -106l-25 -4l36 275h-4q-45 -85 -97 -156t-105 -119h-11q-27 20 -39.5 52t-12.5 89q0 85 26.5 156t78 115t122.5 49h4l65 -5l12 7zM149.5 64q35.5 40 82.5 110t91 159l4 29l7 70l-59 5q-63 -1 -110.5 -42.5t-73 -109t-25.5 -144.5q0 -41 7 -67
t16.5 -38t16.5 -12q8 0 43.5 40zM343 668l10 -10l-1 -5q-69 -69 -144 -135l-5 1l-11 13q69 58 146 137z" />
    <glyph glyph-name="abreve" unicode="&#x103;" horiz-adv-x="422" 
d="M359 456l-46 -350l-9 -106l-25 -4l36 275h-4q-45 -85 -97 -156t-105 -119h-11q-27 20 -39.5 52t-12.5 89q0 85 26.5 156t78 115t122.5 49h4l65 -5l12 7zM149.5 64q35.5 40 82.5 110t91 159l4 29l7 70l-59 5q-63 -1 -110.5 -42.5t-73 -109t-25.5 -144.5q0 -41 7 -67
t16.5 -38t16.5 -12q8 0 43.5 40zM370 627q-16 -54 -44 -79.5t-70 -25.5t-63 25.5t-25 79.5l15 13h5q1 -50 18 -74t53 -24q35 0 58 24t36 74h5z" />
    <glyph glyph-name="uni1EAF" unicode="&#x1eaf;" horiz-adv-x="422" 
d="M359 456l-46 -350l-9 -106l-25 -4l36 275h-4q-45 -85 -97 -156t-105 -119h-11q-27 20 -39.5 52t-12.5 89q0 85 26.5 156t78 115t122.5 49h4l65 -5l12 7zM149.5 64q35.5 40 82.5 110t91 159l4 29l7 70l-59 5q-63 -1 -110.5 -42.5t-73 -109t-25.5 -144.5q0 -41 7 -67
t16.5 -38t16.5 -12q8 0 43.5 40zM334 701l-1 -5q-30 -35 -61 -67l-20 -21l-5 1l-12 12q26 27 83 90h5zM369 597q-16 -36 -44 -55t-65 -19t-61.5 19t-30.5 55l14 11h5q4 -32 22.5 -48.5t51.5 -16.5q66 0 91 65h5z" />
    <glyph glyph-name="uni1EB7" unicode="&#x1eb7;" horiz-adv-x="422" 
d="M359 456l-46 -350l-9 -106l-25 -4l36 275h-4q-45 -85 -97 -156t-105 -119h-11q-27 20 -39.5 52t-12.5 89q0 85 26.5 156t78 115t122.5 49h4l65 -5l12 7zM149.5 64q35.5 40 82.5 110t91 159l4 29l7 70l-59 5q-63 -1 -110.5 -42.5t-73 -109t-25.5 -144.5q0 -41 7 -67
t16.5 -38t16.5 -12q8 0 43.5 40zM189.5 -97.5q5.5 -5.5 5.5 -14.5t-5.5 -14.5t-14.5 -5.5t-14.5 5.5t-5.5 14.5t5.5 14.5t14.5 5.5t14.5 -5.5zM377 627q-16 -54 -44 -79.5t-70 -25.5t-63 25.5t-25 79.5l15 13h5q1 -50 18 -74t53 -24q35 0 58 24t36 74h5z" />
    <glyph glyph-name="uni1EB1" unicode="&#x1eb1;" horiz-adv-x="422" 
d="M359 456l-46 -350l-9 -106l-25 -4l36 275h-4q-45 -85 -97 -156t-105 -119h-11q-27 20 -39.5 52t-12.5 89q0 85 26.5 156t78 115t122.5 49h4l65 -5l12 7zM149.5 64q35.5 40 82.5 110t91 159l4 29l7 70l-59 5q-63 -1 -110.5 -42.5t-73 -109t-25.5 -144.5q0 -41 7 -67
t16.5 -38t16.5 -12q8 0 43.5 40zM278 609l-5 -1l-20 21q-31 32 -61 67l-1 5l11 10h5q57 -63 83 -90zM369 598q-16 -36 -44 -55t-65 -19t-61.5 19t-30.5 55l14 11h5q4 -32 22.5 -48.5t51.5 -16.5q66 0 91 65h5z" />
    <glyph glyph-name="uni1EB3" unicode="&#x1eb3;" horiz-adv-x="422" 
d="M359 456l-46 -350l-9 -106l-25 -4l36 275h-4q-45 -85 -97 -156t-105 -119h-11q-27 20 -39.5 52t-12.5 89q0 85 26.5 156t78 115t122.5 49h4l65 -5l12 7zM149.5 64q35.5 40 82.5 110t91 159l4 29l7 70l-59 5q-63 -1 -110.5 -42.5t-73 -109t-25.5 -144.5q0 -41 7 -67
t16.5 -38t16.5 -12q8 0 43.5 40zM383 597q-16 -36 -44 -55t-65 -19t-61.5 19t-30.5 55l14 11h5q4 -32 22.5 -48.5t51.5 -16.5q66 0 91 65h5zM252 640q25 16 38 31.5t13 26.5q0 9 -7 14.5t-19 5.5q-26 0 -54 -23l-8 14q34 29 64 29q19 0 31.5 -11t12.5 -27q0 -29 -48 -65
l16 -29l-17 -7z" />
    <glyph glyph-name="uni1EB5" unicode="&#x1eb5;" horiz-adv-x="422" 
d="M359 456l-46 -350l-9 -106l-25 -4l36 275h-4q-45 -85 -97 -156t-105 -119h-11q-27 20 -39.5 52t-12.5 89q0 85 26.5 156t78 115t122.5 49h4l65 -5l12 7zM149.5 64q35.5 40 82.5 110t91 159l4 29l7 70l-59 5q-63 -1 -110.5 -42.5t-73 -109t-25.5 -144.5q0 -41 7 -67
t16.5 -38t16.5 -12q8 0 43.5 40zM356 597q-16 -36 -44 -55t-65 -19t-61.5 19t-30.5 55l14 11h5q4 -32 22.5 -48.5t51.5 -16.5q66 0 91 65h5zM400 708v-4l-53 -48l-6 -2q-24 3 -81 21q-62 18 -74 18q-5 0 -13 -6t-17 -16l-21 -19h-4l-9 11v4l53 48l6 2q24 -3 81 -21
q62 -18 74 -18q5 0 13 6t17 16l21 19h4z" />
    <glyph glyph-name="uni01CE" unicode="&#x1ce;" horiz-adv-x="422" 
d="M359 456l-46 -350l-9 -106l-25 -4l36 275h-4q-45 -85 -97 -156t-105 -119h-11q-27 20 -39.5 52t-12.5 89q0 85 26.5 156t78 115t122.5 49h4l65 -5l12 7zM149.5 64q35.5 40 82.5 110t91 159l4 29l7 70l-59 5q-63 -1 -110.5 -42.5t-73 -109t-25.5 -144.5q0 -41 7 -67
t16.5 -38t16.5 -12q8 0 43.5 40zM379 646q-42 -41 -115 -126h-18q-49 78 -87 126l11 12h5q39 -50 81 -117q59 68 110 117h5z" />
    <glyph glyph-name="acircumflex" unicode="&#xe2;" horiz-adv-x="422" 
d="M359 456l-46 -350l-9 -106l-25 -4l36 275h-4q-45 -85 -97 -156t-105 -119h-11q-27 20 -39.5 52t-12.5 89q0 85 26.5 156t78 115t122.5 49h4l65 -5l12 7zM149.5 64q35.5 40 82.5 110t91 159l4 29l7 70l-59 5q-63 -1 -110.5 -42.5t-73 -109t-25.5 -144.5q0 -41 7 -67
t16.5 -38t16.5 -12q8 0 43.5 40zM151 532q42 41 115 126h18q49 -78 87 -126l-11 -12h-5q-39 50 -81 117q-59 -68 -110 -117h-5z" />
    <glyph glyph-name="uni1EA5" unicode="&#x1ea5;" horiz-adv-x="422" 
d="M359 456l-46 -350l-9 -106l-25 -4l36 275h-4q-45 -85 -97 -156t-105 -119h-11q-27 20 -39.5 52t-12.5 89q0 85 26.5 156t78 115t122.5 49h4l65 -5l12 7zM149.5 64q35.5 40 82.5 110t91 159l4 29l7 70l-59 5q-63 -1 -110.5 -42.5t-73 -109t-25.5 -144.5q0 -41 7 -67
t16.5 -38t16.5 -12q8 0 43.5 40zM314 631l70 80l5 -1l11 -9l-1 -5l-68 -76h-6zM155 546q44 28 106 76h16q60 -52 91 -76l-8 -14h-5q-40 29 -87 70q-47 -35 -103 -70h-5z" />
    <glyph glyph-name="uni1EAD" unicode="&#x1ead;" horiz-adv-x="422" 
d="M359 456l-46 -350l-9 -106l-25 -4l36 275h-4q-45 -85 -97 -156t-105 -119h-11q-27 20 -39.5 52t-12.5 89q0 85 26.5 156t78 115t122.5 49h4l65 -5l12 7zM149.5 64q35.5 40 82.5 110t91 159l4 29l7 70l-59 5q-63 -1 -110.5 -42.5t-73 -109t-25.5 -144.5q0 -41 7 -67
t16.5 -38t16.5 -12q8 0 43.5 40zM189.5 -97.5q5.5 -5.5 5.5 -14.5t-5.5 -14.5t-14.5 -5.5t-14.5 5.5t-5.5 14.5t5.5 14.5t14.5 5.5t14.5 -5.5zM158 532q42 41 115 126h18q49 -78 87 -126l-11 -12h-5q-39 50 -81 117q-59 -68 -110 -117h-5z" />
    <glyph glyph-name="uni1EA7" unicode="&#x1ea7;" horiz-adv-x="422" 
d="M359 456l-46 -350l-9 -106l-25 -4l36 275h-4q-45 -85 -97 -156t-105 -119h-11q-27 20 -39.5 52t-12.5 89q0 85 26.5 156t78 115t122.5 49h4l65 -5l12 7zM149.5 64q35.5 40 82.5 110t91 159l4 29l7 70l-59 5q-63 -1 -110.5 -42.5t-73 -109t-25.5 -144.5q0 -41 7 -67
t16.5 -38t16.5 -12q8 0 43.5 40zM296 695l-1 5l11 9l5 1l70 -80l-11 -11h-6zM157 547q44 28 106 76h16q60 -52 91 -76l-8 -14h-5q-40 29 -87 70q-47 -35 -103 -70h-5z" />
    <glyph glyph-name="uni1EA9" unicode="&#x1ea9;" horiz-adv-x="422" 
d="M359 456l-46 -350l-9 -106l-25 -4l36 275h-4q-45 -85 -97 -156t-105 -119h-11q-27 20 -39.5 52t-12.5 89q0 85 26.5 156t78 115t122.5 49h4l65 -5l12 7zM149.5 64q35.5 40 82.5 110t91 159l4 29l7 70l-59 5q-63 -1 -110.5 -42.5t-73 -109t-25.5 -144.5q0 -41 7 -67
t16.5 -38t16.5 -12q8 0 43.5 40zM177 558q37 24 105 76h16q52 -45 92 -76l-8 -14h-5q-40 29 -87 70q-47 -35 -103 -70h-5zM343 662q25 16 38 31.5t13 26.5q0 9 -7 14.5t-19 5.5q-26 0 -54 -23l-8 14q34 29 64 29q19 0 31.5 -11t12.5 -27q0 -29 -48 -65l16 -29l-17 -7z" />
    <glyph glyph-name="uni1EAB" unicode="&#x1eab;" horiz-adv-x="422" 
d="M359 456l-46 -350l-9 -106l-25 -4l36 275h-4q-45 -85 -97 -156t-105 -119h-11q-27 20 -39.5 52t-12.5 89q0 85 26.5 156t78 115t122.5 49h4l65 -5l12 7zM149.5 64q35.5 40 82.5 110t91 159l4 29l7 70l-59 5q-63 -1 -110.5 -42.5t-73 -109t-25.5 -144.5q0 -41 7 -67
t16.5 -38t16.5 -12q8 0 43.5 40zM149 558q37 24 105 76h16q52 -45 92 -76l-8 -14h-5q-40 29 -87 70q-47 -35 -103 -70h-5zM414 727v-4l-53 -48l-6 -2q-24 3 -81 21q-62 18 -74 18q-5 0 -13 -6t-17 -16l-21 -19h-4l-9 11v4l53 48l6 2q24 -3 81 -21q62 -18 74 -18q5 0 13 6
t17 16l21 19h4z" />
    <glyph glyph-name="uni0201" unicode="&#x201;" horiz-adv-x="422" 
d="M359 456l-46 -350l-9 -106l-25 -4l36 275h-4q-45 -85 -97 -156t-105 -119h-11q-27 20 -39.5 52t-12.5 89q0 85 26.5 156t78 115t122.5 49h4l65 -5l12 7zM149.5 64q35.5 40 82.5 110t91 159l4 29l7 70l-59 5q-63 -1 -110.5 -42.5t-73 -109t-25.5 -144.5q0 -41 7 -67
t16.5 -38t16.5 -12q8 0 43.5 40zM235 516q-73 66 -144 135l-1 5l10 10l5 1q70 -69 146 -137l-11 -13zM365 516q-74 66 -144 135l-1 5l10 10l5 1q69 -69 146 -137l-11 -13z" />
    <glyph glyph-name="adieresis" unicode="&#xe4;" horiz-adv-x="422" 
d="M359 456l-46 -350l-9 -106l-25 -4l36 275h-4q-45 -85 -97 -156t-105 -119h-11q-27 20 -39.5 52t-12.5 89q0 85 26.5 156t78 115t122.5 49h4l65 -5l12 7zM149.5 64q35.5 40 82.5 110t91 159l4 29l7 70l-59 5q-63 -1 -110.5 -42.5t-73 -109t-25.5 -144.5q0 -41 7 -67
t16.5 -38t16.5 -12q8 0 43.5 40zM209.5 610.5q5.5 -5.5 5.5 -14.5t-5.5 -14.5t-14.5 -5.5t-14.5 5.5t-5.5 14.5t5.5 14.5t14.5 5.5t14.5 -5.5zM359.5 610.5q5.5 -5.5 5.5 -14.5t-5.5 -14.5t-14.5 -5.5t-14.5 5.5t-5.5 14.5t5.5 14.5t14.5 5.5t14.5 -5.5z" />
    <glyph glyph-name="uni1EA1" unicode="&#x1ea1;" horiz-adv-x="422" 
d="M359 456l-46 -350l-9 -106l-25 -4l36 275h-4q-45 -85 -97 -156t-105 -119h-11q-27 20 -39.5 52t-12.5 89q0 85 26.5 156t78 115t122.5 49h4l65 -5l12 7zM149.5 64q35.5 40 82.5 110t91 159l4 29l7 70l-59 5q-63 -1 -110.5 -42.5t-73 -109t-25.5 -144.5q0 -41 7 -67
t16.5 -38t16.5 -12q8 0 43.5 40zM189.5 -97.5q5.5 -5.5 5.5 -14.5t-5.5 -14.5t-14.5 -5.5t-14.5 5.5t-5.5 14.5t5.5 14.5t14.5 5.5t14.5 -5.5z" />
    <glyph glyph-name="agrave" unicode="&#xe0;" horiz-adv-x="422" 
d="M359 456l-46 -350l-9 -106l-25 -4l36 275h-4q-45 -85 -97 -156t-105 -119h-11q-27 20 -39.5 52t-12.5 89q0 85 26.5 156t78 115t122.5 49h4l65 -5l12 7zM149.5 64q35.5 40 82.5 110t91 159l4 29l7 70l-59 5q-63 -1 -110.5 -42.5t-73 -109t-25.5 -144.5q0 -41 7 -67
t16.5 -38t16.5 -12q8 0 43.5 40zM312 532l-11 -13l-5 -1q-75 66 -144 135l-1 5l10 10l5 1q77 -79 146 -137z" />
    <glyph glyph-name="uni1EA3" unicode="&#x1ea3;" horiz-adv-x="422" 
d="M359 456l-46 -350l-9 -106l-25 -4l36 275h-4q-45 -85 -97 -156t-105 -119h-11q-27 20 -39.5 52t-12.5 89q0 85 26.5 156t78 115t122.5 49h4l65 -5l12 7zM149.5 64q35.5 40 82.5 110t91 159l4 29l7 70l-59 5q-63 -1 -110.5 -42.5t-73 -109t-25.5 -144.5q0 -41 7 -67
t16.5 -38t16.5 -12q8 0 43.5 40zM232 552q25 16 38 31.5t13 26.5q0 9 -7 14.5t-19 5.5q-26 0 -54 -23l-8 14q34 29 64 29q19 0 31.5 -11t12.5 -27q0 -29 -48 -65l16 -29l-17 -7z" />
    <glyph glyph-name="uni0203" unicode="&#x203;" horiz-adv-x="422" 
d="M359 456l-46 -350l-9 -106l-25 -4l36 275h-4q-45 -85 -97 -156t-105 -119h-11q-27 20 -39.5 52t-12.5 89q0 85 26.5 156t78 115t122.5 49h4l65 -5l12 7zM149.5 64q35.5 40 82.5 110t91 159l4 29l7 70l-59 5q-63 -1 -110.5 -42.5t-73 -109t-25.5 -144.5q0 -41 7 -67
t16.5 -38t16.5 -12q8 0 43.5 40zM168 535q16 54 44 79.5t70 25.5t63 -25.5t25 -79.5l-15 -13h-5q-1 50 -18 74t-53 24q-35 0 -58 -24t-36 -74h-5z" />
    <glyph glyph-name="amacron" unicode="&#x101;" horiz-adv-x="422" 
d="M359 456l-46 -350l-9 -106l-25 -4l36 275h-4q-45 -85 -97 -156t-105 -119h-11q-27 20 -39.5 52t-12.5 89q0 85 26.5 156t78 115t122.5 49h4l65 -5l12 7zM149.5 64q35.5 40 82.5 110t91 159l4 29l7 70l-59 5q-63 -1 -110.5 -42.5t-73 -109t-25.5 -144.5q0 -41 7 -67
t16.5 -38t16.5 -12q8 0 43.5 40zM417 604l-2 -17h-287l-3 3l2 17h287z" />
    <glyph glyph-name="aogonek" unicode="&#x105;" horiz-adv-x="422" 
d="M359 456l-46 -350l-9 -106l-25 -4l36 275h-4q-45 -85 -97 -156t-105 -119h-11q-27 20 -39.5 52t-12.5 89q0 85 26.5 156t78 115t122.5 49h4l65 -5l12 7zM149.5 64q35.5 40 82.5 110t91 159l4 29l7 70l-59 5q-63 -1 -110.5 -42.5t-73 -109t-25.5 -144.5q0 -41 7 -67
t16.5 -38t16.5 -12q8 0 43.5 40zM241.5 -85.5q-23.5 -33.5 -29 -45.5t-5.5 -23t6.5 -17t17.5 -6q14 0 25 9.5t24 31.5h2l13 -13q-17 -26 -31.5 -37t-33.5 -11q-20 0 -32 10.5t-12 29.5q0 14 7 29t26.5 43t64.5 85h20q-39 -52 -62.5 -85.5z" />
    <glyph glyph-name="aring" unicode="&#xe5;" horiz-adv-x="422" 
d="M359 456l-46 -350l-9 -106l-25 -4l36 275h-4q-45 -85 -97 -156t-105 -119h-11q-27 20 -39.5 52t-12.5 89q0 85 26.5 156t78 115t122.5 49h4l65 -5l12 7zM149.5 64q35.5 40 82.5 110t91 159l4 29l7 70l-59 5q-63 -1 -110.5 -42.5t-73 -109t-25.5 -144.5q0 -41 7 -67
t16.5 -38t16.5 -12q8 0 43.5 40zM321 647q19 -21 19 -49q0 -31 -21.5 -50t-49.5 -19t-49 19.5t-21 50.5q0 30 19.5 49.5t50.5 19.5q33 0 52 -21zM232.5 634.5q-13.5 -13.5 -13.5 -35.5q0 -23 14.5 -36.5t35.5 -13.5t36 13t15 36q0 21 -13.5 35.5t-37.5 14.5
q-23 0 -36.5 -13.5z" />
    <glyph glyph-name="aringacute" unicode="&#x1fb;" horiz-adv-x="422" 
d="M359 456l-46 -350l-9 -106l-25 -4l36 275h-4q-45 -85 -97 -156t-105 -119h-11q-27 20 -39.5 52t-12.5 89q0 85 26.5 156t78 115t122.5 49h4l65 -5l12 7zM149.5 64q35.5 40 82.5 110t91 159l4 29l7 70l-59 5q-63 -1 -110.5 -42.5t-73 -109t-25.5 -144.5q0 -41 7 -67
t16.5 -38t16.5 -12q8 0 43.5 40zM321 647q19 -21 19 -49q0 -31 -21.5 -50t-49.5 -19t-49 19.5t-21 50.5q0 30 19.5 49.5t50.5 19.5q33 0 52 -21zM232.5 634.5q-13.5 -13.5 -13.5 -35.5q0 -23 14.5 -36.5t35.5 -13.5t36 13t15 36q0 21 -13.5 35.5t-37.5 14.5
q-23 0 -36.5 -13.5zM385.557 775.073l5.48438 -12.7637l-2.59473 -4.71875q-71.1318 -29.5439 -184.035 -71.082l-4.59668 3.58691l-5.11816 15.7412q95.6826 32.5723 186.142 71.8311z" />
    <glyph glyph-name="atilde" unicode="&#xe3;" horiz-adv-x="422" 
d="M359 456l-46 -350l-9 -106l-25 -4l36 275h-4q-45 -85 -97 -156t-105 -119h-11q-27 20 -39.5 52t-12.5 89q0 85 26.5 156t78 115t122.5 49h4l65 -5l12 7zM149.5 64q35.5 40 82.5 110t91 159l4 29l7 70l-59 5q-63 -1 -110.5 -42.5t-73 -109t-25.5 -144.5q0 -41 7 -67
t16.5 -38t16.5 -12q8 0 43.5 40zM409 620v-4l-52 -47l-6 -2q-20 2 -81 20q-6 2 -35 10t-40 8q-5 0 -13 -6t-17 -16l-21 -19h-4l-9 11v4l52 47l6 2q20 -2 81 -20q6 -2 35 -10t40 -8q5 0 13 6t17 16l21 19h4z" />
    <glyph glyph-name="ae" unicode="&#xe6;" horiz-adv-x="570" 
d="M458 457h5q75 -6 75 -69q0 -57 -64 -111t-190 -101l-1 -28q0 -68 19.5 -100t59.5 -32q37 0 70.5 26.5t60.5 75.5h7l9 -13q-30 -50 -64.5 -77t-80.5 -33h-9q-49 6 -70.5 41.5t-21.5 106.5q0 50 7 89q-77 -150 -161 -236h-11q-27 20 -39.5 52t-12.5 89q0 85 26.5 156
t78 115t122.5 49h4l102 -26q37 24 79 26zM164.5 394.5q-47.5 -41.5 -73 -109t-25.5 -144.5q0 -41 7 -67t16.5 -38t16.5 -12q8 0 41 42t75.5 113t79.5 156q25 50 57 79l-84 23q-63 -1 -110.5 -42.5zM379.5 405.5q-37.5 -30.5 -62 -84.5t-31.5 -123q111 41 171 90t60 97
q0 23 -14.5 37t-42.5 14q-43 0 -80.5 -30.5z" />
    <glyph glyph-name="aeacute" unicode="&#x1fd;" horiz-adv-x="570" 
d="M458 457h5q75 -6 75 -69q0 -57 -64 -111t-190 -101l-1 -28q0 -68 19.5 -100t59.5 -32q37 0 70.5 26.5t60.5 75.5h7l9 -13q-30 -50 -64.5 -77t-80.5 -33h-9q-49 6 -70.5 41.5t-21.5 106.5q0 50 7 89q-77 -150 -161 -236h-11q-27 20 -39.5 52t-12.5 89q0 85 26.5 156
t78 115t122.5 49h4l102 -26q37 24 79 26zM164.5 394.5q-47.5 -41.5 -73 -109t-25.5 -144.5q0 -41 7 -67t16.5 -38t16.5 -12q8 0 41 42t75.5 113t79.5 156q25 50 57 79l-84 23q-63 -1 -110.5 -42.5zM379.5 405.5q-37.5 -30.5 -62 -84.5t-31.5 -123q111 41 171 90t60 97
q0 23 -14.5 37t-42.5 14q-43 0 -80.5 -30.5zM433 668l10 -10l-1 -5q-69 -69 -144 -135l-5 1l-11 13q69 58 146 137z" />
    <glyph glyph-name="b" unicode="b" horiz-adv-x="423" 
d="M365 402q12 -30 12 -85q0 -86 -27.5 -157.5t-79.5 -115.5t-124 -48h-4l-69 17l-9 1l79 594l7 90l25 4l-70 -523h4q45 85 98 156t107 119h11q28 -22 40 -52zM256.5 57q48.5 41 74.5 109t26 146q0 40 -7 65.5t-16.5 37t-16.5 11.5q-8 0 -44 -39.5t-83.5 -109.5t-92.5 -159
l-10 -88l57 -14q64 0 112.5 41z" />
    <glyph glyph-name="c" unicode="c" horiz-adv-x="324" 
d="M319 437l5 -7l-6 -14l-5 -3q-37 23 -64 23q-85 -1 -133 -80t-48 -215q0 -66 18.5 -95.5t54.5 -29.5q32 0 64.5 23.5t60.5 78.5h6l9 -13q-31 -55 -64 -79.5t-75 -30.5h-8q-27 5 -45.5 17t-29.5 43t-11 87q0 141 54 227.5t161 86.5z" />
    <glyph glyph-name="cacute" unicode="&#x107;" horiz-adv-x="324" 
d="M319 437l5 -7l-6 -14l-5 -3q-37 23 -64 23q-85 -1 -133 -80t-48 -215q0 -66 18.5 -95.5t54.5 -29.5q32 0 64.5 23.5t60.5 78.5h6l9 -13q-31 -55 -64 -79.5t-75 -30.5h-8q-27 5 -45.5 17t-29.5 43t-11 87q0 141 54 227.5t161 86.5zM313 668l10 -10l-1 -5
q-69 -69 -144 -135l-5 1l-11 13q69 58 146 137z" />
    <glyph glyph-name="ccaron" unicode="&#x10d;" horiz-adv-x="324" 
d="M319 437l5 -7l-6 -14l-5 -3q-37 23 -64 23q-85 -1 -133 -80t-48 -215q0 -66 18.5 -95.5t54.5 -29.5q32 0 64.5 23.5t60.5 78.5h6l9 -13q-31 -55 -64 -79.5t-75 -30.5h-8q-27 5 -45.5 17t-29.5 43t-11 87q0 141 54 227.5t161 86.5zM349 646q-42 -41 -115 -126h-18
q-49 78 -87 126l11 12h5q39 -50 81 -117q59 68 110 117h5z" />
    <glyph glyph-name="ccedilla" unicode="&#xe7;" horiz-adv-x="324" 
d="M319 437l5 -7l-6 -14l-5 -3q-37 23 -64 23q-85 -1 -133 -80t-48 -215q0 -66 18.5 -95.5t54.5 -29.5q32 0 64.5 23.5t60.5 78.5h6l9 -13q-31 -55 -64 -79.5t-75 -30.5h-8q-27 5 -45.5 17t-29.5 43t-11 87q0 141 54 227.5t161 86.5zM149 -55l31 -20q17 -11 25 -22.5
t8 -27.5q0 -24 -17.5 -38.5t-42.5 -14.5q-37 0 -59 33l6 18h4q10 -16 21 -23.5t28 -7.5q18 0 29 8.5t11 24.5q0 11 -5.5 17.5t-18.5 15.5l-43 28l24 75h20z" />
    <glyph glyph-name="uni1E09" unicode="&#x1e09;" horiz-adv-x="324" 
d="M319 437l5 -7l-6 -14l-5 -3q-37 23 -64 23q-85 -1 -133 -80t-48 -215q0 -66 18.5 -95.5t54.5 -29.5q32 0 64.5 23.5t60.5 78.5h6l9 -13q-31 -55 -64 -79.5t-75 -30.5h-8q-27 5 -45.5 17t-29.5 43t-11 87q0 141 54 227.5t161 86.5zM149 -55l31 -20q17 -11 25 -22.5
t8 -27.5q0 -24 -17.5 -38.5t-42.5 -14.5q-37 0 -59 33l6 18h4q10 -16 21 -23.5t28 -7.5q18 0 29 8.5t11 24.5q0 11 -5.5 17.5t-18.5 15.5l-43 28l24 75h20zM313 668l10 -10l-1 -5q-69 -69 -144 -135l-5 1l-11 13q69 58 146 137z" />
    <glyph glyph-name="ccircumflex" unicode="&#x109;" horiz-adv-x="324" 
d="M319 437l5 -7l-6 -14l-5 -3q-37 23 -64 23q-85 -1 -133 -80t-48 -215q0 -66 18.5 -95.5t54.5 -29.5q32 0 64.5 23.5t60.5 78.5h6l9 -13q-31 -55 -64 -79.5t-75 -30.5h-8q-27 5 -45.5 17t-29.5 43t-11 87q0 141 54 227.5t161 86.5zM121 532q42 41 115 126h18
q49 -78 87 -126l-11 -12h-5q-39 50 -81 117q-59 -68 -110 -117h-5z" />
    <glyph glyph-name="cdotaccent" unicode="&#x10b;" horiz-adv-x="324" 
d="M319 437l5 -7l-6 -14l-5 -3q-37 23 -64 23q-85 -1 -133 -80t-48 -215q0 -66 18.5 -95.5t54.5 -29.5q32 0 64.5 23.5t60.5 78.5h6l9 -13q-31 -55 -64 -79.5t-75 -30.5h-8q-27 5 -45.5 17t-29.5 43t-11 87q0 141 54 227.5t161 86.5zM256.5 625.5q5.5 -5.5 5.5 -14.5
t-5.5 -14.5t-14.5 -5.5t-14.5 5.5t-5.5 14.5t5.5 14.5t14.5 5.5t14.5 -5.5z" />
    <glyph glyph-name="d" unicode="d" horiz-adv-x="423" 
d="M394 702l-79 -596l-9 -106l-25 -4l37 275h-5q-46 -85 -99 -156.5t-107 -118.5h-11q-27 19 -39 50.5t-12 86.5q0 86 27.5 157.5t79.5 115.5t124 48h4l62 -3l21 157l6 90zM148.5 64q36.5 40 84.5 111t94 161l12 95l-61 3q-64 0 -112.5 -41t-74.5 -109t-26 -146
q0 -40 7 -65.5t16 -37t16 -11.5q8 0 44.5 40z" />
    <glyph glyph-name="eth" unicode="&#xf0;" horiz-adv-x="422" 
d="M270 590q44 -54 67.5 -123t23.5 -147q0 -91 -24 -163.5t-69.5 -115.5t-106.5 -47h-5q-50 3 -73.5 36.5t-23.5 103.5q0 91 24.5 164.5t70 116t106.5 43.5h5q39 -3 59 -22q-23 83 -76 145l-139 -58l-3 3l-3 16l131 55q-57 57 -131 90v5l10 10h4q82 -34 139 -96l117 49l4 -3
l3 -16zM253.5 54.5q40.5 39.5 63.5 108.5t23 154q0 29 -3 57q-15 63 -77 63q-53 0 -94 -39t-64 -107.5t-23 -153.5q0 -63 19.5 -92.5t61.5 -29.5q53 0 93.5 39.5z" />
    <glyph glyph-name="dcaron" unicode="&#x10f;" horiz-adv-x="437" 
d="M394 702l-79 -596l-9 -106l-25 -4l37 275h-5q-46 -85 -99 -156.5t-107 -118.5h-11q-27 19 -39 50.5t-12 86.5q0 86 27.5 157.5t79.5 115.5t124 48h4l62 -3l21 157l6 90zM148.5 64q36.5 40 84.5 111t94 161l12 95l-61 3q-64 0 -112.5 -41t-74.5 -109t-26 -146
q0 -40 7 -65.5t16 -37t16 -11.5q8 0 44.5 40zM501 651l-29 -144l-18 -2l-2 4l29 144l18 2z" />
    <glyph glyph-name="dcroat" unicode="&#x111;" horiz-adv-x="447" 
d="M467 561h-92l-60 -455l-9 -106l-25 -4l37 275h-5q-46 -85 -99 -156.5t-107 -118.5h-11q-27 19 -39 50.5t-12 86.5q0 86 27.5 157.5t79.5 115.5t124 48h4l62 -3l15 110h-120l-3 3l2 17h123l4 27l6 90l25 4l-16 -121h88l3 -3zM148.5 64q36.5 40 84.5 111t94 161l12 95
l-61 3q-64 0 -112.5 -41t-74.5 -109t-26 -146q0 -40 7 -65.5t16 -37t16 -11.5q8 0 44.5 40z" />
    <glyph glyph-name="uni1E0D" unicode="&#x1e0d;" horiz-adv-x="423" 
d="M394 702l-79 -596l-9 -106l-25 -4l37 275h-5q-46 -85 -99 -156.5t-107 -118.5h-11q-27 19 -39 50.5t-12 86.5q0 86 27.5 157.5t79.5 115.5t124 48h4l62 -3l21 157l6 90zM148.5 64q36.5 40 84.5 111t94 161l12 95l-61 3q-64 0 -112.5 -41t-74.5 -109t-26 -146
q0 -40 7 -65.5t16 -37t16 -11.5q8 0 44.5 40zM190.5 -97.5q5.5 -5.5 5.5 -14.5t-5.5 -14.5t-14.5 -5.5t-14.5 5.5t-5.5 14.5t5.5 14.5t14.5 5.5t14.5 -5.5z" />
    <glyph glyph-name="uni1E0F" unicode="&#x1e0f;" horiz-adv-x="423" 
d="M394 702l-79 -596l-9 -106l-25 -4l37 275h-5q-46 -85 -99 -156.5t-107 -118.5h-11q-27 19 -39 50.5t-12 86.5q0 86 27.5 157.5t79.5 115.5t124 48h4l62 -3l21 157l6 90zM148.5 64q36.5 40 84.5 111t94 161l12 95l-61 3q-64 0 -112.5 -41t-74.5 -109t-26 -146
q0 -40 7 -65.5t16 -37t16 -11.5q8 0 44.5 40zM273 -130l-2 -17h-207l-3 3l2 17h207z" />
    <glyph glyph-name="uni01C6" unicode="&#x1c6;" horiz-adv-x="816" 
d="M394 702l-79 -596l-9 -106l-25 -4l37 275h-5q-46 -85 -99 -156.5t-107 -118.5h-11q-27 19 -39 50.5t-12 86.5q0 86 27.5 157.5t79.5 115.5t124 48h4l62 -3l21 157l6 90zM148.5 64q36.5 40 84.5 111t94 161l12 95l-61 3q-64 0 -112.5 -41t-74.5 -109t-26 -146
q0 -40 7 -65.5t16 -37t16 -11.5q8 0 44.5 40zM781 455l-313 -416l27 5q21 0 44 -8t27 -9q43 -17 69 -17q52 0 79.5 39.5t32.5 119.5l9 1l10 -11q-9 -169 -133 -169q-26 0 -71 17q-18 6 -37.5 11t-34.5 5q-36 0 -61 -28h-3l-9 8l323 429h-200l-42 -1l-2 4l4 17l2 2l46 -2h205
l17 12zM775 646q-42 -41 -115 -126h-18q-49 78 -87 126l11 12h5q39 -50 81 -117q59 68 110 117h5z" />
    <glyph glyph-name="e" unicode="e" horiz-adv-x="354" 
d="M284 118l9 -13q-30 -50 -64.5 -77t-80.5 -33h-9q-49 6 -70.5 41.5t-21.5 106.5q0 88 25.5 159t70.5 112.5t99 42.5h5q75 -6 75 -69q0 -57 -64 -111t-190 -101q-1 -9 -1 -28q0 -68 19.5 -100t59.5 -32q37 0 70.5 26.5t60.5 75.5h7zM163.5 405.5q-37.5 -30.5 -62 -84.5
t-31.5 -123q111 41 171 90t60 97q0 23 -14.5 37t-42.5 14q-43 0 -80.5 -30.5z" />
    <glyph glyph-name="eacute" unicode="&#xe9;" horiz-adv-x="354" 
d="M284 118l9 -13q-30 -50 -64.5 -77t-80.5 -33h-9q-49 6 -70.5 41.5t-21.5 106.5q0 88 25.5 159t70.5 112.5t99 42.5h5q75 -6 75 -69q0 -57 -64 -111t-190 -101q-1 -9 -1 -28q0 -68 19.5 -100t59.5 -32q37 0 70.5 26.5t60.5 75.5h7zM163.5 405.5q-37.5 -30.5 -62 -84.5
t-31.5 -123q111 41 171 90t60 97q0 23 -14.5 37t-42.5 14q-43 0 -80.5 -30.5zM324 668l10 -10l-1 -5q-69 -69 -144 -135l-5 1l-11 13q69 58 146 137z" />
    <glyph glyph-name="ebreve" unicode="&#x115;" horiz-adv-x="354" 
d="M284 118l9 -13q-30 -50 -64.5 -77t-80.5 -33h-9q-49 6 -70.5 41.5t-21.5 106.5q0 88 25.5 159t70.5 112.5t99 42.5h5q75 -6 75 -69q0 -57 -64 -111t-190 -101q-1 -9 -1 -28q0 -68 19.5 -100t59.5 -32q37 0 70.5 26.5t60.5 75.5h7zM163.5 405.5q-37.5 -30.5 -62 -84.5
t-31.5 -123q111 41 171 90t60 97q0 23 -14.5 37t-42.5 14q-43 0 -80.5 -30.5zM351 627q-16 -54 -44 -79.5t-70 -25.5t-63 25.5t-25 79.5l15 13h5q1 -50 18 -74t53 -24q35 0 58 24t36 74h5z" />
    <glyph glyph-name="ecaron" unicode="&#x11b;" horiz-adv-x="354" 
d="M284 118l9 -13q-30 -50 -64.5 -77t-80.5 -33h-9q-49 6 -70.5 41.5t-21.5 106.5q0 88 25.5 159t70.5 112.5t99 42.5h5q75 -6 75 -69q0 -57 -64 -111t-190 -101q-1 -9 -1 -28q0 -68 19.5 -100t59.5 -32q37 0 70.5 26.5t60.5 75.5h7zM163.5 405.5q-37.5 -30.5 -62 -84.5
t-31.5 -123q111 41 171 90t60 97q0 23 -14.5 37t-42.5 14q-43 0 -80.5 -30.5zM360 646q-42 -41 -115 -126h-18q-49 78 -87 126l11 12h5q39 -50 81 -117q59 68 110 117h5z" />
    <glyph glyph-name="uni1E1D" unicode="&#x1e1d;" horiz-adv-x="354" 
d="M284 118l9 -13q-30 -50 -64.5 -77t-80.5 -33h-9q-49 6 -70.5 41.5t-21.5 106.5q0 88 25.5 159t70.5 112.5t99 42.5h5q75 -6 75 -69q0 -57 -64 -111t-190 -101q-1 -9 -1 -28q0 -68 19.5 -100t59.5 -32q37 0 70.5 26.5t60.5 75.5h7zM163.5 405.5q-37.5 -30.5 -62 -84.5
t-31.5 -123q111 41 171 90t60 97q0 23 -14.5 37t-42.5 14q-43 0 -80.5 -30.5zM145 -55l31 -20q17 -11 25 -22.5t8 -27.5q0 -24 -17.5 -38.5t-42.5 -14.5q-37 0 -59 33l6 18h4q10 -16 21 -23.5t28 -7.5q18 0 29 8.5t11 24.5q0 11 -5.5 17.5t-18.5 15.5l-43 28l24 75h20z
M351 627q-16 -54 -44 -79.5t-70 -25.5t-63 25.5t-25 79.5l15 13h5q1 -50 18 -74t53 -24q35 0 58 24t36 74h5z" />
    <glyph glyph-name="ecircumflex" unicode="&#xea;" horiz-adv-x="354" 
d="M284 118l9 -13q-30 -50 -64.5 -77t-80.5 -33h-9q-49 6 -70.5 41.5t-21.5 106.5q0 88 25.5 159t70.5 112.5t99 42.5h5q75 -6 75 -69q0 -57 -64 -111t-190 -101q-1 -9 -1 -28q0 -68 19.5 -100t59.5 -32q37 0 70.5 26.5t60.5 75.5h7zM163.5 405.5q-37.5 -30.5 -62 -84.5
t-31.5 -123q111 41 171 90t60 97q0 23 -14.5 37t-42.5 14q-43 0 -80.5 -30.5zM132 532q42 41 115 126h18q49 -78 87 -126l-11 -12h-5q-39 50 -81 117q-59 -68 -110 -117h-5z" />
    <glyph glyph-name="uni1EBF" unicode="&#x1ebf;" horiz-adv-x="354" 
d="M284 118l9 -13q-30 -50 -64.5 -77t-80.5 -33h-9q-49 6 -70.5 41.5t-21.5 106.5q0 88 25.5 159t70.5 112.5t99 42.5h5q75 -6 75 -69q0 -57 -64 -111t-190 -101q-1 -9 -1 -28q0 -68 19.5 -100t59.5 -32q37 0 70.5 26.5t60.5 75.5h7zM163.5 405.5q-37.5 -30.5 -62 -84.5
t-31.5 -123q111 41 171 90t60 97q0 23 -14.5 37t-42.5 14q-43 0 -80.5 -30.5zM295 631l70 80l5 -1l11 -9l-1 -5l-68 -76h-6zM136 546q44 28 106 76h16q60 -52 91 -76l-8 -14h-5q-40 29 -87 70q-47 -35 -103 -70h-5z" />
    <glyph glyph-name="uni1EC7" unicode="&#x1ec7;" horiz-adv-x="354" 
d="M284 118l9 -13q-30 -50 -64.5 -77t-80.5 -33h-9q-49 6 -70.5 41.5t-21.5 106.5q0 88 25.5 159t70.5 112.5t99 42.5h5q75 -6 75 -69q0 -57 -64 -111t-190 -101q-1 -9 -1 -28q0 -68 19.5 -100t59.5 -32q37 0 70.5 26.5t60.5 75.5h7zM163.5 405.5q-37.5 -30.5 -62 -84.5
t-31.5 -123q111 41 171 90t60 97q0 23 -14.5 37t-42.5 14q-43 0 -80.5 -30.5zM161.5 -97.5q5.5 -5.5 5.5 -14.5t-5.5 -14.5t-14.5 -5.5t-14.5 5.5t-5.5 14.5t5.5 14.5t14.5 5.5t14.5 -5.5zM132 532q42 41 115 126h18q49 -78 87 -126l-11 -12h-5q-39 50 -81 117
q-59 -68 -110 -117h-5z" />
    <glyph glyph-name="uni1EC1" unicode="&#x1ec1;" horiz-adv-x="354" 
d="M284 118l9 -13q-30 -50 -64.5 -77t-80.5 -33h-9q-49 6 -70.5 41.5t-21.5 106.5q0 88 25.5 159t70.5 112.5t99 42.5h5q75 -6 75 -69q0 -57 -64 -111t-190 -101q-1 -9 -1 -28q0 -68 19.5 -100t59.5 -32q37 0 70.5 26.5t60.5 75.5h7zM163.5 405.5q-37.5 -30.5 -62 -84.5
t-31.5 -123q111 41 171 90t60 97q0 23 -14.5 37t-42.5 14q-43 0 -80.5 -30.5zM277 695l-1 5l11 9l5 1l70 -80l-11 -11h-6zM138 547q44 28 106 76h16q60 -52 91 -76l-8 -14h-5q-40 29 -87 70q-47 -35 -103 -70h-5z" />
    <glyph glyph-name="uni1EC3" unicode="&#x1ec3;" horiz-adv-x="354" 
d="M284 118l9 -13q-30 -50 -64.5 -77t-80.5 -33h-9q-49 6 -70.5 41.5t-21.5 106.5q0 88 25.5 159t70.5 112.5t99 42.5h5q75 -6 75 -69q0 -57 -64 -111t-190 -101q-1 -9 -1 -28q0 -68 19.5 -100t59.5 -32q37 0 70.5 26.5t60.5 75.5h7zM163.5 405.5q-37.5 -30.5 -62 -84.5
t-31.5 -123q111 41 171 90t60 97q0 23 -14.5 37t-42.5 14q-43 0 -80.5 -30.5zM158 558q37 24 105 76h16q52 -45 92 -76l-8 -14h-5q-40 29 -87 70q-47 -35 -103 -70h-5zM324 662q25 16 38 31.5t13 26.5q0 9 -7 14.5t-19 5.5q-26 0 -54 -23l-8 14q34 29 64 29q19 0 31.5 -11
t12.5 -27q0 -29 -48 -65l16 -29l-17 -7z" />
    <glyph glyph-name="uni1EC5" unicode="&#x1ec5;" horiz-adv-x="354" 
d="M284 118l9 -13q-30 -50 -64.5 -77t-80.5 -33h-9q-49 6 -70.5 41.5t-21.5 106.5q0 88 25.5 159t70.5 112.5t99 42.5h5q75 -6 75 -69q0 -57 -64 -111t-190 -101q-1 -9 -1 -28q0 -68 19.5 -100t59.5 -32q37 0 70.5 26.5t60.5 75.5h7zM163.5 405.5q-37.5 -30.5 -62 -84.5
t-31.5 -123q111 41 171 90t60 97q0 23 -14.5 37t-42.5 14q-43 0 -80.5 -30.5zM130 558q37 24 105 76h16q52 -45 92 -76l-8 -14h-5q-40 29 -87 70q-47 -35 -103 -70h-5zM395 727v-4l-53 -48l-6 -2q-24 3 -81 21q-62 18 -74 18q-5 0 -13 -6t-17 -16l-21 -19h-4l-9 11v4l53 48
l6 2q24 -3 81 -21q62 -18 74 -18q5 0 13 6t17 16l21 19h4z" />
    <glyph glyph-name="uni0205" unicode="&#x205;" horiz-adv-x="354" 
d="M284 118l9 -13q-30 -50 -64.5 -77t-80.5 -33h-9q-49 6 -70.5 41.5t-21.5 106.5q0 88 25.5 159t70.5 112.5t99 42.5h5q75 -6 75 -69q0 -57 -64 -111t-190 -101q-1 -9 -1 -28q0 -68 19.5 -100t59.5 -32q37 0 70.5 26.5t60.5 75.5h7zM163.5 405.5q-37.5 -30.5 -62 -84.5
t-31.5 -123q111 41 171 90t60 97q0 23 -14.5 37t-42.5 14q-43 0 -80.5 -30.5zM216 516q-73 66 -144 135l-1 5l10 10l5 1q70 -69 146 -137l-11 -13zM346 516q-74 66 -144 135l-1 5l10 10l5 1q69 -69 146 -137l-11 -13z" />
    <glyph glyph-name="edieresis" unicode="&#xeb;" horiz-adv-x="354" 
d="M284 118l9 -13q-30 -50 -64.5 -77t-80.5 -33h-9q-49 6 -70.5 41.5t-21.5 106.5q0 88 25.5 159t70.5 112.5t99 42.5h5q75 -6 75 -69q0 -57 -64 -111t-190 -101q-1 -9 -1 -28q0 -68 19.5 -100t59.5 -32q37 0 70.5 26.5t60.5 75.5h7zM163.5 405.5q-37.5 -30.5 -62 -84.5
t-31.5 -123q111 41 171 90t60 97q0 23 -14.5 37t-42.5 14q-43 0 -80.5 -30.5zM190.5 610.5q5.5 -5.5 5.5 -14.5t-5.5 -14.5t-14.5 -5.5t-14.5 5.5t-5.5 14.5t5.5 14.5t14.5 5.5t14.5 -5.5zM340.5 610.5q5.5 -5.5 5.5 -14.5t-5.5 -14.5t-14.5 -5.5t-14.5 5.5t-5.5 14.5
t5.5 14.5t14.5 5.5t14.5 -5.5z" />
    <glyph glyph-name="edotaccent" unicode="&#x117;" horiz-adv-x="354" 
d="M284 118l9 -13q-30 -50 -64.5 -77t-80.5 -33h-9q-49 6 -70.5 41.5t-21.5 106.5q0 88 25.5 159t70.5 112.5t99 42.5h5q75 -6 75 -69q0 -57 -64 -111t-190 -101q-1 -9 -1 -28q0 -68 19.5 -100t59.5 -32q37 0 70.5 26.5t60.5 75.5h7zM163.5 405.5q-37.5 -30.5 -62 -84.5
t-31.5 -123q111 41 171 90t60 97q0 23 -14.5 37t-42.5 14q-43 0 -80.5 -30.5zM267.5 625.5q5.5 -5.5 5.5 -14.5t-5.5 -14.5t-14.5 -5.5t-14.5 5.5t-5.5 14.5t5.5 14.5t14.5 5.5t14.5 -5.5z" />
    <glyph glyph-name="uni1EB9" unicode="&#x1eb9;" horiz-adv-x="354" 
d="M284 118l9 -13q-30 -50 -64.5 -77t-80.5 -33h-9q-49 6 -70.5 41.5t-21.5 106.5q0 88 25.5 159t70.5 112.5t99 42.5h5q75 -6 75 -69q0 -57 -64 -111t-190 -101q-1 -9 -1 -28q0 -68 19.5 -100t59.5 -32q37 0 70.5 26.5t60.5 75.5h7zM163.5 405.5q-37.5 -30.5 -62 -84.5
t-31.5 -123q111 41 171 90t60 97q0 23 -14.5 37t-42.5 14q-43 0 -80.5 -30.5zM161.5 -97.5q5.5 -5.5 5.5 -14.5t-5.5 -14.5t-14.5 -5.5t-14.5 5.5t-5.5 14.5t5.5 14.5t14.5 5.5t14.5 -5.5z" />
    <glyph glyph-name="egrave" unicode="&#xe8;" horiz-adv-x="354" 
d="M284 118l9 -13q-30 -50 -64.5 -77t-80.5 -33h-9q-49 6 -70.5 41.5t-21.5 106.5q0 88 25.5 159t70.5 112.5t99 42.5h5q75 -6 75 -69q0 -57 -64 -111t-190 -101q-1 -9 -1 -28q0 -68 19.5 -100t59.5 -32q37 0 70.5 26.5t60.5 75.5h7zM163.5 405.5q-37.5 -30.5 -62 -84.5
t-31.5 -123q111 41 171 90t60 97q0 23 -14.5 37t-42.5 14q-43 0 -80.5 -30.5zM293 532l-11 -13l-5 -1q-75 66 -144 135l-1 5l10 10l5 1q77 -79 146 -137z" />
    <glyph glyph-name="uni1EBB" unicode="&#x1ebb;" horiz-adv-x="354" 
d="M284 118l9 -13q-30 -50 -64.5 -77t-80.5 -33h-9q-49 6 -70.5 41.5t-21.5 106.5q0 88 25.5 159t70.5 112.5t99 42.5h5q75 -6 75 -69q0 -57 -64 -111t-190 -101q-1 -9 -1 -28q0 -68 19.5 -100t59.5 -32q37 0 70.5 26.5t60.5 75.5h7zM163.5 405.5q-37.5 -30.5 -62 -84.5
t-31.5 -123q111 41 171 90t60 97q0 23 -14.5 37t-42.5 14q-43 0 -80.5 -30.5zM213 552q25 16 38 31.5t13 26.5q0 9 -7 14.5t-19 5.5q-26 0 -54 -23l-8 14q34 29 64 29q19 0 31.5 -11t12.5 -27q0 -29 -48 -65l16 -29l-17 -7z" />
    <glyph glyph-name="uni0207" unicode="&#x207;" horiz-adv-x="354" 
d="M284 118l9 -13q-30 -50 -64.5 -77t-80.5 -33h-9q-49 6 -70.5 41.5t-21.5 106.5q0 88 25.5 159t70.5 112.5t99 42.5h5q75 -6 75 -69q0 -57 -64 -111t-190 -101q-1 -9 -1 -28q0 -68 19.5 -100t59.5 -32q37 0 70.5 26.5t60.5 75.5h7zM163.5 405.5q-37.5 -30.5 -62 -84.5
t-31.5 -123q111 41 171 90t60 97q0 23 -14.5 37t-42.5 14q-43 0 -80.5 -30.5zM149 535q16 54 44 79.5t70 25.5t63 -25.5t25 -79.5l-15 -13h-5q-1 50 -18 74t-53 24q-35 0 -58 -24t-36 -74h-5z" />
    <glyph glyph-name="emacron" unicode="&#x113;" horiz-adv-x="354" 
d="M284 118l9 -13q-30 -50 -64.5 -77t-80.5 -33h-9q-49 6 -70.5 41.5t-21.5 106.5q0 88 25.5 159t70.5 112.5t99 42.5h5q75 -6 75 -69q0 -57 -64 -111t-190 -101q-1 -9 -1 -28q0 -68 19.5 -100t59.5 -32q37 0 70.5 26.5t60.5 75.5h7zM163.5 405.5q-37.5 -30.5 -62 -84.5
t-31.5 -123q111 41 171 90t60 97q0 23 -14.5 37t-42.5 14q-43 0 -80.5 -30.5zM398 604l-2 -17h-287l-3 3l2 17h287z" />
    <glyph glyph-name="uni1E17" unicode="&#x1e17;" horiz-adv-x="354" 
d="M284 118l9 -13q-30 -50 -64.5 -77t-80.5 -33h-9q-49 6 -70.5 41.5t-21.5 106.5q0 88 25.5 159t70.5 112.5t99 42.5h5q75 -6 75 -69q0 -57 -64 -111t-190 -101q-1 -9 -1 -28q0 -68 19.5 -100t59.5 -32q37 0 70.5 26.5t60.5 75.5h7zM163.5 405.5q-37.5 -30.5 -62 -84.5
t-31.5 -123q111 41 171 90t60 97q0 23 -14.5 37t-42.5 14q-43 0 -80.5 -30.5zM355 713l5 -13l-3 -5q-80 -29 -187 -61l-5 4l-4 16q93 26 190 62zM362 574l-2 -17h-207l-3 3l2 17h207z" />
    <glyph glyph-name="uni1E15" unicode="&#x1e15;" horiz-adv-x="354" 
d="M284 118l9 -13q-30 -50 -64.5 -77t-80.5 -33h-9q-49 6 -70.5 41.5t-21.5 106.5q0 88 25.5 159t70.5 112.5t99 42.5h5q75 -6 75 -69q0 -57 -64 -111t-190 -101q-1 -9 -1 -28q0 -68 19.5 -100t59.5 -32q37 0 70.5 26.5t60.5 75.5h7zM163.5 405.5q-37.5 -30.5 -62 -84.5
t-31.5 -123q111 41 171 90t60 97q0 23 -14.5 37t-42.5 14q-43 0 -80.5 -30.5zM168 695l-3 5l5 13l4 3q97 -36 190 -62l-4 -16l-5 -4q-107 32 -187 61zM359 574l-2 -17h-207l-3 3l2 17h207z" />
    <glyph glyph-name="eogonek" unicode="&#x119;" horiz-adv-x="354" 
d="M284 118l9 -13q-30 -50 -64.5 -77t-80.5 -33h-9q-49 6 -70.5 41.5t-21.5 106.5q0 88 25.5 159t70.5 112.5t99 42.5h5q75 -6 75 -69q0 -57 -64 -111t-190 -101q-1 -9 -1 -28q0 -68 19.5 -100t59.5 -32q37 0 70.5 26.5t60.5 75.5h7zM163.5 405.5q-37.5 -30.5 -62 -84.5
t-31.5 -123q111 41 171 90t60 97q0 23 -14.5 37t-42.5 14q-43 0 -80.5 -30.5zM111.5 -180.5q-17.5 17.5 -17.5 47.5q0 20 10.5 38.5t50.5 72.5l31 42h24q-18 -22 -28 -38q-44 -58 -55.5 -76.5t-11.5 -36.5q0 -21 11.5 -33.5t32.5 -12.5t42 13.5t39 38.5h2l11 -16
q-44 -57 -95 -57q-29 0 -46.5 17.5z" />
    <glyph glyph-name="uni0259" unicode="&#x259;" horiz-adv-x="354" 
d="M285.5 415.5q21.5 -35.5 21.5 -106.5q0 -88 -25.5 -159t-70.5 -112.5t-99 -42.5h-5q-75 6 -75 69q0 57 64 111t190 101q1 9 1 28q0 68 -19.5 100t-59.5 32q-37 0 -70.5 -26.5t-60.5 -75.5h-7l-9 13q30 50 64.5 77t80.5 33h9q49 -6 70.5 -41.5zM190.5 46.5
q37.5 30.5 62 84.5t31.5 123q-111 -41 -171 -90t-60 -97q0 -23 14.5 -37t42.5 -14q43 0 80.5 30.5z" />
    <glyph glyph-name="f" unicode="f" horiz-adv-x="257" 
d="M384 690l-7 -20h-6q-39 15 -69 15q-104 0 -122 -134l-13 -102h116l3 -4l-4 -16h-118l-30 -237l-27 -216l-9 -106l-25 -4l41 324l30 239h-69l-4 4l4 16h72l13 102q10 76 47.5 115t100.5 39l74 -12z" />
    <glyph glyph-name="g" unicode="g" horiz-adv-x="414" 
d="M352 456l-41 -323l-12 -98q-15 -116 -72 -174t-145 -58q-55 0 -90.5 27.5t-49.5 77.5l2 7l150 122v5q-18 18 -26.5 45t-8.5 71q0 80 25.5 146t74 106.5t114.5 44.5h4l59 -3l11 7zM170.5 398q-44.5 -38 -68.5 -101t-24 -135q0 -37 6.5 -60.5t15 -34t14.5 -10.5
q7 0 38 36.5t75.5 102t91.5 148.5l3 26l5 64l-53 2q-59 0 -103.5 -38zM311 286h-4q-63 -100 -104.5 -157.5t-85.5 -97.5l-144 -117q-3 -2 -4.5 -4.5t-1.5 -5.5q2 -15 15 -34t38.5 -33t61.5 -14q78 0 130 53t66 155z" />
    <glyph glyph-name="gbreve" unicode="&#x11f;" horiz-adv-x="414" 
d="M352 456l-41 -323l-12 -98q-15 -116 -72 -174t-145 -58q-55 0 -90.5 27.5t-49.5 77.5l2 7l150 122v5q-18 18 -26.5 45t-8.5 71q0 80 25.5 146t74 106.5t114.5 44.5h4l59 -3l11 7zM170.5 398q-44.5 -38 -68.5 -101t-24 -135q0 -37 6.5 -60.5t15 -34t14.5 -10.5
q7 0 38 36.5t75.5 102t91.5 148.5l3 26l5 64l-53 2q-59 0 -103.5 -38zM311 286h-4q-63 -100 -104.5 -157.5t-85.5 -97.5l-144 -117q-3 -2 -4.5 -4.5t-1.5 -5.5q2 -15 15 -34t38.5 -33t61.5 -14q78 0 130 53t66 155zM355 627q-16 -54 -44 -79.5t-70 -25.5t-63 25.5t-25 79.5
l15 13h5q1 -50 18 -74t53 -24q35 0 58 24t36 74h5z" />
    <glyph glyph-name="gcaron" unicode="&#x1e7;" horiz-adv-x="414" 
d="M352 456l-41 -323l-12 -98q-15 -116 -72 -174t-145 -58q-55 0 -90.5 27.5t-49.5 77.5l2 7l150 122v5q-18 18 -26.5 45t-8.5 71q0 80 25.5 146t74 106.5t114.5 44.5h4l59 -3l11 7zM170.5 398q-44.5 -38 -68.5 -101t-24 -135q0 -37 6.5 -60.5t15 -34t14.5 -10.5
q7 0 38 36.5t75.5 102t91.5 148.5l3 26l5 64l-53 2q-59 0 -103.5 -38zM311 286h-4q-63 -100 -104.5 -157.5t-85.5 -97.5l-144 -117q-3 -2 -4.5 -4.5t-1.5 -5.5q2 -15 15 -34t38.5 -33t61.5 -14q78 0 130 53t66 155zM364 646q-42 -41 -115 -126h-18q-49 78 -87 126l11 12h5
q39 -50 81 -117q59 68 110 117h5z" />
    <glyph glyph-name="gcircumflex" unicode="&#x11d;" horiz-adv-x="414" 
d="M352 456l-41 -323l-12 -98q-15 -116 -72 -174t-145 -58q-55 0 -90.5 27.5t-49.5 77.5l2 7l150 122v5q-18 18 -26.5 45t-8.5 71q0 80 25.5 146t74 106.5t114.5 44.5h4l59 -3l11 7zM170.5 398q-44.5 -38 -68.5 -101t-24 -135q0 -37 6.5 -60.5t15 -34t14.5 -10.5
q7 0 38 36.5t75.5 102t91.5 148.5l3 26l5 64l-53 2q-59 0 -103.5 -38zM311 286h-4q-63 -100 -104.5 -157.5t-85.5 -97.5l-144 -117q-3 -2 -4.5 -4.5t-1.5 -5.5q2 -15 15 -34t38.5 -33t61.5 -14q78 0 130 53t66 155zM136 532q42 41 115 126h18q49 -78 87 -126l-11 -12h-5
q-39 50 -81 117q-59 -68 -110 -117h-5z" />
    <glyph glyph-name="gcommaaccent" unicode="&#x123;" horiz-adv-x="415" 
d="M352 456l-41 -323l-12 -98q-15 -116 -72 -174t-145 -58q-55 0 -90.5 27.5t-49.5 77.5l2 7l150 122v5q-18 18 -26.5 45t-8.5 71q0 80 25.5 146t74 106.5t114.5 44.5h4l59 -3l11 7zM170.5 398q-44.5 -38 -68.5 -101t-24 -135q0 -37 6.5 -60.5t15 -34t14.5 -10.5
q7 0 38 36.5t75.5 102t91.5 148.5l3 26l5 64l-53 2q-59 0 -103.5 -38zM311 286h-4q-63 -100 -104.5 -157.5t-85.5 -97.5l-144 -117q-3 -2 -4.5 -4.5t-1.5 -5.5q2 -15 15 -34t38.5 -33t61.5 -14q78 0 130 53t66 155zM266 575q0 46 53 102l13 -11v-4q-44 -47 -44 -83
q0 -30 38 -39v-4q-1 -3 -10 -16q-50 12 -50 55z" />
    <glyph glyph-name="gdotaccent" unicode="&#x121;" horiz-adv-x="414" 
d="M352 456l-41 -323l-12 -98q-15 -116 -72 -174t-145 -58q-55 0 -90.5 27.5t-49.5 77.5l2 7l150 122v5q-18 18 -26.5 45t-8.5 71q0 80 25.5 146t74 106.5t114.5 44.5h4l59 -3l11 7zM170.5 398q-44.5 -38 -68.5 -101t-24 -135q0 -37 6.5 -60.5t15 -34t14.5 -10.5
q7 0 38 36.5t75.5 102t91.5 148.5l3 26l5 64l-53 2q-59 0 -103.5 -38zM311 286h-4q-63 -100 -104.5 -157.5t-85.5 -97.5l-144 -117q-3 -2 -4.5 -4.5t-1.5 -5.5q2 -15 15 -34t38.5 -33t61.5 -14q78 0 130 53t66 155zM271.5 625.5q5.5 -5.5 5.5 -14.5t-5.5 -14.5t-14.5 -5.5
t-14.5 5.5t-5.5 14.5t5.5 14.5t14.5 5.5t14.5 -5.5z" />
    <glyph glyph-name="uni1E21" unicode="&#x1e21;" horiz-adv-x="414" 
d="M352 456l-41 -323l-12 -98q-15 -116 -72 -174t-145 -58q-55 0 -90.5 27.5t-49.5 77.5l2 7l150 122v5q-18 18 -26.5 45t-8.5 71q0 80 25.5 146t74 106.5t114.5 44.5h4l59 -3l11 7zM170.5 398q-44.5 -38 -68.5 -101t-24 -135q0 -37 6.5 -60.5t15 -34t14.5 -10.5
q7 0 38 36.5t75.5 102t91.5 148.5l3 26l5 64l-53 2q-59 0 -103.5 -38zM311 286h-4q-63 -100 -104.5 -157.5t-85.5 -97.5l-144 -117q-3 -2 -4.5 -4.5t-1.5 -5.5q2 -15 15 -34t38.5 -33t61.5 -14q78 0 130 53t66 155zM402 604l-2 -17h-287l-3 3l2 17h287z" />
    <glyph glyph-name="h" unicode="h" horiz-adv-x="446" 
d="M373 431.5q14 -23.5 13 -54.5l-1 -13l-43 -263l-12 -101l-25 -4l59 365l1 15q1 25 -10 42.5t-24 17.5q-26 0 -90 -85t-143 -231l-2 -14l-9 -106l-26 -4l82 612l6 90l26 4l-69 -518h5q64 111 114 178.5t99 99.5h11q24 -7 38 -30.5z" />
    <glyph glyph-name="hbar" unicode="&#x127;" horiz-adv-x="515" 
d="M414 431.5q14 -23.5 13 -54.5l-1 -13l-43 -263l-12 -101l-25 -4l59 365l1 15q1 25 -10 42.5t-24 17.5q-26 0 -90 -85t-143 -231l-2 -14l-9 -106l-26 -4l76 565h-78l-3 3l2 17h81l4 27l6 90l26 4l-16 -121h129l3 -3l-2 -17h-133l-50 -377h5q64 111 114 178.5t99 99.5h11
q24 -7 38 -30.5z" />
    <glyph glyph-name="uni1E2B" unicode="&#x1e2b;" horiz-adv-x="446" 
d="M373 431.5q14 -23.5 13 -54.5l-1 -13l-43 -263l-12 -101l-25 -4l59 365l1 15q1 25 -10 42.5t-24 17.5q-26 0 -90 -85t-143 -231l-2 -14l-9 -106l-26 -4l82 612l6 90l26 4l-69 -518h5q64 111 114 178.5t99 99.5h11q24 -7 38 -30.5zM280 -81q-16 -54 -44 -79.5t-70 -25.5
t-63 25.5t-25 79.5l15 13h5q1 -50 18 -74t53 -24q35 0 58 24t36 74h5z" />
    <glyph glyph-name="hcircumflex" unicode="&#x125;" horiz-adv-x="446" 
d="M373 431.5q14 -23.5 13 -54.5l-1 -13l-43 -263l-12 -101l-25 -4l59 365l1 15q1 25 -10 42.5t-24 17.5q-26 0 -90 -85t-143 -231l-2 -14l-9 -106l-26 -4l82 612l6 90l26 4l-69 -518h5q64 111 114 178.5t99 99.5h11q24 -7 38 -30.5zM67 806q37 24 105 76h16q52 -45 92 -76
l-8 -14h-5q-40 29 -87 70q-47 -35 -103 -70h-5z" />
    <glyph glyph-name="uni1E25" unicode="&#x1e25;" horiz-adv-x="446" 
d="M373 431.5q14 -23.5 13 -54.5l-1 -13l-43 -263l-12 -101l-25 -4l59 365l1 15q1 25 -10 42.5t-24 17.5q-26 0 -90 -85t-143 -231l-2 -14l-9 -106l-26 -4l82 612l6 90l26 4l-69 -518h5q64 111 114 178.5t99 99.5h11q24 -7 38 -30.5zM201.5 -97.5q5.5 -5.5 5.5 -14.5
t-5.5 -14.5t-14.5 -5.5t-14.5 5.5t-5.5 14.5t5.5 14.5t14.5 5.5t14.5 -5.5z" />
    <glyph glyph-name="i" unicode="i" horiz-adv-x="203" 
d="M95 106l-7 -106l-27 -4l49 366l6 90l25 4zM163.5 625.5q5.5 -5.5 5.5 -14.5t-5.5 -14.5t-14.5 -5.5t-14.5 5.5t-5.5 14.5t5.5 14.5t14.5 5.5t14.5 -5.5z" />
    <glyph glyph-name="dotlessi" unicode="&#x131;" horiz-adv-x="203" 
d="M95 106l-7 -106l-27 -4l49 366l6 90l25 4z" />
    <glyph glyph-name="iacute" unicode="&#xed;" horiz-adv-x="203" 
d="M95 106l-7 -106l-27 -4l49 366l6 90l25 4zM220 668l10 -10l-1 -5q-69 -69 -144 -135l-5 1l-11 13q69 58 146 137z" />
    <glyph glyph-name="ibreve" unicode="&#x12d;" horiz-adv-x="203" 
d="M95 106l-7 -106l-27 -4l49 366l6 90l25 4zM247 627q-16 -54 -44 -79.5t-70 -25.5t-63 25.5t-25 79.5l15 13h5q1 -50 18 -74t53 -24q35 0 58 24t36 74h5z" />
    <glyph glyph-name="uni01D0" unicode="&#x1d0;" horiz-adv-x="203" 
d="M95 106l-7 -106l-27 -4l49 366l6 90l25 4zM256 646q-42 -41 -115 -126h-18q-49 78 -87 126l11 12h5q39 -50 81 -117q59 68 110 117h5z" />
    <glyph glyph-name="icircumflex" unicode="&#xee;" horiz-adv-x="203" 
d="M95 106l-7 -106l-27 -4l49 366l6 90l25 4zM28 532q42 41 115 126h18q49 -78 87 -126l-11 -12h-5q-39 50 -81 117q-59 -68 -110 -117h-5z" />
    <glyph glyph-name="uni0209" unicode="&#x209;" horiz-adv-x="203" 
d="M95 106l-7 -106l-27 -4l49 366l6 90l25 4zM112 516q-73 66 -144 135l-1 5l10 10l5 1q70 -69 146 -137l-11 -13zM242 516q-74 66 -144 135l-1 5l10 10l5 1q69 -69 146 -137l-11 -13z" />
    <glyph glyph-name="uni1E2F" unicode="&#x1e2f;" horiz-adv-x="203" 
d="M95 106l-7 -106l-27 -4l49 366l6 90l25 4zM247 723l5 -13l-3 -5q-80 -29 -187 -61l-5 4l-4 16q93 26 190 62zM94.5 589.5q5.5 -5.5 5.5 -14.5t-5.5 -14.5t-14.5 -5.5t-14.5 5.5t-5.5 14.5t5.5 14.5t14.5 5.5t14.5 -5.5zM234.5 589.5q5.5 -5.5 5.5 -14.5t-5.5 -14.5
t-14.5 -5.5t-14.5 5.5t-5.5 14.5t5.5 14.5t14.5 5.5t14.5 -5.5z" />
    <glyph glyph-name="i.loclTRK" horiz-adv-x="203" 
d="M95 106l-7 -106l-27 -4l49 366l6 90l25 4zM163.5 625.5q5.5 -5.5 5.5 -14.5t-5.5 -14.5t-14.5 -5.5t-14.5 5.5t-5.5 14.5t5.5 14.5t14.5 5.5t14.5 -5.5z" />
    <glyph glyph-name="uni1ECB" unicode="&#x1ecb;" horiz-adv-x="203" 
d="M95 106l-7 -106l-27 -4l49 366l6 90l25 4zM163.5 625.5q5.5 -5.5 5.5 -14.5t-5.5 -14.5t-14.5 -5.5t-14.5 5.5t-5.5 14.5t5.5 14.5t14.5 5.5t14.5 -5.5zM80.5 -97.5q5.5 -5.5 5.5 -14.5t-5.5 -14.5t-14.5 -5.5t-14.5 5.5t-5.5 14.5t5.5 14.5t14.5 5.5t14.5 -5.5z" />
    <glyph glyph-name="igrave" unicode="&#xec;" horiz-adv-x="203" 
d="M95 106l-7 -106l-27 -4l49 366l6 90l25 4zM189 532l-11 -13l-5 -1q-75 66 -144 135l-1 5l10 10l5 1q77 -79 146 -137z" />
    <glyph glyph-name="uni1EC9" unicode="&#x1ec9;" horiz-adv-x="203" 
d="M95 106l-7 -106l-27 -4l49 366l6 90l25 4zM109 552q25 16 38 31.5t13 26.5q0 9 -7 14.5t-19 5.5q-26 0 -54 -23l-8 14q34 29 64 29q19 0 31.5 -11t12.5 -27q0 -29 -48 -65l16 -29l-17 -7z" />
    <glyph glyph-name="uni020B" unicode="&#x20b;" horiz-adv-x="203" 
d="M95 106l-7 -106l-27 -4l49 366l6 90l25 4zM45 535q16 54 44 79.5t70 25.5t63 -25.5t25 -79.5l-15 -13h-5q-1 50 -18 74t-53 24q-35 0 -58 -24t-36 -74h-5z" />
    <glyph glyph-name="ij" unicode="&#x133;" horiz-adv-x="415" 
d="M95 106l-7 -106l-27 -4l49 366l6 90l25 4zM163.5 625.5q5.5 -5.5 5.5 -14.5t-5.5 -14.5t-14.5 -5.5t-14.5 5.5t-5.5 14.5t5.5 14.5t14.5 5.5t14.5 -5.5zM353 451l-45 -358l-11 -75q-10 -80 -36.5 -124.5t-86.5 -85.5l-11 11l1 6q55 37 78 76t32 107l49 358l5 63h-83l-4 4
l4 16h87l19 3zM358.5 625.5q5.5 -5.5 5.5 -14.5t-5.5 -14.5t-14.5 -5.5t-14.5 5.5t-5.5 14.5t5.5 14.5t14.5 5.5t14.5 -5.5z" />
    <glyph glyph-name="imacron" unicode="&#x12b;" horiz-adv-x="203" 
d="M95 106l-7 -106l-27 -4l49 366l6 90l25 4zM253 604l-2 -17h-207l-3 3l2 17h207z" />
    <glyph glyph-name="iogonek" unicode="&#x12f;" horiz-adv-x="203" 
d="M95 106l-7 -106l-27 -4l49 366l6 90l25 4zM163.5 625.5q5.5 -5.5 5.5 -14.5t-5.5 -14.5t-14.5 -5.5t-14.5 5.5t-5.5 14.5t5.5 14.5t14.5 5.5t14.5 -5.5zM25.5 -85.5q-23.5 -33.5 -29 -45.5t-5.5 -23t6.5 -17t17.5 -6q14 0 25 9.5t24 31.5h2l13 -13q-17 -26 -31.5 -37
t-33.5 -11q-20 0 -32 10.5t-12 29.5q0 14 7 29t26.5 43t64.5 85h20q-39 -52 -62.5 -85.5z" />
    <glyph glyph-name="j" unicode="j" horiz-adv-x="212" 
d="M150 451l-45 -358l-11 -75q-10 -80 -36.5 -124.5t-86.5 -85.5l-11 11l1 6q55 37 78 76t32 107l49 358l5 63h-83l-4 4l4 16h87l19 3zM155.5 625.5q5.5 -5.5 5.5 -14.5t-5.5 -14.5t-14.5 -5.5t-14.5 5.5t-5.5 14.5t5.5 14.5t14.5 5.5t14.5 -5.5z" />
    <glyph glyph-name="uni0237" unicode="&#x237;" horiz-adv-x="212" 
d="M150 451l-45 -358l-11 -75q-10 -80 -36.5 -124.5t-86.5 -85.5l-11 11l1 6q55 37 78 76t32 107l49 358l5 63h-83l-4 4l4 16h87l19 3z" />
    <glyph glyph-name="jcircumflex" unicode="&#x135;" horiz-adv-x="212" 
d="M150 451l-45 -358l-11 -75q-10 -80 -36.5 -124.5t-86.5 -85.5l-11 11l1 6q55 37 78 76t32 107l49 358l5 63h-83l-4 4l4 16h87l19 3zM20 532q42 41 115 126h18q49 -78 87 -126l-11 -12h-5q-39 50 -81 117q-59 -68 -110 -117h-5z" />
    <glyph glyph-name="k" unicode="k" horiz-adv-x="426" 
d="M226 183q70 -101 137 -183v-3l-16 -8l-4 2q-50 62 -142 190l1 9q173 95 173 189q0 28 -13.5 42.5t-28.5 14.5q-34 0 -93.5 -79.5t-141.5 -233.5l-2 -17l-9 -106l-26 -4l82 612l6 90l26 4l-68 -513h4q67 118 114 181.5t96 86.5l16 1q26 -5 42 -24t16 -52q0 -103 -169 -199
z" />
    <glyph glyph-name="kcommaaccent" unicode="&#x137;" horiz-adv-x="426" 
d="M226 183q70 -101 137 -183v-3l-16 -8l-4 2q-50 62 -142 190l1 9q173 95 173 189q0 28 -13.5 42.5t-28.5 14.5q-34 0 -93.5 -79.5t-141.5 -233.5l-2 -17l-9 -106l-26 -4l82 612l6 90l26 4l-68 -513h4q67 118 114 181.5t96 86.5l16 1q26 -5 42 -24t16 -52q0 -103 -169 -199
zM219 -117q0 -20 -17 -44t-49 -49l-10 11l1 3q26 19 40 39.5t14 38.5q0 20 -30 34v4q5 7 13 11q38 -17 38 -48z" />
    <glyph glyph-name="kgreenlandic" unicode="&#x138;" horiz-adv-x="428" 
d="M227 183q65 -93 138 -183v-3l-16 -8l-4 2q-59 73 -143 190l1 9q174 96 174 189q0 28 -13.5 42.5t-28.5 14.5q-69 0 -238 -316l-2 -14l-7 -106l-27 -4l49 366l6 90l25 4l-35 -267h5q69 119 115.5 182t95.5 86l16 1q27 -5 43 -24t16 -52q0 -103 -170 -199z" />
    <glyph glyph-name="l" unicode="l" horiz-adv-x="238" 
d="M112 106l-9 -106l-26 -4l82 612l6 90l26 4z" />
    <glyph glyph-name="lacute" unicode="&#x13a;" horiz-adv-x="238" 
d="M112 106l-9 -106l-26 -4l82 612l6 90l26 4zM285 897l7 -12l-2 -5q-67 -38 -174 -93l-5 3l-7 15q91 44 176 94z" />
    <glyph glyph-name="lcaron" unicode="&#x13e;" horiz-adv-x="234" 
d="M112 106l-9 -106l-26 -4l82 612l6 90l26 4zM297 651l-29 -144l-18 -2l-2 4l29 144l18 2z" />
    <glyph glyph-name="lcommaaccent" unicode="&#x13c;" horiz-adv-x="238" 
d="M112 106l-9 -106l-26 -4l82 612l6 90l26 4zM124 -117q0 -20 -17 -44t-49 -49l-10 11l1 3q26 19 40 39.5t14 38.5q0 20 -30 34v4q5 7 13 11q38 -17 38 -48z" />
    <glyph glyph-name="ldot" unicode="&#x140;" horiz-adv-x="238" 
d="M112 106l-9 -106l-26 -4l82 612l6 90l26 4zM256.5 284.5q5.5 -5.5 5.5 -14.5t-5.5 -14.5t-14.5 -5.5t-14.5 5.5t-5.5 14.5t5.5 14.5t14.5 5.5t14.5 -5.5z" />
    <glyph glyph-name="uni1E37" unicode="&#x1e37;" horiz-adv-x="238" 
d="M112 106l-9 -106l-26 -4l82 612l6 90l26 4zM96.5 -97.5q5.5 -5.5 5.5 -14.5t-5.5 -14.5t-14.5 -5.5t-14.5 5.5t-5.5 14.5t5.5 14.5t14.5 5.5t14.5 -5.5z" />
    <glyph glyph-name="uni01C9" unicode="&#x1c9;" horiz-adv-x="450" 
d="M112 106l-9 -106l-26 -4l82 612l6 90l26 4zM388 451l-45 -358l-11 -75q-10 -80 -36.5 -124.5t-86.5 -85.5l-11 11l1 6q55 37 78 76t32 107l49 358l5 63h-83l-4 4l4 16h87l19 3zM393.5 625.5q5.5 -5.5 5.5 -14.5t-5.5 -14.5t-14.5 -5.5t-14.5 5.5t-5.5 14.5t5.5 14.5
t14.5 5.5t14.5 -5.5z" />
    <glyph glyph-name="uni1E3B" unicode="&#x1e3b;" horiz-adv-x="238" 
d="M112 106l-9 -106l-26 -4l82 612l6 90l26 4zM179 -130l-2 -17h-207l-3 3l2 17h207z" />
    <glyph glyph-name="lslash" unicode="&#x142;" horiz-adv-x="212" 
d="M134 383l-37 -277l-9 -106l-26 -4l51 378l-97 -49l-5 3l-3 15l108 54l28 211l6 90l26 4l-39 -296l98 50l5 -2l3 -15z" />
    <glyph glyph-name="m" unicode="m" horiz-adv-x="693" 
d="M620 431.5q14 -23.5 13 -54.5l-1 -13l-43 -263l-12 -101l-25 -4l59 365l1 15q1 25 -10 42.5t-24 17.5q-26 0 -91 -86t-145 -234l-2 -15l-12 -101l-25 -4l60 365l1 15q0 25 -11 42.5t-24 17.5q-26 0 -89.5 -85t-142.5 -231l-2 -14l-9 -106l-25 -4l48 366l7 90l25 4
l-36 -272h5q64 112 114 179t98 99h11q24 -7 38.5 -30.5t13.5 -54.5l-1 -13l-30 -180h5q64 112 114 179t98 99h11q24 -7 38 -30.5z" />
    <glyph glyph-name="uni1E43" unicode="&#x1e43;" horiz-adv-x="693" 
d="M620 431.5q14 -23.5 13 -54.5l-1 -13l-43 -263l-12 -101l-25 -4l59 365l1 15q1 25 -10 42.5t-24 17.5q-26 0 -91 -86t-145 -234l-2 -15l-12 -101l-25 -4l60 365l1 15q0 25 -11 42.5t-24 17.5q-26 0 -89.5 -85t-142.5 -231l-2 -14l-9 -106l-25 -4l48 366l7 90l25 4
l-36 -272h5q64 112 114 179t98 99h11q24 -7 38.5 -30.5t13.5 -54.5l-1 -13l-30 -180h5q64 112 114 179t98 99h11q24 -7 38 -30.5zM325.5 -97.5q5.5 -5.5 5.5 -14.5t-5.5 -14.5t-14.5 -5.5t-14.5 5.5t-5.5 14.5t5.5 14.5t14.5 5.5t14.5 -5.5z" />
    <glyph glyph-name="n" unicode="n" horiz-adv-x="445" 
d="M372 431.5q14 -23.5 13 -54.5l-1 -13l-43 -263l-12 -101l-25 -4l59 365l1 15q1 25 -10 42.5t-24 17.5q-26 0 -90 -85t-143 -231l-2 -14l-9 -106l-25 -4l48 366l7 90l25 4l-36 -272h5q65 112 114.5 179t98.5 99h11q24 -7 38 -30.5z" />
    <glyph glyph-name="nacute" unicode="&#x144;" horiz-adv-x="445" 
d="M372 431.5q14 -23.5 13 -54.5l-1 -13l-43 -263l-12 -101l-25 -4l59 365l1 15q1 25 -10 42.5t-24 17.5q-26 0 -90 -85t-143 -231l-2 -14l-9 -106l-25 -4l48 366l7 90l25 4l-36 -272h5q65 112 114.5 179t98.5 99h11q24 -7 38 -30.5zM346 668l10 -10l-1 -5
q-69 -69 -144 -135l-5 1l-11 13q69 58 146 137z" />
    <glyph glyph-name="ncaron" unicode="&#x148;" horiz-adv-x="445" 
d="M372 431.5q14 -23.5 13 -54.5l-1 -13l-43 -263l-12 -101l-25 -4l59 365l1 15q1 25 -10 42.5t-24 17.5q-26 0 -90 -85t-143 -231l-2 -14l-9 -106l-25 -4l48 366l7 90l25 4l-36 -272h5q65 112 114.5 179t98.5 99h11q24 -7 38 -30.5zM382 646q-42 -41 -115 -126h-18
q-49 78 -87 126l11 12h5q39 -50 81 -117q59 68 110 117h5z" />
    <glyph glyph-name="ncommaaccent" unicode="&#x146;" horiz-adv-x="445" 
d="M372 431.5q14 -23.5 13 -54.5l-1 -13l-43 -263l-12 -101l-25 -4l59 365l1 15q1 25 -10 42.5t-24 17.5q-26 0 -90 -85t-143 -231l-2 -14l-9 -106l-25 -4l48 366l7 90l25 4l-36 -272h5q65 112 114.5 179t98.5 99h11q24 -7 38 -30.5zM233 -117q0 -20 -17 -44t-49 -49l-10 11
l1 3q26 19 40 39.5t14 38.5q0 20 -30 34v4q5 7 13 11q38 -17 38 -48z" />
    <glyph glyph-name="uni1E45" unicode="&#x1e45;" horiz-adv-x="445" 
d="M372 431.5q14 -23.5 13 -54.5l-1 -13l-43 -263l-12 -101l-25 -4l59 365l1 15q1 25 -10 42.5t-24 17.5q-26 0 -90 -85t-143 -231l-2 -14l-9 -106l-25 -4l48 366l7 90l25 4l-36 -272h5q65 112 114.5 179t98.5 99h11q24 -7 38 -30.5zM289.5 625.5q5.5 -5.5 5.5 -14.5
t-5.5 -14.5t-14.5 -5.5t-14.5 5.5t-5.5 14.5t5.5 14.5t14.5 5.5t14.5 -5.5z" />
    <glyph glyph-name="uni1E47" unicode="&#x1e47;" horiz-adv-x="445" 
d="M372 431.5q14 -23.5 13 -54.5l-1 -13l-43 -263l-12 -101l-25 -4l59 365l1 15q1 25 -10 42.5t-24 17.5q-26 0 -90 -85t-143 -231l-2 -14l-9 -106l-25 -4l48 366l7 90l25 4l-36 -272h5q65 112 114.5 179t98.5 99h11q24 -7 38 -30.5zM205.5 -97.5q5.5 -5.5 5.5 -14.5
t-5.5 -14.5t-14.5 -5.5t-14.5 5.5t-5.5 14.5t5.5 14.5t14.5 5.5t14.5 -5.5z" />
    <glyph glyph-name="eng" unicode="&#x14b;" horiz-adv-x="458" 
d="M373 431.5q14 -23.5 13 -54.5l-1 -13l-44 -271l-12 -75q-12 -80 -38 -124.5t-84 -85.5l-9 11l1 6q52 37 74.5 75.5t33.5 107.5l57 353l1 15q1 25 -10 42.5t-24 17.5q-26 0 -91 -86t-143 -232l-2 -12l-9 -106l-25 -4l48 366l7 90l25 4l-36 -272h6q65 112 114.5 179
t98.5 99h11q24 -7 38 -30.5z" />
    <glyph glyph-name="uni01CC" unicode="&#x1cc;" horiz-adv-x="657" 
d="M372 431.5q14 -23.5 13 -54.5l-1 -13l-43 -263l-12 -101l-25 -4l59 365l1 15q1 25 -10 42.5t-24 17.5q-26 0 -90 -85t-143 -231l-2 -14l-9 -106l-25 -4l48 366l7 90l25 4l-36 -272h5q65 112 114.5 179t98.5 99h11q24 -7 38 -30.5zM595 451l-45 -358l-11 -75
q-10 -80 -36.5 -124.5t-86.5 -85.5l-11 11l1 6q55 37 78 76t32 107l49 358l5 63h-83l-4 4l4 16h87l19 3zM600.5 625.5q5.5 -5.5 5.5 -14.5t-5.5 -14.5t-14.5 -5.5t-14.5 5.5t-5.5 14.5t5.5 14.5t14.5 5.5t14.5 -5.5z" />
    <glyph glyph-name="uni1E49" unicode="&#x1e49;" horiz-adv-x="445" 
d="M372 431.5q14 -23.5 13 -54.5l-1 -13l-43 -263l-12 -101l-25 -4l59 365l1 15q1 25 -10 42.5t-24 17.5q-26 0 -90 -85t-143 -231l-2 -14l-9 -106l-25 -4l48 366l7 90l25 4l-36 -272h5q65 112 114.5 179t98.5 99h11q24 -7 38 -30.5zM288 -130l-2 -17h-207l-3 3l2 17h207z
" />
    <glyph glyph-name="ntilde" unicode="&#xf1;" horiz-adv-x="445" 
d="M372 431.5q14 -23.5 13 -54.5l-1 -13l-43 -263l-12 -101l-25 -4l59 365l1 15q1 25 -10 42.5t-24 17.5q-26 0 -90 -85t-143 -231l-2 -14l-9 -106l-25 -4l48 366l7 90l25 4l-36 -272h5q65 112 114.5 179t98.5 99h11q24 -7 38 -30.5zM412 620v-4l-52 -47l-6 -2q-20 2 -81 20
q-6 2 -35 10t-40 8q-5 0 -13 -6t-17 -16l-21 -19h-4l-9 11v4l52 47l6 2q20 -2 81 -20q6 -2 35 -10t40 -8q5 0 13 6t17 16l21 19h4z" />
    <glyph glyph-name="o" unicode="o" horiz-adv-x="396" 
d="M253 458q50 -4 72.5 -37t22.5 -101q0 -91 -24 -163.5t-69 -115.5t-106 -47h-5q-50 3 -73 36.5t-23 103.5q0 91 24.5 164.5t69.5 116t106 43.5h5zM154.5 398q-40.5 -39 -63.5 -107.5t-23 -153.5q0 -62 19.5 -92t60.5 -30q52 0 93 39.5t63.5 108.5t22.5 154q0 62 -19 91
t-60 29q-53 0 -93.5 -39z" />
    <glyph glyph-name="oacute" unicode="&#xf3;" horiz-adv-x="396" 
d="M253 458q50 -4 72.5 -37t22.5 -101q0 -91 -24 -163.5t-69 -115.5t-106 -47h-5q-50 3 -73 36.5t-23 103.5q0 91 24.5 164.5t69.5 116t106 43.5h5zM154.5 398q-40.5 -39 -63.5 -107.5t-23 -153.5q0 -62 19.5 -92t60.5 -30q52 0 93 39.5t63.5 108.5t22.5 154q0 62 -19 91
t-60 29q-53 0 -93.5 -39zM322 668l10 -10l-1 -5q-69 -69 -144 -135l-5 1l-11 13q69 58 146 137z" />
    <glyph glyph-name="obreve" unicode="&#x14f;" horiz-adv-x="396" 
d="M253 458q50 -4 72.5 -37t22.5 -101q0 -91 -24 -163.5t-69 -115.5t-106 -47h-5q-50 3 -73 36.5t-23 103.5q0 91 24.5 164.5t69.5 116t106 43.5h5zM154.5 398q-40.5 -39 -63.5 -107.5t-23 -153.5q0 -62 19.5 -92t60.5 -30q52 0 93 39.5t63.5 108.5t22.5 154q0 62 -19 91
t-60 29q-53 0 -93.5 -39zM349 627q-16 -54 -44 -79.5t-70 -25.5t-63 25.5t-25 79.5l15 13h5q1 -50 18 -74t53 -24q35 0 58 24t36 74h5z" />
    <glyph glyph-name="uni01D2" unicode="&#x1d2;" horiz-adv-x="396" 
d="M253 458q50 -4 72.5 -37t22.5 -101q0 -91 -24 -163.5t-69 -115.5t-106 -47h-5q-50 3 -73 36.5t-23 103.5q0 91 24.5 164.5t69.5 116t106 43.5h5zM154.5 398q-40.5 -39 -63.5 -107.5t-23 -153.5q0 -62 19.5 -92t60.5 -30q52 0 93 39.5t63.5 108.5t22.5 154q0 62 -19 91
t-60 29q-53 0 -93.5 -39zM358 646q-42 -41 -115 -126h-18q-49 78 -87 126l11 12h5q39 -50 81 -117q59 68 110 117h5z" />
    <glyph glyph-name="ocircumflex" unicode="&#xf4;" horiz-adv-x="396" 
d="M253 458q50 -4 72.5 -37t22.5 -101q0 -91 -24 -163.5t-69 -115.5t-106 -47h-5q-50 3 -73 36.5t-23 103.5q0 91 24.5 164.5t69.5 116t106 43.5h5zM154.5 398q-40.5 -39 -63.5 -107.5t-23 -153.5q0 -62 19.5 -92t60.5 -30q52 0 93 39.5t63.5 108.5t22.5 154q0 62 -19 91
t-60 29q-53 0 -93.5 -39zM130 532q42 41 115 126h18q49 -78 87 -126l-11 -12h-5q-39 50 -81 117q-59 -68 -110 -117h-5z" />
    <glyph glyph-name="uni1ED1" unicode="&#x1ed1;" horiz-adv-x="396" 
d="M253 458q50 -4 72.5 -37t22.5 -101q0 -91 -24 -163.5t-69 -115.5t-106 -47h-5q-50 3 -73 36.5t-23 103.5q0 91 24.5 164.5t69.5 116t106 43.5h5zM154.5 398q-40.5 -39 -63.5 -107.5t-23 -153.5q0 -62 19.5 -92t60.5 -30q52 0 93 39.5t63.5 108.5t22.5 154q0 62 -19 91
t-60 29q-53 0 -93.5 -39zM293 631l70 80l5 -1l11 -9l-1 -5l-68 -76h-6zM134 546q44 28 106 76h16q60 -52 91 -76l-8 -14h-5q-40 29 -87 70q-47 -35 -103 -70h-5z" />
    <glyph glyph-name="uni1ED9" unicode="&#x1ed9;" horiz-adv-x="396" 
d="M253 458q50 -4 72.5 -37t22.5 -101q0 -91 -24 -163.5t-69 -115.5t-106 -47h-5q-50 3 -73 36.5t-23 103.5q0 91 24.5 164.5t69.5 116t106 43.5h5zM154.5 398q-40.5 -39 -63.5 -107.5t-23 -153.5q0 -62 19.5 -92t60.5 -30q52 0 93 39.5t63.5 108.5t22.5 154q0 62 -19 91
t-60 29q-53 0 -93.5 -39zM176.5 -97.5q5.5 -5.5 5.5 -14.5t-5.5 -14.5t-14.5 -5.5t-14.5 5.5t-5.5 14.5t5.5 14.5t14.5 5.5t14.5 -5.5zM135 532q42 41 115 126h18q49 -78 87 -126l-11 -12h-5q-39 50 -81 117q-59 -68 -110 -117h-5z" />
    <glyph glyph-name="uni1ED3" unicode="&#x1ed3;" horiz-adv-x="396" 
d="M253 458q50 -4 72.5 -37t22.5 -101q0 -91 -24 -163.5t-69 -115.5t-106 -47h-5q-50 3 -73 36.5t-23 103.5q0 91 24.5 164.5t69.5 116t106 43.5h5zM154.5 398q-40.5 -39 -63.5 -107.5t-23 -153.5q0 -62 19.5 -92t60.5 -30q52 0 93 39.5t63.5 108.5t22.5 154q0 62 -19 91
t-60 29q-53 0 -93.5 -39zM275 695l-1 5l11 9l5 1l70 -80l-11 -11h-6zM136 547q44 28 106 76h16q60 -52 91 -76l-8 -14h-5q-40 29 -87 70q-47 -35 -103 -70h-5z" />
    <glyph glyph-name="uni1ED5" unicode="&#x1ed5;" horiz-adv-x="396" 
d="M253 458q50 -4 72.5 -37t22.5 -101q0 -91 -24 -163.5t-69 -115.5t-106 -47h-5q-50 3 -73 36.5t-23 103.5q0 91 24.5 164.5t69.5 116t106 43.5h5zM154.5 398q-40.5 -39 -63.5 -107.5t-23 -153.5q0 -62 19.5 -92t60.5 -30q52 0 93 39.5t63.5 108.5t22.5 154q0 62 -19 91
t-60 29q-53 0 -93.5 -39zM156 558q37 24 105 76h16q52 -45 92 -76l-8 -14h-5q-40 29 -87 70q-47 -35 -103 -70h-5zM322 662q25 16 38 31.5t13 26.5q0 9 -7 14.5t-19 5.5q-26 0 -54 -23l-8 14q34 29 64 29q19 0 31.5 -11t12.5 -27q0 -29 -48 -65l16 -29l-17 -7z" />
    <glyph glyph-name="uni1ED7" unicode="&#x1ed7;" horiz-adv-x="396" 
d="M253 458q50 -4 72.5 -37t22.5 -101q0 -91 -24 -163.5t-69 -115.5t-106 -47h-5q-50 3 -73 36.5t-23 103.5q0 91 24.5 164.5t69.5 116t106 43.5h5zM154.5 398q-40.5 -39 -63.5 -107.5t-23 -153.5q0 -62 19.5 -92t60.5 -30q52 0 93 39.5t63.5 108.5t22.5 154q0 62 -19 91
t-60 29q-53 0 -93.5 -39zM128 558q37 24 105 76h16q52 -45 92 -76l-8 -14h-5q-40 29 -87 70q-47 -35 -103 -70h-5zM393 727v-4l-53 -48l-6 -2q-24 3 -81 21q-62 18 -74 18q-5 0 -13 -6t-17 -16l-21 -19h-4l-9 11v4l53 48l6 2q24 -3 81 -21q62 -18 74 -18q5 0 13 6t17 16
l21 19h4z" />
    <glyph glyph-name="uni020D" unicode="&#x20d;" horiz-adv-x="396" 
d="M253 458q50 -4 72.5 -37t22.5 -101q0 -91 -24 -163.5t-69 -115.5t-106 -47h-5q-50 3 -73 36.5t-23 103.5q0 91 24.5 164.5t69.5 116t106 43.5h5zM154.5 398q-40.5 -39 -63.5 -107.5t-23 -153.5q0 -62 19.5 -92t60.5 -30q52 0 93 39.5t63.5 108.5t22.5 154q0 62 -19 91
t-60 29q-53 0 -93.5 -39zM214 516q-73 66 -144 135l-1 5l10 10l5 1q70 -69 146 -137l-11 -13zM344 516q-74 66 -144 135l-1 5l10 10l5 1q69 -69 146 -137l-11 -13z" />
    <glyph glyph-name="uni022B" unicode="&#x22b;" horiz-adv-x="396" 
d="M253 458q50 -4 72.5 -37t22.5 -101q0 -91 -24 -163.5t-69 -115.5t-106 -47h-5q-50 3 -73 36.5t-23 103.5q0 91 24.5 164.5t69.5 116t106 43.5h5zM154.5 398q-40.5 -39 -63.5 -107.5t-23 -153.5q0 -62 19.5 -92t60.5 -30q52 0 93 39.5t63.5 108.5t22.5 154q0 62 -19 91
t-60 29q-53 0 -93.5 -39zM387 688l-2 -17h-237l-3 3l2 17h237zM201.5 589.5q5.5 -5.5 5.5 -14.5t-5.5 -14.5t-14.5 -5.5t-14.5 5.5t-5.5 14.5t5.5 14.5t14.5 5.5t14.5 -5.5zM341.5 589.5q5.5 -5.5 5.5 -14.5t-5.5 -14.5t-14.5 -5.5t-14.5 5.5t-5.5 14.5t5.5 14.5t14.5 5.5
t14.5 -5.5z" />
    <glyph glyph-name="uni0231" unicode="&#x231;" horiz-adv-x="396" 
d="M253 458q50 -4 72.5 -37t22.5 -101q0 -91 -24 -163.5t-69 -115.5t-106 -47h-5q-50 3 -73 36.5t-23 103.5q0 91 24.5 164.5t69.5 116t106 43.5h5zM154.5 398q-40.5 -39 -63.5 -107.5t-23 -153.5q0 -62 19.5 -92t60.5 -30q52 0 93 39.5t63.5 108.5t22.5 154q0 62 -19 91
t-60 29q-53 0 -93.5 -39zM265.5 588.5q5.5 -5.5 5.5 -14.5t-5.5 -14.5t-14.5 -5.5t-14.5 5.5t-5.5 14.5t5.5 14.5t14.5 5.5t14.5 -5.5zM367 666l-2 -17h-207l-3 3l2 17h207z" />
    <glyph glyph-name="uni1ECD" unicode="&#x1ecd;" horiz-adv-x="396" 
d="M253 458q50 -4 72.5 -37t22.5 -101q0 -91 -24 -163.5t-69 -115.5t-106 -47h-5q-50 3 -73 36.5t-23 103.5q0 91 24.5 164.5t69.5 116t106 43.5h5zM154.5 398q-40.5 -39 -63.5 -107.5t-23 -153.5q0 -62 19.5 -92t60.5 -30q52 0 93 39.5t63.5 108.5t22.5 154q0 62 -19 91
t-60 29q-53 0 -93.5 -39zM176.5 -97.5q5.5 -5.5 5.5 -14.5t-5.5 -14.5t-14.5 -5.5t-14.5 5.5t-5.5 14.5t5.5 14.5t14.5 5.5t14.5 -5.5z" />
    <glyph glyph-name="ograve" unicode="&#xf2;" horiz-adv-x="396" 
d="M253 458q50 -4 72.5 -37t22.5 -101q0 -91 -24 -163.5t-69 -115.5t-106 -47h-5q-50 3 -73 36.5t-23 103.5q0 91 24.5 164.5t69.5 116t106 43.5h5zM154.5 398q-40.5 -39 -63.5 -107.5t-23 -153.5q0 -62 19.5 -92t60.5 -30q52 0 93 39.5t63.5 108.5t22.5 154q0 62 -19 91
t-60 29q-53 0 -93.5 -39zM291 532l-11 -13l-5 -1q-75 66 -144 135l-1 5l10 10l5 1q77 -79 146 -137z" />
    <glyph glyph-name="uni1ECF" unicode="&#x1ecf;" horiz-adv-x="396" 
d="M253 458q50 -4 72.5 -37t22.5 -101q0 -91 -24 -163.5t-69 -115.5t-106 -47h-5q-50 3 -73 36.5t-23 103.5q0 91 24.5 164.5t69.5 116t106 43.5h5zM154.5 398q-40.5 -39 -63.5 -107.5t-23 -153.5q0 -62 19.5 -92t60.5 -30q52 0 93 39.5t63.5 108.5t22.5 154q0 62 -19 91
t-60 29q-53 0 -93.5 -39zM211 552q25 16 38 31.5t13 26.5q0 9 -7 14.5t-19 5.5q-26 0 -54 -23l-8 14q34 29 64 29q19 0 31.5 -11t12.5 -27q0 -29 -48 -65l16 -29l-17 -7z" />
    <glyph glyph-name="ohorn" unicode="&#x1a1;" horiz-adv-x="438" 
d="M436.5 551q12.5 -25 12.5 -51q0 -39 -26.5 -64t-66.5 -25q-12 0 -25 3q11 -18 15.5 -41t4.5 -59q0 -90 -25.5 -161.5t-71 -113.5t-103.5 -45h-5q-52 4 -74.5 38t-22.5 108q0 90 26 162.5t71.5 113.5t103.5 42h5q19 -1 31 -4.5t27 -10.5q24 -11 45 -11q31 0 51.5 18
t20.5 45q0 35 -33 71l2 5q8 5 12 5q13 0 25.5 -25zM242 53.5q41 38.5 64.5 106t23.5 150.5q0 68 -18.5 97.5t-61.5 29.5q-51 0 -92.5 -38.5t-65 -105.5t-23.5 -149q0 -68 19 -98.5t62 -30.5q51 0 92 38.5z" />
    <glyph glyph-name="uni1EDB" unicode="&#x1edb;" horiz-adv-x="438" 
d="M436.5 551q12.5 -25 12.5 -51q0 -39 -26.5 -64t-66.5 -25q-12 0 -25 3q11 -18 15.5 -41t4.5 -59q0 -90 -25.5 -161.5t-71 -113.5t-103.5 -45h-5q-52 4 -74.5 38t-22.5 108q0 90 26 162.5t71.5 113.5t103.5 42h5q19 -1 31 -4.5t27 -10.5q24 -11 45 -11q31 0 51.5 18
t20.5 45q0 35 -33 71l2 5q8 5 12 5q13 0 25.5 -25zM242 53.5q41 38.5 64.5 106t23.5 150.5q0 68 -18.5 97.5t-61.5 29.5q-51 0 -92.5 -38.5t-65 -105.5t-23.5 -149q0 -68 19 -98.5t62 -30.5q51 0 92 38.5zM334 668l10 -10l-1 -5q-69 -69 -144 -135l-5 1l-11 13
q69 58 146 137z" />
    <glyph glyph-name="uni1EE3" unicode="&#x1ee3;" horiz-adv-x="438" 
d="M436.5 551q12.5 -25 12.5 -51q0 -39 -26.5 -64t-66.5 -25q-12 0 -25 3q11 -18 15.5 -41t4.5 -59q0 -90 -25.5 -161.5t-71 -113.5t-103.5 -45h-5q-52 4 -74.5 38t-22.5 108q0 90 26 162.5t71.5 113.5t103.5 42h5q19 -1 31 -4.5t27 -10.5q24 -11 45 -11q31 0 51.5 18
t20.5 45q0 35 -33 71l2 5q8 5 12 5q13 0 25.5 -25zM242 53.5q41 38.5 64.5 106t23.5 150.5q0 68 -18.5 97.5t-61.5 29.5q-51 0 -92.5 -38.5t-65 -105.5t-23.5 -149q0 -68 19 -98.5t62 -30.5q51 0 92 38.5zM180.5 -97.5q5.5 -5.5 5.5 -14.5t-5.5 -14.5t-14.5 -5.5t-14.5 5.5
t-5.5 14.5t5.5 14.5t14.5 5.5t14.5 -5.5z" />
    <glyph glyph-name="uni1EDD" unicode="&#x1edd;" horiz-adv-x="438" 
d="M436.5 551q12.5 -25 12.5 -51q0 -39 -26.5 -64t-66.5 -25q-12 0 -25 3q11 -18 15.5 -41t4.5 -59q0 -90 -25.5 -161.5t-71 -113.5t-103.5 -45h-5q-52 4 -74.5 38t-22.5 108q0 90 26 162.5t71.5 113.5t103.5 42h5q19 -1 31 -4.5t27 -10.5q24 -11 45 -11q31 0 51.5 18
t20.5 45q0 35 -33 71l2 5q8 5 12 5q13 0 25.5 -25zM242 53.5q41 38.5 64.5 106t23.5 150.5q0 68 -18.5 97.5t-61.5 29.5q-51 0 -92.5 -38.5t-65 -105.5t-23.5 -149q0 -68 19 -98.5t62 -30.5q51 0 92 38.5zM303 532l-11 -13l-5 -1q-75 66 -144 135l-1 5l10 10l5 1
q77 -79 146 -137z" />
    <glyph glyph-name="uni1EDF" unicode="&#x1edf;" horiz-adv-x="438" 
d="M436.5 551q12.5 -25 12.5 -51q0 -39 -26.5 -64t-66.5 -25q-12 0 -25 3q11 -18 15.5 -41t4.5 -59q0 -90 -25.5 -161.5t-71 -113.5t-103.5 -45h-5q-52 4 -74.5 38t-22.5 108q0 90 26 162.5t71.5 113.5t103.5 42h5q19 -1 31 -4.5t27 -10.5q24 -11 45 -11q31 0 51.5 18
t20.5 45q0 35 -33 71l2 5q8 5 12 5q13 0 25.5 -25zM242 53.5q41 38.5 64.5 106t23.5 150.5q0 68 -18.5 97.5t-61.5 29.5q-51 0 -92.5 -38.5t-65 -105.5t-23.5 -149q0 -68 19 -98.5t62 -30.5q51 0 92 38.5zM223 552q25 16 38 31.5t13 26.5q0 9 -7 14.5t-19 5.5q-26 0 -54 -23
l-8 14q34 29 64 29q19 0 31.5 -11t12.5 -27q0 -29 -48 -65l16 -29l-17 -7z" />
    <glyph glyph-name="uni1EE1" unicode="&#x1ee1;" horiz-adv-x="438" 
d="M436.5 551q12.5 -25 12.5 -51q0 -39 -26.5 -64t-66.5 -25q-12 0 -25 3q11 -18 15.5 -41t4.5 -59q0 -90 -25.5 -161.5t-71 -113.5t-103.5 -45h-5q-52 4 -74.5 38t-22.5 108q0 90 26 162.5t71.5 113.5t103.5 42h5q19 -1 31 -4.5t27 -10.5q24 -11 45 -11q31 0 51.5 18
t20.5 45q0 35 -33 71l2 5q8 5 12 5q13 0 25.5 -25zM242 53.5q41 38.5 64.5 106t23.5 150.5q0 68 -18.5 97.5t-61.5 29.5q-51 0 -92.5 -38.5t-65 -105.5t-23.5 -149q0 -68 19 -98.5t62 -30.5q51 0 92 38.5zM384 607v-4l-47 -47l-6 -2q-16 2 -72 20q-54 18 -65 18q-5 0 -13 -7
t-17 -17l-16 -16h-3l-9 11v4l47 47l6 2q16 -2 72 -20q54 -18 65 -18q5 0 12 6t15 15l19 19h3z" />
    <glyph glyph-name="ohungarumlaut" unicode="&#x151;" horiz-adv-x="396" 
d="M253 458q50 -4 72.5 -37t22.5 -101q0 -91 -24 -163.5t-69 -115.5t-106 -47h-5q-50 3 -73 36.5t-23 103.5q0 91 24.5 164.5t69.5 116t106 43.5h5zM154.5 398q-40.5 -39 -63.5 -107.5t-23 -153.5q0 -62 19.5 -92t60.5 -30q52 0 93 39.5t63.5 108.5t22.5 154q0 62 -19 91
t-60 29q-53 0 -93.5 -39zM288 667l5 -1l10 -10l-1 -5q-70 -69 -144 -135l-5 1l-11 13q76 67 146 137zM418 667l5 -1l10 -10l-1 -5q-71 -69 -144 -135l-5 1l-11 13q77 68 146 137z" />
    <glyph glyph-name="uni020F" unicode="&#x20f;" horiz-adv-x="396" 
d="M253 458q50 -4 72.5 -37t22.5 -101q0 -91 -24 -163.5t-69 -115.5t-106 -47h-5q-50 3 -73 36.5t-23 103.5q0 91 24.5 164.5t69.5 116t106 43.5h5zM154.5 398q-40.5 -39 -63.5 -107.5t-23 -153.5q0 -62 19.5 -92t60.5 -30q52 0 93 39.5t63.5 108.5t22.5 154q0 62 -19 91
t-60 29q-53 0 -93.5 -39zM147 535q16 54 44 79.5t70 25.5t63 -25.5t25 -79.5l-15 -13h-5q-1 50 -18 74t-53 24q-35 0 -58 -24t-36 -74h-5z" />
    <glyph glyph-name="omacron" unicode="&#x14d;" horiz-adv-x="396" 
d="M253 458q50 -4 72.5 -37t22.5 -101q0 -91 -24 -163.5t-69 -115.5t-106 -47h-5q-50 3 -73 36.5t-23 103.5q0 91 24.5 164.5t69.5 116t106 43.5h5zM154.5 398q-40.5 -39 -63.5 -107.5t-23 -153.5q0 -62 19.5 -92t60.5 -30q52 0 93 39.5t63.5 108.5t22.5 154q0 62 -19 91
t-60 29q-53 0 -93.5 -39zM396 604l-2 -17h-287l-3 3l2 17h287z" />
    <glyph glyph-name="uni1E53" unicode="&#x1e53;" horiz-adv-x="396" 
d="M253 458q50 -4 72.5 -37t22.5 -101q0 -91 -24 -163.5t-69 -115.5t-106 -47h-5q-50 3 -73 36.5t-23 103.5q0 91 24.5 164.5t69.5 116t106 43.5h5zM154.5 398q-40.5 -39 -63.5 -107.5t-23 -153.5q0 -62 19.5 -92t60.5 -30q52 0 93 39.5t63.5 108.5t22.5 154q0 62 -19 91
t-60 29q-53 0 -93.5 -39zM353 713l5 -13l-3 -5q-80 -29 -187 -61l-5 4l-4 16q93 26 190 62zM360 574l-2 -17h-207l-3 3l2 17h207z" />
    <glyph glyph-name="uni1E51" unicode="&#x1e51;" horiz-adv-x="396" 
d="M253 458q50 -4 72.5 -37t22.5 -101q0 -91 -24 -163.5t-69 -115.5t-106 -47h-5q-50 3 -73 36.5t-23 103.5q0 91 24.5 164.5t69.5 116t106 43.5h5zM154.5 398q-40.5 -39 -63.5 -107.5t-23 -153.5q0 -62 19.5 -92t60.5 -30q52 0 93 39.5t63.5 108.5t22.5 154q0 62 -19 91
t-60 29q-53 0 -93.5 -39zM166 695l-3 5l5 13l4 3q97 -36 190 -62l-4 -16l-5 -4q-107 32 -187 61zM357 574l-2 -17h-207l-3 3l2 17h207z" />
    <glyph glyph-name="uni01EB" unicode="&#x1eb;" horiz-adv-x="396" 
d="M253 458q50 -4 72.5 -37t22.5 -101q0 -91 -24 -163.5t-69 -115.5t-106 -47h-5q-50 3 -73 36.5t-23 103.5q0 91 24.5 164.5t69.5 116t106 43.5h5zM154.5 398q-40.5 -39 -63.5 -107.5t-23 -153.5q0 -62 19.5 -92t60.5 -30q52 0 93 39.5t63.5 108.5t22.5 154q0 62 -19 91
t-60 29q-53 0 -93.5 -39zM113.5 -190.5q-17.5 17.5 -17.5 47.5q0 20 10.5 38.5t50.5 72.5l31 42h24q-18 -22 -28 -38q-44 -58 -55.5 -76.5t-11.5 -36.5q0 -21 11.5 -33.5t32.5 -12.5t42 13.5t39 38.5h2l11 -16q-44 -57 -95 -57q-29 0 -46.5 17.5z" />
    <glyph glyph-name="oslash" unicode="&#xf8;" horiz-adv-x="396" 
d="M348 320q0 -91 -24 -163.5t-69 -115.5t-106 -47h-5q-17 1 -32 6l-46 -107l-15 3l-2 4l47 107q-25 15 -36.5 46t-11.5 81q0 91 24.5 164.5t69.5 116t106 43.5h5q22 -2 35 -8l35 80l15 -2l2 -5l-35 -81q43 -29 43 -122zM104 27l176 404q-13 6 -32 6q-53 0 -93.5 -39
t-63.5 -107.5t-23 -153.5q0 -84 36 -110zM241 54.5q41 39.5 63.5 108.5t22.5 154q0 78 -31 105l-175 -403q11 -4 27 -4q52 0 93 39.5z" />
    <glyph glyph-name="oslashacute" unicode="&#x1ff;" horiz-adv-x="396" 
d="M348 320q0 -91 -24 -163.5t-69 -115.5t-106 -47h-5q-17 1 -32 6l-46 -107l-15 3l-2 4l47 107q-25 15 -36.5 46t-11.5 81q0 91 24.5 164.5t69.5 116t106 43.5h5q22 -2 35 -8l35 80l15 -2l2 -5l-35 -81q43 -29 43 -122zM104 27l176 404q-13 6 -32 6q-53 0 -93.5 -39
t-63.5 -107.5t-23 -153.5q0 -84 36 -110zM241 54.5q41 39.5 63.5 108.5t22.5 154q0 78 -31 105l-175 -403q11 -4 27 -4q52 0 93 39.5zM339 668l10 -10l-1 -5q-69 -69 -144 -135l-5 1l-11 13q69 58 146 137z" />
    <glyph glyph-name="otilde" unicode="&#xf5;" horiz-adv-x="396" 
d="M253 458q50 -4 72.5 -37t22.5 -101q0 -91 -24 -163.5t-69 -115.5t-106 -47h-5q-50 3 -73 36.5t-23 103.5q0 91 24.5 164.5t69.5 116t106 43.5h5zM154.5 398q-40.5 -39 -63.5 -107.5t-23 -153.5q0 -62 19.5 -92t60.5 -30q52 0 93 39.5t63.5 108.5t22.5 154q0 62 -19 91
t-60 29q-53 0 -93.5 -39zM388 620v-4l-52 -47l-6 -2q-20 2 -81 20q-6 2 -35 10t-40 8q-5 0 -13 -6t-17 -16l-21 -19h-4l-9 11v4l52 47l6 2q20 -2 81 -20q6 -2 35 -10t40 -8q5 0 13 6t17 16l21 19h4z" />
    <glyph glyph-name="uni1E4D" unicode="&#x1e4d;" horiz-adv-x="396" 
d="M253 458q50 -4 72.5 -37t22.5 -101q0 -91 -24 -163.5t-69 -115.5t-106 -47h-5q-50 3 -73 36.5t-23 103.5q0 91 24.5 164.5t69.5 116t106 43.5h5zM154.5 398q-40.5 -39 -63.5 -107.5t-23 -153.5q0 -62 19.5 -92t60.5 -30q52 0 93 39.5t63.5 108.5t22.5 154q0 62 -19 91
t-60 29q-53 0 -93.5 -39zM360 724l5 -13l-3 -5q-80 -29 -187 -61l-5 4l-4 16q93 26 190 62zM377 597v-4l-47 -47l-6 -2q-16 2 -72 20q-54 18 -65 18q-5 0 -13 -7t-17 -17l-16 -16h-3l-9 11v4l47 47l6 2q16 -2 72 -20q54 -18 65 -18q5 0 12 6t15 15l19 19h3z" />
    <glyph glyph-name="uni1E4F" unicode="&#x1e4f;" horiz-adv-x="396" 
d="M253 458q50 -4 72.5 -37t22.5 -101q0 -91 -24 -163.5t-69 -115.5t-106 -47h-5q-50 3 -73 36.5t-23 103.5q0 91 24.5 164.5t69.5 116t106 43.5h5zM154.5 398q-40.5 -39 -63.5 -107.5t-23 -153.5q0 -62 19.5 -92t60.5 -30q52 0 93 39.5t63.5 108.5t22.5 154q0 62 -19 91
t-60 29q-53 0 -93.5 -39zM376 607v-4l-47 -47l-6 -2q-16 2 -72 20q-54 18 -65 18q-5 0 -13 -7t-17 -17l-16 -16h-3l-9 11v4l47 47l6 2q16 -2 72 -20q54 -18 65 -18q5 0 12 6t15 15l19 19h3zM213.5 699.5q5.5 -5.5 5.5 -14.5t-5.5 -14.5t-14.5 -5.5t-14.5 5.5t-5.5 14.5
t5.5 14.5t14.5 5.5t14.5 -5.5zM363.5 699.5q5.5 -5.5 5.5 -14.5t-5.5 -14.5t-14.5 -5.5t-14.5 5.5t-5.5 14.5t5.5 14.5t14.5 5.5t14.5 -5.5z" />
    <glyph glyph-name="uni022D" unicode="&#x22d;" horiz-adv-x="396" 
d="M253 458q50 -4 72.5 -37t22.5 -101q0 -91 -24 -163.5t-69 -115.5t-106 -47h-5q-50 3 -73 36.5t-23 103.5q0 91 24.5 164.5t69.5 116t106 43.5h5zM154.5 398q-40.5 -39 -63.5 -107.5t-23 -153.5q0 -62 19.5 -92t60.5 -30q52 0 93 39.5t63.5 108.5t22.5 154q0 62 -19 91
t-60 29q-53 0 -93.5 -39zM373 607v-4l-47 -47l-6 -2q-16 2 -72 20q-54 18 -65 18q-5 0 -13 -7t-17 -17l-16 -16h-3l-9 11v4l47 47l6 2q16 -2 72 -20q54 -18 65 -18q5 0 12 6t15 15l19 19h3zM377 693l-2 -17h-207l-3 3l2 17h207z" />
    <glyph glyph-name="oe" unicode="&#x153;" horiz-adv-x="622" 
d="M552 118l9 -13q-30 -50 -64.5 -77t-80.5 -33h-9q-47 6 -68 38.5t-23 98.5q-25 -62 -67.5 -98t-98.5 -40h-5q-50 3 -73.5 36.5t-23.5 103.5q0 91 24.5 164.5t70 116t106.5 43.5h5q51 -4 73 -36.5t22 -99.5q26 61 68.5 97.5t92.5 37.5h5q75 -6 75 -69q0 -57 -64 -111
t-190 -101q-1 -9 -1 -28q0 -68 19.5 -100t59.5 -32q37 0 70.5 26.5t60.5 75.5h7zM242.5 54.5q40.5 39.5 63.5 108.5t23 154q0 62 -19 91t-61 29q-53 0 -94 -39t-64 -107.5t-23 -153.5q0 -63 19.5 -92.5t61.5 -29.5q53 0 93.5 39.5zM408 382.5q-46 -53.5 -64 -140.5
q-1 -12 -5 -34q-1 -3 -1 -10q111 41 171 90t60 97q0 23 -14.5 37t-42.5 14q-58 0 -104 -53.5z" />
    <glyph glyph-name="p" unicode="p" horiz-adv-x="422" 
d="M365 402q12 -30 12 -85q0 -86 -27 -157.5t-79.5 -115.5t-124.5 -48h-4l-58 14l-11 -89l-9 -106l-25 -4l71 551l6 90l25 4l-35 -277h4q45 84 98 155.5t106 119.5h11q28 -22 40 -52zM257 57q48 41 74 109t26 146q0 40 -6.5 65.5t-16 37t-16.5 11.5q-8 0 -44 -39.5
t-83.5 -109t-92.5 -157.5l-11 -89l58 -15q64 0 112 41z" />
    <glyph glyph-name="thorn" unicode="&#xfe;" horiz-adv-x="422" 
d="M365 402q12 -30 12 -85q0 -86 -27 -157.5t-79.5 -115.5t-124.5 -48h-4l-58 14l-12 -91l-9 -106l-25 -4l105 799l6 90l25 4l-68 -523h4q45 84 98 155.5t106 119.5h11q28 -22 40 -52zM257 57q48 41 74 109t26 146q0 40 -6.5 65.5t-16 37t-16.5 11.5q-8 0 -44 -39.5
t-83.5 -109.5t-92.5 -158l-11 -88l58 -15q64 0 112 41z" />
    <glyph glyph-name="q" unicode="q" horiz-adv-x="421" 
d="M358 456l-68 -535l-9 -106l-25 -4l59 460h-4q-45 -84 -98 -155.5t-106 -119.5h-11q-27 19 -39 50.5t-12 86.5q0 86 27 157.5t79.5 115.5t123.5 48h4l61 -3l13 8zM147.5 63.5q35.5 39.5 83 109.5t92.5 158l4 31l6 70l-57 2q-63 0 -111 -41t-73.5 -109t-25.5 -146
q0 -40 6.5 -65.5t15.5 -37t16 -11.5q8 0 43.5 39.5z" />
    <glyph glyph-name="r" unicode="r" horiz-adv-x="307" 
d="M326 450l-3 -20l-3 -2l-11 2q-40 -7 -96 -90.5t-118 -235.5l-10 -104l-24 -4l47 366l8 90l23 4l-35 -275h5q54 123 106.5 193.5t94.5 77.5z" />
    <glyph glyph-name="racute" unicode="&#x155;" horiz-adv-x="307" 
d="M326 450l-3 -20l-3 -2l-11 2q-40 -7 -96 -90.5t-118 -235.5l-10 -104l-24 -4l47 366l8 90l23 4l-35 -275h5q54 123 106.5 193.5t94.5 77.5zM307 668l10 -10l-1 -5q-69 -69 -144 -135l-5 1l-11 13q69 58 146 137z" />
    <glyph glyph-name="rcaron" unicode="&#x159;" horiz-adv-x="307" 
d="M326 450l-3 -20l-3 -2l-11 2q-40 -7 -96 -90.5t-118 -235.5l-10 -104l-24 -4l47 366l8 90l23 4l-35 -275h5q54 123 106.5 193.5t94.5 77.5zM343 646q-42 -41 -115 -126h-18q-49 78 -87 126l11 12h5q39 -50 81 -117q59 68 110 117h5z" />
    <glyph glyph-name="rcommaaccent" unicode="&#x157;" horiz-adv-x="307" 
d="M326 450l-3 -20l-3 -2l-11 2q-40 -7 -96 -90.5t-118 -235.5l-10 -104l-24 -4l47 366l8 90l23 4l-35 -275h5q54 123 106.5 193.5t94.5 77.5zM108 -117q0 -20 -17 -44t-49 -49l-10 11l1 3q26 19 40 39.5t14 38.5q0 20 -30 34v4q5 7 13 11q38 -17 38 -48z" />
    <glyph glyph-name="uni0211" unicode="&#x211;" horiz-adv-x="307" 
d="M326 450l-3 -20l-3 -2l-11 2q-40 -7 -96 -90.5t-118 -235.5l-10 -104l-24 -4l47 366l8 90l23 4l-35 -275h5q54 123 106.5 193.5t94.5 77.5zM199 516q-73 66 -144 135l-1 5l10 10l5 1q70 -69 146 -137l-11 -13zM329 516q-74 66 -144 135l-1 5l10 10l5 1q69 -69 146 -137
l-11 -13z" />
    <glyph glyph-name="uni1E5B" unicode="&#x1e5b;" horiz-adv-x="307" 
d="M326 450l-3 -20l-3 -2l-11 2q-40 -7 -96 -90.5t-118 -235.5l-10 -104l-24 -4l47 366l8 90l23 4l-35 -275h5q54 123 106.5 193.5t94.5 77.5zM80.5 -97.5q5.5 -5.5 5.5 -14.5t-5.5 -14.5t-14.5 -5.5t-14.5 5.5t-5.5 14.5t5.5 14.5t14.5 5.5t14.5 -5.5z" />
    <glyph glyph-name="uni0213" unicode="&#x213;" horiz-adv-x="307" 
d="M326 450l-3 -20l-3 -2l-11 2q-40 -7 -96 -90.5t-118 -235.5l-10 -104l-24 -4l47 366l8 90l23 4l-35 -275h5q54 123 106.5 193.5t94.5 77.5zM132 535q16 54 44 79.5t70 25.5t63 -25.5t25 -79.5l-15 -13h-5q-1 50 -18 74t-53 24q-35 0 -58 -24t-36 -74h-5z" />
    <glyph glyph-name="uni1E5F" unicode="&#x1e5f;" horiz-adv-x="307" 
d="M326 450l-3 -20l-3 -2l-11 2q-40 -7 -96 -90.5t-118 -235.5l-10 -104l-24 -4l47 366l8 90l23 4l-35 -275h5q54 123 106.5 193.5t94.5 77.5zM163 -130l-2 -17h-207l-3 3l2 17h207z" />
    <glyph glyph-name="s" unicode="s" horiz-adv-x="306" 
d="M279 435l-7 -19l-6 -1q-34 20 -69 20q-31 0 -56.5 -14t-40 -36.5t-14.5 -46.5q0 -28 18 -48.5t56 -49.5q43 -32 64 -57t21 -63q0 -34 -18.5 -62.5t-52.5 -46t-78 -17.5q-48 7 -86 34l3 18l7 4q41 -35 88 -35q50 0 83 30t33 72q0 33 -19.5 55.5t-58.5 51.5t-59.5 53
t-20.5 59q0 51 40.5 85.5t100.5 33.5q42 -4 72 -20z" />
    <glyph glyph-name="sacute" unicode="&#x15b;" horiz-adv-x="306" 
d="M279 435l-7 -19l-6 -1q-34 20 -69 20q-31 0 -56.5 -14t-40 -36.5t-14.5 -46.5q0 -28 18 -48.5t56 -49.5q43 -32 64 -57t21 -63q0 -34 -18.5 -62.5t-52.5 -46t-78 -17.5q-48 7 -86 34l3 18l7 4q41 -35 88 -35q50 0 83 30t33 72q0 33 -19.5 55.5t-58.5 51.5t-59.5 53
t-20.5 59q0 51 40.5 85.5t100.5 33.5q42 -4 72 -20zM279 668l10 -10l-1 -5q-69 -69 -144 -135l-5 1l-11 13q69 58 146 137z" />
    <glyph glyph-name="uni1E65" unicode="&#x1e65;" horiz-adv-x="306" 
d="M279 435l-7 -19l-6 -1q-34 20 -69 20q-31 0 -56.5 -14t-40 -36.5t-14.5 -46.5q0 -28 18 -48.5t56 -49.5q43 -32 64 -57t21 -63q0 -34 -18.5 -62.5t-52.5 -46t-78 -17.5q-48 7 -86 34l3 18l7 4q41 -35 88 -35q50 0 83 30t33 72q0 33 -19.5 55.5t-58.5 51.5t-59.5 53
t-20.5 59q0 51 40.5 85.5t100.5 33.5q42 -4 72 -20zM295 649l7 -12l-2 -5q-67 -38 -174 -93l-5 3l-7 15q91 44 176 94zM226.5 722.5q5.5 -5.5 5.5 -14.5t-5.5 -14.5t-14.5 -5.5t-14.5 5.5t-5.5 14.5t5.5 14.5t14.5 5.5t14.5 -5.5z" />
    <glyph glyph-name="uniA78C" unicode="&#xa78c;" horiz-adv-x="74" 
d="M83 529l-30 -234l-17 -3l-2 7l29 234l18 3z" />
    <glyph glyph-name="scaron" unicode="&#x161;" horiz-adv-x="306" 
d="M279 435l-7 -19l-6 -1q-34 20 -69 20q-31 0 -56.5 -14t-40 -36.5t-14.5 -46.5q0 -28 18 -48.5t56 -49.5q43 -32 64 -57t21 -63q0 -34 -18.5 -62.5t-52.5 -46t-78 -17.5q-48 7 -86 34l3 18l7 4q41 -35 88 -35q50 0 83 30t33 72q0 33 -19.5 55.5t-58.5 51.5t-59.5 53
t-20.5 59q0 51 40.5 85.5t100.5 33.5q42 -4 72 -20zM315 646q-42 -41 -115 -126h-18q-49 78 -87 126l11 12h5q39 -50 81 -117q59 68 110 117h5z" />
    <glyph glyph-name="uni1E67" unicode="&#x1e67;" horiz-adv-x="306" 
d="M279 435l-7 -19l-6 -1q-34 20 -69 20q-31 0 -56.5 -14t-40 -36.5t-14.5 -46.5q0 -28 18 -48.5t56 -49.5q43 -32 64 -57t21 -63q0 -34 -18.5 -62.5t-52.5 -46t-78 -17.5q-48 7 -86 34l3 18l7 4q41 -35 88 -35q50 0 83 30t33 72q0 33 -19.5 55.5t-58.5 51.5t-59.5 53
t-20.5 59q0 51 40.5 85.5t100.5 33.5q42 -4 72 -20zM314 620q-37 -24 -105 -76h-16q-52 45 -92 76l8 14h5q40 -29 87 -70q47 35 103 70h5zM226.5 696.5q5.5 -5.5 5.5 -14.5t-5.5 -14.5t-14.5 -5.5t-14.5 5.5t-5.5 14.5t5.5 14.5t14.5 5.5t14.5 -5.5z" />
    <glyph glyph-name="scedilla" unicode="&#x15f;" horiz-adv-x="306" 
d="M279 435l-7 -19l-6 -1q-34 20 -69 20q-31 0 -56.5 -14t-40 -36.5t-14.5 -46.5q0 -28 18 -48.5t56 -49.5q43 -32 64 -57t21 -63q0 -34 -18.5 -62.5t-52.5 -46t-78 -17.5q-48 7 -86 34l3 18l7 4q41 -35 88 -35q50 0 83 30t33 72q0 33 -19.5 55.5t-58.5 51.5t-59.5 53
t-20.5 59q0 51 40.5 85.5t100.5 33.5q42 -4 72 -20zM119 -55l31 -20q17 -11 25 -22.5t8 -27.5q0 -24 -17.5 -38.5t-42.5 -14.5q-37 0 -59 33l6 18h4q10 -16 21 -23.5t28 -7.5q18 0 29 8.5t11 24.5q0 11 -5.5 17.5t-18.5 15.5l-43 28l24 75h20z" />
    <glyph glyph-name="scircumflex" unicode="&#x15d;" horiz-adv-x="306" 
d="M279 435l-7 -19l-6 -1q-34 20 -69 20q-31 0 -56.5 -14t-40 -36.5t-14.5 -46.5q0 -28 18 -48.5t56 -49.5q43 -32 64 -57t21 -63q0 -34 -18.5 -62.5t-52.5 -46t-78 -17.5q-48 7 -86 34l3 18l7 4q41 -35 88 -35q50 0 83 30t33 72q0 33 -19.5 55.5t-58.5 51.5t-59.5 53
t-20.5 59q0 51 40.5 85.5t100.5 33.5q42 -4 72 -20zM87 532q42 41 115 126h18q49 -78 87 -126l-11 -12h-5q-39 50 -81 117q-59 -68 -110 -117h-5z" />
    <glyph glyph-name="scommaaccent" unicode="&#x219;" horiz-adv-x="306" 
d="M279 435l-7 -19l-6 -1q-34 20 -69 20q-31 0 -56.5 -14t-40 -36.5t-14.5 -46.5q0 -28 18 -48.5t56 -49.5q43 -32 64 -57t21 -63q0 -34 -18.5 -62.5t-52.5 -46t-78 -17.5q-48 7 -86 34l3 18l7 4q41 -35 88 -35q50 0 83 30t33 72q0 33 -19.5 55.5t-58.5 51.5t-59.5 53
t-20.5 59q0 51 40.5 85.5t100.5 33.5q42 -4 72 -20zM163 -117q0 -20 -17 -44t-49 -49l-10 11l1 3q26 19 40 39.5t14 38.5q0 20 -30 34v4q5 7 13 11q38 -17 38 -48z" />
    <glyph glyph-name="uni1E61" unicode="&#x1e61;" horiz-adv-x="306" 
d="M279 435l-7 -19l-6 -1q-34 20 -69 20q-31 0 -56.5 -14t-40 -36.5t-14.5 -46.5q0 -28 18 -48.5t56 -49.5q43 -32 64 -57t21 -63q0 -34 -18.5 -62.5t-52.5 -46t-78 -17.5q-48 7 -86 34l3 18l7 4q41 -35 88 -35q50 0 83 30t33 72q0 33 -19.5 55.5t-58.5 51.5t-59.5 53
t-20.5 59q0 51 40.5 85.5t100.5 33.5q42 -4 72 -20zM222.5 625.5q5.5 -5.5 5.5 -14.5t-5.5 -14.5t-14.5 -5.5t-14.5 5.5t-5.5 14.5t5.5 14.5t14.5 5.5t14.5 -5.5z" />
    <glyph glyph-name="uni1E63" unicode="&#x1e63;" horiz-adv-x="306" 
d="M279 435l-7 -19l-6 -1q-34 20 -69 20q-31 0 -56.5 -14t-40 -36.5t-14.5 -46.5q0 -28 18 -48.5t56 -49.5q43 -32 64 -57t21 -63q0 -34 -18.5 -62.5t-52.5 -46t-78 -17.5q-48 7 -86 34l3 18l7 4q41 -35 88 -35q50 0 83 30t33 72q0 33 -19.5 55.5t-58.5 51.5t-59.5 53
t-20.5 59q0 51 40.5 85.5t100.5 33.5q42 -4 72 -20zM135.5 -97.5q5.5 -5.5 5.5 -14.5t-5.5 -14.5t-14.5 -5.5t-14.5 5.5t-5.5 14.5t5.5 14.5t14.5 5.5t14.5 -5.5z" />
    <glyph glyph-name="uni1E69" unicode="&#x1e69;" horiz-adv-x="306" 
d="M279 435l-7 -19l-6 -1q-34 20 -69 20q-31 0 -56.5 -14t-40 -36.5t-14.5 -46.5q0 -28 18 -48.5t56 -49.5q43 -32 64 -57t21 -63q0 -34 -18.5 -62.5t-52.5 -46t-78 -17.5q-48 7 -86 34l3 18l7 4q41 -35 88 -35q50 0 83 30t33 72q0 33 -19.5 55.5t-58.5 51.5t-59.5 53
t-20.5 59q0 51 40.5 85.5t100.5 33.5q42 -4 72 -20zM135.5 -97.5q5.5 -5.5 5.5 -14.5t-5.5 -14.5t-14.5 -5.5t-14.5 5.5t-5.5 14.5t5.5 14.5t14.5 5.5t14.5 -5.5zM222.5 625.5q5.5 -5.5 5.5 -14.5t-5.5 -14.5t-14.5 -5.5t-14.5 5.5t-5.5 14.5t5.5 14.5t14.5 5.5t14.5 -5.5z
" />
    <glyph glyph-name="germandbls" unicode="&#xdf;" horiz-adv-x="516" 
d="M329.5 297.5q18.5 -24.5 54.5 -54.5q39 -35 58.5 -61t19.5 -64q0 -53 -41.5 -88t-105.5 -36q-48 7 -86 34l2 18l7 4q41 -35 89 -35q49 0 81.5 29.5t32.5 72.5q0 33 -17.5 55.5t-53.5 53.5q-39 32 -59 59t-20 68q0 38 18 63t55 58q37 32 55 57t18 63q0 46 -31 68t-82 22
q-64 0 -100 -35t-44 -95l-46 -362l-27 -216l-9 -106l-25 -4l41 324l30 239h-69l-4 4l4 16h72l13 105q9 72 52 111t113 39q60 0 96 -27t36 -81q0 -43 -20 -71.5t-59 -63.5q-34 -30 -50.5 -52.5t-16.5 -53.5q0 -33 18.5 -57.5z" />
    <glyph glyph-name="t" unicode="t" horiz-adv-x="316" 
d="M106 87l-2 -20q0 -25 10.5 -38.5t29.5 -13.5q21 0 48.5 28t54.5 77h7l9 -12q-36 -59 -60.5 -82.5t-54.5 -30.5q-31 0 -47.5 17.5t-16.5 51.5l2 22l47 276l10 67h-71l-4 4l3 16h75l19 131l22 10l3 -3l-23 -138h144l3 -4l-3 -16h-148z" />
    <glyph glyph-name="tbar" unicode="&#x167;" horiz-adv-x="323" 
d="M168 429l-24 -145h118l3 -3l-4 -17h-120l-30 -177l-2 -20q0 -25 10.5 -38.5t29.5 -13.5q21 0 48.5 28t54.5 77h7l9 -12q-36 -59 -60.5 -82.5t-54.5 -30.5q-31 0 -47.5 17.5t-16.5 51.5l2 22l30 178h-75l-3 3l4 17h78l13 78l10 67h-71l-4 4l3 16h75l19 131l22 10l3 -3
l-23 -138h144l3 -4l-3 -16h-148z" />
    <glyph glyph-name="tcaron" unicode="&#x165;" horiz-adv-x="341" 
d="M106 87l-2 -20q0 -25 10.5 -38.5t29.5 -13.5q21 0 48.5 28t54.5 77h7l9 -12q-36 -59 -60.5 -82.5t-54.5 -30.5q-31 0 -47.5 17.5t-16.5 51.5l2 22l47 276l10 67h-71l-4 4l3 16h75l19 131l22 10l3 -3l-23 -138h144l3 -4l-3 -16h-148zM309 651l-29 -144l-18 -2l-2 4l29 144
l18 2z" />
    <glyph glyph-name="uni0163" unicode="&#x163;" horiz-adv-x="316" 
d="M106 87l-2 -20q0 -25 10.5 -38.5t29.5 -13.5q21 0 48.5 28t54.5 77h7l9 -12q-36 -59 -60.5 -82.5t-54.5 -30.5q-31 0 -47.5 17.5t-16.5 51.5l2 22l47 276l10 67h-71l-4 4l3 16h75l19 131l22 10l3 -3l-23 -138h144l3 -4l-3 -16h-148zM149 -55l31 -20q17 -11 25 -22.5
t8 -27.5q0 -24 -17.5 -38.5t-42.5 -14.5q-37 0 -59 33l6 18h4q10 -16 21 -23.5t28 -7.5q18 0 29 8.5t11 24.5q0 11 -5.5 17.5t-18.5 15.5l-43 28l24 75h20z" />
    <glyph glyph-name="uni021B" unicode="&#x21b;" horiz-adv-x="316" 
d="M106 87l-2 -20q0 -25 10.5 -38.5t29.5 -13.5q21 0 48.5 28t54.5 77h7l9 -12q-36 -59 -60.5 -82.5t-54.5 -30.5q-31 0 -47.5 17.5t-16.5 51.5l2 22l47 276l10 67h-71l-4 4l3 16h75l19 131l22 10l3 -3l-23 -138h144l3 -4l-3 -16h-148zM193 -117q0 -20 -17 -44t-49 -49
l-10 11l1 3q26 19 40 39.5t14 38.5q0 20 -30 34v4q5 7 13 11q38 -17 38 -48z" />
    <glyph glyph-name="uni1E97" unicode="&#x1e97;" horiz-adv-x="316" 
d="M106 87l-2 -20q0 -25 10.5 -38.5t29.5 -13.5q21 0 48.5 28t54.5 77h7l9 -12q-36 -59 -60.5 -82.5t-54.5 -30.5q-31 0 -47.5 17.5t-16.5 51.5l2 22l47 276l10 67h-71l-4 4l3 16h75l19 131l22 10l3 -3l-23 -138h144l3 -4l-3 -16h-148zM123.5 655.5q5.5 -5.5 5.5 -14.5
t-5.5 -14.5t-14.5 -5.5t-14.5 5.5t-5.5 14.5t5.5 14.5t14.5 5.5t14.5 -5.5zM273.5 655.5q5.5 -5.5 5.5 -14.5t-5.5 -14.5t-14.5 -5.5t-14.5 5.5t-5.5 14.5t5.5 14.5t14.5 5.5t14.5 -5.5z" />
    <glyph glyph-name="uni1E6D" unicode="&#x1e6d;" horiz-adv-x="316" 
d="M106 87l-2 -20q0 -25 10.5 -38.5t29.5 -13.5q21 0 48.5 28t54.5 77h7l9 -12q-36 -59 -60.5 -82.5t-54.5 -30.5q-31 0 -47.5 17.5t-16.5 51.5l2 22l47 276l10 67h-71l-4 4l3 16h75l19 131l22 10l3 -3l-23 -138h144l3 -4l-3 -16h-148zM165.5 -97.5q5.5 -5.5 5.5 -14.5
t-5.5 -14.5t-14.5 -5.5t-14.5 5.5t-5.5 14.5t5.5 14.5t14.5 5.5t14.5 -5.5z" />
    <glyph glyph-name="uni1E6F" unicode="&#x1e6f;" horiz-adv-x="316" 
d="M106 87l-2 -20q0 -25 10.5 -38.5t29.5 -13.5q21 0 48.5 28t54.5 77h7l9 -12q-36 -59 -60.5 -82.5t-54.5 -30.5q-31 0 -47.5 17.5t-16.5 51.5l2 22l47 276l10 67h-71l-4 4l3 16h75l19 131l22 10l3 -3l-23 -138h144l3 -4l-3 -16h-148zM248 -130l-2 -17h-207l-3 3l2 17h207z
" />
    <glyph glyph-name="u" unicode="u" horiz-adv-x="454" 
d="M392 456l-46 -350l-9 -106l-25 -4l36 271h-5q-65 -112 -114.5 -179t-98.5 -99h-11q-24 7 -38 30.5t-13 54.5l1 13l43 263l12 101l25 4l-59 -365l-1 -15q-1 -25 10 -42.5t24 -17.5q26 0 90.5 85t142.5 230l4 32l7 90z" />
    <glyph glyph-name="uacute" unicode="&#xfa;" horiz-adv-x="454" 
d="M392 456l-46 -350l-9 -106l-25 -4l36 271h-5q-65 -112 -114.5 -179t-98.5 -99h-11q-24 7 -38 30.5t-13 54.5l1 13l43 263l12 101l25 4l-59 -365l-1 -15q-1 -25 10 -42.5t24 -17.5q26 0 90.5 85t142.5 230l4 32l7 90zM346 668l10 -10l-1 -5q-69 -69 -144 -135l-5 1l-11 13
q69 58 146 137z" />
    <glyph glyph-name="ubreve" unicode="&#x16d;" horiz-adv-x="454" 
d="M392 456l-46 -350l-9 -106l-25 -4l36 271h-5q-65 -112 -114.5 -179t-98.5 -99h-11q-24 7 -38 30.5t-13 54.5l1 13l43 263l12 101l25 4l-59 -365l-1 -15q-1 -25 10 -42.5t24 -17.5q26 0 90.5 85t142.5 230l4 32l7 90zM373 627q-16 -54 -44 -79.5t-70 -25.5t-63 25.5
t-25 79.5l15 13h5q1 -50 18 -74t53 -24q35 0 58 24t36 74h5z" />
    <glyph glyph-name="uni01D4" unicode="&#x1d4;" horiz-adv-x="454" 
d="M392 456l-46 -350l-9 -106l-25 -4l36 271h-5q-65 -112 -114.5 -179t-98.5 -99h-11q-24 7 -38 30.5t-13 54.5l1 13l43 263l12 101l25 4l-59 -365l-1 -15q-1 -25 10 -42.5t24 -17.5q26 0 90.5 85t142.5 230l4 32l7 90zM382 646q-42 -41 -115 -126h-18q-49 78 -87 126l11 12
h5q39 -50 81 -117q59 68 110 117h5z" />
    <glyph glyph-name="ucircumflex" unicode="&#xfb;" horiz-adv-x="454" 
d="M392 456l-46 -350l-9 -106l-25 -4l36 271h-5q-65 -112 -114.5 -179t-98.5 -99h-11q-24 7 -38 30.5t-13 54.5l1 13l43 263l12 101l25 4l-59 -365l-1 -15q-1 -25 10 -42.5t24 -17.5q26 0 90.5 85t142.5 230l4 32l7 90zM154 532q42 41 115 126h18q49 -78 87 -126l-11 -12h-5
q-39 50 -81 117q-59 -68 -110 -117h-5z" />
    <glyph glyph-name="uni0215" unicode="&#x215;" horiz-adv-x="454" 
d="M392 456l-46 -350l-9 -106l-25 -4l36 271h-5q-65 -112 -114.5 -179t-98.5 -99h-11q-24 7 -38 30.5t-13 54.5l1 13l43 263l12 101l25 4l-59 -365l-1 -15q-1 -25 10 -42.5t24 -17.5q26 0 90.5 85t142.5 230l4 32l7 90zM238 516q-73 66 -144 135l-1 5l10 10l5 1
q70 -69 146 -137l-11 -13zM368 516q-74 66 -144 135l-1 5l10 10l5 1q69 -69 146 -137l-11 -13z" />
    <glyph glyph-name="udieresis" unicode="&#xfc;" horiz-adv-x="454" 
d="M392 456l-46 -350l-9 -106l-25 -4l36 271h-5q-65 -112 -114.5 -179t-98.5 -99h-11q-24 7 -38 30.5t-13 54.5l1 13l43 263l12 101l25 4l-59 -365l-1 -15q-1 -25 10 -42.5t24 -17.5q26 0 90.5 85t142.5 230l4 32l7 90zM212.5 610.5q5.5 -5.5 5.5 -14.5t-5.5 -14.5
t-14.5 -5.5t-14.5 5.5t-5.5 14.5t5.5 14.5t14.5 5.5t14.5 -5.5zM362.5 610.5q5.5 -5.5 5.5 -14.5t-5.5 -14.5t-14.5 -5.5t-14.5 5.5t-5.5 14.5t5.5 14.5t14.5 5.5t14.5 -5.5z" />
    <glyph glyph-name="uni01D8" unicode="&#x1d8;" horiz-adv-x="454" 
d="M392 456l-46 -350l-9 -106l-25 -4l36 271h-5q-65 -112 -114.5 -179t-98.5 -99h-11q-24 7 -38 30.5t-13 54.5l1 13l43 263l12 101l25 4l-59 -365l-1 -15q-1 -25 10 -42.5t24 -17.5q26 0 90.5 85t142.5 230l4 32l7 90zM373 723l5 -13l-3 -5q-80 -29 -187 -61l-5 4l-4 16
q93 26 190 62zM220.5 589.5q5.5 -5.5 5.5 -14.5t-5.5 -14.5t-14.5 -5.5t-14.5 5.5t-5.5 14.5t5.5 14.5t14.5 5.5t14.5 -5.5zM360.5 589.5q5.5 -5.5 5.5 -14.5t-5.5 -14.5t-14.5 -5.5t-14.5 5.5t-5.5 14.5t5.5 14.5t14.5 5.5t14.5 -5.5z" />
    <glyph glyph-name="uni01DA" unicode="&#x1da;" horiz-adv-x="454" 
d="M392 456l-46 -350l-9 -106l-25 -4l36 271h-5q-65 -112 -114.5 -179t-98.5 -99h-11q-24 7 -38 30.5t-13 54.5l1 13l43 263l12 101l25 4l-59 -365l-1 -15q-1 -25 10 -42.5t24 -17.5q26 0 90.5 85t142.5 230l4 32l7 90zM384 704q-37 -24 -105 -76h-16q-52 45 -92 76l8 14h5
q40 -29 87 -70q47 35 103 70h5zM212.5 589.5q5.5 -5.5 5.5 -14.5t-5.5 -14.5t-14.5 -5.5t-14.5 5.5t-5.5 14.5t5.5 14.5t14.5 5.5t14.5 -5.5zM352.5 589.5q5.5 -5.5 5.5 -14.5t-5.5 -14.5t-14.5 -5.5t-14.5 5.5t-5.5 14.5t5.5 14.5t14.5 5.5t14.5 -5.5z" />
    <glyph glyph-name="uni01DC" unicode="&#x1dc;" horiz-adv-x="454" 
d="M392 456l-46 -350l-9 -106l-25 -4l36 271h-5q-65 -112 -114.5 -179t-98.5 -99h-11q-24 7 -38 30.5t-13 54.5l1 13l43 263l12 101l25 4l-59 -365l-1 -15q-1 -25 10 -42.5t24 -17.5q26 0 90.5 85t142.5 230l4 32l7 90zM182 705l-3 5l5 13l4 3q97 -36 190 -62l-4 -16l-5 -4
q-107 32 -187 61zM191.5 560.5q-5.5 5.5 -5.5 14.5t5.5 14.5t14.5 5.5t14.5 -5.5t5.5 -14.5t-5.5 -14.5t-14.5 -5.5t-14.5 5.5zM331.5 560.5q-5.5 5.5 -5.5 14.5t5.5 14.5t14.5 5.5t14.5 -5.5t5.5 -14.5t-5.5 -14.5t-14.5 -5.5t-14.5 5.5z" />
    <glyph glyph-name="uni01D6" unicode="&#x1d6;" horiz-adv-x="454" 
d="M392 456l-46 -350l-9 -106l-25 -4l36 271h-5q-65 -112 -114.5 -179t-98.5 -99h-11q-24 7 -38 30.5t-13 54.5l1 13l43 263l12 101l25 4l-59 -365l-1 -15q-1 -25 10 -42.5t24 -17.5q26 0 90.5 85t142.5 230l4 32l7 90zM411 688l-2 -17h-237l-3 3l2 17h237zM225.5 589.5
q5.5 -5.5 5.5 -14.5t-5.5 -14.5t-14.5 -5.5t-14.5 5.5t-5.5 14.5t5.5 14.5t14.5 5.5t14.5 -5.5zM365.5 589.5q5.5 -5.5 5.5 -14.5t-5.5 -14.5t-14.5 -5.5t-14.5 5.5t-5.5 14.5t5.5 14.5t14.5 5.5t14.5 -5.5z" />
    <glyph glyph-name="uni1EE5" unicode="&#x1ee5;" horiz-adv-x="454" 
d="M392 456l-46 -350l-9 -106l-25 -4l36 271h-5q-65 -112 -114.5 -179t-98.5 -99h-11q-24 7 -38 30.5t-13 54.5l1 13l43 263l12 101l25 4l-59 -365l-1 -15q-1 -25 10 -42.5t24 -17.5q26 0 90.5 85t142.5 230l4 32l7 90zM205.5 -97.5q5.5 -5.5 5.5 -14.5t-5.5 -14.5
t-14.5 -5.5t-14.5 5.5t-5.5 14.5t5.5 14.5t14.5 5.5t14.5 -5.5z" />
    <glyph glyph-name="ugrave" unicode="&#xf9;" horiz-adv-x="454" 
d="M392 456l-46 -350l-9 -106l-25 -4l36 271h-5q-65 -112 -114.5 -179t-98.5 -99h-11q-24 7 -38 30.5t-13 54.5l1 13l43 263l12 101l25 4l-59 -365l-1 -15q-1 -25 10 -42.5t24 -17.5q26 0 90.5 85t142.5 230l4 32l7 90zM315 532l-11 -13l-5 -1q-75 66 -144 135l-1 5l10 10
l5 1q77 -79 146 -137z" />
    <glyph glyph-name="uni1EE7" unicode="&#x1ee7;" horiz-adv-x="454" 
d="M392 456l-46 -350l-9 -106l-25 -4l36 271h-5q-65 -112 -114.5 -179t-98.5 -99h-11q-24 7 -38 30.5t-13 54.5l1 13l43 263l12 101l25 4l-59 -365l-1 -15q-1 -25 10 -42.5t24 -17.5q26 0 90.5 85t142.5 230l4 32l7 90zM235 552q25 16 38 31.5t13 26.5q0 9 -7 14.5t-19 5.5
q-26 0 -54 -23l-8 14q34 29 64 29q19 0 31.5 -11t12.5 -27q0 -29 -48 -65l16 -29l-17 -7z" />
    <glyph glyph-name="uhorn" unicode="&#x1b0;" horiz-adv-x="466" 
d="M460.5 470.5q-22.5 -21.5 -70.5 -31.5l-44 -333l-9 -106l-25 -4l36 271h-5q-65 -112 -114.5 -179t-98.5 -99h-11q-24 7 -38 30.5t-13 54.5l1 13l43 263l12 101l25 4l-59 -365l-1 -15q-1 -25 10 -42.5t24 -17.5q26 0 90.5 85t142.5 230l4 32l7 90l16 3q41 8 60.5 24
t19.5 42q0 16 -8 34t-25 36l2 5q8 5 13 5q6 0 15.5 -10.5t16 -27.5t6.5 -37q0 -34 -22.5 -55.5z" />
    <glyph glyph-name="uni1EE9" unicode="&#x1ee9;" horiz-adv-x="466" 
d="M460.5 470.5q-22.5 -21.5 -70.5 -31.5l-44 -333l-9 -106l-25 -4l36 271h-5q-65 -112 -114.5 -179t-98.5 -99h-11q-24 7 -38 30.5t-13 54.5l1 13l43 263l12 101l25 4l-59 -365l-1 -15q-1 -25 10 -42.5t24 -17.5q26 0 90.5 85t142.5 230l4 32l7 90l16 3q41 8 60.5 24
t19.5 42q0 16 -8 34t-25 36l2 5q8 5 13 5q6 0 15.5 -10.5t16 -27.5t6.5 -37q0 -34 -22.5 -55.5zM360 668l10 -10l-1 -5q-69 -69 -144 -135l-5 1l-11 13q69 58 146 137z" />
    <glyph glyph-name="uni1EF1" unicode="&#x1ef1;" horiz-adv-x="456" 
d="M460.5 470.5q-22.5 -21.5 -70.5 -31.5l-44 -333l-9 -106l-25 -4l36 271h-5q-65 -112 -114.5 -179t-98.5 -99h-11q-24 7 -38 30.5t-13 54.5l1 13l43 263l12 101l25 4l-59 -365l-1 -15q-1 -25 10 -42.5t24 -17.5q26 0 90.5 85t142.5 230l4 32l7 90l16 3q41 8 60.5 24
t19.5 42q0 16 -8 34t-25 36l2 5q8 5 13 5q6 0 15.5 -10.5t16 -27.5t6.5 -37q0 -34 -22.5 -55.5zM136.5 -97.5q5.5 -5.5 5.5 -14.5t-5.5 -14.5t-14.5 -5.5t-14.5 5.5t-5.5 14.5t5.5 14.5t14.5 5.5t14.5 -5.5z" />
    <glyph glyph-name="uni1EEB" unicode="&#x1eeb;" horiz-adv-x="466" 
d="M460.5 470.5q-22.5 -21.5 -70.5 -31.5l-44 -333l-9 -106l-25 -4l36 271h-5q-65 -112 -114.5 -179t-98.5 -99h-11q-24 7 -38 30.5t-13 54.5l1 13l43 263l12 101l25 4l-59 -365l-1 -15q-1 -25 10 -42.5t24 -17.5q26 0 90.5 85t142.5 230l4 32l7 90l16 3q41 8 60.5 24
t19.5 42q0 16 -8 34t-25 36l2 5q8 5 13 5q6 0 15.5 -10.5t16 -27.5t6.5 -37q0 -34 -22.5 -55.5zM329 532l-11 -13l-5 -1q-75 66 -144 135l-1 5l10 10l5 1q77 -79 146 -137z" />
    <glyph glyph-name="uni1EED" unicode="&#x1eed;" horiz-adv-x="466" 
d="M460.5 470.5q-22.5 -21.5 -70.5 -31.5l-44 -333l-9 -106l-25 -4l36 271h-5q-65 -112 -114.5 -179t-98.5 -99h-11q-24 7 -38 30.5t-13 54.5l1 13l43 263l12 101l25 4l-59 -365l-1 -15q-1 -25 10 -42.5t24 -17.5q26 0 90.5 85t142.5 230l4 32l7 90l16 3q41 8 60.5 24
t19.5 42q0 16 -8 34t-25 36l2 5q8 5 13 5q6 0 15.5 -10.5t16 -27.5t6.5 -37q0 -34 -22.5 -55.5zM249 552q25 16 38 31.5t13 26.5q0 9 -7 14.5t-19 5.5q-26 0 -54 -23l-8 14q34 29 64 29q19 0 31.5 -11t12.5 -27q0 -29 -48 -65l16 -29l-17 -7z" />
    <glyph glyph-name="uni1EEF" unicode="&#x1eef;" horiz-adv-x="466" 
d="M460.5 470.5q-22.5 -21.5 -70.5 -31.5l-44 -333l-9 -106l-25 -4l36 271h-5q-65 -112 -114.5 -179t-98.5 -99h-11q-24 7 -38 30.5t-13 54.5l1 13l43 263l12 101l25 4l-59 -365l-1 -15q-1 -25 10 -42.5t24 -17.5q26 0 90.5 85t142.5 230l4 32l7 90l16 3q41 8 60.5 24
t19.5 42q0 16 -8 34t-25 36l2 5q8 5 13 5q6 0 15.5 -10.5t16 -27.5t6.5 -37q0 -34 -22.5 -55.5zM410 607v-4l-47 -47l-6 -2q-16 2 -72 20q-54 18 -65 18q-5 0 -13 -7t-17 -17l-16 -16h-3l-9 11v4l47 47l6 2q16 -2 72 -20q54 -18 65 -18q5 0 12 6t15 15l19 19h3z" />
    <glyph glyph-name="uhungarumlaut" unicode="&#x171;" horiz-adv-x="454" 
d="M392 456l-46 -350l-9 -106l-25 -4l36 271h-5q-65 -112 -114.5 -179t-98.5 -99h-11q-24 7 -38 30.5t-13 54.5l1 13l43 263l12 101l25 4l-59 -365l-1 -15q-1 -25 10 -42.5t24 -17.5q26 0 90.5 85t142.5 230l4 32l7 90zM312 667l5 -1l10 -10l-1 -5q-70 -69 -144 -135l-5 1
l-11 13q76 67 146 137zM442 667l5 -1l10 -10l-1 -5q-71 -69 -144 -135l-5 1l-11 13q77 68 146 137z" />
    <glyph glyph-name="uni0217" unicode="&#x217;" horiz-adv-x="454" 
d="M392 456l-46 -350l-9 -106l-25 -4l36 271h-5q-65 -112 -114.5 -179t-98.5 -99h-11q-24 7 -38 30.5t-13 54.5l1 13l43 263l12 101l25 4l-59 -365l-1 -15q-1 -25 10 -42.5t24 -17.5q26 0 90.5 85t142.5 230l4 32l7 90zM171 535q16 54 44 79.5t70 25.5t63 -25.5t25 -79.5
l-15 -13h-5q-1 50 -18 74t-53 24q-35 0 -58 -24t-36 -74h-5z" />
    <glyph glyph-name="umacron" unicode="&#x16b;" horiz-adv-x="454" 
d="M392 456l-46 -350l-9 -106l-25 -4l36 271h-5q-65 -112 -114.5 -179t-98.5 -99h-11q-24 7 -38 30.5t-13 54.5l1 13l43 263l12 101l25 4l-59 -365l-1 -15q-1 -25 10 -42.5t24 -17.5q26 0 90.5 85t142.5 230l4 32l7 90zM420 604l-2 -17h-287l-3 3l2 17h287z" />
    <glyph glyph-name="uni1E7B" unicode="&#x1e7b;" horiz-adv-x="454" 
d="M392 456l-46 -350l-9 -106l-25 -4l36 271h-5q-65 -112 -114.5 -179t-98.5 -99h-11q-24 7 -38 30.5t-13 54.5l1 13l43 263l12 101l25 4l-59 -365l-1 -15q-1 -25 10 -42.5t24 -17.5q26 0 90.5 85t142.5 230l4 32l7 90zM420 604l-2 -17h-287l-3 3l2 17h287zM232.5 765.5
q5.5 -5.5 5.5 -14.5t-5.5 -14.5t-14.5 -5.5t-14.5 5.5t-5.5 14.5t5.5 14.5t14.5 5.5t14.5 -5.5zM382.5 765.5q5.5 -5.5 5.5 -14.5t-5.5 -14.5t-14.5 -5.5t-14.5 5.5t-5.5 14.5t5.5 14.5t14.5 5.5t14.5 -5.5z" />
    <glyph glyph-name="uogonek" unicode="&#x173;" horiz-adv-x="454" 
d="M392 456l-46 -350l-9 -106l-25 -4l36 271h-5q-65 -112 -114.5 -179t-98.5 -99h-11q-24 7 -38 30.5t-13 54.5l1 13l43 263l12 101l25 4l-59 -365l-1 -15q-1 -25 10 -42.5t24 -17.5q26 0 90.5 85t142.5 230l4 32l7 90zM274.5 -85.5q-23.5 -33.5 -29 -45.5t-5.5 -23t6.5 -17
t17.5 -6q14 0 25 9.5t24 31.5h2l13 -13q-17 -26 -31.5 -37t-33.5 -11q-20 0 -32 10.5t-12 29.5q0 14 7 29t26.5 43t64.5 85h20q-39 -52 -62.5 -85.5z" />
    <glyph glyph-name="uring" unicode="&#x16f;" horiz-adv-x="454" 
d="M392 456l-46 -350l-9 -106l-25 -4l36 271h-5q-65 -112 -114.5 -179t-98.5 -99h-11q-24 7 -38 30.5t-13 54.5l1 13l43 263l12 101l25 4l-59 -365l-1 -15q-1 -25 10 -42.5t24 -17.5q26 0 90.5 85t142.5 230l4 32l7 90zM324 647q19 -21 19 -49q0 -31 -21.5 -50t-49.5 -19
t-49 19.5t-21 50.5q0 30 19.5 49.5t50.5 19.5q33 0 52 -21zM235.5 634.5q-13.5 -13.5 -13.5 -35.5q0 -23 14.5 -36.5t35.5 -13.5t36 13t15 36q0 21 -13.5 35.5t-37.5 14.5q-23 0 -36.5 -13.5z" />
    <glyph glyph-name="uni1E79" unicode="&#x1e79;" horiz-adv-x="454" 
d="M392 456l-46 -350l-9 -106l-25 -4l36 271h-5q-65 -112 -114.5 -179t-98.5 -99h-11q-24 7 -38 30.5t-13 54.5l1 13l43 263l12 101l25 4l-59 -365l-1 -15q-1 -25 10 -42.5t24 -17.5q26 0 90.5 85t142.5 230l4 32l7 90zM384 724l5 -13l-3 -5q-80 -29 -187 -61l-5 4l-4 16
q93 26 190 62zM401 597v-4l-47 -47l-6 -2q-16 2 -72 20q-54 18 -65 18q-5 0 -13 -7t-17 -17l-16 -16h-3l-9 11v4l47 47l6 2q16 -2 72 -20q54 -18 65 -18q5 0 12 6t15 15l19 19h3z" />
    <glyph glyph-name="v" unicode="v" horiz-adv-x="382" 
d="M365 373q0 -50 -41 -115l-164 -258h-21l-49 450l23 6l6 -74l36 -352h3l149 238q38 62 38 106q0 32 -28 70l1 5l18 6q29 -41 29 -82z" />
    <glyph glyph-name="w" unicode="w" horiz-adv-x="659" 
d="M448 0h-20l-50 418h-4l-203 -418h-26l-55 450l22 5l4 -46l46 -379h4l182 379l21 43h24l4 -43l46 -379h4l137 238q38 66 38 106q0 32 -28 70l1 5l18 6q29 -41 29 -82q0 -46 -41 -115z" />
    <glyph glyph-name="wacute" unicode="&#x1e83;" horiz-adv-x="659" 
d="M448 0h-20l-50 418h-4l-203 -418h-26l-55 450l22 5l4 -46l46 -379h4l182 379l21 43h24l4 -43l46 -379h4l137 238q38 66 38 106q0 32 -28 70l1 5l18 6q29 -41 29 -82q0 -46 -41 -115zM448 668l10 -10l-1 -5q-69 -69 -144 -135l-5 1l-11 13q69 58 146 137z" />
    <glyph glyph-name="wcircumflex" unicode="&#x175;" horiz-adv-x="659" 
d="M448 0h-20l-50 418h-4l-203 -418h-26l-55 450l22 5l4 -46l46 -379h4l182 379l21 43h24l4 -43l46 -379h4l137 238q38 66 38 106q0 32 -28 70l1 5l18 6q29 -41 29 -82q0 -46 -41 -115zM256 532q42 41 115 126h18q49 -78 87 -126l-11 -12h-5q-39 50 -81 117
q-59 -68 -110 -117h-5z" />
    <glyph glyph-name="wdieresis" unicode="&#x1e85;" horiz-adv-x="659" 
d="M448 0h-20l-50 418h-4l-203 -418h-26l-55 450l22 5l4 -46l46 -379h4l182 379l21 43h24l4 -43l46 -379h4l137 238q38 66 38 106q0 32 -28 70l1 5l18 6q29 -41 29 -82q0 -46 -41 -115zM314.5 610.5q5.5 -5.5 5.5 -14.5t-5.5 -14.5t-14.5 -5.5t-14.5 5.5t-5.5 14.5t5.5 14.5
t14.5 5.5t14.5 -5.5zM464.5 610.5q5.5 -5.5 5.5 -14.5t-5.5 -14.5t-14.5 -5.5t-14.5 5.5t-5.5 14.5t5.5 14.5t14.5 5.5t14.5 -5.5z" />
    <glyph glyph-name="wgrave" unicode="&#x1e81;" horiz-adv-x="659" 
d="M448 0h-20l-50 418h-4l-203 -418h-26l-55 450l22 5l4 -46l46 -379h4l182 379l21 43h24l4 -43l46 -379h4l137 238q38 66 38 106q0 32 -28 70l1 5l18 6q29 -41 29 -82q0 -46 -41 -115zM417 532l-11 -13l-5 -1q-75 66 -144 135l-1 5l10 10l5 1q77 -79 146 -137z" />
    <glyph glyph-name="x" unicode="x" horiz-adv-x="414" 
d="M347 4l-21 -8l-19 40l-97 177l-147 -181l-23 -32h-28l187 233l-114 215l21 8l15 -33l91 -174l138 169l24 34h28l-178 -223z" />
    <glyph glyph-name="y" unicode="y" horiz-adv-x="379" 
d="M362 373q0 -49 -39 -115l-164 -277q-56 -95 -99 -135.5t-91 -40.5q-27 0 -60 12l2 19l5 2q30 -12 55 -12q41 0 79 37.5t91 126.5l13 22l-80 438l23 6l12 -74l59 -340h4l134 226q36 60 36 106q0 32 -28 70l1 5l18 6q29 -41 29 -82z" />
    <glyph glyph-name="ycircumflex" unicode="&#x177;" horiz-adv-x="379" 
d="M362 373q0 -49 -39 -115l-164 -277q-56 -95 -99 -135.5t-91 -40.5q-27 0 -60 12l2 19l5 2q30 -12 55 -12q41 0 79 37.5t91 126.5l13 22l-80 438l23 6l12 -74l59 -340h4l134 226q36 60 36 106q0 32 -28 70l1 5l18 6q29 -41 29 -82zM116 532q42 41 115 126h18
q49 -78 87 -126l-11 -12h-5q-39 50 -81 117q-59 -68 -110 -117h-5z" />
    <glyph glyph-name="ydieresis" unicode="&#xff;" horiz-adv-x="379" 
d="M362 373q0 -49 -39 -115l-164 -277q-56 -95 -99 -135.5t-91 -40.5q-27 0 -60 12l2 19l5 2q30 -12 55 -12q41 0 79 37.5t91 126.5l13 22l-80 438l23 6l12 -74l59 -340h4l134 226q36 60 36 106q0 32 -28 70l1 5l18 6q29 -41 29 -82zM174.5 610.5q5.5 -5.5 5.5 -14.5
t-5.5 -14.5t-14.5 -5.5t-14.5 5.5t-5.5 14.5t5.5 14.5t14.5 5.5t14.5 -5.5zM324.5 610.5q5.5 -5.5 5.5 -14.5t-5.5 -14.5t-14.5 -5.5t-14.5 5.5t-5.5 14.5t5.5 14.5t14.5 5.5t14.5 -5.5z" />
    <glyph glyph-name="uni1E8F" unicode="&#x1e8f;" horiz-adv-x="379" 
d="M362 373q0 -49 -39 -115l-164 -277q-56 -95 -99 -135.5t-91 -40.5q-27 0 -60 12l2 19l5 2q30 -12 55 -12q41 0 79 37.5t91 126.5l13 22l-80 438l23 6l12 -74l59 -340h4l134 226q36 60 36 106q0 32 -28 70l1 5l18 6q29 -41 29 -82zM251.5 625.5q5.5 -5.5 5.5 -14.5
t-5.5 -14.5t-14.5 -5.5t-14.5 5.5t-5.5 14.5t5.5 14.5t14.5 5.5t14.5 -5.5z" />
    <glyph glyph-name="uni1EF5" unicode="&#x1ef5;" horiz-adv-x="379" 
d="M362 373q0 -49 -39 -115l-164 -277q-56 -95 -99 -135.5t-91 -40.5q-27 0 -60 12l2 19l5 2q30 -12 55 -12q41 0 79 37.5t91 126.5l13 22l-80 438l23 6l12 -74l59 -340h4l134 226q36 60 36 106q0 32 -28 70l1 5l18 6q29 -41 29 -82zM246.5 -94.5q5.5 -5.5 5.5 -14.5
t-5.5 -14.5t-14.5 -5.5t-14.5 5.5t-5.5 14.5t5.5 14.5t14.5 5.5t14.5 -5.5z" />
    <glyph glyph-name="ygrave" unicode="&#x1ef3;" horiz-adv-x="379" 
d="M362 373q0 -49 -39 -115l-164 -277q-56 -95 -99 -135.5t-91 -40.5q-27 0 -60 12l2 19l5 2q30 -12 55 -12q41 0 79 37.5t91 126.5l13 22l-80 438l23 6l12 -74l59 -340h4l134 226q36 60 36 106q0 32 -28 70l1 5l18 6q29 -41 29 -82zM277 532l-11 -13l-5 -1q-75 66 -144 135
l-1 5l10 10l5 1q77 -79 146 -137z" />
    <glyph glyph-name="uni1EF7" unicode="&#x1ef7;" horiz-adv-x="379" 
d="M362 373q0 -49 -39 -115l-164 -277q-56 -95 -99 -135.5t-91 -40.5q-27 0 -60 12l2 19l5 2q30 -12 55 -12q41 0 79 37.5t91 126.5l13 22l-80 438l23 6l12 -74l59 -340h4l134 226q36 60 36 106q0 32 -28 70l1 5l18 6q29 -41 29 -82zM197 552q25 16 38 31.5t13 26.5
q0 9 -7 14.5t-19 5.5q-26 0 -54 -23l-8 14q34 29 64 29q19 0 31.5 -11t12.5 -27q0 -29 -48 -65l16 -29l-17 -7z" />
    <glyph glyph-name="uni0233" unicode="&#x233;" horiz-adv-x="379" 
d="M362 373q0 -49 -39 -115l-164 -277q-56 -95 -99 -135.5t-91 -40.5q-27 0 -60 12l2 19l5 2q30 -12 55 -12q41 0 79 37.5t91 126.5l13 22l-80 438l23 6l12 -74l59 -340h4l134 226q36 60 36 106q0 32 -28 70l1 5l18 6q29 -41 29 -82zM382 604l-2 -17h-287l-3 3l2 17h287z
" />
    <glyph glyph-name="z" unicode="z" horiz-adv-x="393" 
d="M358 455l-313 -416l27 5q21 0 44 -8t27 -9q43 -17 69 -17q52 0 79.5 39.5t32.5 119.5l9 1l10 -11q-9 -169 -133 -169q-26 0 -71 17q-18 6 -37.5 11t-34.5 5q-36 0 -61 -28h-3l-9 8l323 429h-200l-42 -1l-2 4l4 17l2 2l46 -2h205l17 12z" />
    <glyph glyph-name="zacute" unicode="&#x17a;" horiz-adv-x="393" 
d="M358 455l-313 -416l27 5q21 0 44 -8t27 -9q43 -17 69 -17q52 0 79.5 39.5t32.5 119.5l9 1l10 -11q-9 -169 -133 -169q-26 0 -71 17q-18 6 -37.5 11t-34.5 5q-36 0 -61 -28h-3l-9 8l323 429h-200l-42 -1l-2 4l4 17l2 2l46 -2h205l17 12zM316 668l10 -10l-1 -5
q-69 -69 -144 -135l-5 1l-11 13q69 58 146 137z" />
    <glyph glyph-name="zcaron" unicode="&#x17e;" horiz-adv-x="393" 
d="M358 455l-313 -416l27 5q21 0 44 -8t27 -9q43 -17 69 -17q52 0 79.5 39.5t32.5 119.5l9 1l10 -11q-9 -169 -133 -169q-26 0 -71 17q-18 6 -37.5 11t-34.5 5q-36 0 -61 -28h-3l-9 8l323 429h-200l-42 -1l-2 4l4 17l2 2l46 -2h205l17 12zM352 646q-42 -41 -115 -126h-18
q-49 78 -87 126l11 12h5q39 -50 81 -117q59 68 110 117h5z" />
    <glyph glyph-name="zdotaccent" unicode="&#x17c;" horiz-adv-x="393" 
d="M358 455l-313 -416l27 5q21 0 44 -8t27 -9q43 -17 69 -17q52 0 79.5 39.5t32.5 119.5l9 1l10 -11q-9 -169 -133 -169q-26 0 -71 17q-18 6 -37.5 11t-34.5 5q-36 0 -61 -28h-3l-9 8l323 429h-200l-42 -1l-2 4l4 17l2 2l46 -2h205l17 12zM259.5 625.5q5.5 -5.5 5.5 -14.5
t-5.5 -14.5t-14.5 -5.5t-14.5 5.5t-5.5 14.5t5.5 14.5t14.5 5.5t14.5 -5.5z" />
    <glyph glyph-name="uni1E93" unicode="&#x1e93;" horiz-adv-x="393" 
d="M358 455l-313 -416l27 5q21 0 44 -8t27 -9q43 -17 69 -17q52 0 79.5 39.5t32.5 119.5l9 1l10 -11q-9 -169 -133 -169q-26 0 -71 17q-18 6 -37.5 11t-34.5 5q-36 0 -61 -28h-3l-9 8l323 429h-200l-42 -1l-2 4l4 17l2 2l46 -2h205l17 12zM175.5 -97.5q5.5 -5.5 5.5 -14.5
t-5.5 -14.5t-14.5 -5.5t-14.5 5.5t-5.5 14.5t5.5 14.5t14.5 5.5t14.5 -5.5z" />
    <glyph glyph-name="f.f" horiz-adv-x="249" 
d="M402 429h-238l-30 -237l-27 -216l-9 -106l-25 -4l41 324l30 239h-69l-4 4l4 16h72l10 79q10 76 47.5 115t100.5 39l74 -12l2 -3l-7 -20h-6q-39 15 -69 15q-52 0 -83 -34t-39 -100l-10 -79h236l3 -4z" />
    <glyph glyph-name="iacute_j.loclNLD" horiz-adv-x="415" 
d="M95 106l-7 -106l-27 -4l49 366l6 90l25 4zM220 668l10 -10l-1 -5q-69 -69 -144 -135l-5 1l-11 13q69 58 146 137zM353 451l-45 -358l-11 -75q-10 -80 -36.5 -124.5t-86.5 -85.5l-11 11l1 6q55 37 78 76t32 107l49 358l5 63h-83l-4 4l4 16h87l19 3zM415 668l10 -10l-1 -5
q-69 -69 -144 -135l-5 1l-11 13q69 58 146 137z" />
    <glyph glyph-name="f.l" horiz-adv-x="257" 
d="M420 695l-6 -20l-4 -2q-48 12 -92 12q-59 0 -94.5 -34t-43.5 -100l-13 -102h116l3 -4l-4 -16h-118l-30 -237l-27 -216l-9 -106l-25 -4l41 324l30 239h-69l-4 4l4 16h72l13 102q10 76 52 115t112 39l94 -7z" />
    <glyph glyph-name="c.ss01" horiz-adv-x="467" 
d="M538 471h-139q26 -11 45 -25l-8 -18h-5q-25 20 -57 31.5t-67 11.5q-95 0 -152 -58.5t-71 -169.5q-3 -27 -3 -50q0 -84 40.5 -128.5t118.5 -44.5q39 0 78.5 13t74.5 37l6 -2l-4 -18q-28 -18 -60 -30h147l-2 -20h-547l2 20h212q-86 42 -86 172q0 25 3 53q11 86 47.5 143.5
t97.5 82.5h-218l2 20h547z" />
    <glyph glyph-name="d.ss01" horiz-adv-x="561" 
d="M632 471h-223q48 -20 73 -62.5t25 -105.5q0 -21 -3 -44q-11 -90 -51 -151t-104 -88h227l-2 -20h-641l2 20h152l16 131l39 320h-151l2 20h641zM486 300q0 83 -46 126.5t-134 43.5l-145 -4l-39 -314l-16 -129l78 -3h83q92 8 148 69.5t69 170.5q2 14 2 40z" />
    <glyph glyph-name="i.ss01" horiz-adv-x="237" 
d="M119 151l-16 -131h149l-2 -20h-317l2 20h148l16 131l40 320h-148l2 20h317l-2 -20h-149z" />
    <glyph glyph-name="l.ss01" horiz-adv-x="365" 
d="M120 166l-18 -146h195l11 90h20l-11 -90h63l-2 -20h-445l2 20h147l18 146l38 305h-147l2 20h445l-2 -20h-278z" />
    <glyph glyph-name="m.ss01" horiz-adv-x="678" 
d="M569 471l-6 -451h130l-2 -20h-758l2 20h128l108 451h-180l2 20h758l-2 -20h-180zM537 471h-334l16 -56l102 -308h3l184 316zM544 20l2 137l2 289h-4l-213 -367h-23l-120 367h-3l-70 -288l-32 -138h461z" />
    <glyph glyph-name="v.ss01" horiz-adv-x="481" 
d="M474 471l-245 -451h267l-2 -20h-561l2 20h258l-119 451h-83l2 20h561l-2 -20h-78zM453 471h-358l3 -18l114 -421h3l229 421z" />
    <glyph glyph-name="x.ss01" horiz-adv-x="504" 
d="M262 253l146 -233h111l-2 -20h-584l2 20h101l201 233l-135 218h-111l2 20h584l-2 -20h-126zM251 269l162 187l11 15h-296l5 -11zM248 238l-180 -207l-8 -11h322l-6 12z" />
    <glyph glyph-name="f.t" horiz-adv-x="257" 
d="M412 429h-248l-30 -237l-27 -216l-9 -106l-25 -4l41 324l30 239h-69l-4 4l4 16h72l13 102q10 76 47.5 115t100.5 39l74 -12l2 -3l-7 -20h-6q-39 15 -69 15q-104 0 -122 -134l-13 -102h246l3 -4z" />
    <glyph glyph-name="uni01C5.sc" horiz-adv-x="1045" 
d="M520 577.5q59 -64.5 59 -184.5q0 -121 -37.5 -210.5t-109.5 -138.5t-172 -49q-32 0 -85 1.5t-95 3.5l25 195l55 442l190 5q111 0 170 -64.5zM421.5 61q66.5 46 101.5 130.5t35 198.5q0 112 -54 172t-156 60q-30 0 -80.5 -1.5t-89.5 -3.5l-53 -422l-23 -176l56 -2l105 -2
q92 0 158.5 46zM1021 474l-366 -455h252l56 1l3 -4l-5 -16h-305l-30 -1l2 17l367 456h-245l-47 -1l-3 4l5 17l53 -1h236l30 1zM985 685q-42 -41 -115 -126h-18q-49 78 -87 126l11 12h5q39 -50 81 -117q59 68 110 117h5z" />
    <glyph glyph-name="uni01C8.sc" horiz-adv-x="643" 
d="M351 16l-6 -16h-264l25 195l55 442h20l-55 -442l-22 -175h244zM519 163l-9 -74q-7 -55 -32.5 -92.5t-80.5 -72.5l-9 13v5q48 32 72 66.5t30 81.5l8 70l39 312h-102l-3 3l5 16h122z" />
    <glyph glyph-name="uni01CB.sc" horiz-adv-x="901" 
d="M526 176l-23 -176h-19l-304 595h-4l-51 -396l-25 -199h-20l24 190l57 447h19l304 -595h4l77 594l20 2zM777 163l-9 -74q-7 -55 -32.5 -92.5t-80.5 -72.5l-9 13v5q48 32 72 66.5t30 81.5l8 70l39 312h-102l-3 3l5 16h122z" />
    </font>
</defs>
</svg>
