<svg xmlns="http://www.w3.org/2000/svg" width="64" height="64" viewBox="0 0 64 64">
  <title>BBG_blog</title>
  <path d="M29.955,48.364A6.139,6.139,0,0,1,23.818,54.5H11.545a6.139,6.139,0,0,1-6.136-6.136v-22.5A16.394,16.394,0,0,1,21.773,9.5h2.045a2.06,2.06,0,0,1,2.045,2.045v4.091a2.06,2.06,0,0,1-2.045,2.045H21.773a8.2,8.2,0,0,0-8.182,8.182v1.023a3.069,3.069,0,0,0,3.068,3.068h7.159a6.139,6.139,0,0,1,6.136,6.136Zm28.636,0A6.139,6.139,0,0,1,52.455,54.5H40.182a6.139,6.139,0,0,1-6.136-6.136v-22.5A16.394,16.394,0,0,1,50.409,9.5h2.045A2.06,2.06,0,0,1,54.5,11.545v4.091a2.06,2.06,0,0,1-2.045,2.045H50.409a8.2,8.2,0,0,0-8.182,8.182v1.023A3.069,3.069,0,0,0,45.3,29.955h7.159a6.139,6.139,0,0,1,6.136,6.136Z"/>
</svg>
