<svg id="a18cce79-9367-4245-9148-a7fee133e7af" data-name="Layer 1" xmlns="http://www.w3.org/2000/svg" viewBox="0 0 64 64">
  <defs>
    <style>
      .dd87964a-2c72-457c-a65f-dc0e3a69493f {
        fill: #9e0621;
      }
    </style>
  </defs>
  <title>BBG_speech-statement_red</title>
  <path class="dd87964a-2c72-457c-a65f-dc0e3a69493f" d="M25.864,42.223a31.85,31.85,0,0,1-5.625-.512,26.757,26.757,0,0,1-8.882,4.09,23.022,23.022,0,0,1-2.749.512h-.1a1.084,1.084,0,0,1-1.023-.927c-.128-.606.287-.99.638-1.4a16.513,16.513,0,0,0,3.739-5.306c-5.176-3-8.5-7.638-8.5-12.814,0-9.043,10.065-16.361,22.5-16.361s22.5,7.319,22.5,16.361S38.3,42.223,25.864,42.223Zm26.268,4.633a16.513,16.513,0,0,0,3.739,5.306c.352.415.766.8.638,1.4a1.09,1.09,0,0,1-1.118.927,23.022,23.022,0,0,1-2.749-.512,26.757,26.757,0,0,1-8.882-4.09,31.85,31.85,0,0,1-5.625.512,27.7,27.7,0,0,1-15.083-4.218c.927.065,1.884.128,2.812.128a31.385,31.385,0,0,0,18.311-5.56c5.337-3.9,8.276-9.171,8.276-14.892A16.548,16.548,0,0,0,51.716,21c5.4,2.972,8.917,7.7,8.917,13.037C60.632,39.25,57.308,43.853,52.133,46.856Z"/>
</svg>
