<svg xmlns="http://www.w3.org/2000/svg" width="64" height="64" viewBox="0 0 64 64">
  <title>BBG_event</title>
  <path d="M54.5,52.769a3.487,3.487,0,0,1-3.462,3.462H12.962A3.487,3.487,0,0,1,9.5,52.769V18.154a3.487,3.487,0,0,1,3.462-3.462h3.462V12.1A4.34,4.34,0,0,1,20.75,7.769h1.731A4.34,4.34,0,0,1,26.808,12.1v2.6H37.192V12.1a4.34,4.34,0,0,1,4.327-4.327H43.25A4.34,4.34,0,0,1,47.577,12.1v2.6h3.462A3.487,3.487,0,0,1,54.5,18.154Zm-3.462,0V25.077H12.962V52.769ZM23.346,12.1a.854.854,0,0,0-.865-.865H20.75a.854.854,0,0,0-.865.865v7.788a.854.854,0,0,0,.865.865h1.731a.854.854,0,0,0,.865-.865Zm7.546,35.589a.921.921,0,0,1-1.246,0L21.858,39.9a.884.884,0,0,1,0-1.216L23.1,37.435a.884.884,0,0,1,1.216,0l5.949,5.951L42.276,31.377a.884.884,0,0,1,1.216,0l1.246,1.246a.884.884,0,0,1,0,1.216ZM44.115,12.1a.854.854,0,0,0-.865-.865H41.519a.854.854,0,0,0-.865.865v7.788a.854.854,0,0,0,.865.865H43.25a.854.854,0,0,0,.865-.865Z"/>
</svg>
