<svg id="f9c194e4-c6e0-48f2-b17e-183af4257b3b" data-name="Layer 1" xmlns="http://www.w3.org/2000/svg" viewBox="0 0 64 64">
  <defs>
    <style>
      .ffa6d4ee-279a-4451-8f62-2b884e421b0f {
        fill: #9e0621;
      }
    </style>
  </defs>
  <title>BBG_podcast_red</title>
  <path class="ffa6d4ee-279a-4451-8f62-2b884e421b0f" d="M40.32,49.162a.475.475,0,0,1-.615-.527c.088-.615.175-1.26.293-1.933.06-.47.117-.938.177-1.377a.421.421,0,0,1,.263-.352,18.75,18.75,0,1,0-16.758.06.464.464,0,0,1,.263.35c.06.412.117.85.177,1.32.117.7.205,1.348.322,1.993a.471.471,0,0,1-.645.5,22.48,22.48,0,1,1,16.523-.03Zm.88-9.023a.48.48,0,0,1-.762-.352,6.822,6.822,0,0,0-.85-2.7.457.457,0,0,1,.088-.585,11.25,11.25,0,0,0-8.905-19.455,11.339,11.339,0,0,0-9.9,10.08,11.131,11.131,0,0,0,3.575,9.375.457.457,0,0,1,.088.585,6.8,6.8,0,0,0-.85,2.725.48.48,0,0,1-.762.322,15,15,0,1,1,18.283,0Zm-9.143-6.27a6.563,6.563,0,1,1,6.563-6.563A6.552,6.552,0,0,1,32.057,33.869Zm6.065,12.568c-.44,3.048-.878,6.183-1.61,9.17-.527,2.14-2.52,2.637-4.455,2.637s-3.925-.5-4.453-2.637c-.733-2.988-1.172-6.123-1.61-9.17a37.809,37.809,0,0,1-.5-5.77c0-3.955,3.195-4.923,6.563-4.923s6.563.967,6.563,4.923A38.08,38.08,0,0,1,38.122,46.437Z"/>
</svg>
