<svg id="3ffbcbef-62a0-43b4-89bc-7037a7c6d02c" data-name="Layer 1" xmlns="http://www.w3.org/2000/svg" viewBox="0 0 64 64">
  <defs>
    <style>
      .\33 9c43b9a-a760-4356-9f65-c956835a44f2 {
        fill: #9e0621;
      }
    </style>
  </defs>
  <title>BBG_advisory_red</title>
  <path class="39c43b9a-a760-4356-9f65-c956835a44f2" d="M58.252,28.251A3.739,3.739,0,0,1,54.5,32V43.252A3.777,3.777,0,0,1,50.751,47C45.536,42.667,37.128,36.719,26.96,35.869c-3.485,1.172-4.688,5.245-2.4,7.588-2.05,3.37.587,5.743,3.693,8.175-1.817,3.573-9.376,3.633-12.071,1.143-1.7-5.215-4.22-10.431-2.168-17.023H10.436a4.7,4.7,0,0,1-4.688-4.688V25.439a4.7,4.7,0,0,1,4.688-4.688H24.5c11.251,0,20.626-6.563,26.252-11.251a3.777,3.777,0,0,1,3.75,3.75V24.5A3.739,3.739,0,0,1,58.252,28.251Zm-7.5-14.006c-7.648,5.86-15.059,9.23-22.5,10.05v7.911c7.443.82,14.854,4.13,22.5,9.991Z"/>
</svg>
