<svg id="Layer_1" data-name="Layer 1" xmlns="http://www.w3.org/2000/svg" viewBox="0 0 46.55 50"><title>link-icon</title><path d="M28,1C20.6,1,14.47,3.51,9.78,8.47s-7.05,11.28-7.05,19c0,7.51,2.14,13.37,6.39,17.41A22.51,22.51,0,0,0,25,51c4.27,0,10.7-1,14.64-3.46H39.59a2.58,2.58,0,0,0-1.08-4.93c-0.4,0-6.07,2.74-13,2.74a16,16,0,0,1-11.74-4.64c-3.07-3.08-4.64-7.64-4.64-13.57,0-6.22,1.75-11.29,5.19-15.07A17.63,17.63,0,0,1,27.79,6.36c10.15,0,15.3,5.24,15.3,15.58,0,8.09-1.69,12.19-5,12.19-1.72,0-2.52-1-2.52-3.2,0-.86,0-1.6.06-2.2L36.83,15l0-.23-0.21-.09a22.43,22.43,0,0,0-8.85-2.12A13.2,13.2,0,0,0,17.61,17c-2.69,3-4,6.7-4,11.43,0,6.56,3.92,10.8,10,10.8a9.07,9.07,0,0,0,7.3-3.77c1.16,2.46,3.38,3.7,6.63,3.7,7.8,0,11.75-5.77,11.75-17.15C49.27,8.65,41.52,1,28,1Zm1.38,26.94C29,31.72,27,34.27,24.27,34.27c-2.92,0-4.35-2.08-4.35-6.37a12,12,0,0,1,2.31-7.52,6.81,6.81,0,0,1,5.7-3,8.08,8.08,0,0,1,2.3.32Z" transform="translate(-2.73 -1)"/></svg>