<?xml version="1.0" encoding="utf-8"?>
<!-- Generator: Adobe Illustrator 19.2.1, SVG Export Plug-In . SVG Version: 6.00 Build 0)  -->
<svg version="1.1" id="File_Border" xmlns="http://www.w3.org/2000/svg" xmlns:xlink="http://www.w3.org/1999/xlink" x="0px"
	 y="0px" viewBox="0 0 52 52" enable-background="new 0 0 52 52" xml:space="preserve">
<title>epub-icon</title>
<path d="M43.9,20V13l0,0L31.6,1H8.1v50h35.7L43.9,20z M29.9,2.7v12h12.2v34.2H9.9V2.7C9.9,2.7,29.9,2.7,29.9,2.7z"/>
<path fill="#86B918" d="M19.2,46.6c0.4,0,0.8-0.2,1-0.5l0.3,0.3c-0.3,0.4-0.8,0.6-1.4,0.6c-1-0.1-1.7-0.9-1.6-1.9
	c0.1-0.8,0.7-1.5,1.5-1.6c0.9,0,1.6,0.7,1.6,1.6c0,0.1,0,0.1,0,0.2c0,0,0,0.1,0,0.2H18C18,46.1,18.6,46.6,19.2,46.6
	C19.2,46.6,19.2,46.6,19.2,46.6z M20.2,45.1c0-0.6-0.5-1.1-1.1-1.1c0,0,0,0,0,0c-0.6,0-1.1,0.5-1.1,1.1H20.2L20.2,45.1z"/>
<path fill="#41281B" d="M23.3,45.3h-1.1v1.6h-0.5v-4.5h1.7c0.8-0.1,1.5,0.5,1.6,1.3c0,0.1,0,0.1,0,0.2c0,0.9-0.8,1.5-1.6,1.5
	C23.3,45.3,23.3,45.3,23.3,45.3z M23.3,42.9h-1.1v2h1.1c0.6,0.1,1.1-0.3,1.2-0.9c0,0,0-0.1,0-0.1c0-0.6-0.4-1-1-1
	C23.5,42.9,23.4,42.9,23.3,42.9L23.3,42.9z"/>
<path fill="#41281B" d="M29.6,45c0,1-0.8,1.9-1.9,1.9c-1,0-1.9-0.8-1.9-1.9v-2.6h0.5V45c-0.1,0.7,0.4,1.4,1.1,1.5c0.1,0,0.2,0,0.3,0
	c0.7,0,1.3-0.5,1.4-1.2c0-0.1,0-0.2,0-0.3v-2.6h0.5L29.6,45L29.6,45L29.6,45z"/>
<path fill="#41281B" d="M34.2,43.5c0,0.5-0.3,0.9-0.7,1c0.6,0.1,1,0.5,1,1.1c0,0.8-0.7,1.2-1.6,1.2h-2v-4.5h2
	C33.5,42.3,34.1,42.9,34.2,43.5C34.2,43.5,34.2,43.5,34.2,43.5z M33.7,43.6c0-0.5-0.4-0.8-0.9-0.8c0,0-0.1,0-0.1,0h-1.4v1.6h1.4
	c0.5,0.1,0.9-0.2,1-0.7C33.7,43.7,33.7,43.7,33.7,43.6L33.7,43.6z M33.9,45.6c0-0.5-0.4-0.8-1.2-0.8h-1.5v1.6h1.6
	c0.5,0.1,1-0.2,1.1-0.7C33.9,45.7,33.9,45.7,33.9,45.6L33.9,45.6z"/>
<path fill="#86B918" d="M26,34.8L19.1,28l6.9-6.9l2.3,2.3L23.7,28l2.3,2.3l6.9-6.9l-6-6c-0.5-0.5-1.3-0.5-1.8,0c0,0,0,0,0,0
	l-9.7,9.7c-0.5,0.5-0.5,1.3,0,1.8l9.7,9.7c0.5,0.5,1.3,0.5,1.8,0l9.7-9.7c0.5-0.5,0.5-1.3,0-1.8l-1.4-1.4L26,34.8z"/>
</svg>
