<?xml version="1.0" encoding="utf-8"?>
<!-- Generator: Adobe Illustrator 19.2.1, SVG Export Plug-In . SVG Version: 6.00 Build 0)  -->
<svg version="1.1" id="facebook" xmlns="http://www.w3.org/2000/svg" xmlns:xlink="http://www.w3.org/1999/xlink" x="0px" y="0px"
	 viewBox="0 0 52 52" enable-background="new 0 0 52 52" xml:space="preserve">
<title>facebook-icon</title>
<path id="Blue" fill="#3D5A98" d="M3.8,1h44.5C49.8,1,51,2.2,51,3.8v44.5c0,1.5-1.2,2.8-2.8,2.8H3.8C2.2,51,1,49.8,1,48.2V3.8
	C1,2.2,2.2,1,3.8,1z"/>
<path id="f" fill="#FFFFFF" d="M35.5,51V31.6H42l1-7.5h-7.5v-4.8c0-2.2,0.6-3.7,3.7-3.7h4V8.9c-1.9-0.2-3.9-0.3-5.8-0.3
	c-5.8,0-9.7,3.5-9.7,10v5.6h-6.5v7.6h6.5V51H35.5z"/>
</svg>
