<svg id="linkedin" xmlns="http://www.w3.org/2000/svg" viewBox="0 0 50 50"><defs><style>.cls-1{fill:#007bb5;}.cls-2{fill:#fff;}</style></defs><title>linkedin-icon</title><path class="cls-1" d="M47.3,1H4.69A3.65,3.65,0,0,0,1,4.61V47.39A3.65,3.65,0,0,0,4.69,51H47.3A3.66,3.66,0,0,0,51,47.39V4.61A3.66,3.66,0,0,0,47.3,1Z" transform="translate(-1 -1)"/><path class="cls-2" d="M8.41,19.74h7.42V43.61H8.41V19.74ZM12.12,7.88a4.3,4.3,0,1,1-4.31,4.3,4.3,4.3,0,0,1,4.31-4.3" transform="translate(-1 -1)"/><path class="cls-2" d="M20.48,19.74h7.11V23h0.1a7.79,7.79,0,0,1,7-3.85c7.51,0,8.9,4.94,8.9,11.37V43.61H36.19V32c0-2.77,0-6.33-3.85-6.33s-4.45,3-4.45,6.13v11.8H20.48V19.74Z" transform="translate(-1 -1)"/></svg>