<?xml version="1.0" encoding="utf-8"?>
<!-- Generator: Adobe Illustrator 19.2.1, SVG Export Plug-In . SVG Version: 6.00 Build 0)  -->
<svg version="1.1" id="Layer_1" xmlns="http://www.w3.org/2000/svg" xmlns:xlink="http://www.w3.org/1999/xlink" x="0px" y="0px"
	 viewBox="0 0 52 52" enable-background="new 0 0 52 52" xml:space="preserve">
<title>link-icon</title>
<path d="M48.4,44l-4.5,4.5c-3.5,3.4-9,3.4-12.5-0.1l-6.3-6.3c-1.6-1.7-2.6-3.9-2.5-6.2c0-2.4,1-4.7,2.7-6.4l-2.7-2.7
	c-3.4,3.5-9,3.6-12.6,0.2c0,0,0,0-0.1-0.1l-6.4-6.4c-3.4-3.4-3.4-9,0-12.4c0,0,0,0,0,0l4.5-4.5c3.5-3.4,9-3.4,12.5,0.1l6.3,6.3
	c1.6,1.7,2.6,3.9,2.5,6.2c0,2.4-1,4.7-2.7,6.4l2.7,2.7c3.4-3.5,9-3.6,12.6-0.2c0,0,0,0,0.1,0.1l6.4,6.4C51.9,34.9,51.9,40.5,48.4,44
	C48.4,44,48.4,44,48.4,44z M22.7,14.1l-6.3-6.3c-0.6-0.5-1.3-0.9-2.1-0.9c-0.8,0-1.5,0.3-2.1,0.8l-4.5,4.5c-1.1,1.1-1.1,3,0,4.1
	c0,0,0,0,0,0l6.4,6.4c0.6,0.5,1.3,0.8,2.1,0.8c0.8,0,1.6-0.3,2.2-1c-1-1-2.2-1.9-2.2-3.4c0-1.6,1.3-2.9,2.9-2.9
	c1.6,0,2.4,1.2,3.4,2.2C23.8,17.3,23.9,15.4,22.7,14.1C22.8,14.1,22.7,14.1,22.7,14.1z M44.3,35.7l-6.4-6.4
	c-0.6-0.5-1.3-0.9-2.1-0.9c-0.8,0-1.7,0.4-2.2,1c1,1,2.2,1.9,2.2,3.4c0,1.6-1.3,2.9-2.9,2.9c-1.6,0-2.4-1.2-3.4-2.2
	c-1.2,1.1-1.3,3-0.2,4.2c0,0,0.1,0.1,0.1,0.1l6.3,6.3c0.6,0.5,1.3,0.8,2.1,0.8c0.8,0,1.5-0.3,2.1-0.8l4.5-4.5
	C45.4,38.7,45.4,36.8,44.3,35.7C44.3,35.7,44.3,35.7,44.3,35.7z"/>
</svg>
