<svg id="File_Border" data-name="File Border" xmlns="http://www.w3.org/2000/svg" viewBox="0 0 52 52"><defs><style>.cls-1{fill:#dc1d00;}.cls-2{fill:gray;}.cls-3{fill:#fffefe;}</style></defs><title>pdf-icon</title><path d="M43.86,20.05l0-7.06h0L31.56,1H8.14V51H43.82Zm-14-17.33v12H42.1V48.88H9.86V2.72h20Z"/><path id="_Compound_Path_" data-name="&lt;Compound Path&gt;" class="cls-1" d="M36,41.26c0-.14-0.14-1.71-2.93-1.64a20.11,20.11,0,0,0-3.47.24,17.73,17.73,0,0,1-2.84-3.75,16.62,16.62,0,0,0,.88-4.39c0-1.69-.45-2.67-1.75-2.66s-1.49,1.15-1.32,2.85a13.16,13.16,0,0,0,.94,3.3s-0.6,1.87-1.4,3.73-1.34,2.84-1.34,2.84a13.6,13.6,0,0,0-3.85,2c-1.17,1.08-1.64,1.92-1,2.75s2.38,0.88,4-1.29a31.89,31.89,0,0,0,2.4-3.52s2.52-.69,3.31-0.88,1.73-.34,1.73-0.34,2.3,2.32,4.52,2.24S36,41.4,36,41.26ZM18.45,46.15c-1.38-.83,2.9-3.37,3.67-3.45C22.12,42.7,19.89,47,18.45,46.15ZM25,31.29c0-1.34.43-1.71,0.77-1.71s0.72,0.16.73,1.33a15.25,15.25,0,0,1-.73,3.44A6.26,6.26,0,0,1,25,31.29Zm1.78,9.19a10.66,10.66,0,0,0-2.08.69l0.57-1.27c0.57-1.27,1.15-3,1.15-3a20.1,20.1,0,0,0,2.34,3.18A18.45,18.45,0,0,0,26.8,40.48Zm3.33-.12s4.51-.82,4.51.72S31.85,42,30.13,40.36Z"/><polygon id="_Path_" data-name="&lt;Path&gt;" class="cls-2" points="11.58 16.67 2.55 16.67 2.55 26.32 11.58 26.32 30.96 26.32 30.96 16.67 11.58 16.67"/><rect id="_Path_2" data-name="&lt;Path&gt;" class="cls-1" x="2.73" y="16.5" width="28.38" height="9.66"/><g id="_Group_" data-name="&lt;Group&gt;"><path id="_Compound_Path_2" data-name="&lt;Compound Path&gt;" class="cls-3" d="M12.8,21.3H12.7V19.62h0.22a0.65,0.65,0,0,1,.52.21,1,1,0,0,1,.21.63,0.75,0.75,0,0,1-.25.71,1.07,1.07,0,0,1-.59.13M13,18.69H11.53v5.45H12.7V22.3H13a2.32,2.32,0,0,0,.73-0.13,1.62,1.62,0,0,0,.56-0.33,1.39,1.39,0,0,0,.38-0.51,2.42,2.42,0,0,0,.12-1,2.54,2.54,0,0,0-.13-0.73,1.33,1.33,0,0,0-.78-0.74,2.43,2.43,0,0,0-.47-0.12l-0.36,0"/><path id="_Compound_Path_3" data-name="&lt;Compound Path&gt;" class="cls-3" d="M16.76,23.15H16.65V19.67h0a1.21,1.21,0,0,1,.68.12,1.36,1.36,0,0,1,.37.46,1.48,1.48,0,0,1,.16.6c0,0.25,0,.45,0,0.62a3.32,3.32,0,0,1,0,.58,2,2,0,0,1-.19.57,1.28,1.28,0,0,1-.41.41,0.76,0.76,0,0,1-.47.12M17,18.68H15.48v5.45h1a3,3,0,0,0,1.17-.2,1.94,1.94,0,0,0,.77-0.56,2.2,2.2,0,0,0,.42-0.85A4.23,4.23,0,0,0,19,21.47a5,5,0,0,0-.1-1.28,2,2,0,0,0-.46-0.83,1.85,1.85,0,0,0-.61-0.46,2.74,2.74,0,0,0-.62-0.2l-0.26,0"/><polyline id="_Path_3" data-name="&lt;Path&gt;" class="cls-3" points="22.52 18.7 19.77 18.7 19.77 24.15 20.93 24.15 20.93 21.98 22.41 21.98 22.41 20.97 20.93 20.97 20.93 19.71 22.52 19.71 22.52 18.7"/></g></svg>