<?xml version="1.0" encoding="utf-8"?>
<!-- Generator: Adobe Illustrator 19.2.1, SVG Export Plug-In . SVG Version: 6.00 Build 0)  -->
<svg version="1.1" id="twitter" xmlns="http://www.w3.org/2000/svg" xmlns:xlink="http://www.w3.org/1999/xlink" x="0px" y="0px"
	 viewBox="0 0 52 52" enable-background="new 0 0 52 52" xml:space="preserve">
<title>twitter-icon</title>
<path fill="#55ACEE" d="M51,10.5c-1.9,0.8-3.9,1.4-5.9,1.6c2.1-1.3,3.7-3.3,4.5-5.7c-2,1.2-4.2,2-6.5,2.5
	c-3.9-4.1-10.4-4.3-14.5-0.4c-2.7,2.5-3.8,6.2-3,9.8C17.4,17.9,9.7,14,4.5,7.6c-2.7,4.7-1.3,10.7,3.2,13.7C6,21.2,4.4,20.8,3,20
	c0,0,0,0.1,0,0.1c0,4.9,3.4,9.1,8.2,10.1c-1.5,0.4-3.1,0.5-4.6,0.2c1.3,4.2,5.2,7,9.6,7.1c-3.6,2.8-8.1,4.4-12.7,4.4
	c-0.8,0-1.6,0-2.5-0.1c4.7,3,10.1,4.6,15.7,4.6c18.9,0,29.2-15.6,29.2-29.2c0-0.4,0-0.9,0-1.3C47.9,14.3,49.6,12.5,51,10.5z"/>
</svg>
