<svg id="vimeo" xmlns="http://www.w3.org/2000/svg" viewBox="0 0 50 50"><defs><style>.cls-1{fill:#1ab7ea;}.cls-2{fill:#fff;}</style></defs><title>vimeo-icon</title><rect class="cls-1" width="50" height="50"/><path class="cls-2" d="M43.37,17.4Q43.12,22.67,36,31.84q-7.37,9.57-12.47,9.58-3.16,0-5.35-5.83L15.27,24.89q-1.62-5.83-3.48-5.83a11.18,11.18,0,0,0-2.84,1.7l-1.7-2.19q2.67-2.35,5.27-4.7,3.57-3.08,5.35-3.24,4.22-.41,5.19,5.77,1.05,6.66,1.46,8.28,1.22,5.52,2.68,5.52,1.13,0,3.41-3.58T33,21.15q0.32-3.09-2.43-3.09a6.77,6.77,0,0,0-2.67.59q2.66-8.72,10.18-8.48Q43.69,10.34,43.37,17.4Z" transform="translate(-1 -1)"/></svg>