<?xml version="1.0" encoding="utf-8"?>
<!-- Generator: Adobe Illustrator 19.2.1, SVG Export Plug-In . SVG Version: 6.00 Build 0)  -->
<svg version="1.1" id="YouTube_Icon" xmlns="http://www.w3.org/2000/svg" xmlns:xlink="http://www.w3.org/1999/xlink" x="0px"
	 y="0px" viewBox="0 0 52 52" enable-background="new 0 0 52 52" xml:space="preserve">
<g>
	<title>YouTube-icon-full_color</title>
	<path id="Triangle" fill="#FFFFFF" d="M20.8,31.6l13.5-7l-13.5-7V31.6z"/>
	<path id="The_Sharpness" opacity="0.12" fill="#420000" enable-background="new    " d="M20.8,17.6l11.8,7.9l1.7-0.9L20.8,17.6z"/>
	<g id="Lozenge">
		
			<linearGradient id="SVGID_1_" gradientUnits="userSpaceOnUse" x1="26" y1="44.433" x2="26" y2="9.2663" gradientTransform="matrix(1 0 0 -1 0 52)">
			<stop  offset="0" style="stop-color:#E52D27"/>
			<stop  offset="1" style="stop-color:#BF171D"/>
		</linearGradient>
		<path fill="url(#SVGID_1_)" d="M50.5,15.2c0,0-0.5-3.4-2-5c-1.9-2-4-2-5-2.1C36.5,7.6,26,7.6,26,7.6l0,0c0,0-10.5,0-17.5,0.5
			c-1,0.1-3.1,0.1-5,2.1c-1.5,1.5-2,5-2,5C1.2,17.8,1,20.5,1,23.2V27c0,2.7,0.2,5.4,0.5,8.1c0,0,0.5,3.4,2,5c1.9,2,4.4,1.9,5.5,2.1
			c4,0.4,17,0.5,17,0.5s10.5,0,17.5-0.5c1-0.1,3.1-0.1,5-2.1c1.5-1.5,2-5,2-5c0.3-2.7,0.5-5.4,0.5-8.1v-3.8
			C51,20.5,50.8,17.8,50.5,15.2z M20.8,31.6v-14l13.5,7L20.8,31.6z"/>
	</g>
</g>
</svg>
