<svg id="Icons" xmlns="http://www.w3.org/2000/svg" viewBox="0 0 15 15"><title>Mapbox-icons</title><path d="M11.827,6.87A2.885,2.885,0,0,0,8.614,3.043" fill="none" stroke="#000" stroke-linecap="round" stroke-linejoin="round" stroke-width="0.75"/><path d="M10.5,6.3A1.443,1.443,0,0,0,8.9,4.387" fill="none" stroke="#000" stroke-linecap="round" stroke-linejoin="round" stroke-width="0.75"/><path d="M7.5,13H7V11H6v2H5.5a.5.5,0,0,0,0,1h2a.5.5,0,0,0,0-1Z"/><path d="M8.511,8.375,6.625,6.488V6.333a.709.709,0,0,1,.708-.708H8.667a.709.709,0,0,1,.708.708V7.667a.709.709,0,0,1-.708.708Z" fill="#fff"/><path d="M8.667,6A.333.333,0,0,1,9,6.333V7.667A.333.333,0,0,1,8.667,8L7,6.333A.333.333,0,0,1,7.333,6H8.667m0-.75H7.333A1.085,1.085,0,0,0,6.25,6.333v.311l.22.22L8.136,8.53l.22.22h.311A1.085,1.085,0,0,0,9.75,7.667V6.333A1.085,1.085,0,0,0,8.667,5.25Z"/><path d="M7.276,11.5a3.776,3.776,0,0,1-2.1-6.915A.493.493,0,0,1,5.456,4.5a.5.5,0,0,1,.354.146l4.544,4.545a.5.5,0,0,1,.062.632A3.773,3.773,0,0,1,7.276,11.5Z" fill="#fff"/><path d="M5.456,5,10,9.545A3.276,3.276,0,1,1,5.456,5m0-1a1,1,0,0,0-.556.169A4.276,4.276,0,1,0,10.831,10.1a1,1,0,0,0-.124-1.263L6.163,4.293A1,1,0,0,0,5.456,4Z"/></svg>