<svg id="Icons" xmlns="http://www.w3.org/2000/svg" viewBox="0 0 15 15"><title>dish-15</title><path d="M7.5,13H7V11H6v2H5.5a.5.5,0,0,0,0,1h2a.5.5,0,0,0,0-1Z"/><path d="M6.687,9.306l-1.03-.992V8.155a.534.534,0,0,1,.536-.53h.646a.534.534,0,0,1,.536.53v.621a.534.534,0,0,1-.536.53Z" fill="#fff"/><path d="M6.839,8A.158.158,0,0,1,7,8.155v.621a.158.158,0,0,1-.161.155l-.807-.776A.158.158,0,0,1,6.193,8h.645m0-.75H6.193a.909.909,0,0,0-.911.905v.319l.23.221.807.776.218.21h.3a.909.909,0,0,0,.911-.905V8.155a.909.909,0,0,0-.911-.905Z"/><path d="M6.767,11.5A3.271,3.271,0,0,1,3.5,8.233a3.228,3.228,0,0,1,.342-1.456.5.5,0,0,1,.35-.268.469.469,0,0,1,.1-.01.5.5,0,0,1,.328.123l4.041,3.517a.5.5,0,0,1-.045.789A3.243,3.243,0,0,1,6.767,11.5Z" fill="#fff"/><path d="M4.289,7,8.33,10.517A2.768,2.768,0,0,1,4.289,7m0-1a1,1,0,0,0-.9.554A3.73,3.73,0,0,0,3,8.233a3.768,3.768,0,0,0,5.9,3.109,1,1,0,0,0,.091-1.579L4.946,6.246A1,1,0,0,0,4.289,6Z"/><path d="M5.629,4.871a3.057,3.057,0,0,1,4.639,3.982" fill="none" stroke="#000" stroke-linecap="round" stroke-linejoin="round" stroke-width="0.75"/><path d="M6.82,5.835a1.529,1.529,0,0,1,2.3,2.01" fill="none" stroke="#000" stroke-linecap="round" stroke-linejoin="round" stroke-width="0.75"/><path d="M4.491,3.85a4.586,4.586,0,0,1,6.927,6.01" fill="none" stroke="#000" stroke-linecap="round" stroke-linejoin="round" stroke-width="0.75"/></svg>