<svg id="Icons" xmlns="http://www.w3.org/2000/svg" viewBox="0 0 11 11"><title>Mapbox-icons</title><path d="M4.333,9.333H4V8H3.333V9.333H3A.333.333,0,1,0,3,10H4.333a.333.333,0,1,0,0-.667Z"/><path d="M6.111,5,5,3.889a.222.222,0,0,1,.222-.222h.889a.222.222,0,0,1,.222.222v.889A.222.222,0,0,1,6.111,5Z" fill="#fff" stroke="#000" stroke-miterlimit="10" stroke-width="0.75"/><path d="M4.729,8.5A3.23,3.23,0,0,1,2.936,2.585.493.493,0,0,1,3.214,2.5a.5.5,0,0,1,.354.146L7.354,6.434a.5.5,0,0,1,.062.632A3.227,3.227,0,0,1,4.729,8.5Z" fill="#fff"/><path d="M3.213,3,7,6.787A2.73,2.73,0,1,1,3.213,3m0-1a1,1,0,0,0-.556.169A3.73,3.73,0,1,0,7.831,7.344,1,1,0,0,0,7.707,6.08L3.921,2.293A1,1,0,0,0,3.213,2Z"/><path d="M8.827,4.87A2.885,2.885,0,0,0,5.614,1.043" fill="none" stroke="#000" stroke-linecap="round" stroke-linejoin="round" stroke-width="0.75"/><path d="M7.5,4.3A1.443,1.443,0,0,0,5.9,2.387" fill="none" stroke="#000" stroke-linecap="round" stroke-linejoin="round" stroke-width="0.75"/></svg>