<svg id="Icons" xmlns="http://www.w3.org/2000/svg" width="15" height="15" viewBox="0 0 15 15">
  <title>Mapbox-icons</title>
  <path d="M4.289,7,8.33,10.517A2.768,2.768,0,0,1,4.289,7m0-1a1,1,0,0,0-.9.554A3.73,3.73,0,0,0,3,8.233a3.768,3.768,0,0,0,5.9,3.109,1,1,0,0,0,.091-1.579L4.946,6.246A1,1,0,0,0,4.289,6Z"/>
  <path d="M8,13.5a.5.5,0,0,1-.5.5h-2a.5.5,0,0,1,0-1H6V11H7v2h.5A.5.5,0,0,1,8,13.5Z"/>
  <path d="M6.193,8h.645A.158.158,0,0,1,7,8.155v.621" fill="none" stroke="#000" stroke-miterlimit="10" stroke-width="0.75"/>
  <path d="M5.629,4.871a3.057,3.057,0,0,1,4.639,3.982" fill="none" stroke="#000" stroke-linecap="round" stroke-linejoin="round" stroke-width="0.75"/>
  <path d="M6.82,5.835a1.529,1.529,0,0,1,2.3,2.01" fill="none" stroke="#000" stroke-linecap="round" stroke-linejoin="round" stroke-width="0.75"/>
  <path d="M4.491,3.85a4.586,4.586,0,0,1,6.927,6.01" fill="none" stroke="#000" stroke-linecap="round" stroke-linejoin="round" stroke-width="0.75"/>
</svg>
