<svg id="Icons" xmlns="http://www.w3.org/2000/svg" viewBox="0 0 11 11"><title>mike-11</title><rect x="3.952" y="2" width="3.096" height="4.953" rx="1.548" ry="1.548"/><polygon points="5 4 4 4 4 4 5 4 5 4" fill="#fff" stroke="#fff" stroke-linecap="round" stroke-linejoin="round"/><path d="M7.977,5.4V4.167a.31.31,0,0,0-.619,0V5.4a1.857,1.857,0,0,1-3.715,0V4.167a.31.31,0,0,0-.619,0V5.4a2.477,2.477,0,0,0,4.953,0Z"/><rect x="4" y="8" width="3" height="1" rx="0.5" ry="0.5"/><rect x="5" y="7.5" width="1" height="1.5"/></svg>