<svg id="Icons" xmlns="http://www.w3.org/2000/svg" viewBox="0 0 15 15"><title>mike-15</title><rect x="5" y="2" width="5" height="8" rx="2.5" ry="2.5"/><path d="M9.5,12H8V11H7v1H5.5a.5.5,0,0,0,0,1h4a.5.5,0,0,0,0-1Z"/><path d="M11.5,7.5v-2a.5.5,0,0,0-1,0v2a3,3,0,1,1-6,0v-2a.5.5,0,0,0-1,0v2a4,4,0,1,0,8,0Z"/><polygon points="6 5 5 5 5 5 6 5 6 5" fill="#fff" stroke="#fff" stroke-linecap="round" stroke-linejoin="round" stroke-width="0.75"/><polygon points="6 7 5 7 5 7 6 7 6 7" fill="#fff" stroke="#fff" stroke-linecap="round" stroke-linejoin="round" stroke-width="0.75"/></svg>