<svg id="Icons" xmlns="http://www.w3.org/2000/svg" width="11" height="11" viewBox="0 0 11 11">
  <title>Mapbox-icons</title>
  <path d="M5.5,6.5h0A1.61,1.61,0,0,1,3.89,4.89V2.958A1.61,1.61,0,0,1,5.5,1.347h0a1.61,1.61,0,0,1,1.61,1.61V4.89A1.61,1.61,0,0,1,5.5,6.5Z"/>
  <path d="M7,9.5a.5.5,0,0,1-.5.5h-2a.5.5,0,0,1,0-1H5V8H6V9h.5A.5.5,0,0,1,7,9.5Z"/>
  <path d="M5,3H5Z" fill="#fff" stroke="#fff" stroke-linecap="round" stroke-linejoin="round" stroke-width="0.75"/>
  <path d="M8.061,4.7l.015.469S8.2,8,5.5,8A2.52,2.52,0,0,1,2.924,5.279l.013-.572" fill="none" stroke="#000" stroke-linecap="round" stroke-linejoin="round"/>
</svg>
