<svg id="Icons" xmlns="http://www.w3.org/2000/svg" width="11" height="11" viewBox="0 0 11 11">
  <title>Mapbox-icons</title>
  <path d="M8,2.5A.5.5,0,0,0,7.5,2h-5a.5.5,0,0,0-.5.5v6a.5.5,0,0,0,.5.5h5A.5.5,0,0,0,8,8.5ZM4.989,8.691a.25.25,0,1,1,.25-.25A.25.25,0,0,1,4.989,8.691ZM7,7.75A.25.25,0,0,1,6.75,8H3.25A.25.25,0,0,1,3,7.75V3.25A.25.25,0,0,1,3.25,3h3.5A.25.25,0,0,1,7,3.25Z"/>
  <path d="M8.259,9H6.241a.5.5,0,0,1-.5-.5V4.31a.5.5,0,0,1,.5-.5H8.259a.5.5,0,0,1,.5.5V8.5A.5.5,0,0,1,8.259,9Z" fill="#fff"/>
  <path d="M8.5,4h-2a.5.5,0,0,0-.5.5v4a.5.5,0,0,0,.5.5h2A.5.5,0,0,0,9,8.5v-4A.5.5,0,0,0,8.5,4Zm-1,4.5a.25.25,0,1,1,.25-.25A.25.25,0,0,1,7.5,8.5Zm.352-4.025a.053.053,0,0,1-.053.053H7.2a.053.053,0,0,1-.053-.053V4.3A.053.053,0,0,1,7.2,4.25h.6a.053.053,0,0,1,.053.053Z"/>
  <path d="M8,7.764H7a.25.25,0,0,1-.25-.25v-2.5A.25.25,0,0,1,7,4.764H8a.25.25,0,0,1,.25.25v2.5A.25.25,0,0,1,8,7.764Z" fill="#fff"/>
</svg>
