<svg id="Icons" xmlns="http://www.w3.org/2000/svg" width="15" height="15" viewBox="0 0 15 15">
  <title>Mapbox-icons</title>
  <path d="M10.5,2h-7a.5.5,0,0,0-.5.5v10a.5.5,0,0,0,.5.5h7a.5.5,0,0,0,.5-.5V2.5A.5.5,0,0,0,10.5,2ZM7,12.5a.5.5,0,1,1,.5-.5A.5.5,0,0,1,7,12.5Zm3-1.75a.25.25,0,0,1-.25.25H4.25A.25.25,0,0,1,4,10.75V3.25A.25.25,0,0,1,4.25,3h5.5a.25.25,0,0,1,.25.25Z"/>
  <path d="M12.25,13h-4a.5.5,0,0,1-.5-.5V6.243a.5.5,0,0,1,.5-.5h4a.5.5,0,0,1,.5.5V12.5A.5.5,0,0,1,12.25,13Z" fill="#fff"/>
  <path d="M12.5,6h-4a.5.5,0,0,0-.5.5v6a.5.5,0,0,0,.5.5h4a.5.5,0,0,0,.5-.5v-6A.5.5,0,0,0,12.5,6Zm-2.425.425h.85a.075.075,0,1,1,0,.15h-.85a.075.075,0,1,1,0-.15ZM10.5,12.75a.25.25,0,1,1,.25-.25A.25.25,0,0,1,10.5,12.75Zm1.5-1a.25.25,0,0,1-.25.25H9.25A.25.25,0,0,1,9,11.75V7.25A.25.25,0,0,1,9.25,7h2.5a.25.25,0,0,1,.25.25Z"/>
</svg>
