<svg id="Icons" xmlns="http://www.w3.org/2000/svg" viewBox="0 0 11 11"><title>Mapbox-icons</title><rect x="1.306" y="3.727" width="7.903" height="4.69" rx="1.5" ry="1.5" fill="#fff"/><path d="M7.709,4.226a1,1,0,0,1,1,1v1.69a1,1,0,0,1-1,1h-4.9a1,1,0,0,1-1-1V5.226a1,1,0,0,1,1-1h4.9m0-1h-4.9a2,2,0,0,0-2,2v1.69a2,2,0,0,0,2,2h4.9a2,2,0,0,0,2-2V5.226a2,2,0,0,0-2-2Z"/><rect x="2.561" y="2.25" width="6.648" height="6.167" rx="1" ry="1" fill="#fff"/><path d="M8.209,2.75a.5.5,0,0,1,.5.5V7.417a.5.5,0,0,1-.5.5H3.561a.5.5,0,0,1-.5-.5V3.25a.5.5,0,0,1,.5-.5H8.209m0-1H3.561a1.5,1.5,0,0,0-1.5,1.5V7.417a1.5,1.5,0,0,0,1.5,1.5H8.209a1.5,1.5,0,0,0,1.5-1.5V3.25a1.5,1.5,0,0,0-1.5-1.5Z"/><path d="M1.3,6.176v1a.69.69,0,0,0,.628.738.69.69,0,0,0,.628-.738V4.964" fill="#fff" stroke="#000" stroke-linecap="square" stroke-miterlimit="10"/><rect x="3.688" y="3.488" width="1.883" height="2.214" rx="0.5" ry="0.5"/><rect x="6.199" y="3.488" width="1.883" height="0.738" rx="0.25" ry="0.25"/><rect x="6.199" y="4.964" width="1.883" height="0.738" rx="0.25" ry="0.25"/><rect x="3.688" y="6.44" width="4.393" height="0.738" rx="0.25" ry="0.25"/></svg>