<svg id="Icons" xmlns="http://www.w3.org/2000/svg" width="11" height="11" viewBox="0 0 11 11">
  <title>Mapbox-icons</title>
  <path d="M8.5,3a.5.5,0,0,1,.5.5V7.551A.463.463,0,0,1,8.5,8H3a.956.956,0,0,1-1-.935V5.42C2,4.882,2.448,4,3,4H3V3.5A.514.514,0,0,1,3.513,3H8m.5-1H3.513A1.515,1.515,0,0,0,2,3.5v.209c-1,.34-1,.981-1,1.714V7.065A1.957,1.957,0,0,0,3,9H8.5A1.464,1.464,0,0,0,10,7.551V3.5A1.5,1.5,0,0,0,8.5,2Z"/>
  <path d="M7.756,5h-3.5a.25.25,0,0,1-.25-.25v-.5A.25.25,0,0,1,4.256,4h3.5a.25.25,0,0,1,.25.25v.5A.25.25,0,0,1,7.756,5Zm.25,1.75v-.5A.25.25,0,0,0,7.756,6h-3.5a.25.25,0,0,0-.25.25v.5a.25.25,0,0,0,.25.25h3.5A.25.25,0,0,0,8.006,6.745Z"/>
  <path d="M2.633,5.894v-.93c0-.408-.249-.738-.557-.738s-.557.33-.557.738V7.179c0,.408.249.738.557.738s.557-.33.557-.738V4.226" fill="#fff" stroke="#000" stroke-linecap="square" stroke-miterlimit="10" stroke-width="0.75"/>
</svg>
