<svg id="Icons" xmlns="http://www.w3.org/2000/svg" viewBox="0 0 15 15"><title>newspaper-15</title><rect x="1.513" y="5.5" width="12" height="6" rx="1.5" ry="1.5" fill="#fff"/><path d="M12.013,6a1,1,0,0,1,1,1v3a1,1,0,0,1-1,1h-9a1,1,0,0,1-1-1V7a1,1,0,0,1,1-1h9m0-1h-9a2,2,0,0,0-2,2v3a2,2,0,0,0,2,2h9a2,2,0,0,0,2-2V7a2,2,0,0,0-2-2Z"/><rect x="3.513" y="3.5" width="10" height="8" rx="1" ry="1" fill="#fff"/><path d="M12.513,4a.5.5,0,0,1,.5.5v6a.5.5,0,0,1-.5.5h-8a.5.5,0,0,1-.5-.5v-6a.5.5,0,0,1,.5-.5h8m0-1h-8a1.5,1.5,0,0,0-1.5,1.5v6a1.5,1.5,0,0,0,1.5,1.5h8a1.5,1.5,0,0,0,1.5-1.5v-6a1.5,1.5,0,0,0-1.5-1.5Z"/><path d="M1.512,9v1a1,1,0,0,0,2,0V7" fill="#fff" stroke="#000" stroke-linecap="square" stroke-miterlimit="10"/><rect x="5.013" y="5" width="3" height="3" rx="0.5" ry="0.5"/><rect x="9.013" y="5" width="3" height="1" rx="0.25" ry="0.25"/><rect x="9.013" y="7" width="3" height="1" rx="0.25" ry="0.25"/><rect x="5.013" y="9" width="7" height="1" rx="0.25" ry="0.25"/></svg>