<svg id="Icons" xmlns="http://www.w3.org/2000/svg" width="15" height="15" viewBox="0 0 15 15">
  <title>Mapbox-icons</title>
  <path d="M12.52,4a.492.492,0,0,1,.48.51V10.5a.483.483,0,0,1-.48.5H3.014A1.011,1.011,0,0,1,2,10v-3A1.017,1.017,0,0,1,3.014,6H4V4.51A.522.522,0,0,1,4.515,4H13m-.48-1H4.515A1.523,1.523,0,0,0,3,4.51v.5H3a2,2,0,0,0-2,2v3a2.013,2.013,0,0,0,2.014,2H12.52A1.484,1.484,0,0,0,14,10.5V4.51A1.493,1.493,0,0,0,12.52,3Z"/>
  <path d="M3.512,6v4A1.005,1.005,0,0,1,1.5,10V8" fill="#fff" stroke="#000" stroke-linecap="square" stroke-miterlimit="10"/>
  <path d="M7.513,8h-2a.5.5,0,0,1-.5-.5v-2a.5.5,0,0,1,.5-.5h2a.5.5,0,0,1,.5.5v2A.5.5,0,0,1,7.513,8Zm4.5-2.25v-.5a.25.25,0,0,0-.25-.25h-2.5a.25.25,0,0,0-.25.25v.5a.25.25,0,0,0,.25.25h2.5A.25.25,0,0,0,12.013,5.75Zm0,2v-.5a.25.25,0,0,0-.25-.25h-2.5a.25.25,0,0,0-.25.25v.5a.25.25,0,0,0,.25.25h2.5A.25.25,0,0,0,12.013,7.75Zm0,2v-.5a.25.25,0,0,0-.25-.25h-6.5a.25.25,0,0,0-.25.25v.5a.25.25,0,0,0,.25.25h6.5A.25.25,0,0,0,12.013,9.75Z"/>
</svg>
