<svg id="Icons" xmlns="http://www.w3.org/2000/svg" width="15" height="15" viewBox="0 0 15 15">
  <title>Mapbox-icons</title>
  <path d="M13,5a1,1,0,0,0-1-1H3A1,1,0,0,0,2,5v5a1,1,0,0,0,1,1h9a1,1,0,0,0,1-1ZM12,6.5a.5.5,0,0,1-.5.5H10.121l-.414-.414L9.293,7H3.5A.5.5,0,0,1,3,6.5v-1A.5.5,0,0,1,3.5,5h8a.5.5,0,0,1,.5.5Z"/>
  <path d="M11,8a1,1,0,1,0,1,1A1,1,0,0,0,11,8Zm0,1.5a.5.5,0,1,1,.5-.5A.5.5,0,0,1,11,9.5Z" fill="#fff"/>
  <path d="M11.043,5,7.9,1.854a.5.5,0,0,1,0-.707h0a.5.5,0,0,1,.707,0L11.75,4.293c.2.2.089.406-.106.6h0C11.33,4.9,11.5,5,11.043,5Z"/>
  <path d="M3.75,8.5a.25.25,0,1,1-.25-.25A.25.25,0,0,1,3.75,8.5Z" fill="none" stroke="#fff" stroke-miterlimit="10" stroke-width="0.5"/>
  <path d="M5.75,8.5a.25.25,0,1,1-.25-.25A.25.25,0,0,1,5.75,8.5Z" fill="none" stroke="#fff" stroke-miterlimit="10" stroke-width="0.5"/>
  <path d="M7.75,8.5a.25.25,0,1,1-.25-.25A.25.25,0,0,1,7.75,8.5Z" fill="none" stroke="#fff" stroke-miterlimit="10" stroke-width="0.5"/>
  <path d="M6.75,9.5a.25.25,0,1,1-.25-.25A.25.25,0,0,1,6.75,9.5Z" fill="none" stroke="#fff" stroke-miterlimit="10" stroke-width="0.5"/>
  <path d="M4.75,9.5a.25.25,0,1,1-.25-.25A.25.25,0,0,1,4.75,9.5Z" fill="none" stroke="#fff" stroke-miterlimit="10" stroke-width="0.5"/>
</svg>
