<svg id="Icons" xmlns="http://www.w3.org/2000/svg" viewBox="0 0 11 11"><title>Mapbox-icons</title><rect x="2" y="3" width="7" height="6" rx="0.739" ry="0.739"/><path d="M7,6A1,1,0,1,0,8,7,1,1,0,0,0,7,6ZM7,7.5A.5.5,0,1,1,7.5,7,.5.5,0,0,1,7,7.5Z" fill="#fff"/><circle cx="3.5" cy="6.5" r="0.5" fill="#fff"/><circle cx="4.25" cy="7.5" r="0.5" fill="#fff"/><circle cx="5" cy="6.5" r="0.5" fill="#fff"/><path d="M7.65,4H3.35A.35.35,0,0,0,3,4.35v.7a.35.35,0,0,0,.35.35H6.105l.29-.29.29.29H7.65A.35.35,0,0,0,8,5.05v-.7A.35.35,0,0,0,7.65,4Z" fill="#fff"/><rect x="4.612" y="1.937" width="3.652" height="1" rx="0.5" ry="0.5" transform="translate(3.609 -3.838) rotate(45)"/></svg>