<svg id="Icons" xmlns="http://www.w3.org/2000/svg" viewBox="0 0 15 15"><title>Mapbox-icons</title><rect x="2" y="4" width="11" height="7.046" rx="1" ry="1"/><path d="M11,8a1,1,0,1,0,1,1A1,1,0,0,0,11,8Zm0,1.5a.5.5,0,1,1,.5-.5A.5.5,0,0,1,11,9.5Z" fill="#fff"/><rect x="7.098" y="2.573" width="5.45" height="1" rx="0.5" ry="0.5" transform="translate(5.05 -6.046) rotate(45)"/><circle cx="3.5" cy="8.5" r="0.5" fill="#fff"/><circle cx="5.5" cy="8.5" r="0.5" fill="#fff"/><circle cx="7.5" cy="8.5" r="0.5" fill="#fff"/><circle cx="6.5" cy="9.5" r="0.5" fill="#fff"/><circle cx="4.5" cy="9.5" r="0.5" fill="#fff"/><path d="M11.5,5h-8a.5.5,0,0,0-.5.5v1a.5.5,0,0,0,.5.5H9.293l.414-.414L10.121,7H11.5a.5.5,0,0,0,.5-.5v-1A.5.5,0,0,0,11.5,5Z" fill="#fff"/></svg>