<svg id="Icons" xmlns="http://www.w3.org/2000/svg" width="11" height="11" viewBox="0 0 11 11">
  <title>Mapbox-icons</title>
  <path d="M9,3.739A.738.738,0,0,0,8.262,3H2.738A.738.738,0,0,0,2,3.739V8.261A.738.738,0,0,0,2.738,9H8.262A.738.738,0,0,0,9,8.261ZM8,4.745C8,4.883,7.85,5,7.656,5H6.691L6.4,4.66,6.111,5H3.356C3.163,5,3,4.883,3,4.745v-.5C3,4.111,3.163,4,3.356,4h4.3C7.85,4,8,4.111,8,4.248Z"/>
  <path d="M7,6A1,1,0,1,0,8,7,1,1,0,0,0,7,6ZM7,7.5A.5.5,0,1,1,7.5,7,.5.5,0,0,1,7,7.5Z" fill="#fff"/>
  <path d="M3.75,6.5a.25.25,0,1,1-.25-.25A.25.25,0,0,1,3.75,6.5Z" fill="none" stroke="#fff" stroke-miterlimit="10" stroke-width="0.5"/>
  <path d="M4.5,7.5a.25.25,0,1,1-.25-.25A.25.25,0,0,1,4.5,7.5Z" fill="none" stroke="#fff" stroke-miterlimit="10" stroke-width="0.5"/>
  <path d="M5.25,6.5A.25.25,0,1,1,5,6.25.25.25,0,0,1,5.25,6.5Z" fill="none" stroke="#fff" stroke-miterlimit="10" stroke-width="0.5"/>
  <path d="M7.021,3.729,5.146,1.854a.5.5,0,0,1,0-.707h0a.5.5,0,0,1,.707,0L7.729,3.021a.5.5,0,0,1,0,.707h0A.5.5,0,0,1,7.021,3.729Z"/>
</svg>
