<svg id="Icons" xmlns="http://www.w3.org/2000/svg" width="15" height="15" viewBox="0 0 15 15">
  <title>Mapbox-icons</title>
  <path d="M13.707,8.793,12.646,9.854a.5.5,0,0,1-.707,0L10.075,7.989a.5.5,0,0,1,0-.707l.236-.236-.589-.589-.366.366A.833.833,0,0,1,8.177,5.645l.366-.366-.589-.589-.236.236a.5.5,0,0,1-.707,0L5.146,3.061a.5.5,0,0,1,0-.707L6.207,1.293a.5.5,0,0,1,.707,0L8.779,3.157a.5.5,0,0,1,0,.707L8.543,4.1l.589.589L9.5,4.323A.833.833,0,1,1,10.677,5.5l-.366.366.589.589.236-.236a.5.5,0,0,1,.707,0l1.864,1.864A.5.5,0,0,1,13.707,8.793Z"/>
  <path d="M9.731,9.988a3.325,3.325,0,0,1-5.045-4.33" fill="none" stroke="#000" stroke-linecap="round" stroke-linejoin="round" stroke-width="0.75"/>
  <path d="M8.435,8.94a1.662,1.662,0,0,1-2.5-2.185" fill="none" stroke="#000" stroke-linecap="round" stroke-linejoin="round" stroke-width="0.75"/>
  <path d="M10.968,11.1A4.987,4.987,0,0,1,3.435,4.563" fill="none" stroke="#000" stroke-linecap="round" stroke-linejoin="round" stroke-width="0.75"/>
</svg>
