<svg id="Icons" xmlns="http://www.w3.org/2000/svg" viewBox="0 0 15 15"><title>satellite-15</title><rect x="7.659" y="4.74" width="3.536" height="1.667" rx="0.833" ry="0.833" transform="translate(-1.18 8.298) rotate(-45)"/><rect x="5.713" y="1.291" width="2.5" height="3.637" rx="0.5" ry="0.5" transform="translate(-0.159 5.834) rotate(-45)"/><rect x="9.01" y="3.073" width="0.833" height="5" rx="0.417" ry="0.417" transform="translate(-1.18 8.298) rotate(-45)"/><rect x="10.641" y="6.219" width="2.5" height="3.637" rx="0.5" ry="0.5" transform="translate(-2.201 10.762) rotate(-45)"/><path d="M9.731,9.988a3.325,3.325,0,0,1-5.045-4.33" fill="none" stroke="#000" stroke-linecap="round" stroke-linejoin="round" stroke-width="0.75"/><path d="M8.435,8.94a1.662,1.662,0,0,1-2.5-2.185" fill="none" stroke="#000" stroke-linecap="round" stroke-linejoin="round" stroke-width="0.75"/><path d="M10.968,11.1A4.987,4.987,0,0,1,3.435,4.563" fill="none" stroke="#000" stroke-linecap="round" stroke-linejoin="round" stroke-width="0.75"/></svg>