<svg id="Icons" xmlns="http://www.w3.org/2000/svg" width="11" height="11" viewBox="0 0 11 11">
  <title>Mapbox-icons</title>
  <path d="M9.258,6.209,8.9,6.562a.5.5,0,0,1-.707,0l-.836-.836a.5.5,0,0,1,0-.707l-.354-.354-.22.22a.5.5,0,0,1-.707-.707l.22-.22-.354-.354a.5.5,0,0,1-.707,0L4.4,2.77a.5.5,0,0,1,0-.707l.354-.354a.5.5,0,0,1,.707,0l.836.836a.5.5,0,0,1,0,.707l.354.354.22-.22a.5.5,0,1,1,.707.707l-.22.22.354.354a.5.5,0,0,1,.707,0l.836.836A.5.5,0,0,1,9.258,6.209Z"/>
  <path d="M7.757,7.9a3.3,3.3,0,0,1-5.008-4.3" fill="none" stroke="#000" stroke-linecap="round" stroke-linejoin="round" stroke-width="0.75"/>
  <path d="M6.471,6.863A1.65,1.65,0,0,1,3.993,4.693" fill="none" stroke="#000" stroke-linecap="round" stroke-linejoin="round" stroke-width="0.75"/>
</svg>
