<svg id="Icons" xmlns="http://www.w3.org/2000/svg" viewBox="0 0 11 11"><title>Mapbox-icons</title><rect x="4.083" y="4.486" width="3.418" height="1.444" rx="0.611" ry="0.611" transform="translate(-1.986 5.621) rotate(-45)"/><rect x="2.448" y="1.497" width="2.417" height="3.151" rx="0.5" ry="0.5" transform="translate(-1.102 3.485) rotate(-45)"/><rect x="5.389" y="3.042" width="0.806" height="4.333" rx="0.306" ry="0.306" transform="translate(-1.986 5.621) rotate(-45)"/><rect x="6.719" y="5.768" width="2.417" height="3.151" rx="0.5" ry="0.5" transform="translate(-2.871 7.756) rotate(-45)"/><path d="M4.52,8.249a1.425,1.425,0,0,1-1.454-.315A1.425,1.425,0,0,1,2.751,6.48" fill="none" stroke="#000" stroke-linecap="round" stroke-linejoin="round" stroke-width="0.5"/><path d="M4.5,7.38a.687.687,0,0,1-.884-.885" fill="none" stroke="#000" stroke-linecap="round" stroke-linejoin="round" stroke-width="0.5"/></svg>