<svg id="Icons" xmlns="http://www.w3.org/2000/svg" width="15" height="15" viewBox="0 0 15 15">
  <title>Mapbox-icons</title>
  <path d="M13,5a1,1,0,0,0-1-1H3A1,1,0,0,0,2,5v5a1,1,0,0,0,1,1h9a1,1,0,0,0,1-1ZM10,9.5a.5.5,0,0,1-.5.5h-6A.5.5,0,0,1,3,9.5v-4A.5.5,0,0,1,3.5,5h6a.5.5,0,0,1,.5.5Z"/>
  <path d="M11.5,5a1,1,0,1,0,1,1A1,1,0,0,0,11.5,5Zm0,1.5A.5.5,0,1,1,12,6,.5.5,0,0,1,11.5,6.5Z" fill="#fff"/>
  <path d="M9.557,1.971,7.375,4,5.436,1.971" fill="none" stroke="#000" stroke-linecap="round" stroke-miterlimit="10"/>
  <path d="M11.5,8.381V9.632" fill="none" stroke="#fff" stroke-linecap="round" stroke-miterlimit="10"/>
</svg>
