<svg id="Icons" xmlns="http://www.w3.org/2000/svg" viewBox="0 0 15 15"><title>tv15</title><rect x="1.75" y="3.954" width="11.25" height="7.046" rx="1" ry="1"/><path d="M11.5,5a1,1,0,1,0,1,1A1,1,0,0,0,11.5,5Zm0,1.5A.5.5,0,1,1,12,6,.5.5,0,0,1,11.5,6.5Z" fill="#fff"/><rect x="4.202" y="2.927" width="5.45" height="1" rx="0.5" ry="0.5" transform="translate(4.452 -3.894) rotate(45)"/><rect x="5.348" y="2.927" width="5.45" height="1" rx="0.5" ry="0.5" transform="translate(16.205 0.141) rotate(135)"/><rect x="3" y="5" width="7" height="5" rx="0.5" ry="0.5" fill="#fff"/><rect x="11" y="8" width="1" height="2" rx="0.5" ry="0.5" fill="#fff"/></svg>