<?xml version="1.0" encoding="utf-8"?>
<!-- Generator: Adobe Illustrator 16.0.4, SVG Export Plug-In . SVG Version: 6.00 Build 0)  -->
<!DOCTYPE svg PUBLIC "-//W3C//DTD SVG 1.1//EN" "http://www.w3.org/Graphics/SVG/1.1/DTD/svg11.dtd">
<svg version="1.1" id="Layer_1" xmlns="http://www.w3.org/2000/svg" xmlns:xlink="http://www.w3.org/1999/xlink" x="0px" y="0px"
	 width="60px" height="60px" viewBox="0 0 60 60" enable-background="new 0 0 60 60" xml:space="preserve">
<path fill="#205493" d="M59,30c0,16.016-12.984,29-29,29l0,0C13.984,59,1,46.016,1,30l0,0C1,13.984,13.984,1,30,1l0,0
	C46.016,1,59,13.984,59,30L59,30z"/>
<path fill="#FFFFFF" d="M16.947,31.678l14.437,14.417c0.531,0.561,1.195,0.841,1.994,0.841c0.797,0,1.461-0.28,1.992-0.841
	l1.684-1.661c0.547-0.547,0.82-1.211,0.82-1.993c0-0.768-0.273-1.439-0.82-2.015L26.292,29.684l10.762-10.763
	c0.547-0.546,0.82-1.21,0.82-1.992c0-0.769-0.273-1.44-0.82-2.016l-1.684-1.661c-0.545-0.546-1.211-0.819-1.992-0.819
	c-0.783,0-1.447,0.273-1.994,0.819L16.947,27.669c-0.547,0.575-0.82,1.247-0.82,2.015C16.126,30.467,16.4,31.131,16.947,31.678z"/>
</svg>
