<?xml version="1.0" encoding="utf-8"?>
<!-- Generator: Adobe Illustrator 16.0.4, SVG Export Plug-In . SVG Version: 6.00 Build 0)  -->
<!DOCTYPE svg PUBLIC "-//W3C//DTD SVG 1.1//EN" "http://www.w3.org/Graphics/SVG/1.1/DTD/svg11.dtd">
<svg version="1.1" id="Layer_1" xmlns="http://www.w3.org/2000/svg" xmlns:xlink="http://www.w3.org/1999/xlink" x="0px" y="0px"
	 width="60px" height="60px" viewBox="0 0 60 60" enable-background="new 0 0 60 60" xml:space="preserve">
<path fill="#0071BC" d="M1,30C1,13.984,13.984,1,30,1l0,0c16.017,0,29,12.984,29,29l0,0c0,16.017-12.983,29-29,29l0,0
	C13.984,59,1,46.017,1,30L1,30z"/>
<path fill="#FFFFFF" d="M43.054,28.322L28.616,13.905c-0.531-0.561-1.195-0.841-1.994-0.841c-0.797,0-1.461,0.28-1.992,0.841
	l-1.684,1.661c-0.547,0.547-0.82,1.211-0.82,1.993c0,0.768,0.273,1.439,0.82,2.015l10.763,10.742L22.946,41.079
	c-0.547,0.546-0.82,1.21-0.82,1.992c0,0.769,0.273,1.44,0.82,2.016l1.684,1.661c0.545,0.546,1.211,0.819,1.992,0.819
	c0.783,0,1.447-0.273,1.994-0.819L43.054,32.33c0.547-0.574,0.82-1.246,0.82-2.014C43.874,29.533,43.601,28.869,43.054,28.322z"/>
</svg>
