<?xml version="1.0" encoding="utf-8"?>
<!-- Generator: Adobe Illustrator 20.1.0, SVG Export Plug-In . SVG Version: 6.00 Build 0)  -->
<svg version="1.1" id="Layer_1" xmlns="http://www.w3.org/2000/svg" xmlns:xlink="http://www.w3.org/1999/xlink" x="0px" y="0px"
	 viewBox="0 0 402 402" style="enable-background:new 0 0 402 402;" xml:space="preserve">
<path d="M304.4,31.4c-7.5,0-14,2.7-19.4,8.1l-84,84l-84-84c-5.4-5.4-11.8-8.1-19.4-8.1c-7.5,0-14,2.7-19.4,8.1L39.5,78.3
	c-5.4,5.4-8.1,11.8-8.1,19.4c0,7.5,2.7,14,8.1,19.4l84,84l-84,84c-5.4,5.4-8.1,11.8-8.1,19.4c0,7.5,2.7,14,8.1,19.4l38.8,38.8
	c5.4,5.4,11.8,8.1,19.4,8.1c7.5,0,14-2.7,19.4-8.1l84-84l84,84c5.4,5.4,11.8,8.1,19.4,8.1c7.5,0,14-2.7,19.4-8.1l38.8-38.8
	c5.4-5.4,8.1-11.8,8.1-19.4c0-7.5-2.7-14-8.1-19.4l-84-84l84-84c5.4-5.4,8.1-11.8,8.1-19.4c0-7.5-2.7-14-8.1-19.4l-38.8-38.8
	C318.4,34.1,311.9,31.4,304.4,31.4L304.4,31.4z"/>
</svg>
